<svg width="178" height="176" viewBox="0 0 178 176" fill="none" xmlns="http://www.w3.org/2000/svg">
<g filter="url(#filter0_dd_196_5080)">
<path d="M172.62 88.1291C171.764 85.1002 170.413 82.2886 168.713 79.6458C168.387 78.5236 167.591 77.7271 166.82 76.9066C165.939 75.9532 165.059 74.9999 164.167 74.0587C162.286 72.5503 160.634 70.6316 157.944 70.5592C157.8 70.5592 157.667 70.4506 157.522 70.3902C155.581 69.5817 153.591 68.9422 151.578 68.3509C147.188 67.0718 142.714 66.0822 138.53 64.1636C133.912 62.0518 130.535 58.8419 129.739 53.5806C129.281 50.5396 129.884 47.5952 130.728 44.6749C131.657 41.453 132.923 38.3276 133.683 35.0574C133.803 34.5505 134.032 34.0316 133.743 33.5007C132.26 32.3302 130.523 31.6182 128.823 30.8821C118.826 26.6344 108.372 23.8348 97.8926 21.1559C91.8272 19.6113 85.6773 18.477 79.4309 18.0426C77.4292 17.8977 75.4275 17.5237 73.4016 17.8253C72.8952 18.0184 72.6661 18.477 72.4008 18.8873C71.2914 20.6129 70.1337 22.3144 69.1932 24.1365C66.4076 29.4944 62.5007 33.7903 57.3155 36.9036C54.1561 38.9189 50.7918 40.548 47.4033 42.1167C45.8236 42.8528 44.0992 43.2993 42.6643 44.3612C42.411 44.8198 42.4834 45.3266 42.4834 45.8213C42.4472 48.3675 42.6884 50.9137 42.4834 53.4599C42.194 57.1645 41.3619 60.6761 39.2999 63.8377C37.3223 66.8666 34.6694 69.1956 31.7633 71.2591C28.0854 73.8656 24.1061 76.0015 20.3076 78.4029C15.7133 81.3111 11.5893 84.7141 8.82784 89.5048C8.46609 90.1323 8.01992 90.7235 8.03198 91.4958C8.50226 96.3107 9.97341 100.8 12.6022 104.866C16.1595 110.369 20.8261 114.52 27.2534 116.378C28.3507 116.692 29.4842 116.861 29.9666 118.128C30.063 118.394 30.3766 118.575 30.6539 118.707C31.4739 118.949 32.4024 118.985 32.8847 118.297C33.765 117.042 35.0432 117.199 36.2491 117.042C36.852 116.97 37.467 117.066 38.0699 116.934C38.6729 116.801 39.0346 116.994 39.3964 117.513C40.3852 118.925 42.4593 118.925 43.3275 117.416C43.8701 116.475 44.4972 116.246 45.4498 116.318C45.9804 116.366 46.523 116.354 47.0536 116.318C47.8615 116.258 48.3921 116.56 48.8624 117.235C49.7427 118.502 51.1897 118.816 52.4558 117.947C53.312 117.356 54.0355 117.404 54.8676 117.887C53.6135 119.094 53.3723 120.312 54.0958 121.652C54.6505 122.69 55.5428 123.112 56.6643 122.859C57.3516 122.702 57.9546 122.376 58.4369 121.869C59.0278 121.266 58.8228 120.457 58.871 119.637C63.7186 122.316 67.722 125.887 71.5928 129.604C72.8831 130.389 74.4869 130.726 75.2948 132.15C75.1622 132.126 74.9813 132.114 74.8125 132.247C74.6919 132.657 74.9572 132.911 75.2104 133.116C77.5377 135.119 79.6118 137.388 81.9632 139.367C82.5903 139.886 83.145 140.537 83.977 140.766L83.9891 140.778C84.0855 140.827 84.1579 140.911 84.2544 140.972C84.3146 141.008 84.387 141.044 84.4473 141.092C87.6067 143.578 90.9107 145.823 94.6368 147.367C94.9745 147.512 95.1915 147.741 95.3483 148.055C95.7583 148.815 96.4697 149.02 97.2053 148.767C97.7721 148.586 98.2423 148.695 98.7488 148.839C101.872 149.732 105.043 150.348 108.299 150.396C109.216 150.408 110.12 150.396 111.037 150.396C111.073 150.867 110.952 151.253 111.157 151.615C111.386 152.013 111.772 152.134 112.339 151.953C112.749 151.82 112.701 151.579 112.628 151.241C112.459 150.456 112.484 150.42 113.279 150.408C114.509 150.396 115.703 150.215 116.921 150.07C116.885 149.72 116.596 149.66 116.342 149.624C114.425 149.37 112.532 148.972 110.59 148.948C110.542 148.948 110.53 148.96 110.53 148.984C110.542 148.936 110.602 148.876 110.807 148.876C111.603 149.02 112.652 149.032 113.701 148.924C114.956 148.791 116.222 148.791 117.476 148.936C119.646 149.189 121.817 149.117 123.987 149.02C140.918 144.314 154.857 135.095 165.698 121.254C165.855 121.012 166.048 120.795 166.217 120.566C166.904 119.19 167.35 117.73 167.64 116.234C168.05 114.074 169.388 112.312 169.931 110.321C169.617 111.745 168.87 113.169 169.352 114.786C169.448 114.665 169.557 114.556 169.629 114.424C172.149 109.645 173.657 104.565 173.934 99.1465C174.127 95.4418 173.633 91.7493 172.62 88.1291Z" fill="#FF2E63"/>
<path d="M91.2966 18.8995C99.0985 20.3958 106.72 22.58 114.304 24.8728C120.768 26.8277 127.183 28.9032 133.188 32.0528C133.453 32.1976 133.743 32.3303 134.056 32.1372C134.249 29.4704 134.37 26.8035 133.743 24.1849C131.44 14.5673 125.507 7.97862 116.692 3.80335C114.341 2.69316 111.82 2.04153 109.312 1.4261C104.32 0.195244 99.2914 -0.480529 94.1544 0.400379C88.716 1.32956 84.2302 3.96023 80.5403 7.99068C78.1165 10.6455 76.1268 13.6382 74.1733 16.6308C74.4748 17.017 74.921 16.9687 75.331 16.9687C80.7091 17.1377 86.0149 17.8979 91.2966 18.8995Z" fill="#FF2E63"/>
<path d="M9.06914 87.4411C9.865 86.4154 10.6126 85.3655 11.4929 84.4122C14.4593 81.2265 17.9684 78.7647 21.6824 76.5444C25.7341 74.1189 29.8582 71.802 33.5602 68.8213C37.6842 65.5029 40.4577 61.3517 41.3138 56.0301C41.8444 52.6995 41.6635 49.3448 41.6635 45.9901C41.6635 45.604 41.5791 45.2299 41.2053 45.0006C40.8556 44.892 40.518 45.0127 40.2044 45.1333C35.381 47.1365 30.4732 48.9466 25.7703 51.2394C21.2845 53.4235 17.884 56.6696 15.2914 60.8328C14.6523 61.8465 13.8564 62.8239 13.7117 64.091C13.6876 64.1996 13.6755 64.3203 13.6273 64.4168C11.4929 68.7369 10.0821 73.2983 9.21384 78.0286C8.61091 81.3592 8.15268 84.7018 8.23709 88.1048C8.70738 88.1289 8.85208 87.7186 9.06914 87.4411Z" fill="#FF2E63"/>
<path d="M41.7841 35.2385C41.3259 38.0019 41.1209 40.7894 41.2174 43.6011C41.2415 44.0959 41.1933 44.5786 41.1812 45.0733C35.791 47.2454 30.3164 49.2486 25.1192 51.9034C20.7298 54.1479 17.5464 57.5629 15.0743 61.7382C14.6041 62.5225 14.1579 63.3069 13.6997 64.1034C13.157 62.8725 12.9761 61.5572 12.747 60.2539C12.5059 58.8903 12.5059 57.5267 12.542 56.1631C12.6144 53.3635 13.2294 50.6967 14.3267 48.1022C15.3517 45.6526 16.7867 43.4684 18.5472 41.5255C20.2234 39.6793 22.2854 38.2915 24.6127 37.3503C26.518 36.578 28.5317 36.216 30.5576 35.8901C33.8134 35.3713 37.0813 35.4799 40.3371 35.4557C40.8315 35.4437 41.338 35.5402 41.7841 35.2385Z" fill="#08D9D6"/>
<path d="M8.225 88.1173C9.78056 85.8004 11.5773 83.6766 13.6755 81.8423C16.0631 79.7547 18.7039 78.017 21.405 76.3638C24.3715 74.5658 27.3861 72.8643 30.2561 70.8974C32.8728 69.0993 35.3568 67.1565 37.3103 64.6103C39.6015 61.6297 40.8435 58.275 41.2053 54.5221C41.4826 51.6622 41.3138 48.8143 41.362 45.9544C41.362 45.6406 41.3258 45.351 41.1811 45.0735C40.8435 44.7597 40.8314 44.3374 40.8073 43.915C40.7109 41.6102 40.8917 39.3174 41.145 37.0246C41.2173 36.385 41.3741 35.7575 41.7841 35.2387C42.6523 31.172 44.5696 27.6846 47.6084 24.8367C50.008 22.5922 52.7815 20.951 55.8082 19.7081C59.7514 18.1032 63.8754 17.2343 68.108 16.8482C70.1218 16.6672 72.1476 16.7275 74.1614 16.643C76.9469 16.631 79.7204 16.8602 82.4818 17.1861C86.2924 17.6205 90.0788 18.2842 93.841 19.0927C100.919 20.6132 107.865 22.6163 114.799 24.6919C119.429 26.0796 124.024 27.6001 128.485 29.4946C130.379 30.3031 132.248 31.172 134.056 32.1494C135.069 32.7166 136.094 33.2838 137.107 33.8509C139.869 34.9973 142.063 36.9643 144.258 38.895C150.492 44.3977 155.087 51.1433 159.006 58.4078C161.984 63.9346 164.468 69.6544 166.47 75.6036C166.627 76.0863 166.988 76.569 166.663 77.124C165.831 76.2069 164.999 75.2898 164.167 74.3848C163.033 72.5988 162.527 70.5474 161.683 68.6287C158.306 61.0505 154.544 53.7136 149.335 47.1973C145.404 42.2618 140.809 38.0986 135.359 34.8887C134.78 34.5508 134.105 34.3095 133.719 33.682C130.801 32.0167 127.738 30.6652 124.59 29.4946C116.994 26.6588 109.192 24.4747 101.366 22.387C97.6154 21.3855 93.841 20.5166 90.0305 19.8046C86.8109 19.2133 83.5912 18.7307 80.3234 18.4531C78.3096 18.2842 76.3078 18.1997 74.2941 18.079C73.9202 18.0549 73.5344 18.1152 73.1605 18.1394C71.822 18.4893 70.4474 18.4772 69.0847 18.5617C63.0193 18.9599 57.2673 20.3718 52.0701 23.6179C47.7169 26.333 44.7505 30.1101 43.629 35.2025C43.1226 37.6521 43.0623 40.1379 43.0985 42.6359C43.1105 43.2272 43.1949 43.8547 42.7608 44.3736C42.7849 46.2802 42.7488 48.1747 42.8935 50.0814C43.002 51.5174 42.8573 52.9775 42.7005 54.4135C42.4955 56.3443 42.1097 58.2388 41.4706 60.0851C40.6023 62.583 39.2156 64.7431 37.4671 66.698C34.8021 69.6906 31.5101 71.911 28.1337 73.9986C25.0226 75.9173 21.815 77.7033 18.7883 79.7547C15.2913 82.1199 12.132 84.8471 9.80467 88.4431C9.18968 89.3964 8.55058 90.3497 8.17676 91.4479C7.89941 93.1493 7.01914 94.6578 6.63326 96.3351C4.98123 103.431 5.66857 110.104 10.0941 116.125C11.1794 117.598 12.5661 118.708 14.1458 119.589C19.741 122.678 25.8426 124.078 32.1131 124.91C34.7177 125.309 37.3103 125.743 39.9391 125.864C41.2776 126.153 42.6523 125.984 44.0029 126.165C45.9684 126.25 47.9219 126.334 49.8874 126.491C51.0812 126.455 52.2751 126.455 53.4568 126.491C55.8806 126.395 58.2923 126.6 60.692 126.95C60.9572 126.938 61.2225 126.986 61.4758 127.034C62.5731 127.3 63.7187 127.3 64.8039 127.601C66.0701 127.831 67.3362 128.144 68.5903 128.41C69.6756 128.796 70.8815 128.856 71.8341 129.617C71.8944 129.653 71.9547 129.725 72.027 129.737C73.8358 130.027 74.9452 131.318 76.1631 132.633C75.6084 132.754 75.2708 132.308 74.8488 132.32C74.4026 132.525 74.0408 132.259 73.655 132.127C71.8944 131.511 70.1218 130.944 68.313 130.497C66.9504 130.123 65.5636 129.81 64.1648 129.58C62.1993 129.182 60.1976 129.013 58.2199 128.748C57.195 128.748 56.17 128.832 55.1571 128.555C53.1312 128.53 51.1174 128.615 49.1036 128.531C43.9787 128.313 38.8418 128.096 33.753 127.312C32.7401 127.046 31.6066 127.251 30.6781 126.588C28.4834 126.117 26.2647 125.779 24.082 125.212C21.0915 124.44 18.1733 123.474 15.3396 122.219C10.6247 120.12 7.39295 116.62 5.65651 111.805C2.78657 103.853 3.7392 96.2265 7.79089 88.9017C7.95971 88.6483 8.09235 88.3828 8.225 88.1173Z" fill="#252A34"/>
<path d="M166.663 77.1361C165.794 74.0951 164.625 71.1628 163.395 68.2546C160.923 62.4261 158.065 56.7907 154.58 51.4932C152.277 47.9816 149.708 44.6752 146.778 41.6704C144.053 38.8829 141.05 36.4212 137.758 34.3336C137.541 34.1888 137.336 34.0198 137.119 33.875C140.146 34.4784 143.064 35.4437 145.934 36.5781C150.058 38.2071 153.893 40.3672 157.462 43.022C160.537 45.3147 162.925 48.1747 164.721 51.5414C166.325 54.5462 167.579 57.6837 168.315 61.0142C168.725 62.8605 168.99 64.7309 169.207 66.6255C169.448 68.6407 169.376 70.6559 169.376 72.6712C169.376 74.6019 169.099 76.5206 168.785 78.4272C168.713 78.8375 168.737 79.2599 168.713 79.6823C168.001 78.8255 167.459 77.8722 166.663 77.1361Z" fill="#08D9D6"/>
<path d="M58.2925 128.494C60.2942 128.675 62.308 128.832 64.2615 129.363C64.7077 129.81 64.7438 130.51 65.3588 130.872C66.3476 131.451 67.0229 131.439 67.867 130.654C68.0358 130.498 68.1926 130.341 68.4096 130.28C70.6284 130.751 72.7628 131.475 74.861 132.344C76.0789 133.539 77.2848 134.757 78.5389 135.916C80.3235 137.569 82.1444 139.186 83.9532 140.803C83.3623 140.984 82.7714 141.02 82.1565 141.02C79.6 141.008 77.0557 140.972 74.4992 141.032C72.4372 141.081 70.4114 140.707 68.3614 140.755C68.2529 140.345 68.5061 140.031 68.6267 139.681C68.8679 138.981 68.6267 138.402 68.1082 137.967C67.6138 137.545 67.035 137.424 66.432 137.762C65.805 138.112 65.5276 138.643 65.5638 139.355C65.5759 139.765 65.8653 140.139 65.6724 140.562C64.4906 140.586 63.333 140.345 62.1754 140.2C61.4277 140.103 60.656 140.176 59.9204 139.91C59.3416 139.705 59.2933 140.308 59.0281 140.586C58.7145 140.357 58.7507 139.983 58.6422 139.669C58.2563 138.414 57.7016 138.172 56.5319 138.728C56.1943 138.884 55.929 139.198 55.5311 139.222C52.9867 138.619 50.4182 138.064 47.9462 137.171C46.6559 136.712 45.3898 136.193 44.196 135.602C43.7378 135.771 44.0392 136.302 43.6895 136.459C43.5931 136.399 43.4845 136.302 43.4845 136.205C43.5086 134.926 42.761 134.456 41.6154 134.407C40.7231 133.804 39.8308 133.201 38.9264 132.609C38.6973 132.465 38.4802 132.332 38.3958 132.054C38.2993 131.885 38.3234 131.692 38.2993 131.511C38.0943 130.015 37.8773 129.858 36.4423 130.148C36.2494 130.184 36.0685 130.208 35.9238 130.051C34.9109 129.387 34.2476 128.434 33.5844 127.456C33.4759 127.324 33.4638 127.191 33.6085 127.07C35.5379 127.251 37.4552 127.432 39.3846 127.601C40.8919 127.734 42.4113 127.867 43.9186 127.963C47.5242 128.181 51.1297 128.253 54.7352 128.253C54.9281 128.253 55.109 128.289 55.302 128.313C55.4105 128.736 55.0487 129.013 54.9643 129.363C54.7593 130.208 54.9281 130.968 55.6275 131.511C56.2787 132.018 57.0143 131.861 57.6534 131.463C58.3407 131.041 58.5939 130.413 58.3769 129.604C58.2804 129.23 58.0634 128.868 58.2925 128.494Z" fill="#08D9D6"/>
<path d="M165.963 120.578C166.627 119.033 167.121 117.428 167.459 115.799C167.881 113.712 169.171 112.01 169.943 110.079C170.039 111.708 169.4 113.229 169.352 114.834C168.749 116.765 168.194 118.695 167.543 120.602C165.18 127.517 161.514 133.647 156.437 138.92C153.229 142.239 149.359 144.543 145.114 146.257C140.749 148.019 136.227 149.165 131.572 149.829C131.391 149.962 131.198 150.058 130.969 149.95C129.462 150.058 127.955 150.143 126.447 150.263C124.253 150.432 122.07 150.432 119.875 150.263C118.899 150.191 117.91 150.155 116.921 150.106C115.173 149.829 113.412 149.551 111.664 149.262C111.145 149.177 110.639 149.057 110.132 148.888C112.881 148.876 115.583 148.32 118.356 148.731C120.261 149.008 122.227 148.912 124.156 148.815C128.304 148.381 132.489 148.127 136.552 147.114C142.136 145.714 147.538 143.892 152.156 140.32C156.28 137.122 159.367 133.043 162.008 128.566C163.407 126.189 164.384 123.631 165.614 121.181C165.722 120.976 165.855 120.783 165.963 120.578Z" fill="#252A34"/>
<path d="M65.6842 140.549C65.5395 140.199 65.3586 139.849 65.2742 139.487C65.0571 138.619 65.6118 137.738 66.5644 137.364C67.288 137.074 68.2768 137.484 68.7229 138.148C69.3862 139.15 68.9159 139.946 68.3732 140.755C67.4327 141.117 66.5283 141.141 65.6842 140.549Z" fill="#FF2E63"/>
<path d="M83.9409 143.337C83.953 144.387 83.121 145.171 82.0236 145.159C81.0107 145.147 80.2751 144.387 80.2631 143.325C80.251 142.275 81.071 141.466 82.1322 141.478C83.0968 141.503 83.9409 142.371 83.9409 143.337Z" fill="#FF2E63"/>
<path d="M74.2579 143.759C74.27 144.689 73.3897 145.569 72.425 145.594C71.4482 145.618 70.4956 144.689 70.5077 143.711C70.5197 142.709 71.2915 141.985 72.3406 141.901C73.2329 141.829 74.1614 142.601 74.2579 143.759Z" fill="#FF2E63"/>
<path d="M55.543 139.198C55.9409 138.438 56.7006 138.281 57.4241 138.1C58.0512 137.943 58.4129 138.341 58.6782 138.824C58.9797 139.367 59.04 139.958 59.04 140.574C58.3647 141.322 57.4723 141.804 56.5438 141.43C55.6636 141.08 55.6033 140.067 55.543 139.198Z" fill="#FF2E63"/>
<path d="M86.811 146.1C87.5827 146.064 88.6439 146.861 88.7042 147.5C88.7765 148.309 87.9565 149.419 87.2571 149.455C86.413 149.503 85.4001 148.683 85.376 147.947C85.376 147.126 86.1357 146.137 86.811 146.1Z" fill="#FF2E63"/>
<path d="M60.8969 144.447C61.0295 143.421 61.741 142.733 62.5851 142.818C63.5618 142.914 64.3095 143.638 64.2009 144.375C64.0321 145.461 63.3327 146.148 62.5248 146.028C61.5601 145.895 60.8125 145.171 60.8969 144.447Z" fill="#FF2E63"/>
<path d="M77.152 149.974C76.2596 149.95 75.7049 149.334 75.717 148.417C75.729 147.464 76.344 146.909 77.3449 146.957C78.2252 147.005 78.7678 147.621 78.7316 148.562C78.6955 149.443 78.0805 149.998 77.152 149.974Z" fill="#FF2E63"/>
<path d="M66.0342 148.743C66.0101 147.946 66.5889 147.44 67.5536 147.415C68.4459 147.379 69.085 148.067 69.0609 149.02C69.0488 149.696 68.3012 150.312 67.4571 150.36C66.7095 150.408 66.0462 149.66 66.0342 148.743Z" fill="#FF2E63"/>
<path d="M35.9236 130.039C36.3095 129.894 36.6953 129.725 37.0812 129.616C37.5636 129.484 37.9856 129.616 38.2027 130.123C38.4679 130.739 38.8418 131.354 38.4077 132.042C38.2027 132.126 37.9856 132.199 37.7806 132.295C36.4421 132.923 35.9718 132.319 35.6824 131.004C35.598 130.642 35.7306 130.328 35.9236 130.039Z" fill="#FF2E63"/>
<path d="M46.1736 140.006C46.1856 139.331 46.9092 138.763 47.7894 138.751C48.4406 138.739 49.14 139.668 49.0918 140.489C49.0556 141.08 48.1753 141.696 47.3674 141.696C46.7403 141.684 46.1736 140.887 46.1736 140.006Z" fill="#FF2E63"/>
<path d="M41.6273 134.395C41.772 134.359 41.9167 134.323 42.0734 134.299C43.0743 134.069 43.5808 134.407 43.6893 135.433C43.7255 135.771 43.7014 136.109 43.7014 136.459C43.4722 136.591 43.2673 136.76 43.0261 136.857C42.0252 137.267 41.6273 137.183 41.2535 136.543C40.7349 135.626 40.8314 135.059 41.6273 134.395Z" fill="#FF2E63"/>
<path d="M54.1562 144.785C54.1804 145.316 53.4327 146.45 53.0107 146.486C52.456 146.535 51.3587 145.799 51.3225 145.352C51.2742 144.737 51.9616 143.699 52.4439 143.675C53.0227 143.638 54.1442 144.363 54.1562 144.785Z" fill="#FF2E63"/>
<path d="M103.211 151.965C103.198 152.665 102.704 153.172 101.993 153.184C101.329 153.196 100.739 152.653 100.726 152.001C100.714 151.313 101.354 150.662 102.017 150.686C102.668 150.722 103.223 151.301 103.211 151.965Z" fill="#FF2E63"/>
<path d="M92.2733 151.108C92.9124 151.084 93.5033 151.651 93.5516 152.303C93.5877 152.942 93.0451 153.558 92.3819 153.606C91.7066 153.654 91.0675 153.051 91.0554 152.351C91.0554 151.724 91.6222 151.132 92.2733 151.108Z" fill="#FF2E63"/>
<path d="M82.4095 154.27C81.7704 154.258 81.2157 153.666 81.2277 153.003C81.2398 152.351 81.8065 151.796 82.4698 151.784C83.133 151.784 83.7239 152.351 83.7118 152.99C83.7118 153.69 83.1209 154.282 82.4095 154.27Z" fill="#FF2E63"/>
<path d="M56.4834 149.515C56.4834 148.767 56.9175 148.333 57.6772 148.32C58.3887 148.308 59.0036 148.912 58.9795 149.6C58.9554 150.215 58.3284 150.782 57.6772 150.77C57.0019 150.758 56.4834 150.203 56.4834 149.515Z" fill="#FF2E63"/>
<path d="M72.8108 152.218C73.4861 152.23 74.0528 152.797 74.0287 153.437C74.0046 154.101 73.4499 154.596 72.7385 154.596C71.9667 154.596 71.5688 154.185 71.5808 153.389C71.6049 152.629 72.0511 152.206 72.8108 152.218Z" fill="#FF2E63"/>
<path d="M78.9006 158.192C78.8765 158.723 78.37 159.29 77.9359 159.278C77.3451 159.254 76.8627 158.795 76.8989 158.3C76.9471 157.721 77.4053 157.25 77.9118 157.287C78.4303 157.335 78.9127 157.781 78.9006 158.192Z" fill="#FF2E63"/>
<path d="M87.6793 156.611C88.234 156.623 88.7526 157.117 88.7164 157.588C88.6681 158.131 88.1496 158.65 87.6914 158.602C87.1608 158.553 86.7267 158.131 86.7388 157.673C86.7388 157.105 87.197 156.598 87.6793 156.611Z" fill="#FF2E63"/>
<path d="M38.8057 140.815C38.7937 141.334 38.2752 141.913 37.829 141.889C37.2743 141.877 36.7799 141.382 36.8161 140.887C36.8523 140.356 37.2622 139.886 37.7084 139.886C38.239 139.874 38.8057 140.356 38.8057 140.815Z" fill="#FF2E63"/>
<path d="M44.039 145.364C44.0752 145.871 43.5567 146.486 43.0864 146.474C42.592 146.474 42.0855 146.028 42.0614 145.581C42.0373 145.05 42.4111 144.531 42.8573 144.483C43.3637 144.411 44.0028 144.906 44.039 145.364Z" fill="#FF2E63"/>
<path d="M63.9358 153.992C63.9599 154.547 63.4897 155.102 63.0194 155.09C62.537 155.078 62.0185 154.632 61.9944 154.221C61.9703 153.654 62.3923 153.147 62.9108 153.147C63.4294 153.147 63.9117 153.534 63.9358 153.992Z" fill="#FF2E63"/>
<path d="M33.6083 127.058C33.5962 127.191 33.5962 127.324 33.5842 127.444C33.2465 127.601 32.9089 127.794 32.5592 127.915C31.6668 128.229 31.3171 128.072 30.9313 127.239C30.8348 127.034 30.7866 126.817 30.7021 126.6C31.6789 126.684 32.6677 126.769 33.6083 127.058Z" fill="#FF2E63"/>
<path d="M27.4706 130.69C27.9409 130.678 28.3147 131.064 28.2906 131.547C28.2665 132.114 27.7842 132.162 27.3983 132.259C26.9762 132.356 26.5421 131.825 26.5301 131.269C26.518 130.919 26.8798 130.702 27.4706 130.69Z" fill="#FF2E63"/>
<path d="M47.8012 150.734C47.4877 150.71 47.126 150.191 47.1501 149.793C47.1742 149.455 47.7771 149.045 48.1871 149.093C48.5127 149.129 48.9468 149.757 48.9227 150.143C48.8986 150.396 48.2233 150.758 47.8012 150.734Z" fill="#FF2E63"/>
<path d="M68.3734 157.805C68.6869 157.83 69.0607 158.445 69.0125 158.867C68.9884 159.181 68.3734 159.591 67.9754 159.555C67.674 159.531 67.3484 158.952 67.3484 158.481C67.3604 158.143 67.9272 157.769 68.3734 157.805Z" fill="#FF2E63"/>
<path d="M32.1371 137.231C31.6186 136.108 31.6307 135.819 32.1733 135.577C32.7159 135.336 33.1259 135.529 33.3068 136.12C33.4998 136.748 33.2827 136.953 32.1371 137.231Z" fill="#FF2E63"/>
<path d="M97.5191 157.986C96.9524 158.023 96.663 157.757 96.5906 157.178C96.5424 156.743 96.9162 156.393 97.4588 156.381C97.8447 156.369 98.2426 156.864 98.2547 157.443C98.2909 158.01 97.7723 157.866 97.5191 157.986Z" fill="#FF2E63"/>
<path d="M53.2881 155.187C52.866 155.151 52.5404 154.813 52.6007 154.451C52.6731 154.089 52.8419 153.787 53.2639 153.835C53.6136 153.871 53.9392 153.992 53.9513 154.426C53.9754 154.813 53.5895 155.211 53.2881 155.187Z" fill="#FF2E63"/>
<path d="M22.5507 127.722C22.1527 127.71 21.6945 127.312 21.7669 127.022C21.8513 126.696 21.9478 126.346 22.406 126.346C22.816 126.359 23.2018 126.696 23.1295 127.034C23.0571 127.36 22.9486 127.698 22.5507 127.722Z" fill="#FF2E63"/>
<path d="M58.9566 159.386C58.86 159.784 58.5704 159.978 58.2325 159.99C57.8222 160.002 57.8463 159.579 57.7981 159.314C57.7377 158.94 58.0274 158.747 58.329 158.735C58.7514 158.71 58.8721 159.06 58.9566 159.386Z" fill="#FF2E63"/>
<path d="M107.758 156.623C107.77 157.058 107.432 157.154 107.142 157.19C106.72 157.251 106.684 156.876 106.66 156.575C106.623 156.177 106.949 156.032 107.239 156.008C107.649 155.971 107.649 156.382 107.758 156.623Z" fill="#FF2E63"/>
<path d="M93.0335 161.643C93.4076 161.679 93.5766 161.92 93.5886 162.246C93.6007 162.644 93.2869 162.753 92.9732 162.741C92.587 162.729 92.4905 162.415 92.4905 162.101C92.4905 161.776 92.7439 161.691 93.0335 161.643Z" fill="#FF2E63"/>
<path d="M83.1575 162.319C83.5437 162.355 83.7126 162.596 83.7367 162.91C83.7609 163.296 83.4351 163.393 83.1334 163.429C82.7593 163.465 82.6024 163.2 82.5903 162.874C82.5903 162.5 82.8679 162.379 83.1575 162.319Z" fill="#FF2E63"/>
<path d="M74.0054 163.345C73.9571 163.55 73.8606 163.694 73.6313 163.682C73.3055 163.658 73.0279 163.513 73.0038 163.164C72.9797 162.886 73.2331 162.814 73.4624 162.789C73.8727 162.741 73.933 163.055 74.0054 163.345Z" fill="#FF2E63"/>
<path d="M130.958 149.949C131.151 149.853 131.332 149.732 131.561 149.829C131.573 149.865 131.585 149.901 131.585 149.937C131.597 150.239 131.682 150.613 131.223 150.589C130.849 150.565 130.97 150.203 130.958 149.949Z" fill="#FF2E63"/>
<path d="M38.4083 150.541C38.3721 150.758 38.2393 150.842 38.0945 150.794C37.9014 150.746 37.7687 150.601 37.8411 150.384C37.8652 150.311 38.01 150.227 38.0945 150.227C38.2997 150.239 38.4203 150.36 38.4083 150.541Z" fill="#FF2E63"/>
<path d="M117.283 156.225C117.259 156.394 117.151 156.502 116.994 156.502C116.813 156.502 116.74 156.37 116.728 156.213C116.716 156.044 116.813 155.923 116.982 155.935C117.139 155.947 117.235 156.068 117.283 156.225Z" fill="#FF2E63"/>
<path d="M33.5364 146.184C33.5484 146.353 33.464 146.438 33.3433 146.438C33.114 146.45 33.0054 146.305 32.9813 146.1C32.9571 145.967 33.0537 145.883 33.1743 145.871C33.4036 145.859 33.476 146.028 33.5364 146.184Z" fill="#FF2E63"/>
<path d="M102.898 161.787C102.922 161.969 102.837 162.077 102.656 162.089C102.499 162.101 102.354 162.065 102.354 161.86C102.354 161.703 102.427 161.558 102.596 161.534C102.765 161.51 102.861 161.631 102.898 161.787Z" fill="#FF2E63"/>
<path d="M98.1224 166.916C98.1224 167.085 98.05 167.206 97.8811 167.218C97.7242 167.23 97.6035 167.133 97.5673 166.964C97.5311 166.796 97.6156 166.675 97.7966 166.675C97.9535 166.675 98.0741 166.747 98.1224 166.916Z" fill="#FF2E63"/>
<path d="M28.315 141.261C28.327 141.454 28.2667 141.563 28.1098 141.611C27.965 141.659 27.9288 141.539 27.8926 141.442C27.8323 141.285 27.8805 141.129 28.0253 141.08C28.1581 141.032 28.2908 141.129 28.315 141.261Z" fill="#FF2E63"/>
<path d="M23.0453 136.688C23.0091 136.869 22.8764 136.917 22.7316 136.893C22.5626 136.869 22.4782 136.736 22.5144 136.591C22.5264 136.531 22.6833 136.458 22.7799 136.458C22.9126 136.458 23.0453 136.507 23.0453 136.688Z" fill="#FF2E63"/>
<path d="M112.786 161.232C112.749 161.353 112.653 161.401 112.544 161.389C112.387 161.365 112.267 161.257 112.267 161.1C112.267 160.919 112.399 160.834 112.568 160.895C112.713 160.931 112.798 161.051 112.786 161.232Z" fill="#FF2E63"/>
<path d="M43.6535 155.247C43.6053 155.392 43.5087 155.513 43.3518 155.501C43.2915 155.489 43.207 155.344 43.207 155.259C43.207 155.102 43.3156 154.994 43.4846 155.018C43.5932 155.03 43.6535 155.127 43.6535 155.247Z" fill="#FF2E63"/>
<path d="M121.841 150.951C121.829 151.072 121.745 151.108 121.624 151.12C121.467 151.12 121.334 151.072 121.334 150.879C121.334 150.758 121.395 150.662 121.528 150.674C121.697 150.698 121.805 150.77 121.841 150.951Z" fill="#FF2E63"/>
<path d="M17.7879 132.102C17.7638 132.223 17.7035 132.295 17.5828 132.295C17.4138 132.295 17.3052 132.211 17.2932 132.042C17.2811 131.909 17.3897 131.873 17.4983 131.873C17.6431 131.885 17.7759 131.909 17.7879 132.102Z" fill="#FF2E63"/>
<path d="M83.9653 140.815C84.0981 140.827 84.1705 140.899 84.2308 141.008C84.1463 140.948 84.0498 140.887 83.9653 140.815Z" fill="#08D9D6"/>
<path d="M133.707 33.6819C137.156 35.4437 140.279 37.6761 143.161 40.2465C148.515 45.013 152.663 50.7329 156.184 56.9355C159.223 62.2813 161.803 67.8443 163.938 73.6124C164.034 73.8658 164.083 74.1192 164.143 74.3847C162.949 73.4435 161.816 72.4298 160.513 71.6213C159.91 71.2472 159.356 70.7404 158.524 71.03C158.319 71.1024 158.005 70.9335 157.764 70.8249C154.436 69.3768 150.927 68.4959 147.454 67.5184C144.415 66.6617 141.364 65.8169 138.494 64.4896C135.13 62.9449 132.248 60.8332 130.572 57.4061C129.245 54.7151 129.028 51.8552 129.45 48.9349C129.957 45.375 131.235 42.0204 132.332 38.6174C132.863 37.0004 133.321 35.3472 133.707 33.6819Z" fill="#08D9D6"/>
<path d="M31.9924 125.2C31.8236 124.162 31.2689 123.245 31.0157 122.219C30.7021 121 30.5815 119.794 30.6539 118.551C30.9915 118.563 31.3412 118.599 31.6789 118.587C32.2456 118.575 32.8244 118.345 32.9933 117.826C33.2827 116.958 33.8856 117.03 34.585 116.921C35.8753 116.728 37.1776 116.885 38.4437 116.571C38.9623 116.439 39.3481 116.596 39.4928 117.151C39.722 118.02 40.4575 118.309 41.1569 118.285C42.0131 118.249 43.026 118.032 43.2551 117.018C43.4722 116.101 43.9786 116.016 44.7263 116.04C45.7151 116.065 46.7039 116.065 47.7048 116.053C48.1992 116.04 48.5127 116.185 48.79 116.668C49.8391 118.502 51.1414 118.707 52.8176 117.344C53.1191 117.102 53.3602 117.006 53.734 117.151C54.3611 117.404 55.0123 117.585 55.8202 117.863C55.0605 118.37 54.1802 118.551 53.9993 119.407C53.8546 120.119 53.927 120.843 54.2767 121.519C54.8676 122.641 55.6755 122.991 56.9537 122.485C58.7625 121.773 58.7384 121.326 58.4369 119.178C59.2207 119.444 59.8839 119.89 60.5351 120.288C63.5256 122.135 66.2629 124.331 68.8555 126.684C69.6152 127.372 70.387 128.06 71.1346 128.76C71.412 129.013 71.7375 129.242 71.8581 129.629C70.7608 129.375 69.6755 129.086 68.6264 128.687C67.5411 127.432 66.2991 126.962 64.7677 127.867C63.6824 127.637 62.573 127.625 61.5118 127.275C61.753 126.95 62.1509 126.877 62.4645 126.684C63.6221 125.948 63.8753 124.693 63.0674 123.571C62.3801 122.629 61.1983 122.545 60.1854 123.39C59.3051 124.114 59.3051 125.477 60.1372 126.419C60.3783 126.684 60.8486 126.756 60.8366 127.239C58.4007 127.01 55.9769 126.781 53.5291 126.781C53.2155 126.394 53.4688 125.972 53.4446 125.574C53.3964 124.56 52.6608 123.74 51.7806 123.728C50.7435 123.715 49.9477 124.536 49.9235 125.622C49.9235 125.984 50.1285 126.37 49.8391 126.72C47.8374 126.66 45.8236 126.684 43.8219 126.419C43.7978 126.394 43.7616 126.37 43.7495 126.334C43.4601 125.465 43.1466 124.536 42.0613 124.439C40.9881 124.343 40.6264 125.236 40.2043 125.996C40.1681 126.057 40.1078 126.105 40.0355 126.153C37.6238 126.105 35.2362 125.779 32.8606 125.357C32.5833 125.296 32.2818 125.248 31.9924 125.2Z" fill="#08D9D6"/>
<path d="M43.4122 34.9729C43.593 35.6608 44.2201 35.6728 44.7024 35.6487C46.1253 35.5763 47.5121 35.8418 48.9109 35.9383C50.3097 36.0349 51.6843 36.3245 53.0711 36.4813C54.5422 36.6503 55.9772 37.0365 57.4604 37.0968C56.5801 37.845 55.5431 38.3397 54.5543 38.8828C50.7558 40.9825 46.8127 42.8048 42.7731 44.3856C42.6283 41.4049 42.6645 38.4484 43.2192 35.5039C43.2554 35.3108 43.2795 35.1177 43.4122 34.9729Z" fill="#08D9D6"/>
<path d="M165.771 121.097C165.687 121.097 165.602 121.097 165.518 121.097C165.578 120.856 165.759 120.699 165.964 120.578C165.976 120.783 165.964 120.976 165.771 121.097Z" fill="#FF2E63"/>
<path d="M60.8367 127.251C59.4862 126.576 58.8953 125.345 59.2691 123.969C59.4379 123.341 60.8126 122.46 61.5602 122.509C63.2123 122.617 64.3699 124.367 63.6946 125.876C63.2967 126.757 62.4888 127.215 61.512 127.3C61.2829 127.275 61.0538 127.263 60.8367 127.251Z" fill="#FF2E63"/>
<path d="M58.2923 128.494C58.4129 128.844 58.5697 129.194 58.6661 129.556C58.9797 130.678 58.425 131.595 57.2312 131.969C56.0856 132.319 55.145 131.897 54.735 130.847C54.3492 129.87 54.4939 129.001 55.2897 128.289C56.3027 128.361 57.2915 128.422 58.2923 128.494Z" fill="#FF2E63"/>
<path d="M49.8391 126.72C49.7788 126.539 49.7185 126.358 49.6703 126.177C49.4774 125.26 49.5497 124.44 50.4179 123.86C51.1897 123.341 52.1182 123.257 52.7814 123.728C53.6014 124.319 53.8788 125.152 53.71 126.141C53.6738 126.358 53.5773 126.576 53.517 126.793C52.2991 126.793 51.0691 126.877 49.8391 126.72Z" fill="#FF2E63"/>
<path d="M40.0596 126.141C40.0716 126.033 40.0716 125.912 40.0957 125.803C40.4334 124.609 41.2172 123.969 42.1578 124.09C43.2189 124.234 43.8701 125.14 43.8218 126.407C42.5678 126.334 41.3016 126.503 40.0596 126.141Z" fill="#FF2E63"/>
<path d="M68.4095 130.28C67.7463 131.402 67.1674 131.752 66.2751 131.571C64.9969 131.306 64.3578 130.606 64.2493 129.363C65.6842 129.484 67.0589 129.822 68.4095 130.28Z" fill="#FF2E63"/>
<path d="M64.7676 127.879C66.1181 126.563 67.9269 126.949 68.6263 128.687C67.3119 128.53 66.0578 128.144 64.7676 127.879Z" fill="#FF2E63"/>
<path d="M71.6534 136C70.4475 136.024 69.5552 135.083 69.5552 133.804C69.5552 132.657 70.5681 131.74 71.8343 131.728C72.9195 131.716 73.8721 132.766 73.9204 134.033C73.9566 135.035 72.8592 135.976 71.6534 136Z" fill="#FF2E63"/>
<path d="M63.8636 134.636C63.8757 135.758 63.0798 136.615 61.9946 136.652C60.8369 136.688 59.9084 135.722 59.8964 134.455C59.8843 133.357 60.7405 132.585 61.9825 132.561C63.1281 132.536 63.8516 133.345 63.8636 134.636Z" fill="#FF2E63"/>
<path d="M76.7421 136.881C77.8756 136.881 78.7317 137.629 78.7197 138.631C78.7076 139.777 77.8756 140.719 76.8627 140.707C75.898 140.694 74.8006 139.705 74.8368 138.884C74.8971 137.678 75.6447 136.881 76.7421 136.881Z" fill="#FF2E63"/>
<path d="M53.9511 135.228C53.9753 136.109 53.0588 137.05 52.1303 137.098C51.1294 137.147 50.2371 136.29 50.213 135.252C50.1889 134.202 50.9244 133.454 51.9856 133.43C53.107 133.43 53.927 134.166 53.9511 135.228Z" fill="#FF2E63"/>
<path d="M48.7297 130.389C48.7297 131.439 47.9941 132.235 46.9932 132.259C45.9803 132.283 45.0518 131.33 45.0759 130.268C45.1 129.351 46.0165 128.53 46.9932 128.542C48.0303 128.567 48.7297 129.303 48.7297 130.389Z" fill="#FF2E63"/>
<path d="M26.976 122.955C26.2284 122.943 25.8063 122.485 25.8184 121.724C25.8304 121.025 26.3489 120.53 27.0483 120.53C27.7236 120.53 28.2783 121.073 28.3024 121.737C28.3266 122.461 27.7598 122.967 26.976 122.955Z" fill="#FF2E63"/>
<path d="M21.8512 115.956C22.5265 115.981 23.045 116.524 23.045 117.211C23.033 117.936 22.4783 118.418 21.6824 118.37C20.9951 118.334 20.5368 117.803 20.561 117.079C20.5851 116.427 21.1518 115.932 21.8512 115.956Z" fill="#FF2E63"/>
<path d="M16.4367 111.66C16.9673 111.636 17.4738 111.998 17.5341 112.444C17.5944 112.963 17.1482 113.531 16.6538 113.567C16.1112 113.603 15.6168 113.241 15.5685 112.782C15.4962 112.251 15.9423 111.684 16.4367 111.66Z" fill="#FF2E63"/>
<path d="M11.3965 107.437C11.8789 107.461 12.3371 107.859 12.2527 108.137C12.1442 108.475 12.0718 108.957 11.5653 108.873C11.2036 108.812 10.8298 108.631 10.9021 108.125C10.9624 107.763 11.0951 107.473 11.3965 107.437Z" fill="#FF2E63"/>
<path d="M6.71818 103.394C6.62164 103.503 6.51303 103.612 6.34408 103.527C6.19927 103.455 6.09066 103.334 6.17514 103.177C6.24754 103.032 6.40442 102.984 6.54923 103.044C6.69404 103.105 6.80265 103.213 6.71818 103.394Z" fill="#FF2E63"/>
<path d="M12.072 118.104C11.9031 118.116 11.7824 118.02 11.7462 117.863C11.71 117.694 11.8186 117.561 11.9876 117.585C12.1445 117.597 12.241 117.73 12.2651 117.887C12.2893 118.044 12.1927 118.08 12.072 118.104Z" fill="#FF2E63"/>
<path d="M46.4269 122.738C45.1125 122.738 44.3166 121.857 44.3649 120.457C44.401 119.444 45.4743 118.539 46.6922 118.575C47.9945 118.611 48.6095 119.492 48.6939 120.988C48.7421 121.966 47.6689 122.75 46.4269 122.738Z" fill="#FF2E63"/>
<path d="M34.9469 121.35C34.9469 120.337 35.7308 119.516 36.6954 119.504C37.6481 119.492 38.6489 120.481 38.6128 121.399C38.5766 122.473 37.7687 123.209 36.6713 123.185C35.586 123.148 34.9349 122.473 34.9469 121.35Z" fill="#FF2E63"/>
</g>
<path d="M79.2308 100H73.0769C72.2609 100 71.4782 99.6758 70.9012 99.0988C70.3242 98.5218 70 97.7391 70 96.9231V63.0769C70 62.2609 70.3242 61.4782 70.9012 60.9012C71.4782 60.3242 72.2609 60 73.0769 60H106.923C107.739 60 108.522 60.3242 109.099 60.9012C109.676 61.4782 110 62.2609 110 63.0769V96.9231C110 97.7391 109.676 98.5218 109.099 99.0988C108.522 99.6758 107.739 100 106.923 100H100.769" stroke="white" stroke-width="3.42857" stroke-linecap="round" stroke-linejoin="round"/>
<path d="M70 69.231H110" stroke="white" stroke-width="3.42857" stroke-linecap="round" stroke-linejoin="round"/>
<path d="M90 100V80" stroke="white" stroke-width="3.42857" stroke-linecap="round" stroke-linejoin="round"/>
<path d="M82.3076 87.6923L89.9999 80L97.6922 87.6923" stroke="white" stroke-width="3.42857" stroke-linecap="round" stroke-linejoin="round"/>
<defs>
<filter id="filter0_dd_196_5080" x="0" y="0" width="177.975" height="175.219" filterUnits="userSpaceOnUse" color-interpolation-filters="sRGB">
<feFlood flood-opacity="0" result="BackgroundImageFix"/>
<feColorMatrix in="SourceAlpha" type="matrix" values="0 0 0 0 0 0 0 0 0 0 0 0 0 0 0 0 0 0 127 0" result="hardAlpha"/>
<feOffset dy="4"/>
<feGaussianBlur stdDeviation="2"/>
<feComposite in2="hardAlpha" operator="out"/>
<feColorMatrix type="matrix" values="0 0 0 0 0 0 0 0 0 0 0 0 0 0 0 0 0 0 0.25 0"/>
<feBlend mode="normal" in2="BackgroundImageFix" result="effect1_dropShadow_196_5080"/>
<feColorMatrix in="SourceAlpha" type="matrix" values="0 0 0 0 0 0 0 0 0 0 0 0 0 0 0 0 0 0 127 0" result="hardAlpha"/>
<feOffset dy="4"/>
<feGaussianBlur stdDeviation="2"/>
<feComposite in2="hardAlpha" operator="out"/>
<feColorMatrix type="matrix" values="0 0 0 0 0 0 0 0 0 0 0 0 0 0 0 0 0 0 0.25 0"/>
<feBlend mode="normal" in2="effect1_dropShadow_196_5080" result="effect2_dropShadow_196_5080"/>
<feBlend mode="normal" in="SourceGraphic" in2="effect2_dropShadow_196_5080" result="shape"/>
</filter>
</defs>
</svg>
