<svg width="200" height="168" viewBox="0 0 200 168" fill="none" xmlns="http://www.w3.org/2000/svg">
<path d="M56.2901 136.709C52.9672 136.696 49.6442 136.607 46.3213 136.44C43.2036 136.273 40.0987 135.965 37.0324 135.388C33.8249 134.785 30.9895 133.348 28.3337 131.5C27.6666 131.038 27.0123 130.564 26.3579 130.089C26.2553 130.038 26.1783 129.948 26.0757 129.897L26.05 129.884C25.37 129.614 24.767 129.217 24.2282 128.729C19.9558 124.893 16.1068 120.685 13.3484 115.604C11.3341 111.909 10.667 107.816 10.1538 103.698C9.40964 97.732 9.53794 91.7276 9.71756 85.736C9.85869 80.8093 10.1024 75.8826 10.59 70.9688C10.7439 69.4035 10.5772 67.7998 11.193 66.2987C11.3598 64.0406 11.5266 61.7826 11.7062 59.5117C11.9884 55.9193 11.9115 52.2884 12.4631 48.7346C13.7975 40.1 17.9415 33.3002 25.8191 29.1305C28.8854 27.5011 32.234 27.0135 35.7109 27.283C38.8158 27.5267 41.7667 28.335 44.679 29.3614C45.0255 29.4769 45.359 29.6052 45.7054 29.7206C45.7311 29.7335 45.7824 29.695 45.8081 29.695C45.9107 28.3992 46.3983 27.8218 47.6428 27.5396C48.3484 27.3856 48.8231 27.5909 49.2721 28.2709C49.9265 29.2716 49.8495 29.9516 48.9899 30.9908C49.054 31.3372 49.3876 31.35 49.6185 31.4655C51.2094 32.2738 52.8132 33.0436 54.4041 33.8519C54.866 34.0828 55.2637 34.1983 55.7513 33.8904C56.2516 33.5824 56.8418 33.6209 57.4063 33.7236C57.6757 34.2624 57.0727 34.3522 56.9188 34.6602C56.7905 34.9296 56.7135 35.2118 56.9572 35.43C57.201 35.6352 57.3935 35.3914 57.5731 35.2503C58.0093 34.9167 58.407 34.4677 59.0485 34.5447C59.2923 34.6345 59.4976 34.8141 59.5232 35.0451C59.6772 36.1997 60.6138 36.5205 61.499 36.9054C64.2831 38.0216 67.1185 38.9838 70.0694 39.574C70.8777 39.7408 71.532 39.6253 72.1992 39.0865C73.8671 37.7522 75.1629 37.842 76.7538 39.2661C77.7161 40.1385 78.5115 40.0231 79.2171 38.9068C80.3846 37.0722 81.2827 36.6745 83.3868 37.2133C84.054 37.3801 84.5672 37.2646 85.0676 36.8541C85.9143 36.1612 86.7226 35.43 87.4667 34.6217C88.0313 34.0187 87.9799 33.6979 87.3128 33.2104C85.9528 32.1968 85.7861 30.7342 86.774 29.3871C87.6207 28.2324 88.8396 27.8475 90.0584 28.5788C91.0078 29.1561 91.3286 28.7712 91.6493 27.9629C92.1368 26.7184 92.6885 25.4996 93.2274 24.2808C93.5225 23.6008 93.6636 22.9208 93.5481 22.1638C93.3685 21.022 93.6892 20.0854 94.8054 19.5337C95.7164 19.0846 95.7292 17.93 96.499 17.3655C97.3201 16.8779 98.2567 16.7624 99.1676 16.57C104.017 15.5436 108.893 14.8636 113.858 14.5557C123.827 13.927 133.423 15.4538 142.661 19.2258C144.239 19.8673 145.791 20.5601 147.19 21.5608C148.447 23.7034 149.153 26.0898 149.936 28.4248C152.155 35.0066 153.579 41.7936 155.504 48.4523C155.619 48.8372 155.735 49.2349 155.85 49.6198C156.004 50.1074 156.222 50.2228 156.748 50.0432C158.288 49.5172 159.673 50.0945 160.148 51.4032C160.636 52.7375 159.981 54.0205 158.39 54.6235C157.723 54.8801 157.621 55.188 157.813 55.8038C158.147 56.9072 158.634 57.677 159.943 57.9593C161.636 58.3185 162.239 60.2045 161.329 61.6414C161.033 62.1033 160.353 62.4112 160.572 63.0784C160.892 64.0663 161.033 65.2466 161.932 65.8625C163.163 66.7092 163.484 67.7613 163.227 69.1085C163.086 69.8013 163.471 70.3658 163.612 70.9944C163.381 73.0087 162.432 74.7793 161.624 76.5754C159.558 81.1044 156.889 85.2485 153.772 89.1231C147.382 97.0391 143.174 105.982 141.532 116.053C141.134 118.491 141.044 120.967 140.89 123.43C140.262 133.245 139.184 142.983 135.528 152.233C134.745 154.235 133.77 156.159 132.577 157.956C132.256 158.43 131.948 158.905 131.358 159.097C128.022 159.444 124.712 159.072 121.427 158.559C112.087 157.109 103.325 153.85 94.7926 149.886C91.7006 148.449 88.6728 146.896 85.6193 145.395C85.5038 145.344 85.4012 145.28 85.2985 145.228C85.1446 145.138 84.9906 145.061 84.8495 144.972C84.1567 144.612 83.4638 144.253 82.7454 143.945C82.5272 143.843 82.3091 143.753 82.0782 143.65C76.3432 140.828 70.5056 138.326 64.1163 137.453C61.5247 137.056 58.9202 136.709 56.2901 136.709Z" fill="#FF2E63"/>
<path d="M175.916 104.75C176.519 104.955 176.994 105.34 177.276 105.904C177.905 107.149 177.186 108.624 175.813 108.945C175.428 109.035 175.018 109.048 174.53 109.099C174.453 110.613 174.864 112.127 174.672 113.679C175.223 113.782 175.531 113.384 175.929 113.256C176.955 112.922 177.533 113.166 178.071 114.244C178.585 115.283 178.418 115.976 177.507 116.528C176.404 117.195 175.852 117.118 174.749 116.091C174.659 117.182 174.543 118.195 174.492 119.222C174.325 122.801 173.697 126.291 172.76 129.742C172.632 130.217 172.619 130.615 172.901 131.102C173.632 132.36 173.183 133.655 171.823 134.181C171.233 134.412 171.028 134.785 170.81 135.272C168.988 139.57 166.473 143.432 163.189 146.742C159.224 150.758 154.516 153.644 149.268 155.659C145.163 157.237 140.916 158.25 136.528 158.648C136.002 158.699 135.489 158.802 134.963 158.879C134.501 158.982 134.052 159.213 133.565 158.969C133.141 158.533 133.449 158.122 133.667 157.763C137.734 150.912 139.338 143.304 140.467 135.567C141.173 130.717 141.429 125.816 141.75 120.928C142.366 111.652 145.317 103.082 150.346 95.2427C152.36 92.0866 154.811 89.264 156.966 86.2233C159.494 82.6694 161.611 78.8974 163.266 74.856C163.471 74.3685 163.51 73.7013 164.202 73.5474C165.011 75.0485 165.524 76.6779 166.14 78.2559C167.525 81.7585 168.795 85.2996 169.976 88.8791C170.078 89.187 170.13 89.5078 170.348 89.7644C171.644 88.6097 172.709 88.3659 173.671 89.0331C174.479 89.5848 174.813 90.5727 174.505 91.4964C174.107 92.6768 173.324 93.0232 171.272 92.8949C171.49 94.1779 171.99 95.3839 172.311 96.6284C172.388 96.9106 172.58 97.0133 172.863 96.9363C173.093 96.8721 173.324 96.7823 173.568 96.7567C174.736 96.6284 175.518 97.0902 175.878 98.0781C176.25 99.0789 175.98 99.977 175.069 100.644C174.877 100.785 174.633 100.849 174.415 100.952C173.876 101.042 173.517 101.26 173.722 101.914C173.812 102.222 173.812 102.543 173.863 102.864C174.3 104.852 173.863 104.506 175.916 104.75Z" fill="#FF2E63"/>
<path d="M11.1931 66.311C11.2701 67.9789 11.0392 69.6211 10.898 71.2762C10.7697 72.8928 10.7312 74.5093 10.5773 76.1131C10.3463 78.4866 10.3848 80.8858 10.218 83.2593C9.8973 87.9166 9.91013 92.5738 10.0641 97.2183C10.2309 102.389 10.6927 107.546 12.3735 112.512C13.3229 115.321 14.9138 117.746 16.6587 120.081C19.3915 123.738 22.5989 126.92 26.0501 129.883C20.5333 129.986 15.7477 128.01 11.5139 124.649C5.92004 120.209 2.45595 114.398 0.749571 107.508C0.236375 105.455 -0.0330354 103.389 0.00545435 101.273C0.0182843 100.541 0.0182843 99.8099 0.00545435 99.0786C-0.0715251 94.2417 0.6726 89.5075 1.84012 84.8374C2.93066 80.5009 4.54725 76.3568 6.71551 72.4437C7.93435 70.2242 9.34562 68.0944 11.1931 66.311Z" fill="#08D9D6"/>
<path d="M103.748 7.13971C105.018 5.88238 106.365 4.71485 107.879 3.73977C108.303 3.45752 108.508 2.98283 108.854 2.7134C109.137 2.50812 109.663 2.64925 110.073 2.43114C116.617 -0.955955 123.198 -0.673699 129.716 2.46963C136.003 5.51031 140.698 10.2959 144.278 16.2233C144.881 17.224 145.458 18.2504 145.946 19.3281C145.343 19.6745 144.842 19.264 144.355 19.0459C138.902 16.621 133.206 15.1327 127.304 14.2731C119.234 13.1056 111.215 13.6316 103.222 14.9916C101.388 15.2995 99.5913 15.8384 97.7309 16.0308C96.9227 15.5818 97.4615 15.0301 97.7053 14.6195C98.9113 12.6053 100.156 10.6038 101.772 8.87174C102.26 8.35854 102.529 7.58876 103.338 7.42197C103.415 7.40914 103.479 7.37064 103.543 7.30649C103.646 7.30649 103.71 7.24235 103.748 7.13971Z" fill="#FF2E63"/>
<path d="M97.423 15.736C99.4117 15.3639 101.4 14.9791 103.389 14.6198C106.699 14.0296 110.048 13.6704 113.409 13.4394C117.669 13.1444 121.928 13.2727 126.149 13.773C132.705 14.5428 139.043 16.1979 145.048 19.0076C145.343 19.1488 145.612 19.354 145.946 19.3412C147.986 20.4831 150.064 21.5736 151.976 22.9208C154.734 24.8453 157.313 26.975 159.494 29.5538C160.7 30.9779 161.598 32.6073 162.573 34.1854C163.202 34.6858 163.587 35.3016 163.51 36.1484C164.318 38.1242 165.049 40.1257 165.678 42.1656C165.781 42.589 166.14 42.9611 165.973 43.4486C166.563 45.5399 166.781 47.6953 167.205 49.8251C167.538 50.582 167.538 51.3518 167.397 52.1473C167.423 53.7254 167.461 55.3034 167.487 56.8815C167.987 58.2158 167.782 59.486 167.205 60.7305C166.705 64.9002 165.806 68.9801 164.369 72.9317C164.305 73.1113 164.28 73.3166 164.241 73.5219C163.51 75.1385 162.817 76.7807 162.034 78.3844C160.033 82.5285 157.493 86.3261 154.606 89.9057C149.243 96.5644 145.394 103.993 143.418 112.345C142.597 115.822 142.212 119.35 142.033 122.93C141.596 131.192 140.685 139.391 138.415 147.384C137.273 151.412 135.707 155.274 133.437 158.815C133.462 159.315 133.09 159.534 132.769 159.79H132.795C132.744 159.906 132.641 159.983 132.538 160.034C130.575 162.125 128.33 163.793 125.687 164.948C121.672 166.693 117.476 167.321 113.127 167.206C109.778 167.103 106.545 166.462 103.402 165.307C103.209 165.243 103.017 165.204 102.812 165.153C99.7966 164.383 97.3075 162.664 94.934 160.74C91.0209 157.571 88.4421 153.324 85.7478 149.18C84.9267 147.923 84.1698 146.639 83.3358 145.382C83.0535 144.946 82.6943 144.535 82.6815 143.971C82.6943 143.843 82.7456 143.74 82.8354 143.65C83.6309 143.945 84.375 144.33 85.0935 144.779C85.1576 144.843 85.2218 144.92 85.2988 144.984L85.2859 144.972C86.5433 146.049 87.1976 147.563 88.0828 148.923C89.9945 151.848 91.8548 154.786 94.3054 157.314C98.4879 161.625 103.633 164.114 109.522 165.102C110.035 165.192 110.561 165.281 111.087 165.333C114.038 165.628 116.963 165.448 119.863 164.884C122.557 164.358 125.046 163.37 127.394 161.984C128.625 161.253 129.767 160.406 130.755 159.354C130.922 159.174 131.076 158.995 131.345 159.008C132.757 157.455 133.68 155.608 134.54 153.734C136.554 149.411 137.735 144.818 138.62 140.16C139.518 135.426 140.057 130.641 140.416 125.829C140.621 123.007 140.673 120.171 141.045 117.349C141.802 111.601 143.47 106.123 145.946 100.888C148.063 96.4361 150.744 92.3434 153.836 88.52C157.711 83.7217 160.777 78.4614 162.92 72.6623C163.112 72.1363 163.253 71.5846 163.42 71.0457C163.356 70.5967 163.369 70.1605 163.51 69.7242C164.523 66.4783 165.101 63.1425 165.447 59.7554C165.691 58.9984 165.588 58.2287 165.563 57.4589C165.563 55.9963 165.55 54.5336 165.563 53.071C165.652 51.8779 165.357 50.736 165.203 49.5685C165.101 47.9647 164.729 46.3995 164.421 44.8342C164.318 43.8976 164.023 43.0124 163.741 42.1271C162.15 36.6744 159.699 31.7221 155.401 27.8603C155.132 27.5652 154.85 27.2957 154.516 27.0776C152.553 25.4739 150.5 23.9856 148.306 22.7026C147.896 22.4589 147.472 22.2151 147.19 21.8046C143.585 19.7261 139.723 18.2635 135.733 17.1473C131.114 15.8515 126.406 15.1458 121.607 14.8764C113.191 14.4145 104.954 15.5307 96.8072 17.5065C96.6917 17.5322 96.5763 17.5964 96.4736 17.6477C96.0759 17.9299 95.6396 18.1224 95.1649 18.2507C90.3537 19.4952 85.6837 21.1502 81.0649 22.9464C80 23.3698 78.9608 23.8445 77.9087 24.2807C76.3948 24.7811 75.0349 25.615 73.5466 26.1796C72.7511 26.526 71.9942 26.9365 71.2244 27.3342C69.2486 28.2836 67.3882 29.4383 65.4766 30.4904C63.6932 31.5809 61.9355 32.7228 60.2548 33.9545C59.8699 34.2367 59.485 34.5446 58.9975 34.6345C58.2533 34.968 57.753 35.6608 57.0473 36.0329C56.7522 35.9944 56.7907 35.7507 56.7138 35.5839C56.4315 35.0194 56.393 34.5062 57.073 34.1726C57.2398 34.0828 57.3424 33.8903 57.4707 33.7364C60.0239 31.9402 62.5513 30.1055 65.2713 28.5659C66.1181 28.0912 66.952 27.578 67.7859 27.0905C67.8886 27.0392 67.9656 26.975 68.0425 26.898L68.0297 26.9108C68.5429 26.3207 69.2999 26.1154 69.9414 25.7305C71.0063 25.2301 72.0583 24.6785 73.1104 24.1396C80.5261 20.6242 88.1727 17.776 96.1529 15.8387C96.5378 15.6975 96.974 15.5564 97.423 15.736Z" fill="#252A34"/>
<path d="M82.8097 144.022C85.2474 147.704 87.467 151.527 90.0971 155.094C93.3687 159.546 97.4615 162.933 102.619 164.986C102.696 165.011 102.747 165.088 102.812 165.14C100.797 164.986 98.8214 164.562 96.8584 164.088C94.1385 163.433 91.5212 162.407 89.0194 161.163C86.3379 159.828 83.8232 158.173 81.4625 156.326C79.6407 154.914 77.9087 153.388 76.1895 151.861C74.342 150.219 72.6869 148.358 70.8266 146.742C68.9534 145.112 67.324 143.252 65.4637 141.623C63.8856 140.237 62.3588 138.787 60.7038 137.478C60.1393 137.029 59.5876 136.927 58.9204 136.901C58.048 136.863 57.1371 137.145 56.2903 136.709C62.7437 136.388 68.9277 137.607 74.8936 140.006C76.9977 140.853 79.0762 141.751 81.1162 142.752C81.5524 142.957 82.0143 143.124 82.3735 143.457C82.5275 143.637 82.7456 143.765 82.8097 144.022Z" fill="#08D9D6"/>
<path d="M69.8772 25.9481C69.287 26.333 68.684 26.6922 67.9912 26.8847C67.9912 26.4998 68.1965 26.1919 68.4018 25.8839C70.57 22.561 72.6613 19.1867 75.2401 16.1717C78.3064 12.5922 81.886 9.65411 86.4406 8.08886C88.8655 7.25491 91.3416 6.8572 93.8948 6.6006C96.9611 6.30552 99.9248 6.8572 102.914 7.21643C103.068 7.22926 103.209 7.34474 103.35 7.42172C101.541 9.56431 99.7324 11.7197 98.3339 14.1702C98.0388 14.6963 97.7309 15.2095 97.4359 15.7355C94.5491 16.5566 91.6368 17.2751 88.7885 18.2117C83.6566 19.8924 78.6401 21.8425 73.7519 24.1391C73.5722 24.2289 73.3798 24.2802 73.1873 24.3572C72.6998 24.1904 72.3406 23.7798 71.7632 23.7798C70.6727 23.7798 70.1851 24.3315 69.8772 25.9481Z" fill="#08D9D6"/>
<path d="M172.26 74.8687C172.273 76.1902 171.413 77.0626 170.066 77.0498C168.873 77.0369 167.962 76.1004 167.949 74.8687C167.936 73.7012 168.898 72.7518 170.117 72.7261C171.31 72.7004 172.247 73.6498 172.26 74.8687Z" fill="#FF2E63"/>
<path d="M173.401 83.0284C173.427 84.2088 172.452 85.248 171.31 85.2608C170.091 85.2737 169.116 84.3499 169.103 83.1567C169.091 81.9251 170.014 80.9372 171.182 80.9243C172.375 80.8987 173.363 81.8481 173.401 83.0284Z" fill="#FF2E63"/>
<path d="M166.666 67.2866C166.64 66.0421 167.448 64.8617 168.347 64.8489C169.565 64.8489 170.733 65.593 170.759 66.4013C170.81 67.6073 169.989 68.9031 169.155 68.9416C167.987 68.9929 166.692 68.1205 166.666 67.2866Z" fill="#FF2E63"/>
<path d="M172.247 142.11C171.387 142.097 170.515 140.981 170.553 139.929C170.579 139.146 171.682 138.274 172.657 138.248C173.491 138.223 174.402 139.352 174.415 140.404C174.415 141.276 173.337 142.123 172.247 142.11Z" fill="#FF2E63"/>
<path d="M63.3339 28.6427C62.4487 28.6298 61.6019 27.5393 61.6404 26.4744C61.6661 25.6405 62.8721 24.7296 63.86 24.7809C64.6169 24.8194 65.4894 25.9612 65.515 26.9235C65.515 27.7831 64.4117 28.6555 63.3339 28.6427Z" fill="#FF2E63"/>
<path d="M55.9951 26.1022C56.9061 26.0893 57.74 27.0644 57.7529 28.1806C57.7657 29.0274 56.8291 29.8229 55.7386 29.8742C54.8276 29.9127 53.9424 28.9632 53.9039 27.8599C53.8654 26.9746 54.8789 26.1278 55.9951 26.1022Z" fill="#FF2E63"/>
<path d="M179.522 122.776C179.496 123.789 178.649 124.559 177.597 124.533C176.571 124.521 175.839 123.699 175.891 122.609C175.929 121.647 176.737 120.89 177.713 120.89C178.7 120.89 179.547 121.762 179.522 122.776Z" fill="#FF2E63"/>
<path d="M178.072 75.3306C176.981 75.3049 176.147 74.6763 176.16 73.8936C176.173 72.8416 176.814 71.9563 177.584 71.9563C178.636 71.9563 179.573 72.6106 179.573 73.3291C179.56 74.4325 178.88 75.3434 178.072 75.3306Z" fill="#FF2E63"/>
<path d="M180.984 91.3938C179.945 91.4194 178.983 90.7651 178.97 90.0338C178.944 89.0074 179.598 88.0323 180.317 87.9938C181.369 87.9425 182.421 88.6482 182.408 89.418C182.37 90.47 181.728 91.381 180.984 91.3938Z" fill="#FF2E63"/>
<path d="M181.664 95.7429C182.703 95.73 183.678 96.3972 183.665 97.09C183.653 98.0779 182.96 99.1171 182.305 99.13C181.266 99.1556 180.278 98.4371 180.278 97.6673C180.278 96.5896 180.881 95.7429 181.664 95.7429Z" fill="#FF2E63"/>
<path d="M179.56 83.3618C178.559 83.3618 177.61 82.6946 177.597 81.989C177.571 81.0011 178.238 79.9875 178.918 79.9619C179.881 79.9362 180.958 80.629 180.984 81.2834C181.035 82.2584 180.278 83.3618 179.56 83.3618Z" fill="#FF2E63"/>
<path d="M180.766 131.102C180.74 131.615 179.509 132.411 178.765 132.372C178.239 132.347 177.405 131.128 177.43 130.422C177.456 129.922 178.752 129.088 179.419 129.139C179.958 129.178 180.792 130.397 180.766 131.102Z" fill="#FF2E63"/>
<path d="M176.507 67.0681C175.904 67.0809 175.147 66.0417 175.134 65.1821C175.134 64.6176 176.263 63.835 177.058 63.8478C177.61 63.8606 178.328 64.8614 178.367 65.6697C178.393 66.2855 177.366 67.0553 176.507 67.0681Z" fill="#FF2E63"/>
<path d="M184.474 105.622C184.448 106.482 183.858 107.034 182.973 106.995C182.139 106.969 181.523 106.328 181.562 105.507C181.587 104.724 182.318 104.044 183.075 104.083C183.884 104.147 184.5 104.814 184.474 105.622Z" fill="#FF2E63"/>
<path d="M176.917 57.7534C176.917 58.5874 176.314 59.216 175.493 59.216C174.684 59.216 174.017 58.5617 174.004 57.7791C174.004 56.9708 174.646 56.3421 175.467 56.3293C176.314 56.3165 176.917 56.9067 176.917 57.7534Z" fill="#FF2E63"/>
<path d="M185.911 113.666C185.885 114.488 185.244 115.065 184.397 115.039C183.563 115.014 182.947 114.359 182.998 113.551C183.05 112.755 183.755 112.088 184.512 112.127C185.308 112.178 185.936 112.858 185.911 113.666Z" fill="#FF2E63"/>
<path d="M167.205 60.743C167.295 59.46 167.397 58.177 167.487 56.894C168.526 57.202 169.309 58.1642 169.283 59.1136C169.27 59.537 169.065 59.8834 168.732 60.1272C168.27 60.4479 167.795 60.743 167.205 60.743Z" fill="#FF2E63"/>
<path d="M181.818 138.454C181.831 139.275 181.292 140.096 180.74 140.083C180.124 140.071 179.175 139.545 179.149 139.211C179.098 138.698 179.791 137.453 180.125 137.428C180.715 137.376 181.805 138.043 181.818 138.454Z" fill="#FF2E63"/>
<path d="M187.052 121.66C187.078 122.199 186.488 122.763 185.846 122.802C185.269 122.84 184.743 122.288 184.705 121.621C184.666 121.07 185.256 120.505 185.898 120.467C186.45 120.428 187.014 121.018 187.052 121.66Z" fill="#FF2E63"/>
<path d="M185.744 73.3808C185.192 73.3551 184.666 72.7136 184.705 72.0978C184.73 71.5846 185.449 71.0073 186.013 71.0458C186.526 71.0714 187.104 71.7899 187.065 72.3544C187.04 72.8805 186.36 73.4065 185.744 73.3808Z" fill="#FF2E63"/>
<path d="M71.4294 17.75C71.4037 18.3145 70.7879 18.8277 70.1721 18.7893C69.6204 18.7508 69.1328 18.1221 69.1713 17.4678C69.2098 16.9161 69.8256 16.4157 70.4543 16.4414C71.0317 16.467 71.455 17.0444 71.4294 17.75Z" fill="#FF2E63"/>
<path d="M63.6034 18.6223C63.6034 19.174 63.0004 19.7128 62.3717 19.7256C61.8585 19.7385 61.294 19.097 61.2683 18.4683C61.2427 17.9423 61.8713 17.4034 62.5128 17.3906C63.0902 17.3778 63.6034 17.9679 63.6034 18.6223Z" fill="#FF2E63"/>
<path d="M54.34 21.1244C53.814 21.1372 53.2623 20.5214 53.2366 19.8927C53.211 19.3411 53.8012 18.8407 54.4683 18.8279C55.0585 18.815 55.5461 19.3667 55.5461 20.0339C55.5589 20.5984 54.9944 21.1116 54.34 21.1244Z" fill="#FF2E63"/>
<path d="M174.223 48.5672C174.762 48.5929 175.249 49.2344 175.224 49.8631C175.198 50.3763 174.505 50.9408 173.941 50.9023C173.415 50.8638 172.901 50.1966 172.94 49.5808C172.953 49.0419 173.607 48.5287 174.223 48.5672Z" fill="#FF2E63"/>
<path d="M187.425 79.0771C187.925 79.1027 188.477 79.8212 188.451 80.3857C188.425 80.9246 187.771 81.4249 187.155 81.4121C186.629 81.3993 186.116 80.745 186.142 80.1291C186.18 79.5903 186.847 79.0514 187.425 79.0771Z" fill="#FF2E63"/>
<path d="M163.51 36.1478C163.099 35.5448 162.804 34.8777 162.573 34.1848C163.138 33.8769 163.676 33.4279 164.292 34.095C164.857 34.7109 164.831 35.3652 164.164 35.8399C163.971 35.9939 163.728 36.058 163.51 36.1478Z" fill="#FF2E63"/>
<path d="M175.916 104.75C175.313 104.775 174.71 104.75 174.094 105.006C173.607 103.813 173.62 102.556 173.35 101.363C173.273 101.029 173.478 100.939 173.748 100.926C173.992 100.914 174.223 100.926 174.466 100.939C174.261 101.157 173.966 101.273 174.107 101.722C174.3 102.325 174.402 102.966 174.453 103.608C174.505 104.237 174.697 104.609 175.39 104.557C175.583 104.519 175.775 104.583 175.916 104.75Z" fill="#08D9D6"/>
<path d="M172.799 42.7041C172.337 42.7169 171.721 42.332 171.682 41.9985C171.618 41.4211 172.054 40.7796 172.529 40.7411C172.991 40.7026 173.684 41.0619 173.722 41.3441C173.774 41.8317 173.196 42.6913 172.799 42.7041Z" fill="#FF2E63"/>
<path d="M45.4746 21.4581C45.5644 20.56 45.7312 20.2906 46.2187 20.3419C47.0142 20.4318 47.3734 20.8038 47.2964 21.4581C47.2066 22.1381 46.9628 22.4076 46.4368 22.3691C45.7183 22.3178 45.4104 22.0355 45.4746 21.4581Z" fill="#FF2E63"/>
<path d="M39.4447 22.4843C39.496 22.9718 38.97 23.7032 38.5466 23.7288C38.0334 23.7545 37.3791 23.3439 37.3406 22.959C37.2893 22.4587 37.7512 21.8043 38.1489 21.7915C38.6236 21.7915 39.419 22.2149 39.4447 22.4843Z" fill="#FF2E63"/>
<path d="M184.115 63.4375C184.41 63.5273 184.718 63.5915 185.013 63.7069C185.68 63.9892 185.757 64.233 185.487 64.9258C185.321 65.3492 185.128 65.6186 184.602 65.4518C184.14 65.2978 183.64 65.2337 183.678 64.5665C183.704 64.156 183.82 63.7711 184.115 63.4375Z" fill="#FF2E63"/>
<path d="M188.772 89.2383C188.143 89.2126 187.758 88.9176 187.758 88.4813C187.758 87.7757 188.143 87.2753 188.656 87.301C189.234 87.3267 189.773 87.6602 189.76 87.981C189.721 88.661 189.259 89.264 188.772 89.2383Z" fill="#FF2E63"/>
<path d="M190.132 97.5261C189.695 97.5646 188.849 97.0001 188.81 96.6536C188.746 96.1148 189.169 95.5118 189.606 95.5118C190.196 95.499 190.722 95.8839 190.76 96.3457C190.812 96.8333 190.44 97.5004 190.132 97.5261Z" fill="#FF2E63"/>
<path d="M183.063 57.3177C182.716 57.292 182.28 56.7018 182.357 56.3169C182.46 55.8294 182.896 55.7524 183.281 55.6626C183.576 55.5984 184.051 56.2143 184.051 56.5992C184.051 56.9199 183.46 57.3433 183.063 57.3177Z" fill="#FF2E63"/>
<path d="M191.915 104.249C191.928 104.57 191.389 105.032 190.978 105.006C190.465 104.981 190.35 104.557 190.286 104.16C190.222 103.775 190.671 103.364 191.132 103.338C191.479 103.313 191.889 103.787 191.915 104.249Z" fill="#FF2E63"/>
<path d="M187.963 129.473C187.938 129.807 187.36 130.217 186.963 130.14C186.475 130.05 186.36 129.653 186.347 129.242C186.334 128.883 186.873 128.459 187.271 128.472C187.604 128.485 188.002 129.05 187.963 129.473Z" fill="#FF2E63"/>
<path d="M23.2916 24.8318C23.0735 25.2936 23.0992 26.0249 22.2653 25.8197C21.8932 25.7299 21.6366 25.4861 21.8162 25.0242C22.06 24.4084 22.3294 24.357 23.2916 24.8318Z" fill="#FF2E63"/>
<path d="M182.883 48.0029C182.832 48.6572 182.434 49.0806 182.049 49.0164C181.613 48.9523 181.433 48.6829 181.485 48.2466C181.549 47.8489 181.741 47.5538 182.203 47.6436C182.498 47.7078 182.857 47.7206 182.883 48.0029Z" fill="#FF2E63"/>
<path d="M31.2205 23.6518C31.1307 24.0238 31.0281 24.4344 30.5149 24.4344C30.13 24.4344 29.7836 24.2933 29.8349 23.8186C29.8862 23.408 30.053 23.0103 30.579 23.0873C30.8613 23.1258 31.259 23.1514 31.2205 23.6518Z" fill="#FF2E63"/>
<path d="M162.791 26.9489C162.766 27.3851 162.522 27.6032 162.086 27.5519C161.649 27.5006 161.47 27.2183 161.508 26.795C161.534 26.4742 161.547 26.0893 162.034 26.2048C162.406 26.2946 162.843 26.3844 162.791 26.9489Z" fill="#FF2E63"/>
<path d="M152.463 19.5337C152.874 19.6235 153.271 19.7005 153.233 20.1752C153.207 20.4959 153.156 20.9706 152.668 20.9193C152.322 20.8808 151.975 20.7012 152.014 20.2265C152.052 19.9058 152.104 19.5978 152.463 19.5337Z" fill="#FF2E63"/>
<path d="M167.397 52.1469C167.218 51.39 167.102 50.6202 167.205 49.8247C168.026 50.7228 168.039 50.9153 167.397 52.1469Z" fill="#FF2E63"/>
<path d="M171.323 34.2619C171.002 34.1464 170.566 34.1207 170.605 33.6332C170.63 33.3253 170.746 32.9276 171.144 32.9789C171.554 33.0302 171.67 33.4279 171.708 33.7871C171.759 34.0437 171.657 34.2619 171.323 34.2619Z" fill="#FF2E63"/>
<path d="M132.756 159.79C132.859 159.379 133.141 159.097 133.424 158.815C133.95 158.84 134.463 158.853 134.989 158.879C134.309 159.328 133.629 159.803 132.756 159.79Z" fill="#08D9D6"/>
<path d="M194.43 71.2507C194.391 71.4175 194.353 71.5971 194.16 71.5843C193.891 71.5714 193.737 71.3918 193.711 71.1352C193.698 70.9684 193.788 70.8145 193.981 70.8145C194.25 70.8273 194.417 70.9684 194.43 71.2507Z" fill="#FF2E63"/>
<path d="M196.496 87.378C196.265 87.3266 196.111 87.224 196.136 86.9802C196.149 86.8135 196.213 86.6595 196.406 86.6467C196.624 86.621 196.816 86.7236 196.829 86.9546C196.855 87.1599 196.675 87.2882 196.496 87.378Z" fill="#FF2E63"/>
<path d="M61.1144 11.1939C60.845 11.0913 60.8578 10.8603 60.9091 10.6166C60.9476 10.4369 61.0503 10.3471 61.2427 10.4113C61.4352 10.4754 61.5763 10.6166 61.5121 10.8475C61.448 11.0271 61.3838 11.2196 61.1144 11.1939Z" fill="#FF2E63"/>
<path d="M188.233 137.209C188.438 137.261 188.579 137.376 188.579 137.607C188.579 137.774 188.477 137.902 188.297 137.889C188.041 137.864 187.848 137.748 187.899 137.453C187.925 137.273 188.079 137.222 188.233 137.209Z" fill="#FF2E63"/>
<path d="M193.057 63.0523C192.993 63.2576 192.852 63.3987 192.621 63.373C192.454 63.3474 192.287 63.2447 192.313 63.0651C192.339 62.847 192.531 62.7315 192.749 62.7444C192.942 62.7572 193.044 62.8727 193.057 63.0523Z" fill="#FF2E63"/>
<path d="M53.0701 11.5916C53.2754 11.6044 53.4294 11.6814 53.4422 11.861C53.455 12.1561 53.237 12.2844 52.9804 12.2844C52.8136 12.2844 52.6724 12.1561 52.6981 11.9764C52.7494 11.7712 52.8649 11.5916 53.0701 11.5916Z" fill="#FF2E63"/>
<path d="M45.0383 13.7344C44.8073 13.7087 44.6405 13.5804 44.6277 13.3752C44.6149 13.1571 44.7688 13.0159 45.0126 13.0544C45.2307 13.0929 45.3333 13.2469 45.3333 13.465C45.3205 13.6702 45.1922 13.7216 45.0383 13.7344Z" fill="#FF2E63"/>
<path d="M85.4013 6.62649C85.35 6.8446 85.2859 7.03706 85.0549 7.06272C84.8368 7.08838 84.6444 6.97291 84.6315 6.7548C84.5931 6.44688 84.8497 6.38273 85.0934 6.39556C85.2474 6.39556 85.4013 6.43404 85.4013 6.62649Z" fill="#FF2E63"/>
<path d="M151.629 12.7463C151.437 12.6949 151.334 12.5667 151.36 12.3357C151.385 12.1689 151.488 12.0278 151.655 12.0278C151.886 12.015 152.014 12.1818 152.014 12.387C152.027 12.5923 151.911 12.7463 151.629 12.7463Z" fill="#FF2E63"/>
<path d="M195.084 127.998C195.277 128.01 195.405 128.126 195.405 128.305C195.405 128.524 195.277 128.716 195.059 128.742C194.84 128.767 194.674 128.652 194.686 128.395C194.725 128.164 194.879 128.049 195.084 127.998Z" fill="#FF2E63"/>
<path d="M77.0619 8.58951C76.7797 8.57668 76.6386 8.42273 76.6001 8.23028C76.5744 8.06349 76.677 7.92236 76.8695 7.90953C77.1133 7.88387 77.2544 8.03784 77.2544 8.25594C77.2672 8.39707 77.2416 8.57668 77.0619 8.58951Z" fill="#FF2E63"/>
<path d="M199.574 103.171C199.523 103.3 199.562 103.505 199.331 103.492C199.1 103.479 198.959 103.325 198.907 103.133C198.869 102.966 198.984 102.838 199.177 102.825C199.421 102.812 199.536 102.94 199.574 103.171Z" fill="#FF2E63"/>
<path d="M143.957 13.5293C143.88 13.7218 143.764 13.8757 143.534 13.8757C143.328 13.8757 143.251 13.7089 143.264 13.555C143.277 13.324 143.431 13.2086 143.675 13.2342C143.854 13.2471 143.97 13.324 143.957 13.5293Z" fill="#FF2E63"/>
<path d="M193.929 120.53C193.724 120.53 193.596 120.428 193.583 120.261C193.557 120.068 193.596 119.825 193.84 119.786C193.994 119.761 194.148 119.889 194.173 120.056C194.212 120.274 194.16 120.466 193.929 120.53Z" fill="#FF2E63"/>
<path d="M93.5097 5.74098C93.484 5.90777 93.4712 6.08739 93.253 6.0489C93.0478 6.02324 92.881 5.92061 92.8682 5.67684C92.8553 5.52288 92.9708 5.45872 93.0863 5.44589C93.3044 5.4074 93.4583 5.51004 93.5097 5.74098Z" fill="#FF2E63"/>
<path d="M195.251 78.3972C195.431 78.41 195.559 78.4999 195.597 78.6667C195.649 78.8848 195.559 79.0772 195.328 79.1414C195.148 79.1798 195.02 79.0515 194.982 78.8848C194.956 78.6667 195.033 78.487 195.251 78.3972Z" fill="#FF2E63"/>
<path d="M69.2998 9.09009C69.441 9.12858 69.6334 9.10292 69.6334 9.33386C69.6334 9.57763 69.4794 9.70592 69.2741 9.73158C69.1202 9.74441 68.9663 9.65461 68.9406 9.46217C68.9149 9.20557 69.0817 9.11575 69.2998 9.09009Z" fill="#FF2E63"/>
<path d="M101.605 4.26613C101.529 4.45858 101.413 4.62536 101.182 4.5997C100.951 4.57404 100.836 4.38159 100.913 4.16349C100.977 3.97104 101.118 3.81708 101.362 3.90689C101.516 3.97104 101.644 4.06085 101.605 4.26613Z" fill="#FF2E63"/>
<path d="M192.415 112.499C192.197 112.396 192.172 112.204 192.223 111.998C192.249 111.883 192.287 111.755 192.441 111.78C192.685 111.819 192.775 112.011 192.749 112.216C192.71 112.383 192.621 112.512 192.415 112.499Z" fill="#FF2E63"/>
<path d="M197.765 94.8192C198.048 94.8064 198.189 94.9347 198.189 95.1528C198.189 95.3196 198.073 95.4607 197.907 95.4351C197.765 95.4094 197.624 95.294 197.599 95.1272C197.56 94.9732 197.612 94.8321 197.765 94.8192Z" fill="#FF2E63"/>
<path d="M165.973 43.461C165.845 43.0376 165.601 42.6399 165.678 42.178C166.037 42.5372 166.255 42.9349 165.973 43.461Z" fill="#FF2E63"/>
<path d="M26.0759 129.896C26.2171 129.896 26.3069 129.96 26.3582 130.089C26.2171 130.089 26.1272 130.025 26.0759 129.896Z" fill="#08D9D6"/>
<path d="M68.0042 26.8723C67.9657 27.0134 67.8887 27.0648 67.7476 27.0648C67.8245 27.0006 67.9144 26.9365 68.0042 26.8723Z" fill="#08D9D6"/>
<path d="M103.747 7.13965C103.734 7.2546 103.67 7.31846 103.543 7.31846C103.607 7.26737 103.67 7.20351 103.747 7.13965Z" fill="#08D9D6"/>
<path d="M132.525 160.034C132.564 159.906 132.628 159.803 132.782 159.79C132.744 159.918 132.667 159.995 132.525 160.034Z" fill="#08D9D6"/>
<path d="M131.332 158.982C130.37 160.239 129.215 161.266 127.804 162.01C123.429 164.024 118.733 164.832 113.999 165.435C112.986 165.564 111.921 165.448 110.869 165.551C103.042 164.627 96.6403 161.163 91.8162 154.889C89.3914 151.733 87.3001 148.359 85.2729 144.959C85.8246 144.984 86.2609 145.318 86.7227 145.562C92.2268 148.359 97.7693 151.014 103.53 153.247C109.521 155.556 115.654 157.34 122.005 158.302C124.648 158.7 127.317 158.943 129.998 158.905C130.447 158.892 130.896 158.828 131.332 158.982Z" fill="#08D9D6"/>
<path d="M73.3538 25.9867C74.8036 25.2425 76.2534 24.5369 77.793 23.998C78.2035 24.1905 78.2933 24.6139 78.4858 24.9603C78.9092 25.7044 79.4865 25.9867 80.3076 25.6146C81.1416 25.2425 81.488 24.678 81.1801 23.7671C81.0646 23.4335 80.8465 23.1128 80.9363 22.7151C81.7959 22.1634 82.771 21.9068 83.7204 21.5475C87.6592 20.0593 91.6621 18.7763 95.7292 17.7242C95.9601 17.6601 96.2039 17.6601 96.4476 17.6216C96.2424 18.0578 96.0243 18.494 95.819 18.9431C95.6137 19.3921 95.3956 19.7128 94.8311 19.8796C93.9843 20.1234 93.5481 21.2268 93.8817 22.2275C94.0869 22.8433 93.9971 23.3052 93.7662 23.8441C93.0092 25.5504 92.2651 27.2568 91.5338 28.9632C91.3029 29.5149 91.0078 29.6175 90.5331 29.2198C90.0712 28.8221 89.5708 28.604 88.9165 28.5398C87.2871 28.3602 86.0041 30.5413 86.6456 31.9654C86.9535 32.6582 87.5694 32.9661 88.121 33.351C88.275 33.4537 88.5188 33.428 88.6599 33.6718C87.5309 35.2242 86.1452 36.5072 84.5928 37.6106C84.3491 37.7902 84.0925 37.8672 83.8102 37.7004C83.6691 37.6234 83.528 37.5336 83.374 37.4823C81.642 36.8279 80.1665 37.4823 79.4224 39.2015C78.9605 40.292 77.5107 40.5358 76.7666 39.6505C75.4708 38.1109 73.6489 37.9698 72.2505 39.4581C71.7501 39.9969 71.2754 40.1124 70.6467 39.9841C67.4649 39.3683 64.3601 38.4702 61.4092 37.1102C62.0378 36.2121 61.7684 34.9548 62.5895 34.1208C62.9873 34.3903 62.9103 34.8265 62.9744 35.2242C63.1284 36.2121 63.6929 36.7125 64.6936 36.7766C65.9638 36.8664 66.554 36.52 66.9517 35.4167C67.3109 34.4031 67.0928 33.7103 66.2332 33.0816C65.7585 32.7352 65.194 32.6326 64.6808 32.3888C64.1548 31.4394 65.1684 30.9903 65.3608 30.2719C67.1955 29.0787 69.1071 28.0266 71.0958 27.1157C71.9554 26.9746 72.738 26.641 73.3538 25.9867Z" fill="#08D9D6"/>
<path d="M82.8095 144.022C82.5786 143.906 82.4631 143.688 82.3733 143.457C82.5401 143.483 82.7325 143.47 82.8351 143.637C82.8223 143.765 82.8223 143.893 82.8095 144.022Z" fill="#252A34"/>
<path d="M85.2976 144.971C85.1827 144.945 85.106 144.881 85.0933 144.766C85.2082 144.779 85.2849 144.856 85.2976 144.971Z" fill="#08D9D6"/>
<path d="M80.9364 22.728C81.2058 22.9846 81.3598 23.3182 81.4881 23.6646C81.873 24.614 81.6677 25.217 80.821 25.7174C79.4482 26.5257 78.5629 26.2178 77.9856 24.7038C77.8957 24.4729 77.8444 24.242 77.7803 24.011C78.8195 23.5363 79.833 23.0231 80.9364 22.728Z" fill="#FF2E63"/>
<path d="M69.877 25.9479C69.5306 24.6906 69.7102 24.2031 70.7238 23.6899C71.7887 23.151 72.4173 23.3306 73.1615 24.3442C72.1094 24.9728 71.0317 25.5374 69.877 25.9479Z" fill="#FF2E63"/>
<path d="M165.883 52.8782C165.806 52.8526 165.73 52.8398 165.653 52.8141C164.96 52.596 164.293 52.2881 164.28 51.467C164.254 50.5817 164.523 49.7734 165.486 49.427C165.819 50.556 165.896 51.7107 165.883 52.8782Z" fill="#FF2E63"/>
<path d="M164.69 44.5901C163.997 44.5516 163.42 44.2821 163.253 43.5765C163.099 42.8965 163.125 42.2165 163.92 41.8701C164.318 42.7426 164.536 43.6535 164.69 44.5901Z" fill="#FF2E63"/>
<path d="M73.354 25.9868C72.828 26.9747 72.1223 27.3211 71.0959 27.103C71.7888 26.6155 72.5714 26.3204 73.354 25.9868Z" fill="#FF2E63"/>
<path d="M165.729 59.7425C165.306 58.9983 165.114 58.2542 165.858 57.5742C165.948 58.3184 165.999 59.0368 165.729 59.7425Z" fill="#FF2E63"/>
<path d="M154.452 27.1412C154.529 27.0642 154.606 27.0001 154.683 26.9231C155.016 27.0514 155.273 27.2823 155.452 27.6031C155.35 27.6929 155.26 27.7827 155.157 27.8853C154.721 27.834 154.464 27.6159 154.452 27.1412Z" fill="#252A34"/>
<path d="M79.4608 16.2235C79.4865 16.8265 78.9989 17.314 78.3318 17.3653C77.7672 17.4038 77.2926 16.8778 77.2412 16.1721C77.2028 15.6076 77.7288 15.0816 78.3831 15.0303C78.9348 14.9918 79.4223 15.5306 79.4608 16.2235Z" fill="#FF2E63"/>
<path d="M86.3121 15.9157C85.7476 15.9285 85.2985 15.4538 85.26 14.8123C85.2216 14.1708 85.8245 13.6063 86.5045 13.6191C86.992 13.6319 87.4668 14.1964 87.4924 14.8123C87.5309 15.4025 86.9921 15.9028 86.3121 15.9157Z" fill="#FF2E63"/>
<path d="M94.3181 14.2347C93.6253 14.1577 93.343 13.8883 93.42 13.3879C93.5227 12.6181 93.8306 12.4 94.6645 12.5155C95.0494 12.5668 95.4985 12.5925 95.46 13.1698C95.4215 13.9011 94.9853 14.3117 94.3181 14.2347Z" fill="#FF2E63"/>
<path d="M158.75 44.3847C158.75 45.3983 157.903 46.2066 156.877 46.1938C155.889 46.1809 155.093 45.3983 155.068 44.4489C155.042 43.4482 155.902 42.5629 156.877 42.55C157.877 42.55 158.763 43.4097 158.75 44.3847Z" fill="#FF2E63"/>
<path d="M155.427 34.9034C156.261 34.8777 156.915 35.4935 156.941 36.3018C156.966 37.1229 156.338 37.8157 155.555 37.8286C154.76 37.8542 154.067 37.2127 154.028 36.4173C153.99 35.609 154.618 34.929 155.427 34.9034Z" fill="#FF2E63"/>
<path d="M154.452 27.1414C154.696 27.3851 154.927 27.6289 155.17 27.8727C155.222 28.3089 155.376 28.7708 154.927 29.0915C154.529 29.3738 154.105 29.656 153.592 29.3738C153.118 29.1172 152.925 28.6681 152.925 28.1678C152.925 27.6546 153.31 27.398 153.759 27.2568C153.977 27.1927 154.221 27.1798 154.452 27.1414Z" fill="#FF2E63"/>
<path d="M70.4931 33.5822C70.4675 32.0939 71.558 30.7724 72.8538 30.8494C74.1753 30.9264 75.4455 31.7347 75.5096 33.0433C75.5866 34.4803 74.4704 35.8402 73.2131 35.8531C71.8018 35.8659 70.5188 34.7882 70.4931 33.5822Z" fill="#FF2E63"/>
<path d="M81.0137 29.5278C82.4891 29.5534 83.6053 30.4772 83.5284 31.7473C83.4385 33.4152 82.3737 34.4673 81.1163 34.4288C79.6922 34.3775 78.4349 33.2869 78.5503 32.0553C78.7043 30.2206 79.6409 29.3866 81.0137 29.5278Z" fill="#FF2E63"/>
<path d="M62.5898 34.1591C62.8978 33.1584 63.5136 32.4528 64.5785 32.209C65.0275 32.2346 65.4509 32.2988 65.8743 32.4784C67.3369 33.0943 67.8116 34.2489 67.2214 35.7115C66.7339 36.9304 65.8358 37.3666 64.3732 37.0972C63.2185 36.8791 62.6283 36.1478 62.6027 34.8776C62.5899 34.6467 62.5898 34.4029 62.5898 34.1591Z" fill="#FF2E63"/>
<path d="M87.8518 24.6524C86.8383 24.6652 86.0172 23.8441 86.0043 22.8049C85.9787 21.7143 86.6971 21.0215 87.839 21.0087C88.7884 20.9959 89.6352 21.8041 89.648 22.7407C89.648 23.7799 88.8397 24.6396 87.8518 24.6524Z" fill="#FF2E63"/>
<path d="M65.1172 85.3766C65.6048 85.3766 66.0795 85.3381 66.5542 85.4921C67.0802 85.6588 67.3881 86.0309 67.3753 86.5569C67.3753 87.083 67.0417 87.4679 66.5285 87.5962C65.6946 87.8014 64.8478 87.6731 64.001 87.6731C63.7701 87.6731 63.6161 87.5192 63.6161 87.3011C63.5905 86.8135 63.6033 86.3388 63.6033 85.8513C63.6033 85.4921 63.8342 85.3638 64.155 85.3638C64.4757 85.3766 64.7965 85.3766 65.1172 85.3766Z" fill="#FF2E63"/>
<path d="M65.0787 83.8753C64.9633 83.8753 64.835 83.8753 64.7195 83.8753C63.5648 83.8624 63.5648 83.8624 63.5905 82.7591C63.6161 81.9123 63.6161 81.8994 64.4629 81.8866C64.9376 81.8738 65.4251 81.8609 65.8998 81.8994C66.5926 81.9636 67.0289 82.3998 66.9904 82.9387C66.9519 83.439 66.5413 83.7983 65.9127 83.8624C65.6432 83.8881 65.361 83.8753 65.0787 83.8753Z" fill="#FF2E63"/>
<path d="M98.9754 84.6064C97.3075 84.5936 97.4486 84.7347 97.4358 83.2978C97.4358 83.0155 97.4358 82.7332 97.4486 82.451C97.4615 82.1687 97.5898 81.9891 97.8848 81.9763C98.5648 81.9763 99.2576 81.8736 99.9248 82.0917C100.63 82.3227 100.964 82.7845 100.913 83.426C100.861 84.0034 100.464 84.4524 99.8221 84.5551C99.4629 84.6192 99.0908 84.6064 98.9754 84.6064Z" fill="#FF2E63"/>
<path d="M112.344 86.2491C111.42 86.2748 110.676 86.3518 109.881 86.185C110.073 85.0944 110.586 84.1835 111.048 83.0288C111.625 84.1194 111.985 85.1072 112.344 86.2491Z" fill="#FF2E63"/>
<path d="M54.3271 86.2105C53.506 86.3388 52.7619 86.3003 51.8638 86.2489C52.069 85.1327 52.5694 84.209 53.0441 83.0671C53.6471 84.132 54.0064 85.1199 54.3271 86.2105Z" fill="#FF2E63"/>
<path d="M81.1673 99.9512C79.3326 99.9255 79.5251 100.182 79.5251 98.3089C79.5251 96.2048 79.3711 96.5384 81.3597 96.5127C81.8473 96.4999 82.3348 96.4871 82.7967 96.6667C83.5793 96.9618 84.054 97.5905 84.0283 98.2961C84.0027 99.0017 83.4767 99.6304 82.6941 99.8613C82.1809 100.002 81.642 99.9255 81.1673 99.9512Z" fill="#FF2E63"/>
<path d="M94.01 100.9C93.7406 101.118 93.5353 101.08 93.3428 101.08C92.4191 101.08 91.4825 101.08 90.4048 101.08C90.9052 99.6045 91.5595 98.3343 92.2138 96.8589C92.9579 98.2958 93.4968 99.6173 94.01 100.9Z" fill="#FF2E63"/>
<path d="M74.1538 95.1536C77.5525 95.1536 80.3077 92.3985 80.3077 88.9998C80.3077 85.6011 77.5525 82.8459 74.1538 82.8459C70.7552 82.8459 68 85.6011 68 88.9998C68 92.3985 70.7552 95.1536 74.1538 95.1536Z" stroke="white" stroke-width="3.42857" stroke-linecap="round" stroke-linejoin="round"/>
<path d="M101.846 81.3077C105.245 81.3077 108 78.5525 108 75.1538C108 71.7552 105.245 69 101.846 69C98.4476 69 95.6924 71.7552 95.6924 75.1538C95.6924 78.5525 98.4476 81.3077 101.846 81.3077Z" stroke="white" stroke-width="3.42857" stroke-linecap="round" stroke-linejoin="round"/>
<path d="M101.846 109C105.245 109 108 106.245 108 102.846C108 99.4476 105.245 96.6924 101.846 96.6924C98.4476 96.6924 95.6924 99.4476 95.6924 102.846C95.6924 106.245 98.4476 109 101.846 109Z" stroke="white" stroke-width="3.42857" stroke-linecap="round" stroke-linejoin="round"/>
<path d="M77.877 84.1078L95.877 76.6309" stroke="white" stroke-width="3.42857" stroke-linecap="round" stroke-linejoin="round"/>
<path d="M77.877 93.8923L95.877 101.369" stroke="white" stroke-width="3.42857" stroke-linecap="round" stroke-linejoin="round"/>
</svg>
