<svg width="1233" height="890" viewBox="0 0 1233 890" fill="none" xmlns="http://www.w3.org/2000/svg">
<path d="M809.069 305.152C814.239 310.635 816.23 318.345 818.457 325.592C836.384 384.001 880.56 430.982 930.869 464.539C952.174 478.762 978.112 497.833 973.451 523.303C970.941 536.99 959.93 547.065 951.75 558.213C934.587 581.555 929.02 613.282 937.2 641.225C946.504 673.018 972.507 702.684 964.459 734.832C959.496 754.62 942.644 768.703 926.444 780.807C901.17 799.677 875.091 817.355 848.206 833.84C830.185 844.888 811.012 855.64 790.009 857.042C771.516 858.278 753.4 852.136 735.841 846.076C720.499 840.774 704.771 835.258 692.382 824.638C684.296 817.704 677.852 808.758 668.869 803.085C647.772 789.761 620.674 798.204 596.482 803.91C539.398 817.3 425.874 908.818 371.555 886.515C288.232 852.297 277.153 684.034 195.651 645.479C160.608 628.898 122.489 618.608 90.0411 597.253C71.7604 585.095 56.0504 570.239 43.6193 553.356C19.0875 520.285 5.82143 478.119 9.65217 436.844C13.4829 395.569 34.9483 355.794 68.6607 332.493C104.751 307.552 150.333 302.893 191.395 287.92C233.798 272.452 271.52 245.87 313.517 229.272C347.506 215.886 384.495 209.32 421.768 210.056C459.041 210.792 495.652 218.812 528.915 233.527C574.62 253.686 620.947 300.824 671.851 304.369C708.111 306.867 780.753 275.124 809.069 305.152Z" fill="#08D9D6"/>
<path d="M52.3077 27.2902C50.3631 20.1547 48.1827 17.1047 42.2483 13.5547C40.6312 12.8257 39.8303 12.9433 38.4095 13.1907C36.7711 13.7243 36.0984 14.2803 35.2117 15.5989C34.2241 17.2673 33.8086 18.3337 33.4469 20.5959C33.2281 24.3607 32.2485 25.1574 30.098 25.9592C27.4223 26.5439 25.618 26.3041 22.4487 25.883L22.3598 25.8711C20.467 25.7902 19.3594 25.982 17.3639 26.8177C14.7512 28.7006 15.2918 31.1629 16.2379 35.4723L16.2709 35.6226C19.6366 42.4627 22.0773 45.3103 26.9701 49.4188C31.918 53.1434 34.7124 54.7455 39.7684 56.0547C44.5491 56.9198 46.8298 56.2809 50.1252 53.0342C53.5402 49.2602 54.1266 46.0177 53.7751 39.0491C54.0145 36.6298 53.5018 33.5426 52.3077 27.2902Z" fill="#FF2E63"/>
<path fill-rule="evenodd" clip-rule="evenodd" d="M1233 79.3901C1222.77 142.412 1168.68 134.217 1110.9 173.945C1057.5 189.019 1018.08 143.913 986.043 134.217C984.214 104.641 1040.76 54.7411 1094.32 53.6128C1147.88 52.4837 1231.16 49.8141 1233 79.3901Z" fill="#FF2E63"/>
</svg>
