<svg width="164" height="161" viewBox="0 0 164 161" fill="none" xmlns="http://www.w3.org/2000/svg">
<path d="M1.30277 76.0217C2.12572 78.9331 3.42389 81.6357 5.05819 84.1759C5.37114 85.2546 6.13614 86.0202 6.87795 86.8089C7.72408 87.7252 8.57019 88.6415 9.42791 89.5463C11.2361 90.9962 12.824 92.8404 15.4088 92.91C15.5478 92.91 15.6753 93.0144 15.8144 93.0724C17.6805 93.8495 19.593 94.4643 21.5287 95.0326C25.7477 96.2621 30.0479 97.2133 34.0699 99.0575C38.5092 101.087 41.7546 104.173 42.5196 109.23C42.9601 112.153 42.3805 114.983 41.5691 117.79C40.6767 120.887 39.4596 123.891 38.7294 127.035C38.6135 127.522 38.3933 128.02 38.6715 128.531C40.0971 129.656 41.7662 130.34 43.4005 131.048C53.0092 135.131 63.0585 137.822 73.1309 140.397C78.961 141.881 84.8723 142.972 90.8764 143.389C92.8004 143.528 94.7245 143.888 96.6718 143.598C97.1586 143.412 97.3788 142.972 97.6338 142.577C98.7001 140.919 99.8128 139.283 100.717 137.532C103.394 132.382 107.15 128.252 112.134 125.26C115.171 123.323 118.404 121.757 121.661 120.249C123.18 119.542 124.837 119.112 126.217 118.092C126.46 117.651 126.391 117.164 126.391 116.688C126.425 114.241 126.193 111.793 126.391 109.346C126.669 105.785 127.468 102.41 129.45 99.3707C131.351 96.4593 133.901 94.2207 136.695 92.2373C140.23 89.7319 144.055 87.6788 147.706 85.3706C152.122 82.5752 156.086 79.3043 158.74 74.6994C159.088 74.0963 159.517 73.5279 159.505 72.7856C159.053 68.1576 157.639 63.8427 155.112 59.9338C151.693 54.6446 147.208 50.6545 141.03 48.8683C139.975 48.5667 138.885 48.4043 138.422 47.1864C138.329 46.9312 138.028 46.7572 137.761 46.6296C136.973 46.3977 136.08 46.3629 135.617 47.024C134.771 48.2303 133.542 48.0795 132.383 48.2303C131.803 48.2999 131.212 48.2071 130.633 48.3347C130.053 48.4623 129.705 48.2767 129.358 47.7779C128.407 46.4209 126.414 46.4208 125.579 47.8707C125.058 48.7755 124.455 48.9958 123.539 48.9262C123.029 48.8799 122.508 48.8914 121.998 48.9262C121.221 48.9842 120.711 48.6943 120.259 48.0447C119.413 46.8268 118.022 46.5252 116.805 47.3604C115.982 47.9287 115.287 47.8823 114.487 47.4184C115.692 46.2585 115.924 45.087 115.229 43.7995C114.695 42.8019 113.838 42.396 112.76 42.6396C112.099 42.7904 111.52 43.1035 111.056 43.5907C110.488 44.1706 110.685 44.9478 110.639 45.7365C105.979 43.1615 102.131 39.7282 98.4104 36.1557C97.1702 35.4017 95.6286 35.0769 94.852 33.7082C94.9795 33.7314 95.1534 33.7431 95.3156 33.6155C95.4315 33.2211 95.1765 32.9775 94.9331 32.7803C92.6961 30.8549 90.7025 28.6742 88.4423 26.772C87.8396 26.2732 87.3064 25.6469 86.5066 25.4265L86.495 25.4149C86.4023 25.3685 86.3328 25.2873 86.24 25.2293C86.1821 25.1945 86.1125 25.1597 86.0546 25.1133C83.0178 22.7239 79.8419 20.5665 76.2604 19.0818C75.9358 18.9426 75.7272 18.7222 75.5765 18.4207C75.1824 17.6899 74.4986 17.4927 73.7915 17.7363C73.2468 17.9103 72.7947 17.8059 72.3079 17.6667C69.3059 16.8084 66.2575 16.2168 63.128 16.1704C62.2471 16.1588 61.3778 16.1704 60.4969 16.1704C60.4621 15.7181 60.578 15.3469 60.381 14.9989C60.1608 14.6161 59.7899 14.5001 59.2451 14.6741C58.851 14.8017 58.8974 15.0337 58.9669 15.3585C59.1292 16.1124 59.106 16.1472 58.341 16.1588C57.1588 16.1704 56.0113 16.3444 54.8406 16.4836C54.8754 16.82 55.1536 16.878 55.397 16.9127C57.2399 17.1563 59.0596 17.5391 60.9258 17.5623C60.9721 17.5623 60.9837 17.5507 60.9837 17.5275C60.9721 17.5739 60.9142 17.6319 60.7171 17.6319C59.9521 17.4927 58.9437 17.4811 57.9354 17.5855C56.7299 17.7131 55.5129 17.7131 54.3074 17.5739C52.2211 17.3303 50.1348 17.3999 48.0484 17.4927C31.7749 22.0164 18.376 30.8781 7.95588 44.1822C7.8052 44.4142 7.61976 44.623 7.45749 44.8434C6.79681 46.1657 6.36794 47.5692 6.08976 49.0075C5.69568 51.0837 4.40911 52.7772 3.88752 54.691C4.18888 53.3223 4.9075 51.9536 4.44387 50.3994C4.35114 50.5153 4.24684 50.6197 4.1773 50.7473C1.75482 55.3406 0.305968 60.2238 0.0393796 65.4318C-0.146073 68.9927 0.329149 72.542 1.30277 76.0217Z" fill="#FF2E63"/>
<path d="M79.471 142.566C71.9718 141.127 64.6464 139.028 57.3558 136.824C51.1431 134.945 44.9768 132.95 39.2046 129.923C38.9496 129.783 38.6714 129.656 38.3701 129.841C38.1846 132.405 38.0687 134.968 38.6714 137.485C40.8853 146.73 46.5879 153.063 55.0608 157.076C57.321 158.143 59.7435 158.77 62.1544 159.361C66.953 160.544 71.7863 161.194 76.724 160.347C81.9514 159.454 86.2632 156.925 89.81 153.051C92.1397 150.499 94.0522 147.623 95.9299 144.746C95.6402 144.375 95.2113 144.422 94.8172 144.422C89.6477 144.259 84.5478 143.528 79.471 142.566Z" fill="#FF2E63"/>
<path d="M158.508 76.6829C157.743 77.6688 157.025 78.6779 156.179 79.5942C153.327 82.6564 149.954 85.0226 146.384 87.1568C142.49 89.4883 138.526 91.7153 134.968 94.5803C131.004 97.77 128.338 101.76 127.515 106.875C127.005 110.077 127.179 113.301 127.179 116.526C127.179 116.897 127.26 117.256 127.619 117.477C127.955 117.581 128.28 117.465 128.581 117.349C133.217 115.424 137.935 113.684 142.455 111.48C146.767 109.381 150.036 106.261 152.528 102.259C153.142 101.285 153.907 100.345 154.046 99.1271C154.069 99.0227 154.081 98.9067 154.127 98.8139C156.179 94.6615 157.535 90.277 158.369 85.7302C158.949 82.5288 159.389 79.3159 159.308 76.0449C158.856 76.0217 158.717 76.4161 158.508 76.6829Z" fill="#FF2E63"/>
<path d="M127.062 126.86C127.503 124.204 127.7 121.525 127.607 118.822C127.584 118.347 127.63 117.883 127.642 117.407C132.823 115.319 138.085 113.394 143.081 110.842C147.3 108.685 150.36 105.402 152.736 101.389C153.188 100.635 153.617 99.8809 154.057 99.1153C154.579 100.298 154.753 101.563 154.973 102.815C155.205 104.126 155.205 105.437 155.17 106.748C155.101 109.439 154.509 112.002 153.455 114.496C152.469 116.85 151.09 118.95 149.398 120.817C147.787 122.592 145.805 123.926 143.568 124.831C141.736 125.573 139.801 125.921 137.853 126.234C134.724 126.733 131.583 126.628 128.453 126.652C127.978 126.663 127.491 126.57 127.062 126.86Z" fill="#08D9D6"/>
<path d="M159.32 76.033C157.825 78.26 156.098 80.3015 154.081 82.0645C151.786 84.0712 149.247 85.7414 146.651 87.3305C143.8 89.0588 140.902 90.6942 138.143 92.5849C135.628 94.3132 133.241 96.1806 131.363 98.628C129.161 101.493 127.967 104.718 127.619 108.325C127.352 111.074 127.515 113.811 127.468 116.56C127.468 116.862 127.503 117.14 127.642 117.407C127.967 117.709 127.978 118.114 128.001 118.52C128.094 120.736 127.92 122.94 127.677 125.144C127.607 125.758 127.457 126.361 127.063 126.86C126.228 130.769 124.385 134.121 121.464 136.859C119.158 139.016 116.492 140.594 113.583 141.788C109.792 143.331 105.828 144.166 101.76 144.537C99.8243 144.711 97.877 144.653 95.9414 144.734C93.2639 144.746 90.598 144.526 87.9437 144.212C84.281 143.795 80.6415 143.157 77.0252 142.38C70.2214 140.918 63.5451 138.993 56.8804 136.998C52.4296 135.664 48.0135 134.202 43.7249 132.381C41.9051 131.604 40.1086 130.769 38.3699 129.83C37.3963 129.284 36.4111 128.739 35.4375 128.194C32.7832 127.092 30.6737 125.202 28.5641 123.346C22.5717 118.057 18.1556 111.573 14.3886 104.59C11.5257 99.2776 9.13799 93.7796 7.21392 88.0613C7.06324 87.5973 6.71553 87.1333 7.02848 86.5998C7.82825 87.4813 8.628 88.3628 9.42777 89.2328C10.5173 90.9494 11.0041 92.9213 11.8155 94.7655C15.0609 102.05 18.6772 109.102 23.6844 115.366C27.463 120.11 31.8791 124.111 37.1181 127.197C37.6745 127.521 38.3236 127.753 38.6945 128.357C41.4995 129.957 44.4435 131.256 47.4687 132.381C54.7709 135.107 62.2701 137.207 69.7926 139.213C73.3973 140.176 77.0252 141.011 80.6879 141.695C83.7826 142.264 86.8774 142.728 90.0185 142.995C91.9541 143.157 93.8782 143.238 95.8139 143.354C96.1732 143.377 96.5441 143.319 96.9034 143.296C98.19 142.96 99.5113 142.971 100.821 142.89C106.651 142.507 112.18 141.15 117.176 138.03C121.36 135.42 124.211 131.79 125.289 126.895C125.776 124.54 125.834 122.151 125.799 119.75C125.788 119.182 125.706 118.578 126.124 118.08C126.101 116.247 126.135 114.426 125.996 112.593C125.892 111.213 126.031 109.81 126.182 108.429C126.379 106.573 126.75 104.752 127.364 102.978C128.199 100.577 129.531 98.5004 131.212 96.6214C133.774 93.7448 136.938 91.6106 140.183 89.6039C143.174 87.7597 146.257 86.043 149.166 84.0712C152.528 81.7977 155.564 79.1763 157.801 75.7198C158.393 74.8035 159.007 73.8872 159.366 72.8317C159.633 71.1962 160.479 69.7463 160.85 68.134C162.438 61.3137 161.777 54.8994 157.523 49.1115C156.48 47.6964 155.147 46.6293 153.629 45.7826C148.251 42.8132 142.386 41.4677 136.358 40.6674C133.855 40.2846 131.363 39.867 128.836 39.751C127.549 39.4726 126.228 39.635 124.93 39.461C123.041 39.3799 121.163 39.2987 119.274 39.1479C118.126 39.1827 116.979 39.1827 115.843 39.1479C113.513 39.2407 111.195 39.0435 108.888 38.7071C108.633 38.7187 108.378 38.6723 108.135 38.6259C107.08 38.3707 105.979 38.3707 104.936 38.0807C103.719 37.8604 102.502 37.5588 101.296 37.3036C100.253 36.9325 99.0941 36.8745 98.1784 36.1437C98.1204 36.1089 98.0625 36.0393 97.9929 36.0277C96.2543 35.7493 95.188 34.5082 94.0173 33.2439C94.5505 33.128 94.875 33.5571 95.2807 33.5455C95.7095 33.3484 96.0573 33.6035 96.4282 33.7311C98.1204 34.3226 99.8243 34.8678 101.563 35.297C102.873 35.6565 104.206 35.9581 105.55 36.1785C107.439 36.5613 109.363 36.7237 111.264 36.9789C112.25 36.9789 113.235 36.8977 114.208 37.1644C116.156 37.1876 118.091 37.1064 120.027 37.1876C124.953 37.3964 129.891 37.6052 134.782 38.3592C135.756 38.6143 136.845 38.4172 137.738 39.0551C139.847 39.5075 141.98 39.8322 144.078 40.3774C146.952 41.1197 149.757 42.0477 152.481 43.254C157.013 45.2722 160.12 48.636 161.789 53.264C164.547 60.9078 163.632 68.2384 159.737 75.279C159.575 75.5226 159.447 75.7778 159.32 76.033Z" fill="#252A34"/>
<path d="M7.02861 86.5886C7.86314 89.5116 8.98744 92.3302 10.1697 95.1256C12.5458 100.728 15.2928 106.145 18.6426 111.237C20.8564 114.612 23.3252 117.79 26.1418 120.678C28.7613 123.358 31.6474 125.724 34.8117 127.731C35.0203 127.87 35.2174 128.032 35.426 128.171C32.5167 127.591 29.7118 126.663 26.9531 125.573C22.9891 124.007 19.3032 121.931 15.8724 119.379C12.9167 117.175 10.6217 114.426 8.89472 111.19C7.35315 108.302 6.14769 105.286 5.44066 102.085C5.04657 100.31 4.79158 98.5125 4.58295 96.6915C4.35113 94.7544 4.42068 92.8174 4.42068 90.8803C4.42068 89.0245 4.68726 87.1802 4.98862 85.3475C5.05816 84.9532 5.03498 84.5472 5.05816 84.1412C5.74201 84.9648 6.26361 85.8811 7.02861 86.5886Z" fill="#08D9D6"/>
<path d="M111.195 37.2226C109.271 37.0486 107.335 36.8978 105.457 36.3874C105.029 35.9582 104.994 35.2855 104.403 34.9375C103.452 34.3807 102.803 34.3923 101.992 35.1463C101.83 35.2971 101.679 35.4479 101.47 35.5059C99.3375 35.0535 97.286 34.3575 95.2692 33.5224C94.0985 32.374 92.9394 31.2025 91.734 30.0889C90.0186 28.4998 88.2684 26.9455 86.5297 25.3912C87.0977 25.2172 87.6656 25.1824 88.2568 25.1824C90.714 25.194 93.1597 25.2288 95.6169 25.1708C97.5989 25.1244 99.5462 25.484 101.517 25.4376C101.621 25.8319 101.378 26.1335 101.262 26.4699C101.03 27.1427 101.262 27.6995 101.76 28.117C102.235 28.523 102.792 28.639 103.371 28.3142C103.974 27.9779 104.24 27.4675 104.206 26.7831C104.194 26.3887 103.916 26.0291 104.101 25.6232C105.237 25.6 106.35 25.8319 107.463 25.9711C108.181 26.0639 108.923 25.9944 109.63 26.2495C110.187 26.4467 110.233 25.8668 110.488 25.6C110.789 25.8204 110.754 26.1799 110.859 26.4815C111.23 27.6878 111.763 27.9198 112.887 27.3863C113.212 27.2355 113.467 26.9339 113.849 26.9107C116.295 27.4907 118.764 28.0242 121.14 28.8826C122.38 29.3234 123.597 29.8222 124.745 30.3905C125.185 30.2282 124.895 29.7178 125.231 29.567C125.324 29.625 125.428 29.7178 125.428 29.8106C125.405 31.0401 126.124 31.4925 127.225 31.5389C128.083 32.1188 128.94 32.6988 129.81 33.2672C130.03 33.4064 130.239 33.534 130.32 33.8007C130.412 33.9631 130.389 34.1487 130.412 34.3227C130.609 35.7611 130.818 35.9119 132.197 35.6335C132.383 35.5987 132.557 35.5755 132.696 35.7262C133.669 36.3642 134.307 37.2806 134.944 38.2202C135.049 38.3477 135.06 38.4753 134.921 38.5913C133.067 38.4173 131.224 38.2433 129.369 38.0809C127.92 37.9533 126.46 37.8258 125.011 37.733C121.545 37.5242 118.08 37.4546 114.614 37.4546C114.429 37.4546 114.255 37.4198 114.069 37.3966C113.965 36.9906 114.313 36.7238 114.394 36.3874C114.591 35.5755 114.429 34.8447 113.756 34.3227C113.131 33.8356 112.424 33.9864 111.809 34.3691C111.149 34.7751 110.905 35.3783 111.114 36.1555C111.207 36.515 111.415 36.863 111.195 37.2226Z" fill="#08D9D6"/>
<path d="M7.70088 44.8321C7.06339 46.3168 6.58818 47.8595 6.26363 49.4253C5.85796 51.432 4.61775 53.0675 3.87593 54.9233C3.78321 53.3575 4.39751 51.896 4.44387 50.3533C5.02341 48.4974 5.55659 46.6416 6.18249 44.8089C8.45428 38.1626 11.9779 32.2703 16.8576 27.2015C19.9408 24.0118 23.6614 21.7963 27.7414 20.1492C31.9372 18.4558 36.2838 17.3539 40.7578 16.7159C40.9317 16.5883 41.1171 16.4955 41.3373 16.5999C42.7862 16.4955 44.235 16.4143 45.6839 16.2983C47.7934 16.136 49.8913 16.136 52.0009 16.2983C52.9397 16.3679 53.8902 16.4027 54.8406 16.4491C56.5213 16.7159 58.2135 16.9827 59.8942 17.2611C60.3926 17.3423 60.8794 17.4583 61.3662 17.6207C58.7235 17.6323 56.1272 18.1658 53.4613 17.7714C51.63 17.5047 49.7407 17.5975 47.8861 17.6902C43.8989 18.1078 39.8769 18.3514 35.9708 19.3257C30.6043 20.6712 25.4116 22.4227 20.9723 25.856C17.0083 28.9298 14.0411 32.8503 11.5027 37.1535C10.1581 39.4385 9.21928 41.8975 8.03702 44.2522C7.9327 44.4493 7.8052 44.6349 7.70088 44.8321Z" fill="#252A34"/>
<path d="M104.09 25.6352C104.229 25.9716 104.403 26.308 104.484 26.656C104.692 27.4911 104.159 28.3379 103.244 28.6975C102.548 28.9758 101.598 28.5815 101.169 27.9435C100.531 26.9807 100.983 26.2152 101.505 25.438C102.409 25.09 103.278 25.0669 104.09 25.6352Z" fill="#FF2E63"/>
<path d="M86.5413 22.9558C86.5298 21.9466 87.3295 21.1927 88.3843 21.2043C89.3579 21.2158 90.0649 21.9466 90.0765 22.9673C90.0881 23.9765 89.2999 24.7537 88.28 24.7421C87.3527 24.7189 86.5413 23.8837 86.5413 22.9558Z" fill="#FF2E63"/>
<path d="M95.8485 22.5495C95.8369 21.6563 96.6831 20.8096 97.6103 20.7864C98.5492 20.7632 99.4649 21.6564 99.4533 22.5959C99.4417 23.5587 98.6999 24.2546 97.6915 24.3358C96.8337 24.4054 95.9413 23.663 95.8485 22.5495Z" fill="#FF2E63"/>
<path d="M113.837 26.934C113.455 27.6648 112.725 27.8156 112.029 27.9896C111.427 28.1404 111.079 27.7576 110.824 27.2936C110.534 26.7716 110.476 26.2032 110.476 25.6117C111.125 24.8925 111.983 24.4285 112.875 24.7881C113.721 25.1245 113.779 26.0989 113.837 26.934Z" fill="#FF2E63"/>
<path d="M83.7826 20.2996C83.0407 20.3344 82.0208 19.5689 81.9628 18.9541C81.8933 18.1769 82.6814 17.1098 83.3537 17.075C84.1651 17.0286 85.1387 17.8174 85.1619 18.5249C85.1619 19.3137 84.4316 20.2648 83.7826 20.2996Z" fill="#FF2E63"/>
<path d="M108.691 21.8883C108.564 22.8742 107.88 23.5354 107.069 23.4542C106.13 23.3614 105.411 22.6654 105.515 21.9579C105.678 20.9139 106.35 20.2528 107.127 20.3688C108.054 20.4963 108.772 21.1923 108.691 21.8883Z" fill="#FF2E63"/>
<path d="M93.0668 16.5759C93.9245 16.5991 94.4577 17.1906 94.4461 18.0722C94.4345 18.9885 93.8434 19.5221 92.8813 19.4757C92.0352 19.4293 91.5136 18.8377 91.5484 17.933C91.5832 17.0862 92.1743 16.5527 93.0668 16.5759Z" fill="#FF2E63"/>
<path d="M103.753 17.7599C103.777 18.5254 103.22 19.0126 102.293 19.0358C101.435 19.0706 100.821 18.4094 100.844 17.4931C100.856 16.8435 101.574 16.2519 102.386 16.2055C103.104 16.1591 103.742 16.8783 103.753 17.7599Z" fill="#FF2E63"/>
<path d="M132.696 35.7386C132.325 35.8778 131.954 36.0402 131.583 36.1446C131.119 36.2722 130.714 36.1446 130.505 35.6574C130.25 35.0658 129.891 34.4743 130.308 33.8131C130.505 33.7319 130.714 33.6623 130.911 33.5695C132.197 32.9663 132.649 33.5463 132.927 34.8107C133.009 35.1586 132.881 35.4602 132.696 35.7386Z" fill="#FF2E63"/>
<path d="M122.844 26.1573C122.832 26.8069 122.136 27.3521 121.29 27.3637C120.664 27.3753 119.992 26.4821 120.039 25.6933C120.073 25.125 120.919 24.5334 121.696 24.5334C122.299 24.545 122.844 25.3105 122.844 26.1573Z" fill="#FF2E63"/>
<path d="M127.213 31.5503C127.074 31.5851 126.935 31.6199 126.784 31.6431C125.822 31.8635 125.335 31.5387 125.231 30.5527C125.196 30.228 125.22 29.9032 125.22 29.5668C125.44 29.4392 125.637 29.2768 125.869 29.184C126.831 28.7896 127.213 28.8708 127.572 29.4856C128.071 30.3672 127.978 30.9123 127.213 31.5503Z" fill="#FF2E63"/>
<path d="M115.171 21.5639C115.147 21.0535 115.866 19.9632 116.272 19.9284C116.805 19.882 117.86 20.5896 117.894 21.0187C117.941 21.6103 117.28 22.6079 116.816 22.6311C116.26 22.6659 115.182 21.9699 115.171 21.5639Z" fill="#FF2E63"/>
<path d="M68.0191 14.6619C68.0307 13.9891 68.5059 13.502 69.1898 13.4904C69.8273 13.4788 70.3952 14.0007 70.4068 14.6271C70.4184 15.2883 69.8041 15.9147 69.1666 15.8915C68.5407 15.8567 68.0075 15.2999 68.0191 14.6619Z" fill="#FF2E63"/>
<path d="M78.532 15.4856C77.9177 15.5088 77.3497 14.9636 77.3033 14.3372C77.2686 13.7225 77.7902 13.1309 78.4276 13.0845C79.0767 13.0381 79.691 13.6181 79.7026 14.2909C79.7026 14.894 79.1579 15.4624 78.532 15.4856Z" fill="#FF2E63"/>
<path d="M88.0131 12.4474C88.6274 12.459 89.1606 13.0274 89.149 13.6654C89.1374 14.2917 88.5926 14.8253 87.9551 14.8369C87.3176 14.8369 86.7497 14.2917 86.7613 13.677C86.7613 13.0042 87.3292 12.4358 88.0131 12.4474Z" fill="#FF2E63"/>
<path d="M112.934 17.0175C112.934 17.7367 112.516 18.1542 111.786 18.1658C111.102 18.1774 110.511 17.5975 110.534 16.9363C110.557 16.3447 111.16 15.7996 111.786 15.8112C112.435 15.8228 112.934 16.3563 112.934 17.0175Z" fill="#FF2E63"/>
<path d="M97.2396 14.4192C96.5905 14.4076 96.0458 13.8624 96.0689 13.2477C96.0921 12.6097 96.6253 12.1341 97.3091 12.1341C98.051 12.1341 98.4335 12.5285 98.4219 13.294C98.3987 14.0248 97.9698 14.4308 97.2396 14.4192Z" fill="#FF2E63"/>
<path d="M91.3861 8.67748C91.4093 8.1671 91.8961 7.6219 92.3134 7.6335C92.8813 7.6567 93.3449 8.09748 93.3102 8.57305C93.2638 9.12982 92.8234 9.58223 92.3365 9.54743C91.8381 9.50104 91.3745 9.07186 91.3861 8.67748Z" fill="#FF2E63"/>
<path d="M82.948 10.1971C82.4148 10.1855 81.9164 9.70989 81.9512 9.25751C81.9975 8.73554 82.4959 8.23673 82.9364 8.28313C83.4464 8.32953 83.8636 8.73553 83.8521 9.17631C83.8521 9.72148 83.4116 10.2087 82.948 10.1971Z" fill="#FF2E63"/>
<path d="M129.926 25.3801C129.937 24.8813 130.436 24.3245 130.864 24.3477C131.398 24.3593 131.873 24.8349 131.838 25.3105C131.803 25.8209 131.409 26.2732 130.98 26.2732C130.47 26.2848 129.926 25.8209 129.926 25.3801Z" fill="#FF2E63"/>
<path d="M124.895 21.0072C124.86 20.5201 125.359 19.9285 125.811 19.9401C126.286 19.9401 126.773 20.3693 126.796 20.7985C126.819 21.3088 126.46 21.8076 126.031 21.854C125.544 21.9236 124.93 21.448 124.895 21.0072Z" fill="#FF2E63"/>
<path d="M105.77 12.7139C105.747 12.1803 106.199 11.6468 106.651 11.6584C107.115 11.67 107.613 12.0991 107.636 12.4935C107.659 13.0387 107.254 13.5259 106.755 13.5259C106.257 13.5259 105.793 13.1547 105.77 12.7139Z" fill="#FF2E63"/>
<path d="M134.921 38.6032C134.933 38.4756 134.933 38.348 134.944 38.232C135.269 38.0812 135.593 37.8956 135.93 37.7796C136.787 37.478 137.123 37.6288 137.494 38.4292C137.587 38.6264 137.633 38.8352 137.715 39.0439C136.776 38.9627 135.825 38.8815 134.921 38.6032Z" fill="#FF2E63"/>
<path d="M140.821 35.112C140.369 35.1236 140.01 34.7525 140.033 34.2885C140.056 33.7433 140.52 33.6969 140.891 33.6041C141.296 33.5113 141.713 34.0217 141.725 34.5553C141.737 34.8917 141.389 35.1004 140.821 35.112Z" fill="#FF2E63"/>
<path d="M121.279 15.8455C121.58 15.8687 121.928 16.3675 121.905 16.7503C121.881 17.075 121.302 17.4694 120.908 17.423C120.595 17.3882 120.178 16.7851 120.201 16.4139C120.224 16.1703 120.873 15.8223 121.279 15.8455Z" fill="#FF2E63"/>
<path d="M101.505 9.04893C101.203 9.02573 100.844 8.43419 100.89 8.02821C100.914 7.72662 101.505 7.33223 101.887 7.36703C102.177 7.39023 102.49 7.94699 102.49 8.39936C102.478 8.72415 101.934 9.08373 101.505 9.04893Z" fill="#FF2E63"/>
<path d="M136.335 28.8252C136.834 29.9039 136.822 30.1823 136.3 30.4143C135.779 30.6463 135.385 30.4607 135.211 29.8923C135.025 29.2891 135.234 29.092 136.335 28.8252Z" fill="#FF2E63"/>
<path d="M73.49 8.87453C74.0347 8.83973 74.3129 9.09493 74.3825 9.65171C74.4288 10.0693 74.0695 10.4057 73.5479 10.4173C73.177 10.4289 72.7945 9.95329 72.7829 9.39652C72.7482 8.85134 73.2466 8.99052 73.49 8.87453Z" fill="#FF2E63"/>
<path d="M116.005 11.5656C116.411 11.6004 116.724 11.9252 116.666 12.2732C116.596 12.6211 116.434 12.9111 116.028 12.8647C115.692 12.8299 115.379 12.714 115.368 12.2964C115.344 11.9252 115.715 11.5424 116.005 11.5656Z" fill="#FF2E63"/>
<path d="M145.55 37.9648C145.932 37.9764 146.373 38.3592 146.303 38.6375C146.222 38.9507 146.129 39.2871 145.689 39.2871C145.295 39.2755 144.924 38.9507 144.993 38.6259C145.063 38.3127 145.167 37.988 145.55 37.9648Z" fill="#FF2E63"/>
<path d="M110.556 7.52874C110.649 7.14595 110.928 6.96036 111.252 6.94876C111.647 6.93716 111.624 7.34314 111.67 7.59833C111.728 7.95791 111.45 8.14351 111.16 8.15511C110.754 8.17831 110.638 7.84192 110.556 7.52874Z" fill="#FF2E63"/>
<path d="M63.6483 10.1851C63.6367 9.76749 63.9615 9.67469 64.2399 9.6399C64.6459 9.5819 64.6807 9.94149 64.7039 10.2315C64.7387 10.6143 64.4255 10.7535 64.1471 10.7767C63.7527 10.8114 63.7527 10.4171 63.6483 10.1851Z" fill="#FF2E63"/>
<path d="M77.8015 5.35986C77.4419 5.32507 77.2795 5.09308 77.2679 4.77989C77.2563 4.39711 77.5579 4.29271 77.8595 4.30431C78.2307 4.31591 78.3235 4.61749 78.3235 4.91908C78.3235 5.23226 78.0799 5.31347 77.8015 5.35986Z" fill="#FF2E63"/>
<path d="M87.2942 4.71045C86.923 4.67565 86.7606 4.44367 86.7374 4.14209C86.7142 3.77091 87.0274 3.67808 87.3174 3.64329C87.677 3.60849 87.8278 3.8637 87.8394 4.17689C87.8394 4.53647 87.5726 4.65245 87.2942 4.71045Z" fill="#FF2E63"/>
<path d="M96.0914 3.72434C96.1378 3.52715 96.2306 3.38796 96.451 3.39956C96.7641 3.42276 97.0309 3.56194 97.0541 3.89832C97.0773 4.16511 96.8337 4.23474 96.6134 4.25794C96.219 4.30434 96.161 4.00273 96.0914 3.72434Z" fill="#FF2E63"/>
<path d="M41.3487 16.5994C41.1631 16.6922 40.9891 16.8082 40.7687 16.7154C40.7571 16.6806 40.7455 16.6458 40.7455 16.611C40.7339 16.321 40.6527 15.9614 41.0935 15.9846C41.4531 16.0078 41.3371 16.3558 41.3487 16.5994Z" fill="#FF2E63"/>
<path d="M130.308 16.0319C130.342 15.8231 130.47 15.7419 130.609 15.7883C130.795 15.8347 130.922 15.9739 130.853 16.1827C130.83 16.2523 130.69 16.3335 130.609 16.3335C130.412 16.3219 130.296 16.2059 130.308 16.0319Z" fill="#FF2E63"/>
<path d="M54.4923 10.5675C54.5155 10.4051 54.6199 10.3007 54.7707 10.3007C54.9447 10.3007 55.0143 10.4283 55.0259 10.5791C55.0375 10.7415 54.9447 10.8575 54.7823 10.8459C54.6315 10.8343 54.5387 10.7183 54.4923 10.5675Z" fill="#FF2E63"/>
<path d="M134.99 20.2183C134.979 20.0559 135.06 19.9747 135.176 19.9747C135.396 19.9631 135.501 20.1023 135.524 20.2995C135.547 20.4271 135.454 20.5083 135.338 20.5199C135.118 20.5315 135.048 20.3691 134.99 20.2183Z" fill="#FF2E63"/>
<path d="M68.3201 5.22123C68.2969 5.04724 68.3781 4.94285 68.5521 4.93125C68.7028 4.91965 68.842 4.95445 68.842 5.15164C68.842 5.30243 68.7724 5.44161 68.61 5.46481C68.4477 5.48801 68.3549 5.37202 68.3201 5.22123Z" fill="#FF2E63"/>
<path d="M72.9102 0.290947C72.9102 0.128555 72.9798 0.0125604 73.1422 0.000960984C73.293 -0.0106384 73.409 0.082147 73.4438 0.244539C73.4785 0.406931 73.3974 0.522949 73.2234 0.522949C73.0726 0.522949 72.9566 0.453339 72.9102 0.290947Z" fill="#FF2E63"/>
<path d="M140.009 24.9511C139.997 24.7655 140.055 24.6611 140.206 24.6147C140.345 24.5683 140.38 24.6843 140.415 24.7771C140.473 24.9279 140.427 25.0787 140.287 25.1251C140.16 25.1715 140.032 25.0787 140.009 24.9511Z" fill="#FF2E63"/>
<path d="M145.074 29.347C145.109 29.173 145.237 29.1266 145.376 29.1498C145.538 29.173 145.62 29.3006 145.585 29.4398C145.573 29.4978 145.422 29.5674 145.33 29.5674C145.202 29.5674 145.074 29.521 145.074 29.347Z" fill="#FF2E63"/>
<path d="M58.8159 5.7543C58.8507 5.63831 58.9435 5.59191 59.0479 5.60351C59.1987 5.6267 59.3147 5.73112 59.3147 5.88192C59.3147 6.05591 59.1871 6.13708 59.0247 6.07909C58.8855 6.04429 58.8043 5.9283 58.8159 5.7543Z" fill="#FF2E63"/>
<path d="M125.266 11.5074C125.312 11.3682 125.405 11.2522 125.556 11.2638C125.614 11.2754 125.695 11.4146 125.695 11.4958C125.695 11.6466 125.59 11.7509 125.428 11.7277C125.324 11.7161 125.266 11.6234 125.266 11.5074Z" fill="#FF2E63"/>
<path d="M50.1112 15.6366C50.1228 15.5206 50.204 15.4857 50.32 15.4741C50.4708 15.4741 50.5984 15.5206 50.5984 15.7061C50.5984 15.8221 50.5404 15.9149 50.4128 15.9033C50.2504 15.8801 50.146 15.8105 50.1112 15.6366Z" fill="#FF2E63"/>
<path d="M150.128 33.7542C150.151 33.6382 150.209 33.5686 150.325 33.5686C150.488 33.5686 150.592 33.6498 150.604 33.8122C150.615 33.9398 150.511 33.9746 150.406 33.9746C150.267 33.963 150.14 33.9398 150.128 33.7542Z" fill="#FF2E63"/>
<path d="M86.5178 25.3799C86.3902 25.3683 86.3206 25.2987 86.2626 25.1943C86.3438 25.2523 86.4366 25.3103 86.5178 25.3799Z" fill="#08D9D6"/>
<path d="M38.706 128.356C35.391 126.663 32.389 124.517 29.6188 122.047C24.4725 117.465 20.4853 111.967 17.1008 106.005C14.1799 100.867 11.6995 95.5194 9.64791 89.975C9.55519 89.7315 9.50883 89.4879 9.45087 89.2327C10.5984 90.1374 11.6879 91.1118 12.9397 91.8889C13.5192 92.2485 14.0524 92.7356 14.8522 92.4572C15.0492 92.3876 15.3506 92.55 15.5824 92.6544C18.7814 94.0463 22.1544 94.8931 25.4925 95.8326C28.4134 96.6561 31.3459 97.4681 34.1045 98.744C37.3383 100.229 40.1085 102.258 41.7196 105.553C42.9946 108.139 43.2032 110.888 42.7976 113.695C42.3108 117.117 41.0821 120.341 40.0274 123.612C39.5174 125.167 39.0769 126.756 38.706 128.356Z" fill="#08D9D6"/>
<path d="M136.474 40.3891C136.637 41.3867 137.17 42.2682 137.413 43.2542C137.715 44.4257 137.831 45.5856 137.761 46.7804C137.436 46.7688 137.1 46.734 136.776 46.7456C136.231 46.7572 135.675 46.9776 135.512 47.4763C135.234 48.3115 134.655 48.2419 133.982 48.3463C132.742 48.5319 131.49 48.3811 130.273 48.6827C129.775 48.8103 129.404 48.6595 129.265 48.1259C129.045 47.2907 128.338 47.0124 127.665 47.0356C126.842 47.0703 125.869 47.2792 125.649 48.2535C125.44 49.1351 124.953 49.2163 124.235 49.1931C123.284 49.1699 122.334 49.1699 121.372 49.1815C120.896 49.1931 120.595 49.0538 120.328 48.5899C119.32 46.8268 118.068 46.6296 116.457 47.9403C116.167 48.1723 115.936 48.2651 115.576 48.1259C114.973 47.8823 114.348 47.7083 113.571 47.4415C114.301 46.9544 115.147 46.7804 115.321 45.9568C115.46 45.2724 115.391 44.5765 115.055 43.9269C114.487 42.8482 113.71 42.5118 112.481 42.999C110.743 43.6833 110.766 44.1125 111.056 46.1772C110.302 45.922 109.665 45.4928 109.039 45.11C106.164 43.3353 103.533 41.2242 101.041 38.9624C100.311 38.3012 99.5693 37.64 98.8507 36.9673C98.5841 36.7237 98.2712 36.5033 98.1553 36.1321C99.21 36.3757 100.253 36.6541 101.262 37.0369C102.305 38.2432 103.499 38.6956 104.971 37.8256C106.014 38.046 107.08 38.0576 108.1 38.394C107.868 38.7072 107.486 38.7768 107.184 38.9624C106.072 39.6699 105.828 40.8763 106.605 41.955C107.266 42.8598 108.402 42.941 109.375 42.129C110.221 41.4331 110.221 40.1223 109.421 39.2176C109.19 38.9624 108.738 38.8928 108.749 38.4288C111.091 38.6492 113.42 38.8696 115.773 38.8696C116.075 39.2408 115.831 39.6467 115.854 40.0295C115.901 41.0039 116.608 41.7926 117.454 41.8042C118.451 41.8158 119.216 41.0271 119.239 39.9831C119.239 39.6351 119.042 39.2639 119.32 38.9276C121.244 38.9856 123.18 38.9624 125.104 39.2176C125.127 39.2407 125.162 39.264 125.173 39.2988C125.452 40.1339 125.753 41.0271 126.796 41.1199C127.828 41.2127 128.175 40.3543 128.581 39.6235C128.616 39.5655 128.674 39.5191 128.743 39.4727C131.061 39.5191 133.356 39.8323 135.64 40.2383C135.906 40.2963 136.196 40.3427 136.474 40.3891Z" fill="#08D9D6"/>
<path d="M125.498 127.115C125.324 126.454 124.721 126.442 124.258 126.466C122.89 126.535 121.557 126.28 120.212 126.187C118.868 126.094 117.546 125.816 116.214 125.665C114.799 125.503 113.42 125.132 111.995 125.074C112.841 124.355 113.837 123.879 114.788 123.357C118.439 121.339 122.229 119.587 126.112 118.068C126.251 120.933 126.216 123.775 125.683 126.605C125.648 126.79 125.625 126.976 125.498 127.115Z" fill="#08D9D6"/>
<path d="M7.8858 44.3328C7.96699 44.3328 8.0482 44.3328 8.12939 44.3328C8.0714 44.5648 7.89739 44.7155 7.7002 44.8315C7.6886 44.6344 7.70021 44.4488 7.8858 44.3328Z" fill="#FF2E63"/>
<path d="M108.749 38.4167C110.048 39.0662 110.615 40.2494 110.256 41.5717C110.094 42.1749 108.773 43.0216 108.054 42.9752C106.466 42.8708 105.353 41.1889 106.002 39.739C106.385 38.8923 107.161 38.4514 108.1 38.3703C108.321 38.3934 108.541 38.4051 108.749 38.4167Z" fill="#FF2E63"/>
<path d="M111.195 37.2227C111.079 36.8863 110.928 36.5499 110.836 36.202C110.534 35.1232 111.067 34.2417 112.215 33.8821C113.316 33.5457 114.22 33.9517 114.614 34.9608C114.985 35.9004 114.846 36.7356 114.081 37.4199C113.107 37.3503 112.157 37.2923 111.195 37.2227Z" fill="#FF2E63"/>
<path d="M119.32 38.9277C119.378 39.1017 119.436 39.2757 119.482 39.4497C119.668 40.3313 119.598 41.12 118.764 41.6768C118.022 42.1756 117.129 42.2568 116.492 41.8044C115.704 41.236 115.437 40.4357 115.599 39.4845C115.634 39.2757 115.727 39.0669 115.785 38.8581C116.955 38.8581 118.138 38.7769 119.32 38.9277Z" fill="#FF2E63"/>
<path d="M128.72 39.4844C128.709 39.5888 128.709 39.7048 128.685 39.8092C128.361 40.9576 127.608 41.5723 126.703 41.4563C125.683 41.3171 125.058 40.4472 125.104 39.2292C126.309 39.2988 127.526 39.1364 128.72 39.4844Z" fill="#FF2E63"/>
<path d="M101.47 35.5056C102.107 34.4269 102.664 34.0905 103.521 34.2645C104.75 34.5197 105.364 35.1925 105.469 36.3872C104.089 36.2712 102.768 35.9464 101.47 35.5056Z" fill="#FF2E63"/>
<path d="M104.971 37.8137C103.673 39.078 101.934 38.7068 101.262 37.0365C102.525 37.1873 103.73 37.5585 104.971 37.8137Z" fill="#FF2E63"/>
<path d="M98.3521 30.008C99.5112 29.9848 100.369 30.8895 100.369 32.1191C100.369 33.221 99.3953 34.1026 98.1782 34.1142C97.1351 34.1258 96.2194 33.1166 96.173 31.8987C96.1383 30.9359 97.193 30.0312 98.3521 30.008Z" fill="#FF2E63"/>
<path d="M105.84 31.3188C105.828 30.2401 106.593 29.4165 107.636 29.3817C108.749 29.3469 109.642 30.2749 109.653 31.4928C109.665 32.5484 108.842 33.2907 107.648 33.3139C106.547 33.3371 105.851 32.56 105.84 31.3188Z" fill="#FF2E63"/>
<path d="M93.4608 29.1611C92.3713 29.1611 91.5483 28.442 91.5599 27.4792C91.5715 26.3773 92.3713 25.4725 93.3449 25.4841C94.2721 25.4957 95.3269 26.4469 95.2921 27.2357C95.2342 28.3956 94.5155 29.1611 93.4608 29.1611Z" fill="#FF2E63"/>
<path d="M115.367 30.7502C115.344 29.9035 116.225 28.9987 117.118 28.9523C118.08 28.9059 118.937 29.7294 118.961 30.727C118.984 31.7361 118.277 32.4553 117.257 32.4785C116.179 32.4785 115.391 31.771 115.367 30.7502Z" fill="#FF2E63"/>
<path d="M120.386 35.4014C120.386 34.3923 121.094 33.6267 122.056 33.6035C123.029 33.5803 123.922 34.4967 123.898 35.5174C123.875 36.399 122.994 37.1877 122.056 37.1761C121.059 37.1529 120.386 36.4454 120.386 35.4014Z" fill="#FF2E63"/>
<path d="M141.296 42.5469C142.015 42.5585 142.421 42.9993 142.409 43.7301C142.397 44.4029 141.899 44.8784 141.227 44.8784C140.578 44.8784 140.044 44.3564 140.021 43.7185C139.998 43.0225 140.543 42.5353 141.296 42.5469Z" fill="#FF2E63"/>
<path d="M146.222 49.2741C145.573 49.2509 145.075 48.7289 145.075 48.0677C145.086 47.3718 145.62 46.9078 146.385 46.9542C147.045 46.989 147.486 47.4994 147.463 48.1953C147.439 48.8217 146.895 49.2973 146.222 49.2741Z" fill="#FF2E63"/>
<path d="M151.427 53.4037C150.917 53.4269 150.43 53.0789 150.372 52.6497C150.314 52.1509 150.743 51.6058 151.218 51.571C151.74 51.5362 152.215 51.8841 152.261 52.3249C152.331 52.8353 151.902 53.3805 151.427 53.4037Z" fill="#FF2E63"/>
<path d="M156.271 57.4629C155.808 57.4397 155.367 57.0569 155.448 56.7901C155.553 56.4653 155.622 56.0014 156.109 56.0826C156.457 56.1406 156.816 56.3145 156.747 56.8017C156.689 57.1497 156.561 57.4281 156.271 57.4629Z" fill="#FF2E63"/>
<path d="M160.768 61.3491C160.861 61.2447 160.965 61.1404 161.128 61.2216C161.267 61.2912 161.371 61.4072 161.29 61.558C161.221 61.6972 161.07 61.7435 160.931 61.6855C160.791 61.6275 160.687 61.5231 160.768 61.3491Z" fill="#FF2E63"/>
<path d="M155.622 47.2094C155.784 47.1978 155.9 47.2906 155.935 47.4414C155.97 47.6038 155.866 47.7314 155.703 47.7082C155.552 47.6966 155.46 47.569 155.436 47.4182C155.413 47.2674 155.506 47.2326 155.622 47.2094Z" fill="#FF2E63"/>
<path d="M122.6 42.7555C123.863 42.7555 124.628 43.6023 124.582 44.9478C124.547 45.9221 123.516 46.7921 122.345 46.7573C121.093 46.7225 120.502 45.8757 120.421 44.4374C120.375 43.4979 121.406 42.7439 122.6 42.7555Z" fill="#FF2E63"/>
<path d="M133.635 44.0894C133.635 45.0638 132.881 45.8526 131.954 45.8642C131.038 45.8758 130.076 44.9246 130.111 44.043C130.146 43.0107 130.922 42.3031 131.977 42.3263C133.02 42.3611 133.646 43.0107 133.635 44.0894Z" fill="#FF2E63"/>
<path d="M82.5961 92.8075C89.9245 92.8075 95.8654 86.8667 95.8654 79.5383C95.8654 72.2099 89.9245 66.269 82.5961 66.269C75.2677 66.269 69.3269 72.2099 69.3269 79.5383C69.3269 86.8667 75.2677 92.8075 82.5961 92.8075Z" stroke="white" stroke-width="3" stroke-linecap="round" stroke-linejoin="round"/>
<path d="M59.9324 113.508C62.3009 109.62 65.6297 106.407 69.5988 104.177C73.5679 101.947 78.0438 100.776 82.5962 100.776C87.1487 100.776 91.6246 101.947 95.5937 104.177C99.5628 106.407 102.892 109.62 105.26 113.508" stroke="white" stroke-width="3" stroke-linecap="round" stroke-linejoin="round"/>
<path d="M82.5962 122C101.65 122 117.096 106.554 117.096 87.5C117.096 68.4462 101.65 53 82.5962 53C63.5424 53 48.0962 68.4462 48.0962 87.5C48.0962 106.554 63.5424 122 82.5962 122Z" stroke="white" stroke-width="3" stroke-linecap="round" stroke-linejoin="round"/>
</svg>
