<svg width="400" height="402" viewBox="0 0 400 402" fill="none" xmlns="http://www.w3.org/2000/svg">
<ellipse cx="184.5" cy="235" rx="180.5" ry="167" fill="white"/>
<path d="M81.5807 299.611C82.107 296.347 83.0544 293.505 80.528 291.4C80.4228 291.295 80.2122 290.979 80.3175 290.979C83.8965 286.768 80.4228 283.505 79.2648 279.61C77.8964 274.979 76.0016 271.821 71.4752 272.979C61.8961 275.4 52.4222 274.452 42.843 273.294C38.1061 272.768 34.7376 274.768 33.3692 279.61C33.0534 280.768 33.1586 282.663 31.3691 282.979C25.4743 283.926 24.3163 288.768 23.369 293.295C22.4216 297.505 20.211 300.979 18.3162 304.663C16.8425 307.611 16.1056 310.769 21.3689 310.348C22.4216 310.243 23.5795 310.348 24.0005 311.506C24.3163 312.453 23.5795 313.085 22.9479 313.716C20.9478 315.4 18.7373 317.19 19.8952 320.243C20.9478 323.295 23.4742 322.769 26.0006 322.559C28.4217 322.453 28.527 324.138 27.2638 325.717C24.5269 328.769 24.3163 331.717 27.4743 334.348C30.8428 337.085 34.2113 336.875 37.0534 333.401C39.5798 330.348 43.3694 334.032 46.1063 331.611C46.4221 332.032 47.0536 332.559 46.9484 332.769C46.7379 333.401 46.2115 334.243 45.6852 334.243C40.843 334.769 37.0534 338.243 32.4218 339.296C27.0532 340.454 21.0531 334.559 21.79 329.085C22.1058 326.769 21.6847 326.138 19.7899 325.506C19.0531 325.295 18.3162 324.559 17.7899 323.927C16.9478 322.874 15.5793 321.401 16.2109 320.243C19.2636 314.137 10.6318 308.664 15.5793 302.453C18.4215 298.874 19.5794 294.347 20.7373 289.926C21.8952 285.61 23.5795 281.505 28.4217 280.031C29.8954 279.61 30.2112 278.452 30.6323 277.4C32.9481 271.294 37.8956 268.768 43.8957 269.505C52.9485 270.557 61.6855 271.61 70.8436 269.505C77.5806 268.031 80.3175 272.558 83.5807 278.242C87.0545 284.242 82.8439 289.926 85.1597 295.4C85.265 296.558 84.3176 298.453 81.5807 299.611Z" fill="#252A34"/>
<path d="M368.85 203.714C360.85 211.083 357.692 211.714 347.691 207.714C346.744 210.767 346.218 214.03 343.586 216.241C340.954 218.451 338.007 218.978 334.954 217.609C333.796 220.135 335.902 222.767 333.481 225.293C332.428 221.504 331.165 218.135 330.533 214.662C330.007 212.03 331.586 212.451 333.375 213.293C340.218 216.451 343.691 214.03 344.007 206.24C344.112 204.661 342.849 202.346 344.955 201.504C346.955 200.661 347.902 202.977 349.165 203.925C355.692 208.556 362.534 206.872 366.218 199.714C366.955 198.346 367.481 196.872 367.902 195.398C368.323 194.135 368.534 192.766 370.008 192.872C371.692 192.977 372.008 194.661 372.008 196.03C371.902 201.188 372.639 206.135 374.639 210.872C377.903 218.556 383.587 221.504 391.798 220.241C393.166 220.03 394.64 219.293 395.587 220.872C396.64 222.557 394.956 223.399 394.113 224.346C388.429 230.978 383.797 237.715 387.903 246.978C388.64 248.662 387.692 249.61 386.008 250.031C384.64 250.347 383.376 250.662 382.008 251.083C380.955 251.399 379.587 252.768 378.85 251.189C378.113 249.61 380.113 249.294 380.955 248.768C382.324 247.926 384.745 248.031 383.797 245.399C381.271 238.136 384.324 232.136 388.008 226.136C388.219 225.715 388.324 225.188 388.534 224.451C375.587 223.714 371.481 214.451 368.85 203.714Z" fill="#252A34"/>
<path d="M146.319 123.291C137.792 125.818 130.424 128.239 123.055 130.239C109.792 133.923 96.423 137.081 83.4753 141.818C81.0542 142.66 78.6331 143.502 78.1068 139.607C76.212 123.818 73.4751 108.133 72.7383 92.2381C72.7383 91.2907 72.9488 90.3433 73.1593 89.1854C75.6857 89.9222 75.2647 91.9222 75.4752 93.1854C77.4752 106.659 79.37 120.133 80.949 133.713C81.37 137.397 82.1069 138.344 86.0017 137.081C104.002 131.081 122.529 126.765 140.95 122.344C142.213 121.923 143.687 121.397 146.319 123.291Z" fill="#252A34"/>
<path d="M78.1069 298.663C74.7384 298.663 71.3699 298.663 68.0015 298.663C70.1068 297.506 70.212 295.19 70.5278 293.295C71.1594 290.032 69.3699 288.242 66.4225 289.505C63.5803 290.769 62.2119 290.137 60.3171 288.032C53.5801 280.453 45.4747 279.61 37.7903 285.611C29.8954 291.821 27.7901 302.453 33.0534 310.348C34.4218 312.453 36.3166 313.822 34.9481 317.19C33.685 320.453 36.9482 320.769 39.4745 321.19C40.9483 321.401 44.2115 320.348 41.7904 323.927C33.3692 323.717 32.8428 323.296 31.6849 315.19C31.4744 313.611 30.3165 312.769 29.6849 311.611C25.4743 304.348 25.2637 297.084 29.4743 289.716C33.8955 282.137 40.6325 278.347 49.2642 277.821C51.8959 277.716 54.5275 278.453 56.7381 279.926C60.9487 282.558 63.8961 286.663 70.0015 286.558C74.1068 286.453 74.6332 291.19 71.791 297.4C73.6858 298.979 76.3174 296.558 78.1069 298.663Z" fill="#252A34"/>
<path d="M308.006 170.871C306.217 164.24 308.322 158.766 311.48 153.608C314.533 148.555 319.27 145.923 325.059 146.344C331.375 146.871 336.218 149.924 338.849 156.029C343.165 166.24 334.744 180.24 323.691 181.187C322.744 181.293 321.796 181.503 321.48 180.45C321.059 178.977 322.428 178.977 323.375 178.661C329.691 176.345 334.007 172.24 335.902 165.608C337.481 159.924 335.165 154.134 330.007 151.397C324.954 148.66 318.638 149.924 314.954 154.555C312.322 157.924 310.849 161.819 310.217 166.029C310.007 167.713 310.428 169.398 308.006 170.871Z" fill="#252A34"/>
<path d="M288.953 102.238C291.901 104.238 291.796 106.765 293.269 109.186C295.375 104.028 297.69 99.3962 299.164 94.4487C300.743 89.1854 303.059 88.8696 307.796 90.8697C317.27 94.7645 327.165 97.7119 336.323 102.554C337.586 103.186 340.218 103.396 339.481 105.291C338.639 107.502 336.744 105.502 335.481 105.08C326.323 101.817 317.059 98.554 308.112 94.8697C304.427 93.2908 303.059 94.2382 301.796 97.8172C300.006 103.08 297.585 108.133 295.48 113.291C294.953 114.554 294.532 116.133 292.743 115.923C291.164 115.712 291.164 114.133 290.953 112.975C290.322 109.712 288.638 106.554 288.953 102.238Z" fill="#252A34"/>
<path d="M95.3705 254.031C94.1073 254.978 93.0546 256.662 91.5809 254.557C89.6861 251.82 88.3177 248.768 87.5808 245.504C87.265 244.136 95.8968 238.978 97.3705 239.504C100.423 240.662 102.739 242.767 104.634 245.294C104.739 245.399 104.95 245.61 104.95 245.715C102.844 250.662 106.213 254.662 107.055 259.084C107.371 260.663 105.476 261.084 104.002 259.926C102.002 258.452 100.002 257.084 98.1074 255.61C97.0547 255.084 96.2126 254.557 95.3705 254.031Z" fill="#FF2E63"/>
<path d="M87.265 116.87C87.265 107.817 92.6335 103.08 100.528 104.449C104.634 105.08 108.739 106.449 112.739 107.396C122.213 109.607 126.529 106.659 128.213 97.0803C128.529 95.2908 127.582 93.1855 129.476 91.817C133.898 98.9751 128.318 110.765 120.213 111.607C116.318 112.028 112.529 111.291 108.844 110.133C100.318 107.291 91.8967 105.291 87.265 116.87Z" fill="#FF2E63"/>
<path d="M276.216 14.7628C270.111 17.9207 268.321 22.6577 267.058 27.9209C265.9 32.9737 263.69 37.3948 259.69 40.8686C255.374 44.6581 251.163 48.5529 251.058 55.6057C248.531 52.132 248.321 50.7635 249.795 47.2897C250.847 44.7634 252.637 42.8686 254.637 41.1844C259.69 37.079 262.847 31.8157 264.216 25.3946C265.058 21.605 266.532 18.026 269.9 15.6049C271.374 14.6575 272.848 13.3943 276.216 14.7628Z" fill="#FF2E63"/>
<path d="M321.586 105.291C322.112 108.344 320.217 110.028 320.007 112.238C319.901 113.607 319.586 115.186 321.27 115.817C322.849 116.449 323.796 115.291 324.638 114.028C324.849 113.712 324.954 113.396 325.165 113.081C326.428 111.396 325.901 106.975 329.375 108.659C331.902 109.923 329.059 112.66 328.428 114.554C327.165 118.239 325.48 121.712 322.533 124.239C319.059 127.186 314.217 125.607 313.164 121.291C312.954 120.449 312.638 119.502 313.585 118.975C314.638 118.449 315.27 119.186 315.585 120.028C316.006 121.081 316.638 121.712 317.691 122.239C318.849 122.765 319.691 122.028 320.428 121.397C321.27 120.66 320.954 120.239 320.217 119.397C315.059 114.344 315.375 110.659 321.586 105.291Z" fill="#252A34"/>
<path d="M317.901 176.871C318.217 173.082 321.165 172.345 322.217 169.924C320.849 169.187 319.27 168.555 319.059 166.345C316.638 168.661 316.954 172.029 313.901 173.608C313.48 168.45 315.586 164.45 317.375 160.45C318.322 158.345 320.323 158.976 320.744 160.766C321.691 164.976 324.323 165.819 328.007 164.976C328.849 164.766 329.796 164.871 330.323 165.713C330.954 166.871 330.217 167.819 329.375 168.45C325.796 171.292 322.533 174.45 317.901 176.871Z" fill="#FF2E63"/>
<path d="M263.69 61.2901C261.058 55.711 262.637 50.8688 267.795 47.6056C270.321 46.0266 273.058 44.8687 275.585 43.395C278.637 41.7107 280.532 39.0791 281.795 35.9211C282.322 34.7632 282.216 32.4474 283.901 32.9737C285.795 33.6053 284.743 35.6054 284.427 37.0791C283.585 40.8686 281.585 44.0266 278.321 45.8161C271.69 49.1846 264.532 51.9215 263.69 61.2901Z" fill="#FF2E63"/>
<path d="M305.585 100.554C308.322 105.923 312.322 103.712 315.901 102.659C316.743 104.975 315.27 105.712 314.217 106.344C311.796 107.712 310.006 109.291 311.27 112.449C311.585 113.186 311.48 114.239 310.533 114.66C309.691 115.081 308.954 114.554 308.848 113.923C307.691 110.133 305.375 111.817 303.164 112.66C302.427 112.975 301.585 113.607 300.743 112.66C299.901 111.712 300.638 110.765 301.269 110.554C305.48 108.659 306.006 105.08 305.585 100.554Z" fill="#252A34"/>
<path d="M202.109 309.4C204.215 317.085 203.267 324.874 202.741 332.664C202.741 333.19 201.899 333.717 201.478 334.243C200.951 333.822 200.109 333.401 200.109 332.98C200.109 325.085 198.741 317.085 202.109 309.4Z" fill="#252A34"/>
<path d="M309.164 180.872C308.848 180.24 308.638 179.608 308.217 179.082C307.164 177.924 304.322 177.292 305.48 175.398C306.743 173.292 309.059 175.187 310.533 175.924C312.638 177.082 314.638 178.661 316.322 180.24C317.375 181.187 319.164 182.451 318.007 184.029C316.849 185.608 315.691 183.819 314.428 183.398C313.796 183.187 313.059 183.082 312.428 182.977C310.849 183.082 309.691 182.451 309.164 180.872Z" fill="#252A34"/>
<path d="M390.429 114.66C389.271 113.396 388.113 112.028 386.955 110.765C384.955 107.923 381.376 109.502 378.639 107.817C380.745 104.344 383.692 104.87 386.64 106.028C390.008 107.291 392.219 109.502 392.534 113.186C392.64 114.554 391.587 114.765 390.429 114.66Z" fill="#252A34"/>
<path d="M309.164 180.871C310.217 181.608 311.375 182.345 312.427 183.082C312.849 185.082 316.533 186.135 314.849 188.03C313.27 189.819 311.164 187.398 309.48 186.135C306.954 184.345 303.901 183.293 301.796 180.556C304.533 178.661 306.848 180.661 309.164 180.871Z" fill="#252A34"/>
<path d="M85.1596 237.715C85.4754 236.978 85.8965 236.241 86.2123 235.61C86.4228 235.61 86.5281 235.504 86.7386 235.61C88.8439 236.031 90.4229 231.82 92.0019 234.136C93.3703 236.136 90.4229 237.925 89.0544 239.504C87.686 241.083 86.0018 242.452 84.4228 243.61C83.5806 244.241 82.3175 244.557 81.5806 243.61C80.8437 242.662 82.0017 241.715 82.2122 240.768C82.6333 239.399 84.0017 238.662 85.1596 237.715Z" fill="#252A34"/>
<path d="M214.741 321.611C214.847 324.138 213.583 325.401 211.689 325.506C209.794 325.611 208.425 324.664 208.32 322.348C208.215 320.243 209.478 318.98 211.373 318.875C213.373 318.664 214.425 320.032 214.741 321.611Z" fill="#252A34"/>
<path d="M305.901 185.503C306.954 187.714 305.48 188.556 304.217 189.293C304.006 189.398 302.954 189.082 302.954 188.872C302.848 186.977 304.112 186.03 305.901 185.503Z" fill="#252A34"/>
<path d="M295.269 251.926C283.48 229.294 264.216 214.977 241.268 204.872C239.9 204.24 238.637 203.714 237.479 205.188C236.636 205.609 236.11 206.24 235.689 206.977C236.005 207.083 236.215 207.188 236.531 207.293C235.584 217.293 232.742 227.083 232.11 237.188C231.689 243.925 231.057 250.768 230.426 257.505C230.321 258.978 230.742 261.189 228.32 260.978C220.847 260.347 213.478 263.084 206.11 260.873C206.11 260.557 206.215 260.242 206.215 259.926C205.583 259.61 205.057 259.189 204.636 258.452C204.32 257.82 203.794 257.505 203.267 257.505C203.267 257.715 203.267 257.926 203.267 258.136C203.267 260.452 202.636 261.821 199.688 261.926C193.793 262.031 187.899 262.663 182.004 263.084C181.898 263.084 181.793 262.873 181.688 262.663C181.477 262.873 181.372 262.978 181.162 263.189C179.898 265.505 179.583 268.242 178.319 270.558C178.741 271.084 179.056 271.715 178.635 272.452C176.846 276.137 174.635 276.242 172.53 272.979C170.635 269.926 169.267 268.873 167.267 272.768C166.951 273.4 166.109 274.242 165.898 274.242C161.898 272.452 156.214 274.347 153.793 271.821C151.161 268.979 149.687 269.505 147.056 270.242C145.582 270.663 144.108 270.663 141.582 271.084C145.477 266.136 153.056 268.136 154.53 261.926C154.845 262.242 155.056 262.557 155.161 262.978C155.266 262.768 155.372 262.557 155.477 262.347C155.898 261.61 156.214 260.978 156.424 260.136C156.108 260.136 155.898 260.136 155.582 260.031C155.161 254.031 155.266 248.031 157.582 241.504C161.372 246.452 157.582 251.083 158.951 255.61C161.793 254.557 164.53 253.82 167.056 256.241C168.214 257.294 169.267 255.82 170.214 255.189C172.109 254.136 173.898 253.294 176.109 254.557C180.32 257.189 179.898 254.347 179.477 251.61C177.583 240.031 175.583 228.557 173.688 216.978C173.161 213.714 172.319 210.451 173.688 207.188C174.004 207.398 174.319 207.504 174.635 207.504C174.53 206.977 174.214 206.662 173.688 206.556C172.214 204.451 170.425 203.925 167.898 204.661C162.845 206.135 157.898 208.03 153.477 210.977C137.687 221.188 125.371 234.767 116.845 251.399C105.265 273.926 108.95 295.611 126.108 311.295C131.055 315.822 136.634 319.506 142.74 322.243C146.845 324.138 148.635 326.769 147.898 331.19C147.687 332.559 147.582 333.927 147.371 335.401C146.845 338.769 148.108 340.243 151.687 339.927C159.056 339.401 166.319 338.98 173.688 338.664C182.214 338.243 182.214 338.348 181.793 330.032C181.688 327.927 181.583 325.822 181.793 323.717C182.109 320.138 180.635 320.138 177.898 321.19C174.319 322.559 170.635 323.611 166.846 324.559C163.161 325.506 159.477 325.611 155.056 324.769C157.056 322.559 159.056 322.559 160.74 322.243C173.898 319.295 186.951 315.927 198.846 309.4C200.636 308.348 202.32 308.348 204.32 308.874C210.11 310.453 215.794 312.032 221.689 313.085C225.373 313.716 226.32 315.401 225.689 318.769C224.847 322.98 224.847 327.085 224.847 331.296C224.847 333.506 225.268 334.98 228.005 334.98C240.321 334.875 252.532 334.875 264.848 334.875C267.795 334.875 268.953 333.717 268.953 330.769C268.953 326.348 269.163 322.032 269.269 317.611C269.269 314.243 270.637 312.558 274.111 311.401C284.848 307.821 293.164 301.084 297.901 290.558C304.217 276.979 301.69 264.136 295.269 251.926ZM210.846 300.032C209.794 300.874 208.952 302.137 206.636 301.927C212.741 293.611 232.952 272.558 246.637 264.452C242.11 262.452 237.163 263.715 231.478 262.136C237.373 259.189 242.426 260.031 247.268 260.242C248.637 260.242 250.005 260.768 251.479 260.873C254.111 260.978 257.058 261.926 259.269 260.873C262.426 259.505 259.269 256.241 260.005 253.82C260.321 252.662 260.005 251.294 261.69 250.452C263.584 254.241 263.9 258.347 263.9 262.452C263.9 264.557 262.216 265.294 260.637 264.873C250.531 262.768 244.531 269.821 237.689 274.979C228.005 282.453 220.636 292.558 210.846 300.032ZM264.111 315.716C253.689 318.453 243.373 318.453 232.215 315.716C234.005 313.295 235.689 313.716 237.163 313.716C246.005 313.927 254.847 314.032 263.69 312.979C264.532 312.874 265.584 312.558 265.9 313.611C266.321 315.085 265.163 315.506 264.111 315.716Z" fill="#FF2E63"/>
<path d="M155.898 259.821C156.74 259.189 157.477 258.557 158.424 257.926C160.109 256.768 162.424 255.61 163.582 257.189C165.161 259.294 161.898 259.61 160.951 260.663C159.477 262.242 158.635 264.031 157.898 266.031C157.477 267.294 157.582 269.294 155.793 268.979C154.108 268.558 154.845 266.663 154.74 265.294C154.635 264.136 154.845 262.873 154.951 261.61C155.161 260.978 155.582 260.452 155.898 259.821Z" fill="#252A34"/>
<path d="M177.793 271.4C173.898 269.715 175.793 266.979 176.635 264.452C177.583 261.505 179.162 258.768 182.319 258.452C185.267 258.241 184.214 259.926 183.056 261.294C182.635 261.821 182.53 262.452 182.214 262.978C182.109 263.189 182.004 263.505 182.004 263.821C179.898 266.031 180.425 269.61 177.793 271.4Z" fill="#252A34"/>
<path d="M177.793 271.4C179.477 269.084 178.53 265.294 182.004 263.926C181.477 266.978 180.53 269.821 178.951 272.452C178.53 272.136 178.214 271.715 177.793 271.4Z" fill="#FF2E63"/>
<path d="M226.426 143.186C225.057 140.976 222.847 139.713 220.952 138.029C216.005 136.871 211.478 137.607 207.478 141.081C206.32 141.502 205.478 142.871 204.004 142.134C199.267 138.028 194.109 137.292 188.53 140.029C185.478 142.66 187.583 147.608 184.004 150.029C182.846 154.976 185.372 157.713 189.478 159.713C195.162 162.24 200.215 160.976 204.846 157.397C205.794 156.766 206.741 156.766 207.689 157.292C213.057 160.029 218.636 161.082 224.426 158.345C225.584 157.292 225.057 155.397 226.531 154.555C230.005 150.239 230.005 147.608 226.426 143.186ZM195.688 157.713C191.372 157.608 187.372 153.292 187.478 149.081C187.583 144.66 190.951 140.765 194.636 140.871C198.846 140.976 203.162 145.502 203.057 149.924C203.162 154.134 199.583 157.818 195.688 157.713ZM217.162 156.66C212.741 156.66 208.846 152.66 208.846 148.239C208.846 143.818 212.215 139.818 215.794 139.818C220.215 139.818 224.215 144.029 224.32 148.766C224.32 153.292 221.268 156.66 217.162 156.66Z" fill="#FF2E63"/>
<path d="M233.584 98.2383C232.321 97.1856 231.478 96.2382 231.163 94.554C228.531 80.3432 218.531 73.5009 203.899 75.5009C196.846 76.4483 190.004 79.1852 182.741 78.9747C181.477 78.9747 179.793 78.0273 178.951 79.7116C178.109 81.6063 179.793 82.5537 180.846 83.5011C181.583 84.238 182.425 84.7643 183.372 85.5011C180.635 87.5012 177.688 88.3433 174.74 89.2907C173.161 89.817 170.846 89.7118 170.74 91.9223C170.635 94.0276 173.056 94.1329 174.425 95.1856C175.372 95.9224 178.319 95.0803 176.425 97.8172C171.267 105.291 170.53 114.028 169.477 122.765C169.161 125.923 168.109 128.976 165.267 130.871C164.214 131.502 162.951 131.818 163.161 133.502C163.372 135.081 164.74 135.397 165.898 135.397C168.109 135.502 169.267 136.134 168.214 138.45C166.846 141.292 167.688 142.555 170.74 141.818C172.214 141.502 172.53 142.239 172.846 143.292C173.793 147.397 177.477 150.45 176.425 155.397C175.793 158.029 178.109 161.187 181.056 161.713C185.688 162.555 185.899 165.713 186.32 169.082C186.951 174.661 188.425 180.345 193.372 183.082C198.109 185.819 199.162 189.188 198.846 193.924C198.741 194.767 199.057 195.609 199.162 196.556C199.688 197.398 199.583 199.188 200.952 198.767V198.661C202.53 194.451 201.688 190.03 202.004 185.819C202.004 185.293 202.004 184.661 201.794 184.24C201.583 184.03 201.478 183.819 201.267 183.503C201.057 183.398 200.952 183.187 200.636 183.187C189.793 179.293 189.478 170.24 189.372 160.976C188.109 159.503 186.109 159.818 184.53 159.292C182.32 158.555 180.004 157.924 179.898 155.082C179.688 152.134 181.372 150.555 184.109 149.924C184.214 150.345 184.32 150.766 184.425 151.081C184.53 150.976 184.635 150.871 184.846 150.766C188.32 148.239 187.267 143.713 189.478 140.555C189.583 140.344 189.793 140.029 189.899 139.818C189.478 139.818 189.057 139.818 188.635 139.923C193.162 129.713 201.373 122.976 210.32 116.344C212.741 124.449 217.689 130.765 221.057 137.923C220.741 138.029 220.531 138.134 220.215 138.239C221.794 140.555 223.899 142.239 226.215 143.818C226.426 143.923 226.742 144.029 226.952 144.029C226.847 143.713 226.742 143.397 226.531 143.081C227.373 143.187 228.215 143.292 229.057 143.502C232.005 144.134 235.9 144.134 235.794 148.45C235.584 152.871 232.11 154.239 228.215 154.66C227.689 154.66 227.163 154.555 226.636 154.555C226.742 154.345 226.847 154.029 226.952 153.818C226.636 153.924 226.215 154.134 225.899 154.345C224.636 155.397 224.005 156.871 223.584 158.345C223.899 158.345 224.215 158.345 224.531 158.345C224.636 164.029 223.478 169.398 221.057 174.556C219.689 177.398 217.794 179.924 215.057 181.608C213.268 182.661 210.11 182.766 210.741 185.924C211.583 190.24 209.689 195.188 213.794 198.767C213.899 195.503 214.004 192.24 214.11 189.082C214.11 187.714 214.004 186.135 215.478 185.398C225.057 180.556 226.847 171.398 228.321 162.134C228.742 159.503 229.373 158.45 232.11 157.608C238.847 155.608 240.952 149.924 237.584 143.713C236.426 141.608 236.531 140.029 238.952 139.397C240.426 139.081 240.742 138.029 241.268 136.976C246.847 125.397 243.268 106.87 233.584 98.2383Z" fill="#252A34"/>
<path d="M372.85 250.768C373.376 254.452 371.587 255.61 368.218 254.873C365.692 254.347 363.376 254.978 361.271 256.347C359.376 257.505 357.271 258.452 354.955 258.978C348.428 260.347 343.06 258.663 338.323 253.82C333.902 249.294 334.217 244.452 336.428 239.294C337.586 236.557 336.744 234.031 336.428 230.136C338.218 233.294 338.744 235.82 340.744 237.504C342.744 239.083 343.902 241.189 344.955 243.399C346.533 246.768 349.06 248.662 352.849 247.926C355.165 247.399 356.323 248.873 357.797 250.136C363.06 254.557 369.692 253.189 373.06 246.978C374.639 243.61 374.955 240.346 372.745 236.978C376.113 236.031 379.166 234.978 379.06 230.978C378.955 227.294 375.903 225.399 373.166 225.504C366.534 225.715 363.797 222.241 362.113 216.662C361.271 213.82 359.165 212.135 356.218 212.556C353.376 212.977 351.586 214.767 351.376 217.82C351.27 218.662 351.06 219.504 350.955 220.346C344.954 217.925 342.323 225.293 336.954 225.293C333.165 225.293 330.533 228.241 331.375 232.03C332.112 235.294 331.481 238.031 330.428 240.978C328.323 246.873 330.007 251.926 333.796 256.557C340.428 264.663 352.323 266.768 362.429 261.61C363.902 260.873 365.06 259.084 367.166 259.926C370.955 261.61 374.008 260.347 376.324 257.189C378.955 253.505 377.376 250.241 375.06 247.189C373.06 247.61 372.639 249.083 372.85 250.768ZM367.481 246.978C365.376 248.031 363.165 248.241 361.165 246.662C359.481 245.294 359.376 243.294 359.797 241.399C360.113 240.136 360.534 238.346 362.323 238.767C364.218 239.294 363.586 240.662 362.955 242.031C362.639 242.768 362.007 243.61 363.481 244.873C364.218 244.241 364.955 243.504 365.797 242.978C367.271 242.136 368.113 243.399 368.85 244.241C370.113 245.82 368.429 246.452 367.481 246.978ZM370.323 241.294C368.429 239.399 366.955 238.557 366.323 236.452C369.271 236.557 370.85 237.504 370.323 241.294ZM356.113 216.767C358.323 215.609 359.165 217.714 359.797 219.293C362.113 224.767 365.902 227.925 372.008 228.557C373.481 228.767 375.797 229.294 375.481 231.609C375.271 233.188 373.481 233.294 371.797 233.083C365.271 230.873 358.007 229.399 355.271 221.399C354.744 219.504 354.218 217.714 356.113 216.767ZM355.586 234.241C356.955 230.557 358.744 230.978 361.586 233.715C358.955 235.925 356.849 238.031 356.007 241.294C355.692 242.452 356.639 244.768 353.692 244.031C352.007 243.61 350.112 243.504 349.481 241.61C348.744 239.504 349.902 238.452 351.797 237.715C353.27 236.978 354.955 235.925 355.586 234.241ZM342.744 229.715C342.849 228.03 343.165 225.715 345.376 226.136C347.691 226.557 346.533 228.451 345.797 229.82C345.481 230.451 345.27 231.083 345.797 231.715C346.428 232.452 347.06 232.03 347.481 231.504C348.639 230.451 349.586 229.188 351.27 230.978C351.797 231.609 352.849 232.136 352.113 233.083C350.955 234.452 349.376 234.978 347.902 235.083C344.112 234.873 342.428 233.188 342.744 229.715Z" fill="#252A34"/>
<path d="M56.2117 289.505C53.2642 291.926 50.9484 293.505 50.5273 297.19C47.7904 292.032 49.7905 289.4 56.2117 289.505Z" fill="#252A34"/>
<path d="M37.4744 307.085C35.6849 304.032 37.1587 302.558 39.1587 301.295C40.1061 300.769 41.7903 300.663 41.6851 301.611C41.5798 304.242 38.9482 305.085 37.4744 307.085Z" fill="#252A34"/>
<path d="M43.0535 306.348C44.2114 306.769 45.2641 307.611 45.1588 309.295C45.0535 310.348 44.2114 310.769 43.3693 310.558C41.8956 310.243 40.8429 309.401 41.0534 307.611C41.1587 306.558 41.7903 306.032 43.0535 306.348Z" fill="#252A34"/>
<path d="M55.6853 299.716C54.2116 299.19 53.3695 298.348 53.4748 296.663C53.58 295.505 54.4222 295.295 55.3695 295.505C56.8433 295.821 57.8959 296.769 57.5801 298.453C57.5801 299.4 56.738 299.716 55.6853 299.716Z" fill="#252A34"/>
<path d="M220.847 198.24C218.426 197.714 215.794 196.346 213.583 198.872L213.689 198.767C211.373 199.819 210.32 202.135 208.741 203.925C207.794 205.083 206.531 206.346 205.373 204.872C203.899 202.872 199.794 202.661 200.846 198.767C200.215 198.03 199.688 197.398 199.057 196.661C199.057 198.451 198.32 198.661 196.53 198.767C188.425 199.398 180.951 201.925 174.109 206.451C174.214 206.662 174.214 206.872 174.214 207.083C174.214 208.135 174.846 208.662 175.898 208.662C177.477 208.767 178.951 208.135 180.53 207.714C186.741 206.03 186.951 206.135 186.951 212.767C186.951 215.083 186.951 217.293 186.741 219.609C186.53 221.714 186.425 224.03 188.53 225.293C190.636 226.557 192.53 225.083 194.32 224.03C196.846 222.662 199.057 220.451 201.899 219.504C202.846 220.557 202.846 221.609 202.636 222.662C201.057 232.557 202.004 242.557 201.794 252.557C201.794 254.557 201.373 256.873 203.583 258.242C204.952 258.663 202.846 262.663 206.32 260.978C208.741 257.715 208.741 253.82 208.846 249.926C208.952 240.873 208.846 231.715 208.952 222.662C208.952 221.399 208.32 219.82 209.899 218.872C212.32 220.03 214.11 222.03 216.005 223.714C217.899 225.399 219.689 227.82 222.741 226.767C225.584 225.82 225.478 222.978 225.899 220.662C226.426 218.135 226.742 215.504 227.163 212.872C228.215 206.767 228.215 206.767 234.215 207.819C235.058 208.03 235.9 207.925 236.742 207.398C237.058 206.662 237.373 206.03 237.689 205.293C232.426 201.925 226.847 199.609 220.847 198.24ZM200.109 213.925C197.583 215.714 194.951 217.399 191.267 219.925C191.267 214.662 191.267 210.556 191.267 206.451C191.267 205.188 190.425 203.504 192.425 202.977C194.215 202.556 196.004 201.925 197.583 203.925C199.478 206.346 201.688 208.662 203.899 211.083C202.636 212.135 201.373 213.083 200.109 213.925ZM223.794 206.872C222.847 211.398 221.689 215.925 220.531 220.767C219.057 219.504 217.689 218.451 216.426 217.293C208.741 210.767 208.846 210.872 215.373 202.872C218.005 199.609 220.426 202.03 222.847 202.556C225.373 203.083 224.11 205.293 223.794 206.872Z" fill="#252A34"/>
<path d="M234.531 28.9736C234.531 28.9736 234.637 28.9736 234.531 28.9736C234.637 23.3946 234.637 17.8155 234.637 12.2364C234.531 3.39414 229.584 -0.81647 220.847 0.130918C215.794 0.657245 210.847 1.39411 205.794 2.0257C199.583 2.76255 196.425 5.39419 195.899 11.4996C194.846 23.7104 195.267 35.9211 197.162 47.9214C198.004 52.9741 200.636 57.29 206.215 58.2374C212.004 59.29 217.899 60.1322 223.899 58.9743C231.479 57.5005 234.215 54.8689 234.531 47.1845C234.847 40.7634 234.531 34.9738 234.531 28.9736ZM230.531 48.8688C230.005 52.4478 228.426 54.3426 224.742 55.0794C218.426 56.2374 212.215 55.9216 206.11 54.4478C202.952 53.711 201.688 51.1846 201.057 48.4477C199.583 42.3423 199.373 36.0264 199.057 29.8158C198.741 23.6051 198.846 19.0787 198.741 11.4996C198.636 5.39419 201.478 4.7626 206.11 8.13109C209.583 10.5522 219.794 9.71008 222.952 6.65738C226.636 3.18363 229.268 3.81522 230.531 8.76269C231.794 13.3944 230.952 18.1313 231.163 22.8682C231.268 24.763 231.163 26.6578 231.163 30.1315C231.479 35.2895 231.584 42.1318 230.531 48.8688Z" fill="#252A34"/>
<path d="M95.7915 221.504C93.8967 220.241 91.5809 219.293 89.3703 219.714C86.0018 220.451 84.8439 218.451 83.4755 216.135C78.4227 208.135 72.2121 201.082 62.5277 198.977C57.0539 197.819 52.3169 196.556 49.58 191.188C49.0537 190.135 47.7905 188.451 46.3168 189.714C45.0536 190.766 46.5273 192.135 46.9484 193.398C48.1063 196.346 51.7906 197.819 51.4748 201.293C50.6327 213.82 56.7381 223.083 65.2646 231.083C67.2646 232.978 67.8962 234.767 67.3699 237.504C66.5277 242.136 67.7909 246.452 70.3173 250.452C70.9489 251.505 71.5805 252.662 73.0542 252.557C74.6332 252.452 74.6332 250.873 74.949 249.82C76.1069 246.241 76.7385 242.346 80.8438 240.873C82.4228 240.031 84.1071 239.294 85.5808 238.136C86.2124 237.399 86.844 236.767 86.3176 235.715C88.2124 232.557 90.6335 230.03 94.6336 229.504C96.9494 229.188 100.318 229.925 100.844 227.083C101.16 224.136 97.8968 222.872 95.7915 221.504ZM72.0016 245.715C70.7384 242.768 70.0015 240.031 70.7384 236.978C75.8964 239.188 74.6332 242.241 72.0016 245.715ZM85.4755 232.03C83.0544 234.031 80.7386 236.241 78.3175 238.452C72.9489 233.294 67.1594 228.451 62.3171 222.662C58.2118 217.714 55.896 212.03 55.0538 205.609C54.6328 202.03 55.896 201.293 59.0539 201.819C65.3698 202.872 70.4226 206.135 74.7384 210.556C79.5807 215.399 83.0544 221.293 86.4229 227.188C87.6861 229.399 87.265 230.662 85.4755 232.03ZM87.7914 222.978C90.5283 222.662 92.8441 223.609 94.7389 225.609C91.5809 227.083 88.3177 228.662 87.7914 222.978Z" fill="#252A34"/>
<path d="M58.8434 116.028C54.7381 107.502 50.6327 99.0803 45.2642 91.2907C39.7904 83.3958 33.8955 82.3432 26.1059 88.0275C20.6321 92.0276 15.3688 96.4487 10.4214 101.186C3.8949 107.291 3.5791 112.239 8.7371 119.607C14.1056 127.186 19.6847 134.555 24.948 142.134C26.6322 144.555 28.8428 145.502 32.6323 145.397C33.3692 145.187 35.1587 144.976 36.7377 144.239C45.7905 140.239 52.6327 133.502 58.2118 125.502C60.3171 122.555 60.4224 119.291 58.8434 116.028ZM55.0538 124.028C49.6853 131.081 43.7905 137.397 35.8956 141.502C30.6323 144.239 28.8428 143.397 25.6848 138.45C21.0532 131.292 16.2109 124.239 11.474 117.081C8.00025 111.817 8.00025 108.238 12.5267 104.133C17.8952 99.1856 23.6848 94.5539 29.5796 90.2381C34.3166 86.7643 38.0009 87.5012 41.3694 92.0276C47.2642 99.8172 51.3696 108.765 55.6854 117.502C56.0012 118.239 56.0012 119.186 56.1065 119.607C56.0012 121.397 56.0012 122.87 55.0538 124.028Z" fill="#252A34"/>
<path d="M58.9486 21.0787C58.2117 17.6049 56.4222 18.1313 54.6327 20.0261C44.6325 29.8157 34.6323 39.6054 24.6321 49.3951C22.5268 51.3951 22.632 52.7636 25.2637 54.132C28.8427 55.9215 32.3165 57.9216 35.7902 59.9216C45.6852 65.8165 56.4222 70.4481 65.7908 77.2904C66.0014 77.0799 66.3172 76.7641 66.3172 76.5535C65.475 57.8163 62.6329 39.3949 58.9486 21.0787ZM28.8427 51.7109C37.685 42.6581 46.5273 33.6053 55.7906 24.1314C59.2644 39.9212 61.1592 55.6057 63.6855 72.2376C51.2642 64.9743 39.7903 58.1321 28.8427 51.7109Z" fill="#252A34"/>
<path d="M397.377 324.138C388.008 312.137 378.113 300.663 367.481 289.716C364.744 286.979 363.271 287.084 362.323 290.874C358.323 307.19 355.797 323.717 353.586 340.348C353.376 344.454 353.797 345.085 356.744 344.138C370.639 339.822 383.692 333.506 396.745 327.19C398.324 326.453 398.64 325.717 397.377 324.138ZM392.429 326.559C382.218 330.664 371.902 334.664 361.797 338.98C357.902 340.559 357.165 339.191 357.692 335.612C359.692 321.611 362.007 307.611 365.481 292.663C375.376 303.295 384.85 312.769 393.376 323.19C395.061 324.98 394.324 325.822 392.429 326.559Z" fill="#FF2E63"/>
<path d="M337.06 242.136C340.533 241.715 341.902 243.399 343.375 244.768C346.744 248.031 350.112 251.294 353.481 254.662C354.007 255.189 354.744 255.926 354.218 256.873C353.797 257.505 352.955 257.715 352.323 257.294C346.428 253.294 341.165 248.873 337.06 242.136Z" fill="#252A34"/>
<path d="M390.429 114.66C390.219 112.554 389.376 110.975 386.955 110.765C382.955 110.765 378.429 108.66 375.692 113.607C368.744 126.449 364.113 140.029 364.85 154.871C364.85 155.924 364.744 157.082 366.008 157.503C367.271 157.924 367.902 157.082 368.534 156.239C376.113 146.029 385.376 136.871 390.113 124.66C391.482 121.186 392.113 118.028 390.429 114.66ZM372.955 143.923C370.85 145.081 368.955 143.187 368.639 140.239C368.323 137.923 369.587 136.66 371.06 135.081C373.166 144.029 376.008 134.344 378.85 135.818C379.376 140.134 375.797 142.344 372.955 143.923Z" fill="#252A34"/>
<path d="M388.219 120.239C386.534 124.239 385.061 128.976 382.429 132.871C381.587 134.028 376.955 133.186 374.323 132.449C372.534 131.923 371.797 129.923 372.955 127.713C374.745 124.133 376.324 120.554 378.008 116.87C379.06 114.554 380.534 112.975 383.271 113.817C385.903 114.66 388.113 116.344 388.219 120.239Z" fill="#FF2E63"/>
<path d="M78.1068 298.663C74.7383 298.137 71.3698 297.611 68.0013 298.663C61.2644 298.874 57.3695 301.927 56.8432 307.927C56.5274 312.032 54.2116 310.453 52.1063 309.822C50.1062 309.19 49.3694 306.243 46.9483 306.348C45.4746 308.874 49.2641 310.453 47.7904 312.348C44.7377 316.348 45.3693 321.295 43.3693 325.506C45.8956 331.506 47.0535 331.717 53.7905 327.19C54.0011 327.19 54.2116 327.296 54.5274 327.296C56.2116 327.296 57.6853 326.559 59.0538 325.611C64.6329 322.348 68.9487 317.401 74.1067 313.506C74.212 312.98 74.212 312.558 73.7909 312.137C74.6331 309.611 77.6858 309.716 79.1595 307.611C81.8964 303.821 81.6858 300.979 78.1068 298.663ZM75.2646 306.032C70.3172 305.927 70.1067 313.085 64.8434 312.558C64.0013 312.453 63.896 313.822 63.7907 314.769C63.5802 317.085 62.2118 318.243 59.8959 317.927C58.738 317.822 57.6853 318.032 57.3695 319.19C56.6327 321.506 55.8958 322.559 52.9484 321.927C50.5273 321.506 50.8431 325.822 47.4746 326.138C47.0535 322.559 48.1062 319.295 48.7378 315.927C49.0536 314.032 50.1062 313.295 52.5273 313.822C57.8959 315.085 59.8959 313.295 60.0012 307.822C60.0012 303.927 62.2117 302.137 65.7908 301.821C68.4224 301.611 71.054 301.716 73.6857 301.716C74.9488 301.716 76.8436 300.769 77.2647 302.663C77.5805 304.032 76.4226 306.032 75.2646 306.032Z" fill="#252A34"/>
<path d="M389.903 55.6058C378.324 55.8163 366.85 56.3426 355.271 57.5005C352.007 57.8163 352.218 59.3953 353.165 61.8164C356.113 69.5008 358.955 77.1852 361.587 84.9748C362.85 88.6591 364.218 89.0802 366.85 86.1327C374.745 77.3957 382.64 68.7639 390.535 60.1322C391.271 59.3953 391.798 58.4479 392.219 57.9216C392.429 55.8163 391.166 55.6058 389.903 55.6058ZM364.639 85.1853C362.008 76.9746 359.481 69.185 356.955 61.1848C364.323 59.9216 371.482 59.8164 378.534 59.8164C380.745 59.9217 383.482 57.7111 385.061 61.0796C378.534 68.8692 371.797 76.7641 364.639 85.1853Z" fill="#FF2E63"/>
<path d="M385.166 61.0796C383.271 58.9743 380.745 60.448 378.639 59.8164C380.639 58.3427 382.955 58.869 385.061 58.9743C387.376 59.0795 386.324 60.2374 385.166 61.0796Z" fill="#FF2E63"/>
<path d="M161.056 23.4999C154.424 23.9209 147.161 31.7106 147.266 38.4475C147.266 44.8687 152.108 49.2899 158.951 49.1846C166.53 49.0793 172.109 43.7108 172.109 36.3422C172.214 30.6579 165.793 23.1841 161.056 23.4999ZM158.951 45.5003C153.582 45.5003 150.529 42.9739 150.529 38.3423C150.529 33.1843 156.74 26.2368 161.267 26.342C164.53 26.4473 168.425 32.1316 168.319 36.7633C168.425 42.2371 164.951 45.395 158.951 45.5003Z" fill="#FF2E63"/>
<path d="M329.27 287.4C322.954 287.19 316.007 294.348 315.901 301.19C315.796 307.19 320.428 311.611 326.638 311.716C333.27 311.716 338.533 306.453 338.639 299.716C338.849 293.716 334.007 287.505 329.27 287.4ZM326.638 308.137C322.217 308.137 319.586 305.295 319.796 300.769C320.007 295.716 324.849 289.821 328.744 290.137C332.007 290.347 334.849 294.663 334.849 299.295C334.744 304.453 331.375 308.137 326.638 308.137Z" fill="#252A34"/>
<path d="M12.8424 152.976C5.36854 152.976 0 157.713 0 164.555C0 171.398 4.31588 175.819 11.0529 175.714C18.3162 175.608 23.1584 170.871 23.1584 164.029C23.1584 158.029 18.5267 152.976 12.8424 152.976ZM10.9476 172.45C6.73698 172.556 3.47375 169.398 3.26322 164.976C3.05269 160.029 6.94751 155.608 11.6845 155.503C15.8951 155.397 19.8951 159.608 19.8951 164.134C20.0004 168.661 16.0003 172.345 10.9476 172.45Z" fill="#FF2E63"/>
<path d="M398.219 94.975C395.692 92.1328 392.64 90.6591 388.955 92.0276C384.429 93.6065 382.218 97.3961 381.06 101.712C380.639 103.291 382.113 103.923 383.797 103.712C386.85 103.291 390.008 103.712 391.903 106.133C396.008 111.502 397.166 107.607 398.745 104.344C399.482 102.87 399.903 101.396 399.798 99.8172C400.008 97.9224 399.482 96.3434 398.219 94.975ZM395.271 104.344C393.587 103.08 392.219 101.922 390.745 101.186C389.271 100.449 387.587 100.028 386.008 99.3961C387.692 95.9224 390.429 94.3434 393.692 95.8171C397.377 97.6066 396.64 100.87 395.271 104.344Z" fill="#252A34"/>
<path d="M124.845 178.556C121.16 178.45 118.108 181.608 117.897 185.608C117.687 189.398 119.055 192.135 123.266 192.451C127.476 192.766 131.266 189.714 131.055 185.714C130.74 182.029 129.055 179.082 124.845 178.556ZM123.581 188.872C121.687 188.766 120.95 187.082 121.371 185.398C121.792 183.608 121.792 180.977 124.318 181.082C126.318 181.187 127.161 183.398 127.371 185.293C127.266 187.819 125.687 188.977 123.581 188.872Z" fill="#252A34"/>
<path d="M166.214 270.979C163.582 265.189 166.214 258.241 170.951 256.978C171.793 256.768 172.741 256.557 173.372 257.294C173.583 257.61 173.477 258.557 173.267 258.768C169.161 261.399 168.635 266.347 166.214 270.979Z" fill="#252A34"/>
<path d="M213.689 258.557C212.004 258.136 210.531 257.505 210.425 255.294C210.32 252.978 211.794 251.61 213.899 251.61C215.899 251.61 217.057 253.084 217.057 254.978C216.952 257.084 215.689 258.136 213.689 258.557Z" fill="#252A34"/>
<path d="M214.741 241.925C212.846 241.61 211.583 240.662 211.478 238.557C211.373 236.452 212.741 235.399 214.741 235.294C216.847 235.188 218.004 236.452 218.004 238.452C218.004 240.557 216.952 241.715 214.741 241.925Z" fill="#252A34"/>
<path d="M214.005 160.661C215.268 166.555 213.373 169.292 209.373 170.24C205.794 171.082 202.425 170.134 201.478 164.24C206.952 168.24 210.847 166.871 214.005 160.661Z" fill="#252A34"/>
<path d="M204.846 157.292C205.373 156.345 204.846 154.345 206.425 154.345C208.11 154.345 207.162 156.239 207.688 157.187C207.267 157.818 207.583 158.871 206.425 158.871C205.267 158.976 205.162 158.029 204.846 157.292Z" fill="#252A34"/>
<path d="M207.478 141.081C207.267 142.45 206.741 143.713 205.688 144.66C205.162 143.818 204.531 142.976 204.004 142.134C204.531 140.555 204.11 138.239 206.32 138.029C207.794 138.029 207.057 140.029 207.478 141.081Z" fill="#252A34"/>
<path d="M72.4225 215.293C71.6857 218.241 70.5277 220.451 67.1593 220.135C64.0013 219.925 62.5276 217.609 62.5276 214.872C62.5276 212.135 64.5276 210.556 67.3698 210.556C70.633 210.451 71.8962 212.556 72.4225 215.293Z" fill="#252A34"/>
<path d="M34.3165 92.1328C37.5797 92.1328 39.8956 93.2908 41.264 96.2382C42.6325 99.0803 42.6324 101.817 40.5271 104.028C35.4744 109.396 29.7901 113.923 23.0531 117.186C20.0004 118.66 17.053 118.133 14.5266 115.396C12.316 112.975 11.5792 110.344 13.5792 107.817C18.7372 101.396 24.6321 95.7119 32.4217 92.5539C33.1586 92.2381 33.8954 92.2381 34.3165 92.1328Z" fill="#252A34"/>
<path d="M46.2115 115.923C48.1063 115.923 52.7379 122.028 52.1064 123.818C52.0011 124.239 51.58 124.87 51.159 124.976C47.8958 125.923 47.0536 123.081 45.6852 121.291C44.5273 119.818 43.4746 118.028 45.3694 116.239C45.4746 116.028 45.8957 116.028 46.2115 115.923Z" fill="#252A34"/>
<path d="M35.2639 134.765C36.527 134.976 37.4744 135.713 37.5797 137.081C37.685 138.45 36.7376 139.397 35.4744 139.502C33.8954 139.713 32.8428 138.555 32.8428 137.081C32.948 135.713 34.0007 134.976 35.2639 134.765Z" fill="#252A34"/>
<path d="M33.8955 119.818C32.6323 119.502 31.7902 118.66 31.8955 117.397C32.0007 116.133 32.9481 115.291 34.4218 115.396C35.7903 115.502 36.7377 116.344 36.5271 117.712C36.2113 118.976 35.3692 119.818 33.8955 119.818Z" fill="#252A34"/>
<path d="M43.1588 128.344C44.1061 128.555 45.0535 129.291 44.9483 130.66C44.843 132.028 43.7904 132.765 42.5272 132.765C41.264 132.66 40.2113 131.818 40.3166 130.449C40.5271 129.186 41.3692 128.239 43.1588 128.344Z" fill="#252A34"/>
<path d="M30.7374 128.239C32.3164 128.239 33.0533 129.186 33.0533 130.449C33.1585 131.818 32.1059 132.66 30.8427 132.66C29.5795 132.66 28.5269 131.923 28.5269 130.449C28.6321 129.186 29.5795 128.449 30.7374 128.239Z" fill="#252A34"/>
<path d="M28.6322 123.923C28.527 125.291 28.0006 126.239 26.4216 126.134C25.0532 126.028 24.2111 125.186 24.2111 123.818C24.2111 122.66 25.0532 122.028 26.2111 121.818C27.6848 121.712 28.527 122.344 28.6322 123.923Z" fill="#252A34"/>
<path d="M41.7903 109.396C43.1588 109.712 44.1061 110.238 44.2114 111.712C44.3167 113.186 43.3693 113.923 42.1061 114.028C40.6324 114.133 39.8955 113.186 39.8955 111.923C39.685 110.554 40.5271 109.712 41.7903 109.396Z" fill="#252A34"/>
<path d="M40.9481 124.87C40.7376 126.344 40.0007 127.186 38.6323 127.291C37.0533 127.291 36.527 126.239 36.527 124.976C36.527 123.923 37.0533 123.081 38.4217 123.081C39.7902 122.976 40.5271 123.818 40.9481 124.87Z" fill="#252A34"/>
<path d="M216.952 152.45C215.057 152.134 214.636 150.976 214.636 149.397C214.636 148.029 214.636 146.344 216.426 146.134C218.531 145.923 218.952 147.608 218.952 149.292C218.847 150.871 218.426 152.029 216.952 152.45Z" fill="#252A34"/>
<path d="M195.478 146.134C197.794 146.239 198.109 147.713 198.215 149.081C198.32 150.66 198.215 152.45 196.109 152.555C194.425 152.66 193.793 151.081 193.688 149.713C193.478 148.134 194.214 146.871 195.478 146.134Z" fill="#252A34"/>
<path d="M68.7383 214.977C68.7383 215.82 68.3172 216.556 67.2646 216.556C66.3172 216.556 66.1066 215.82 66.1066 215.083C66.1066 214.346 65.8961 213.188 67.054 213.083C68.212 213.083 68.5277 213.925 68.7383 214.977Z" fill="#FF2E63"/>
<path d="M19.6845 114.66C18.0003 114.66 16.6318 114.133 15.7897 112.554C14.9476 110.975 15.2634 109.396 16.5266 108.344C21.5793 104.133 26.3162 99.3961 32.2111 96.2382C34.2111 95.1855 36.2112 95.1855 37.7902 97.1855C39.1586 98.7645 39.1586 100.554 37.7902 101.922C32.8427 106.765 27.4742 111.186 21.2635 114.449C20.8424 114.66 20.2109 114.66 19.6845 114.66Z" fill="#FF2E63"/>
<path d="M73.791 312.032C73.791 312.453 73.6857 312.98 73.6857 313.401C71.7909 321.085 66.6329 325.296 57.8959 326.138C57.7907 326.032 57.6854 326.032 57.6854 325.927C56.5275 326.875 54.8432 326.243 53.6853 327.19L53.7906 327.085C53.7906 328.348 54.0011 329.19 55.5801 329.717C63.1592 332.138 76.2121 323.19 76.8437 315.19C76.8437 312.98 76.1068 311.927 73.791 312.032Z" fill="#252A34"/>
</svg>
