<svg width="651" height="687" viewBox="0 0 651 687" fill="none" xmlns="http://www.w3.org/2000/svg">
<path d="M801.522 88.6198C806.566 93.7264 808.508 100.906 810.681 107.656C828.17 162.055 871.266 205.811 920.346 237.064C941.13 250.311 966.434 268.073 961.887 291.793C959.438 304.541 948.696 313.925 940.716 324.307C923.972 346.046 918.542 375.595 926.522 401.62C935.598 431.23 960.966 458.86 953.114 488.801C948.273 507.23 931.833 520.346 916.029 531.619C891.372 549.194 865.93 565.658 839.703 581.011C822.122 591.301 803.418 601.315 782.928 602.62C764.887 603.772 747.214 598.051 730.084 592.407C715.117 587.469 699.773 582.332 687.687 572.441C679.799 565.983 673.512 557.651 664.749 552.368C644.167 539.959 617.731 547.822 594.131 553.136C538.442 565.607 427.693 650.842 374.701 630.07C293.414 598.202 282.606 441.49 203.096 405.582C168.909 390.14 131.722 380.556 100.067 360.667C82.2334 349.343 66.9073 335.507 54.7801 319.784C30.8478 288.983 17.906 249.712 21.6431 211.27C25.3802 172.829 46.321 135.785 79.2094 114.084C114.417 90.8544 158.886 86.5157 198.944 72.5705C240.31 58.1645 277.111 33.4071 318.081 17.9491C351.24 5.48155 387.325 -0.633759 423.687 0.0519031C460.049 0.737565 495.765 8.2068 528.216 21.9115C572.803 40.6869 617.998 84.5883 667.658 87.8903C703.032 90.2171 773.899 60.6525 801.522 88.6198Z" fill="#FF2E63"/>
<path d="M780.515 142.304C785.559 147.41 787.502 154.59 789.674 161.34C807.163 215.739 850.259 259.495 899.339 290.749C920.123 303.995 945.427 321.757 940.88 345.477C938.431 358.225 927.689 367.609 919.709 377.991C902.966 399.73 897.535 429.279 905.515 455.304C914.591 484.914 939.959 512.544 932.108 542.485C927.266 560.915 910.826 574.03 895.022 585.303C870.365 602.878 844.924 619.342 818.696 634.695C801.115 644.985 782.411 654.999 761.922 656.304C743.88 657.456 726.207 651.735 709.077 646.091C694.11 641.153 678.766 636.016 666.68 626.125C658.792 619.667 652.505 611.335 643.742 606.052C623.161 593.643 596.725 601.506 573.124 606.82C517.435 619.291 406.686 704.526 353.694 683.754C272.407 651.886 261.599 495.174 182.089 459.266C147.903 443.824 110.716 434.24 79.0605 414.351C61.2266 403.027 45.9005 389.191 33.7733 373.468C9.84101 342.667 -3.10087 303.396 0.636247 264.954C4.37336 226.513 25.3142 189.469 58.2026 167.768C93.4107 144.539 137.879 140.2 177.938 126.255C219.304 111.849 256.104 87.0912 297.074 71.6332C330.233 59.1656 366.318 53.0503 402.68 53.736C439.042 54.4216 474.759 61.8909 507.209 75.5956C551.796 94.371 596.992 138.272 646.651 141.574C682.025 143.901 752.892 114.337 780.515 142.304Z" fill="#08D9D6"/>
</svg>
