<svg width="328" height="61" viewBox="0 0 328 61" fill="none" xmlns="http://www.w3.org/2000/svg">
<rect x="81.2677" y="31.0764" width="246.57" height="29.9236" fill="#FF2E63"/>
<path d="M16.087 45.8994C13.176 45.8994 10.5523 45.2482 8.21585 43.946C5.87942 42.6054 4.02176 40.7477 2.64288 38.373C1.30231 35.9982 0.632019 33.2022 0.632019 29.9848C0.632019 26.7291 1.30231 23.9139 2.64288 21.5392C4.02176 19.1644 5.87942 17.3259 8.21585 16.0237C10.5523 14.7214 13.176 14.0702 16.087 14.0702C18.6915 14.0702 20.9705 14.6448 22.9239 15.7938C24.8773 16.9429 26.3902 18.6857 27.4627 21.0221C28.5352 23.3585 29.0714 26.3461 29.0714 29.9848C29.0714 33.5852 28.5543 36.5728 27.5202 38.9475C26.486 41.2839 24.9922 43.0267 23.0388 44.1758C21.1237 45.3248 18.8064 45.8994 16.087 45.8994ZM17.6382 38.5453C19.0937 38.5453 20.4151 38.2006 21.6025 37.5112C22.7898 36.8217 23.7282 35.845 24.4177 34.5811C25.1454 33.2788 25.5093 31.7467 25.5093 29.9848C25.5093 28.1846 25.1454 26.6525 24.4177 25.3885C23.7282 24.1246 22.7898 23.1479 21.6025 22.4584C20.4151 21.769 19.0937 21.4243 17.6382 21.4243C16.1444 21.4243 14.8038 21.769 13.6165 22.4584C12.4291 23.1479 11.4715 24.1246 10.7438 25.3885C10.0544 26.6525 9.70964 28.1846 9.70964 29.9848C9.70964 31.7467 10.0544 33.2788 10.7438 34.5811C11.4715 35.845 12.4291 36.8217 13.6165 37.5112C14.8038 38.2006 16.1444 38.5453 17.6382 38.5453ZM25.7391 45.4397V39.1199L25.9115 29.9273L25.3369 20.7923V2.8094H34.2996V45.4397H25.7391Z" fill="#252A34"/>
<path d="M42.5949 45.4397V14.5299H51.5576V45.4397H42.5949ZM47.0763 10.2209C45.4293 10.2209 44.0887 9.74209 43.0545 8.78454C42.0204 7.82698 41.5033 6.63962 41.5033 5.22244C41.5033 3.80525 42.0204 2.61789 43.0545 1.66033C44.0887 0.702777 45.4293 0.223999 47.0763 0.223999C48.7233 0.223999 50.0638 0.683626 51.098 1.60288C52.1322 2.48383 52.6492 3.6329 52.6492 5.05008C52.6492 6.54386 52.1322 7.78868 51.098 8.78454C50.1021 9.74209 48.7616 10.2209 47.0763 10.2209Z" fill="#252A34"/>
<path d="M70.2748 45.8994C67.632 45.8994 65.0849 45.5929 62.6335 44.9801C60.2205 44.329 58.3054 43.5246 56.8882 42.5671L59.8758 36.1323C61.293 37.0133 62.9591 37.741 64.8742 38.3155C66.8276 38.8518 68.7427 39.1199 70.6196 39.1199C72.6879 39.1199 74.1434 38.8709 74.986 38.373C75.867 37.8751 76.3074 37.1856 76.3074 36.3047C76.3074 35.5769 75.9627 35.0407 75.2733 34.696C74.6221 34.313 73.7412 34.0257 72.6304 33.8342C71.5197 33.6427 70.294 33.4512 68.9534 33.2596C67.6511 33.0681 66.3297 32.8192 64.9891 32.5127C63.6486 32.168 62.4229 31.6701 61.3121 31.019C60.2014 30.3678 59.3013 29.4869 58.6118 28.3761C57.9607 27.2653 57.6351 25.829 57.6351 24.0671C57.6351 22.1137 58.1905 20.3901 59.3013 18.8963C60.4503 17.4025 62.0973 16.2343 64.2422 15.3917C66.3872 14.5107 68.9534 14.0702 71.941 14.0702C74.0476 14.0702 76.1925 14.3001 78.3757 14.7597C80.559 15.2193 82.3783 15.8896 83.8338 16.7705L80.8462 23.1479C79.3525 22.2669 77.8395 21.6732 76.3074 21.3668C74.8136 21.0221 73.3582 20.8497 71.941 20.8497C69.9493 20.8497 68.4938 21.1178 67.5745 21.6541C66.6553 22.1903 66.1956 22.8797 66.1956 23.7224C66.1956 24.4884 66.5212 25.063 67.1724 25.446C67.8618 25.829 68.7619 26.1354 69.8727 26.3652C70.9834 26.5951 72.1899 26.8057 73.4922 26.9972C74.8328 27.1504 76.1734 27.3994 77.5139 27.7441C78.8545 28.0888 80.061 28.5868 81.1335 29.2379C82.2443 29.8507 83.1444 30.7125 83.8338 31.8233C84.5233 32.8958 84.868 34.313 84.868 36.0749C84.868 37.99 84.2934 39.6944 83.1444 41.1882C81.9953 42.6437 80.3292 43.7927 78.1459 44.6354C76.001 45.478 73.3773 45.8994 70.2748 45.8994Z" fill="#252A34"/>
<path d="M100.797 45.8994C98.154 45.8994 95.6069 45.5929 93.1556 44.9801C90.7426 44.329 88.8275 43.5246 87.4103 42.5671L90.3978 36.1323C91.815 37.0133 93.4812 37.741 95.3963 38.3155C97.3497 38.8518 99.2648 39.1199 101.142 39.1199C103.21 39.1199 104.665 38.8709 105.508 38.373C106.389 37.8751 106.829 37.1856 106.829 36.3047C106.829 35.5769 106.485 35.0407 105.795 34.696C105.144 34.313 104.263 34.0257 103.152 33.8342C102.042 33.6427 100.816 33.4512 99.4755 33.2596C98.1732 33.0681 96.8518 32.8192 95.5112 32.5127C94.1706 32.168 92.9449 31.6701 91.8342 31.019C90.7234 30.3678 89.8233 29.4869 89.1339 28.3761C88.4827 27.2653 88.1572 25.829 88.1572 24.0671C88.1572 22.1137 88.7126 20.3901 89.8233 18.8963C90.9724 17.4025 92.6194 16.2343 94.7643 15.3917C96.9092 14.5107 99.4755 14.0702 102.463 14.0702C104.57 14.0702 106.715 14.3001 108.898 14.7597C111.081 15.2193 112.9 15.8896 114.356 16.7705L111.368 23.1479C109.875 22.2669 108.362 21.6732 106.829 21.3668C105.336 21.0221 103.88 20.8497 102.463 20.8497C100.471 20.8497 99.0158 21.1178 98.0966 21.6541C97.1773 22.1903 96.7177 22.8797 96.7177 23.7224C96.7177 24.4884 97.0433 25.063 97.6944 25.446C98.3839 25.829 99.284 26.1354 100.395 26.3652C101.505 26.5951 102.712 26.8057 104.014 26.9972C105.355 27.1504 106.695 27.3994 108.036 27.7441C109.377 28.0888 110.583 28.5868 111.656 29.2379C112.766 29.8507 113.666 30.7125 114.356 31.8233C115.045 32.8958 115.39 34.313 115.39 36.0749C115.39 37.99 114.815 39.6944 113.666 41.1882C112.517 42.6437 110.851 43.7927 108.668 44.6354C106.523 45.478 103.899 45.8994 100.797 45.8994Z" fill="#252A34"/>
<path d="M136.26 45.8994C132.736 45.8994 129.634 45.2099 126.952 43.831C124.31 42.4522 122.26 40.5754 120.805 38.2006C119.35 35.7876 118.622 33.049 118.622 29.9848C118.622 26.8823 119.33 24.1437 120.748 21.769C122.203 19.3559 124.176 17.4791 126.665 16.1386C129.155 14.7597 131.97 14.0702 135.111 14.0702C138.137 14.0702 140.856 14.7214 143.269 16.0237C145.721 17.2876 147.655 19.1261 149.072 21.5392C150.489 23.9139 151.198 26.7674 151.198 30.0997C151.198 30.4444 151.179 30.8466 151.14 31.3062C151.102 31.7276 151.064 32.1297 151.025 32.5127H125.918V27.2845H146.314L142.867 28.8357C142.867 27.227 142.541 25.829 141.89 24.6416C141.239 23.4543 140.339 22.535 139.19 21.8839C138.041 21.1944 136.7 20.8497 135.168 20.8497C133.636 20.8497 132.277 21.1944 131.089 21.8839C129.94 22.535 129.04 23.4734 128.389 24.6991C127.738 25.8865 127.412 27.3037 127.412 28.9506V30.3295C127.412 32.0148 127.776 33.5086 128.504 34.8109C129.27 36.0749 130.323 37.0516 131.664 37.741C133.043 38.3921 134.651 38.7177 136.49 38.7177C138.137 38.7177 139.573 38.4687 140.799 37.9708C142.063 37.4729 143.212 36.726 144.246 35.7301L149.015 40.9009C147.597 42.5096 145.816 43.7544 143.671 44.6354C141.526 45.478 139.056 45.8994 136.26 45.8994Z" fill="#252A34"/>
<path d="M196.75 14.0702C199.202 14.0702 201.366 14.5682 203.242 15.564C205.158 16.5216 206.651 18.0154 207.724 20.0454C208.835 22.0371 209.39 24.6033 209.39 27.7441V45.4397H200.427V29.123C200.427 26.6334 199.91 24.7949 198.876 23.6075C197.842 22.4201 196.386 21.8264 194.509 21.8264C193.207 21.8264 192.039 22.1329 191.005 22.7457C189.971 23.3202 189.166 24.2012 188.592 25.3885C188.017 26.5759 187.73 28.0888 187.73 29.9273V45.4397H178.767V29.123C178.767 26.6334 178.25 24.7949 177.216 23.6075C176.22 22.4201 174.784 21.8264 172.907 21.8264C171.605 21.8264 170.437 22.1329 169.402 22.7457C168.368 23.3202 167.564 24.2012 166.989 25.3885C166.415 26.5759 166.128 28.0888 166.128 29.9273V45.4397H157.165V14.5299H165.725V22.9755L164.117 20.505C165.189 18.3984 166.702 16.8088 168.656 15.7364C170.647 14.6256 172.907 14.0702 175.435 14.0702C178.269 14.0702 180.74 14.798 182.846 16.2535C184.991 17.6706 186.409 19.8539 187.098 22.8031L183.938 21.9413C184.972 19.5283 186.619 17.6132 188.879 16.196C191.177 14.7788 193.801 14.0702 196.75 14.0702Z" fill="#252A34"/>
<path d="M217.423 45.4397V14.5299H226.386V45.4397H217.423ZM221.905 10.2209C220.258 10.2209 218.917 9.74209 217.883 8.78454C216.849 7.82698 216.332 6.63962 216.332 5.22244C216.332 3.80525 216.849 2.61789 217.883 1.66033C218.917 0.702777 220.258 0.223999 221.905 0.223999C223.552 0.223999 224.892 0.683626 225.927 1.60288C226.961 2.48383 227.478 3.6329 227.478 5.05008C227.478 6.54386 226.961 7.78868 225.927 8.78454C224.931 9.74209 223.59 10.2209 221.905 10.2209Z" fill="#252A34"/>
<path d="M253.492 14.0702C255.943 14.0702 258.126 14.5682 260.041 15.564C261.995 16.5216 263.527 18.0154 264.638 20.0454C265.748 22.0371 266.304 24.6033 266.304 27.7441V45.4397H257.341V29.123C257.341 26.6334 256.786 24.7949 255.675 23.6075C254.602 22.4201 253.07 21.8264 251.079 21.8264C249.661 21.8264 248.378 22.1329 247.229 22.7457C246.118 23.3202 245.237 24.2203 244.586 25.446C243.973 26.6717 243.667 28.2421 243.667 30.1572V45.4397H234.704V14.5299H243.265V23.0904L241.656 20.505C242.767 18.4367 244.356 16.8472 246.425 15.7364C248.493 14.6256 250.849 14.0702 253.492 14.0702Z" fill="#252A34"/>
<path d="M293.387 45.4397V39.4071L292.813 38.0857V27.2845C292.813 25.3694 292.219 23.8756 291.032 22.8031C289.883 21.7307 288.102 21.1945 285.689 21.1945C284.042 21.1945 282.414 21.4626 280.805 21.9988C279.235 22.4967 277.894 23.1862 276.784 24.0671L273.566 17.8047C275.251 16.6173 277.281 15.6981 279.656 15.0469C282.031 14.3958 284.444 14.0702 286.895 14.0702C291.606 14.0702 295.264 15.181 297.869 17.4025C300.473 19.6241 301.776 23.0904 301.776 27.8016V45.4397H293.387ZM283.965 45.8994C281.552 45.8994 279.484 45.4972 277.76 44.6928C276.037 43.8502 274.715 42.7203 273.796 41.3031C272.877 39.8859 272.417 38.2964 272.417 36.5345C272.417 34.696 272.858 33.0873 273.738 31.7084C274.658 30.3295 276.094 29.2571 278.047 28.491C280.001 27.6867 282.548 27.2845 285.689 27.2845H293.905V32.5127H286.665C284.559 32.5127 283.103 32.8575 282.299 33.5469C281.533 34.2363 281.15 35.0981 281.15 36.1323C281.15 37.2814 281.59 38.2006 282.471 38.8901C283.391 39.5412 284.635 39.8668 286.206 39.8668C287.7 39.8668 289.04 39.522 290.228 38.8326C291.415 38.1049 292.277 37.0516 292.813 35.6727L294.192 39.8093C293.541 41.801 292.353 43.314 290.63 44.3481C288.906 45.3823 286.685 45.8994 283.965 45.8994Z" fill="#252A34"/>
</svg>
