<svg width="170" height="32" viewBox="0 0 170 32" fill="none" xmlns="http://www.w3.org/2000/svg">
<rect x="41.8945" y="16.0294" width="128.106" height="15.5468" fill="#FF2E63"/>
<path d="M8.02962 23.7307C6.51722 23.7307 5.15408 23.3924 3.94018 22.7158C2.72629 22.0193 1.76114 21.0541 1.04475 19.8203C0.348249 18.5865 0 17.1338 0 15.4622C0 13.7707 0.348249 12.3081 1.04475 11.0743C1.76114 9.84051 2.72629 8.88531 3.94018 8.20872C5.15408 7.53212 6.51722 7.19382 8.02962 7.19382C9.38281 7.19382 10.5669 7.49232 11.5818 8.08932C12.5966 8.68631 13.3827 9.59176 13.9399 10.8057C14.4971 12.0196 14.7757 13.5717 14.7757 15.4622C14.7757 17.3328 14.507 18.885 13.9697 20.1188C13.4324 21.3327 12.6563 22.2382 11.6415 22.8352C10.6465 23.4322 9.44251 23.7307 8.02962 23.7307ZM8.83556 19.9099C9.59176 19.9099 10.2783 19.7308 10.8952 19.3726C11.5121 19.0144 11.9997 18.5069 12.3578 17.8502C12.7359 17.1736 12.925 16.3776 12.925 15.4622C12.925 14.5269 12.7359 13.7309 12.3578 13.0742C11.9997 12.4175 11.5121 11.9101 10.8952 11.5519C10.2783 11.1937 9.59176 11.0146 8.83556 11.0146C8.05947 11.0146 7.36297 11.1937 6.74607 11.5519C6.12918 11.9101 5.63168 12.4175 5.25358 13.0742C4.89538 13.7309 4.71628 14.5269 4.71628 15.4622C4.71628 16.3776 4.89538 17.1736 5.25358 17.8502C5.63168 18.5069 6.12918 19.0144 6.74607 19.3726C7.36297 19.7308 8.05947 19.9099 8.83556 19.9099ZM13.0444 23.4919V20.2084L13.1339 15.4324L12.8354 10.6863V1.34324H17.492V23.4919H13.0444Z" fill="white"/>
<path d="M21.8018 23.4919V7.43262H26.4584V23.4919H21.8018ZM24.1301 5.19388C23.2744 5.19388 22.5779 4.94513 22.0406 4.44763C21.5033 3.95013 21.2347 3.33324 21.2347 2.59694C21.2347 1.86064 21.5033 1.24375 22.0406 0.746248C22.5779 0.248749 23.2744 0 24.1301 0C24.9858 0 25.6823 0.238799 26.2196 0.716398C26.7569 1.1741 27.0256 1.77109 27.0256 2.50739C27.0256 3.28349 26.7569 3.93023 26.2196 4.44763C25.7022 4.94513 25.0057 5.19388 24.1301 5.19388Z" fill="white"/>
<path d="M36.183 23.7307C34.8099 23.7307 33.4865 23.5715 32.2129 23.2531C30.9592 22.9148 29.9642 22.4969 29.2279 21.9994L30.7801 18.6562C31.5164 19.1139 32.3821 19.492 33.3771 19.7905C34.392 20.0691 35.387 20.2084 36.362 20.2084C37.4366 20.2084 38.1928 20.079 38.6306 19.8203C39.0883 19.5616 39.3172 19.2034 39.3172 18.7457C39.3172 18.3676 39.1381 18.089 38.7799 17.9099C38.4416 17.7109 37.9839 17.5617 37.4068 17.4622C36.8297 17.3627 36.1929 17.2632 35.4964 17.1637C34.8198 17.0642 34.1333 16.9348 33.4368 16.7756C32.7403 16.5965 32.1035 16.3378 31.5264 15.9995C30.9493 15.6612 30.4816 15.2035 30.1234 14.6264C29.7851 14.0493 29.616 13.3031 29.616 12.3877C29.616 11.3728 29.9045 10.4773 30.4816 9.70121C31.0786 8.92511 31.9343 8.31817 33.0487 7.88037C34.1631 7.42267 35.4964 7.19382 37.0486 7.19382C38.1431 7.19382 39.2575 7.31322 40.3918 7.55202C41.5261 7.79082 42.4713 8.13907 43.2275 8.59677L41.6753 11.9101C40.8992 11.4524 40.1132 11.144 39.3172 10.9848C38.5411 10.8057 37.7849 10.7161 37.0486 10.7161C36.0138 10.7161 35.2576 10.8554 34.78 11.134C34.3024 11.4126 34.0636 11.7708 34.0636 12.2086C34.0636 12.6066 34.2328 12.9051 34.5711 13.1041C34.9293 13.3031 35.3969 13.4623 35.974 13.5817C36.5511 13.7011 37.1779 13.8105 37.8545 13.91C38.551 13.9896 39.2475 14.119 39.944 14.2981C40.6405 14.4772 41.2674 14.7359 41.8246 15.0742C42.4017 15.3926 42.8693 15.8403 43.2275 16.4174C43.5857 16.9746 43.7648 17.7109 43.7648 18.6263C43.7648 19.6213 43.4663 20.5069 42.8693 21.283C42.2723 22.0392 41.4067 22.6362 40.2724 23.074C39.158 23.5118 37.7948 23.7307 36.183 23.7307Z" fill="white"/>
<path d="M52.0407 23.7307C50.6676 23.7307 49.3443 23.5715 48.0707 23.2531C46.817 22.9148 45.822 22.4969 45.0857 21.9994L46.6379 18.6562C47.3742 19.1139 48.2398 19.492 49.2348 19.7905C50.2497 20.0691 51.2447 20.2084 52.2198 20.2084C53.2944 20.2084 54.0506 20.079 54.4884 19.8203C54.9461 19.5616 55.1749 19.2034 55.1749 18.7457C55.1749 18.3676 54.9958 18.089 54.6376 17.9099C54.2993 17.7109 53.8416 17.5617 53.2645 17.4622C52.6874 17.3627 52.0506 17.2632 51.3542 17.1637C50.6776 17.0642 49.991 16.9348 49.2945 16.7756C48.598 16.5965 47.9612 16.3378 47.3841 15.9995C46.807 15.6612 46.3394 15.2035 45.9812 14.6264C45.6429 14.0493 45.4737 13.3031 45.4737 12.3877C45.4737 11.3728 45.7623 10.4773 46.3394 9.70121C46.9364 8.92511 47.7921 8.31817 48.9065 7.88037C50.0209 7.42267 51.3542 7.19382 52.9063 7.19382C54.0008 7.19382 55.1152 7.31322 56.2495 7.55202C57.3838 7.79082 58.3291 8.13907 59.0853 8.59677L57.5331 11.9101C56.757 11.4524 55.9709 11.144 55.1749 10.9848C54.3988 10.8057 53.6426 10.7161 52.9063 10.7161C51.8715 10.7161 51.1154 10.8554 50.6378 11.134C50.1602 11.4126 49.9214 11.7708 49.9214 12.2086C49.9214 12.6066 50.0905 12.9051 50.4288 13.1041C50.787 13.3031 51.2547 13.4623 51.8318 13.5817C52.4088 13.7011 53.0357 13.8105 53.7123 13.91C54.4088 13.9896 55.1053 14.119 55.8018 14.2981C56.4983 14.4772 57.1251 14.7359 57.6823 15.0742C58.2594 15.3926 58.7271 15.8403 59.0853 16.4174C59.4435 16.9746 59.6226 17.7109 59.6226 18.6263C59.6226 19.6213 59.3241 20.5069 58.7271 21.283C58.1301 22.0392 57.2644 22.6362 56.1301 23.074C55.0157 23.5118 53.6526 23.7307 52.0407 23.7307Z" fill="white"/>
<path d="M70.4655 23.7307C68.6347 23.7307 67.0229 23.3725 65.6299 22.6561C64.2568 21.9397 63.1921 20.9646 62.4359 19.7308C61.6797 18.4771 61.3016 17.0542 61.3016 15.4622C61.3016 13.8503 61.6698 12.4275 62.4061 11.1937C63.1623 9.94001 64.1871 8.96491 65.4806 8.26842C66.7741 7.55202 68.2367 7.19382 69.8685 7.19382C71.4406 7.19382 72.8535 7.53212 74.1072 8.20872C75.3808 8.86541 76.3858 9.82061 77.1221 11.0743C77.8584 12.3081 78.2265 13.7906 78.2265 15.5219C78.2265 15.701 78.2166 15.91 78.1967 16.1488C78.1768 16.3677 78.1569 16.5766 78.137 16.7756H65.0926V14.0593H75.6893L73.8983 14.8652C73.8983 14.0294 73.7291 13.3031 73.3908 12.6862C73.0525 12.0693 72.5849 11.5917 71.9879 11.2534C71.3909 10.8952 70.6944 10.7161 69.8984 10.7161C69.1024 10.7161 68.3959 10.8952 67.779 11.2534C67.1821 11.5917 66.7144 12.0793 66.3761 12.716C66.0378 13.3329 65.8687 14.0692 65.8687 14.9249V15.6413C65.8687 16.5169 66.0577 17.293 66.4358 17.9696C66.8338 18.6263 67.3811 19.1338 68.0775 19.492C68.7939 19.8303 69.6297 19.9994 70.5849 19.9994C71.4406 19.9994 72.1869 19.8701 72.8237 19.6114C73.4804 19.3527 74.0774 18.9646 74.6147 18.4472L77.0922 21.1337C76.3559 21.9695 75.4306 22.6163 74.3162 23.074C73.2018 23.5118 71.9182 23.7307 70.4655 23.7307Z" fill="white"/>
<path d="M101.893 7.19382C103.167 7.19382 104.291 7.45252 105.266 7.96992C106.261 8.46742 107.037 9.24351 107.595 10.2982C108.172 11.333 108.46 12.6663 108.46 14.2981V23.4919H103.804V15.0145C103.804 13.721 103.535 12.7658 102.998 12.1489C102.46 11.532 101.704 11.2236 100.729 11.2236C100.053 11.2236 99.4456 11.3828 98.9083 11.7012C98.371 11.9997 97.9531 12.4573 97.6546 13.0742C97.3561 13.6911 97.2068 14.4772 97.2068 15.4324V23.4919H92.5502V15.0145C92.5502 13.721 92.2816 12.7658 91.7443 12.1489C91.2269 11.532 90.4807 11.2236 89.5056 11.2236C88.829 11.2236 88.222 11.3828 87.6847 11.7012C87.1474 11.9997 86.7295 12.4573 86.431 13.0742C86.1325 13.6911 85.9833 14.4772 85.9833 15.4324V23.4919H81.3267V7.43262H85.7743V11.8206L84.9385 10.537C85.4957 9.44251 86.2818 8.61667 87.2967 8.05947C88.3315 7.48237 89.5056 7.19382 90.819 7.19382C92.2915 7.19382 93.5751 7.57192 94.6696 8.32812C95.784 9.06441 96.5203 10.1987 96.8785 11.731L95.2367 11.2833C95.774 10.0296 96.6297 9.03456 97.8038 8.29827C98.9978 7.56197 100.361 7.19382 101.893 7.19382Z" fill="white"/>
<path d="M112.634 23.4919V7.43262H117.291V23.4919H112.634ZM114.962 5.19388C114.107 5.19388 113.41 4.94513 112.873 4.44763C112.336 3.95013 112.067 3.33324 112.067 2.59694C112.067 1.86064 112.336 1.24375 112.873 0.746248C113.41 0.248749 114.107 0 114.962 0C115.818 0 116.515 0.238799 117.052 0.716398C117.589 1.1741 117.858 1.77109 117.858 2.50739C117.858 3.28349 117.589 3.93023 117.052 4.44763C116.534 4.94513 115.838 5.19388 114.962 5.19388Z" fill="white"/>
<path d="M131.373 7.19382C132.647 7.19382 133.781 7.45252 134.776 7.96992C135.791 8.46742 136.587 9.24351 137.164 10.2982C137.741 11.333 138.03 12.6663 138.03 14.2981V23.4919H133.373V15.0145C133.373 13.721 133.085 12.7658 132.508 12.1489C131.95 11.532 131.154 11.2236 130.12 11.2236C129.383 11.2236 128.717 11.3828 128.12 11.7012C127.543 11.9997 127.085 12.4673 126.747 13.1041C126.428 13.7409 126.269 14.5568 126.269 15.5518V23.4919H121.612V7.43262H126.06V11.8803L125.224 10.537C125.801 9.46241 126.627 8.63657 127.702 8.05947C128.776 7.48237 130 7.19382 131.373 7.19382Z" fill="white"/>
<path d="M152.101 23.4919V20.3576L151.803 19.6711V14.0593C151.803 13.0643 151.494 12.2882 150.877 11.731C150.28 11.1738 149.355 10.8952 148.101 10.8952C147.246 10.8952 146.4 11.0345 145.564 11.3131C144.748 11.5718 144.052 11.93 143.475 12.3877L141.803 9.13406C142.679 8.51717 143.733 8.03957 144.967 7.70127C146.201 7.36297 147.455 7.19382 148.728 7.19382C151.176 7.19382 153.076 7.77092 154.43 8.92511C155.783 10.0793 156.459 11.8803 156.459 14.3279V23.4919H152.101ZM147.206 23.7307C145.952 23.7307 144.878 23.5217 143.982 23.1038C143.087 22.666 142.4 22.079 141.922 21.3427C141.445 20.6064 141.206 19.7805 141.206 18.8651C141.206 17.9099 141.435 17.0741 141.893 16.3577C142.37 15.6413 143.116 15.0841 144.131 14.6861C145.146 14.2682 146.47 14.0593 148.101 14.0593H152.37V16.7756H148.609C147.514 16.7756 146.758 16.9547 146.34 17.3129C145.942 17.6711 145.743 18.1189 145.743 18.6562C145.743 19.2532 145.972 19.7308 146.43 20.089C146.907 20.4273 147.554 20.5964 148.37 20.5964C149.146 20.5964 149.843 20.4173 150.459 20.0591C151.076 19.681 151.524 19.1338 151.803 18.4174L152.519 20.5666C152.181 21.6014 151.564 22.3874 150.668 22.9247C149.773 23.462 148.619 23.7307 147.206 23.7307Z" fill="white"/>
</svg>
