<svg width="963" height="687" viewBox="0 0 963 687" fill="none" xmlns="http://www.w3.org/2000/svg">
<path d="M801.522 88.6198C806.566 93.7264 808.508 100.906 810.681 107.656C828.17 162.055 871.266 205.811 920.346 237.064C941.13 250.311 966.434 268.073 961.887 291.793C959.438 304.541 948.696 313.925 940.716 324.307C923.972 346.046 918.542 375.595 926.522 401.62C935.598 431.23 960.966 458.86 953.114 488.801C948.273 507.23 931.833 520.346 916.029 531.619C891.372 549.194 865.93 565.658 839.703 581.011C822.122 591.301 803.418 601.315 782.928 602.62C764.887 603.772 747.214 598.051 730.084 592.407C715.117 587.469 699.773 582.332 687.687 572.441C679.799 565.983 673.512 557.651 664.749 552.368C644.167 539.959 617.731 547.822 594.131 553.136C538.442 565.607 427.693 650.842 374.701 630.07C293.414 598.202 282.606 441.49 203.096 405.582C168.909 390.14 131.722 380.556 100.067 360.667C82.2334 349.343 66.9073 335.507 54.7801 319.784C30.8478 288.983 17.9059 249.712 21.6431 211.27C25.3802 172.829 46.321 135.785 79.2095 114.084C114.417 90.8544 158.885 86.5157 198.944 72.5705C240.31 58.1645 277.111 33.4071 318.081 17.9491C351.24 5.48155 387.325 -0.633759 423.687 0.0519031C460.049 0.737565 495.765 8.2068 528.216 21.9115C572.803 40.6869 617.998 84.5883 667.658 87.8903C703.032 90.2171 773.899 60.6525 801.522 88.6198Z" fill="#FF2E63"/>
<path d="M780.515 142.304C785.559 147.41 787.502 154.59 789.674 161.34C807.163 215.739 850.259 259.495 899.339 290.749C920.123 303.995 945.427 321.757 940.88 345.477C938.431 358.225 927.689 367.609 919.709 377.991C902.966 399.73 897.535 429.279 905.515 455.304C914.591 484.914 939.959 512.544 932.108 542.485C927.266 560.915 910.826 574.03 895.022 585.303C870.365 602.878 844.924 619.342 818.696 634.695C801.115 644.985 782.411 654.999 761.922 656.304C743.88 657.456 726.207 651.735 709.077 646.091C694.11 641.153 678.766 636.016 666.68 626.125C658.792 619.667 652.505 611.335 643.742 606.052C623.16 593.643 596.725 601.506 573.124 606.82C517.435 619.291 406.686 704.526 353.694 683.754C272.407 651.886 261.599 495.174 182.089 459.266C147.903 443.824 110.716 434.24 79.0605 414.351C61.2266 403.027 45.9005 389.191 33.7733 373.468C9.841 342.667 -3.10089 303.396 0.63623 264.954C4.37335 226.513 25.3141 189.469 58.2026 167.768C93.4106 144.539 137.879 140.2 177.938 126.255C219.304 111.849 256.104 87.0912 297.074 71.6332C330.233 59.1656 366.318 53.0503 402.68 53.736C439.042 54.4216 474.759 61.8909 507.209 75.5956C551.796 94.371 596.992 138.272 646.651 141.574C682.025 143.901 752.892 114.337 780.515 142.304Z" fill="#08D9D6"/>
<ellipse cx="265.5" cy="466" rx="180.5" ry="167" fill="white"/>
<path d="M162.581 530.611C163.107 527.347 164.055 524.505 161.528 522.4C161.423 522.295 161.212 521.979 161.318 521.979C164.897 517.768 161.423 514.505 160.265 510.61C158.897 505.979 157.002 502.821 152.475 503.979C142.896 506.4 133.422 505.452 123.843 504.294C119.106 503.768 115.738 505.768 114.369 510.61C114.053 511.768 114.159 513.663 112.369 513.979C106.474 514.926 105.316 519.768 104.369 524.295C103.422 528.505 101.211 531.979 99.3163 535.663C97.8426 538.611 97.1058 541.769 102.369 541.348C103.422 541.243 104.58 541.348 105.001 542.506C105.316 543.453 104.58 544.085 103.948 544.716C101.948 546.4 99.7374 548.19 100.895 551.243C101.948 554.295 104.474 553.769 107.001 553.559C109.422 553.453 109.527 555.138 108.264 556.717C105.527 559.769 105.316 562.717 108.474 565.348C111.843 568.085 115.211 567.875 118.054 564.401C120.58 561.348 124.369 565.032 127.106 562.611C127.422 563.032 128.054 563.559 127.949 563.769C127.738 564.401 127.212 565.243 126.685 565.243C121.843 565.769 118.054 569.243 113.422 570.296C108.053 571.454 102.053 565.559 102.79 560.085C103.106 557.769 102.685 557.138 100.79 556.506C100.053 556.295 99.3163 555.559 98.79 554.927C97.9479 553.874 96.5794 552.401 97.211 551.243C100.264 545.137 91.632 539.664 96.5794 533.453C99.4216 529.874 100.58 525.347 101.737 520.926C102.895 516.61 104.58 512.505 109.422 511.031C110.896 510.61 111.211 509.452 111.632 508.4C113.948 502.294 118.896 499.768 124.896 500.505C133.949 501.557 142.686 502.61 151.844 500.505C158.581 499.031 161.318 503.558 164.581 509.242C168.055 515.242 163.844 520.926 166.16 526.4C166.265 527.558 165.318 529.453 162.581 530.611Z" fill="#252A34"/>
<path d="M449.85 434.714C441.85 442.083 438.692 442.714 428.691 438.714C427.744 441.767 427.218 445.03 424.586 447.241C421.954 449.451 419.007 449.978 415.954 448.609C414.796 451.136 416.902 453.767 414.481 456.294C413.428 452.504 412.165 449.136 411.533 445.662C411.007 443.03 412.586 443.451 414.375 444.293C421.218 447.451 424.691 445.03 425.007 437.241C425.112 435.662 423.849 433.346 425.955 432.504C427.955 431.662 428.902 433.977 430.165 434.925C436.692 439.556 443.534 437.872 447.218 430.714C447.955 429.346 448.481 427.872 448.902 426.398C449.323 425.135 449.534 423.767 451.008 423.872C452.692 423.977 453.008 425.661 453.008 427.03C452.902 432.188 453.639 437.135 455.639 441.872C458.903 449.557 464.587 452.504 472.798 451.241C474.166 451.03 475.64 450.294 476.587 451.873C477.64 453.557 475.956 454.399 475.113 455.346C469.429 461.978 464.797 468.715 468.903 477.978C469.64 479.663 468.692 480.61 467.008 481.031C465.64 481.347 464.376 481.663 463.008 482.084C461.955 482.399 460.587 483.768 459.85 482.189C459.113 480.61 461.113 480.294 461.955 479.768C463.324 478.926 465.745 479.031 464.797 476.399C462.271 469.136 465.324 463.136 469.008 457.136C469.219 456.715 469.324 456.188 469.534 455.452C456.587 454.715 452.481 445.451 449.85 434.714Z" fill="#252A34"/>
<path d="M227.319 354.292C218.792 356.818 211.424 359.239 204.055 361.239C190.792 364.923 177.423 368.081 164.475 372.818C162.054 373.66 159.633 374.502 159.107 370.608C157.212 354.818 154.475 339.133 153.738 323.238C153.738 322.291 153.949 321.343 154.159 320.186C156.686 320.922 156.265 322.922 156.475 324.186C158.475 337.66 160.37 351.134 161.949 364.713C162.37 368.397 163.107 369.344 167.002 368.081C185.002 362.081 203.529 357.765 221.95 353.344C223.213 352.923 224.687 352.397 227.319 354.292Z" fill="#252A34"/>
<path d="M159.107 529.663C155.738 529.663 152.37 529.663 149.001 529.663C151.107 528.506 151.212 526.19 151.528 524.295C152.159 521.032 150.37 519.242 147.422 520.505C144.58 521.769 143.212 521.137 141.317 519.032C134.58 511.453 126.475 510.61 118.79 516.611C110.895 522.821 108.79 533.453 114.053 541.348C115.422 543.453 117.317 544.822 115.948 548.19C114.685 551.453 117.948 551.769 120.475 552.19C121.948 552.401 125.211 551.348 122.79 554.927C114.369 554.717 113.843 554.296 112.685 546.19C112.474 544.611 111.316 543.769 110.685 542.611C106.474 535.348 106.264 528.084 110.474 520.716C114.895 513.137 121.632 509.347 130.264 508.821C132.896 508.716 135.527 509.453 137.738 510.926C141.949 513.558 144.896 517.663 151.001 517.558C155.107 517.453 155.633 522.19 152.791 528.4C154.686 529.979 157.317 527.558 159.107 529.663Z" fill="#252A34"/>
<path d="M389.006 401.871C387.217 395.24 389.322 389.766 392.48 384.608C395.533 379.555 400.27 376.923 406.059 377.345C412.375 377.871 417.218 380.924 419.849 387.029C424.165 397.24 415.744 411.24 404.691 412.187C403.744 412.293 402.796 412.503 402.48 411.451C402.059 409.977 403.428 409.977 404.375 409.661C410.691 407.345 415.007 403.24 416.902 396.608C418.481 390.924 416.165 385.134 411.007 382.397C405.954 379.66 399.638 380.924 395.954 385.555C393.322 388.924 391.849 392.819 391.217 397.029C391.007 398.713 391.428 400.398 389.006 401.871Z" fill="#252A34"/>
<path d="M369.953 333.238C372.901 335.238 372.796 337.765 374.269 340.186C376.375 335.028 378.69 330.396 380.164 325.449C381.743 320.186 384.059 319.87 388.796 321.87C398.27 325.765 408.165 328.712 417.323 333.554C418.586 334.186 421.218 334.396 420.481 336.291C419.639 338.502 417.744 336.502 416.481 336.081C407.323 332.817 398.059 329.554 389.112 325.87C385.427 324.291 384.059 325.238 382.796 328.817C381.006 334.081 378.585 339.133 376.48 344.291C375.953 345.554 375.532 347.133 373.743 346.923C372.164 346.712 372.164 345.133 371.953 343.976C371.322 340.712 369.638 337.554 369.953 333.238Z" fill="#252A34"/>
<path d="M176.37 485.031C175.107 485.978 174.055 487.663 172.581 485.557C170.686 482.82 169.318 479.768 168.581 476.504C168.265 475.136 176.897 469.978 178.37 470.504C181.423 471.662 183.739 473.768 185.634 476.294C185.739 476.399 185.949 476.61 185.949 476.715C183.844 481.662 187.213 485.663 188.055 490.084C188.371 491.663 186.476 492.084 185.002 490.926C183.002 489.452 181.002 488.084 179.107 486.61C178.055 486.084 177.212 485.557 176.37 485.031Z" fill="#FF2E63"/>
<path d="M168.265 347.87C168.265 338.817 173.633 334.08 181.528 335.449C185.634 336.08 189.739 337.449 193.739 338.396C203.213 340.607 207.529 337.659 209.213 328.08C209.529 326.291 208.582 324.185 210.476 322.817C214.897 329.975 209.318 341.765 201.213 342.607C197.318 343.028 193.529 342.291 189.844 341.133C181.318 338.291 172.897 336.291 168.265 347.87Z" fill="#FF2E63"/>
<path d="M357.216 245.763C351.111 248.921 349.321 253.657 348.058 258.921C346.9 263.973 344.69 268.395 340.69 271.868C336.374 275.658 332.163 279.553 332.058 286.606C329.531 283.132 329.321 281.763 330.795 278.29C331.847 275.763 333.637 273.868 335.637 272.184C340.69 268.079 343.847 262.816 345.216 256.394C346.058 252.605 347.532 249.026 350.9 246.605C352.374 245.657 353.848 244.394 357.216 245.763Z" fill="#FF2E63"/>
<path d="M402.586 336.291C403.112 339.344 401.217 341.028 401.007 343.239C400.901 344.607 400.586 346.186 402.27 346.818C403.849 347.449 404.796 346.291 405.638 345.028C405.849 344.712 405.954 344.396 406.165 344.081C407.428 342.396 406.901 337.975 410.375 339.66C412.902 340.923 410.059 343.66 409.428 345.554C408.165 349.239 406.48 352.712 403.533 355.239C400.059 358.186 395.217 356.607 394.164 352.291C393.954 351.449 393.638 350.502 394.585 349.976C395.638 349.449 396.27 350.186 396.585 351.028C397.006 352.081 397.638 352.712 398.691 353.239C399.849 353.765 400.691 353.028 401.428 352.397C402.27 351.66 401.954 351.239 401.217 350.397C396.059 345.344 396.375 341.66 402.586 336.291Z" fill="#252A34"/>
<path d="M398.901 407.871C399.217 404.082 402.165 403.345 403.217 400.924C401.849 400.187 400.27 399.555 400.059 397.345C397.638 399.661 397.954 403.029 394.901 404.608C394.48 399.45 396.586 395.45 398.375 391.45C399.322 389.345 401.323 389.976 401.744 391.766C402.691 395.976 405.323 396.818 409.007 395.976C409.849 395.766 410.796 395.871 411.323 396.713C411.954 397.871 411.217 398.818 410.375 399.45C406.796 402.292 403.533 405.45 398.901 407.871Z" fill="#FF2E63"/>
<path d="M344.69 292.29C342.058 286.711 343.637 281.869 348.795 278.605C351.321 277.027 354.058 275.869 356.585 274.395C359.637 272.711 361.532 270.079 362.795 266.921C363.322 265.763 363.216 263.447 364.901 263.974C366.795 264.605 365.743 266.605 365.427 268.079C364.585 271.869 362.585 275.026 359.321 276.816C352.69 280.184 345.532 282.921 344.69 292.29Z" fill="#FF2E63"/>
<path d="M386.585 331.554C389.322 336.923 393.322 334.712 396.901 333.66C397.743 335.975 396.27 336.712 395.217 337.344C392.796 338.712 391.006 340.291 392.27 343.449C392.585 344.186 392.48 345.239 391.533 345.66C390.691 346.081 389.954 345.555 389.848 344.923C388.691 341.133 386.375 342.818 384.164 343.66C383.427 343.976 382.585 344.607 381.743 343.66C380.901 342.712 381.638 341.765 382.269 341.554C386.48 339.66 387.006 336.081 386.585 331.554Z" fill="#252A34"/>
<path d="M283.11 540.4C285.215 548.085 284.267 555.874 283.741 563.664C283.741 564.19 282.899 564.717 282.478 565.243C281.952 564.822 281.109 564.401 281.109 563.98C281.109 556.085 279.741 548.085 283.11 540.4Z" fill="#252A34"/>
<path d="M390.164 411.871C389.848 411.24 389.638 410.608 389.217 410.082C388.164 408.924 385.322 408.292 386.48 406.398C387.743 404.292 390.059 406.187 391.533 406.924C393.638 408.082 395.638 409.661 397.322 411.24C398.375 412.187 400.164 413.45 399.007 415.029C397.849 416.608 396.691 414.819 395.428 414.398C394.796 414.187 394.059 414.082 393.428 413.977C391.849 414.082 390.691 413.45 390.164 411.871Z" fill="#252A34"/>
<path d="M471.429 345.66C470.271 344.397 469.113 343.028 467.955 341.765C465.955 338.923 462.376 340.502 459.639 338.817C461.745 335.344 464.692 335.87 467.64 337.028C471.008 338.291 473.219 340.502 473.534 344.186C473.64 345.554 472.587 345.765 471.429 345.66Z" fill="#252A34"/>
<path d="M390.164 411.872C391.217 412.609 392.375 413.345 393.427 414.082C393.849 416.082 397.533 417.135 395.849 419.03C394.27 420.819 392.164 418.398 390.48 417.135C387.954 415.345 384.901 414.293 382.796 411.556C385.533 409.661 387.848 411.661 390.164 411.872Z" fill="#252A34"/>
<path d="M166.16 468.715C166.475 467.978 166.896 467.241 167.212 466.609C167.423 466.609 167.528 466.504 167.739 466.609C169.844 467.03 171.423 462.82 173.002 465.136C174.37 467.136 171.423 468.925 170.054 470.504C168.686 472.083 167.002 473.452 165.423 474.61C164.581 475.241 163.317 475.557 162.581 474.61C161.844 473.662 163.002 472.715 163.212 471.767C163.633 470.399 165.002 469.662 166.16 468.715Z" fill="#252A34"/>
<path d="M295.741 552.611C295.847 555.138 294.583 556.401 292.689 556.506C290.794 556.611 289.425 555.664 289.32 553.348C289.215 551.243 290.478 549.98 292.373 549.875C294.373 549.664 295.425 551.032 295.741 552.611Z" fill="#252A34"/>
<path d="M386.901 416.503C387.954 418.714 386.48 419.556 385.217 420.292C385.006 420.398 383.954 420.082 383.954 419.871C383.848 417.977 385.112 417.029 386.901 416.503Z" fill="#252A34"/>
<path d="M376.269 482.925C364.48 460.293 345.216 445.977 322.268 435.872C320.9 435.24 319.637 434.714 318.479 436.188C317.636 436.609 317.11 437.24 316.689 437.977C317.005 438.082 317.215 438.188 317.531 438.293C316.584 448.293 313.742 458.083 313.11 468.188C312.689 474.925 312.057 481.767 311.426 488.504C311.321 489.978 311.742 492.189 309.32 491.978C301.847 491.347 294.478 494.084 287.11 491.873C287.11 491.557 287.215 491.241 287.215 490.926C286.583 490.61 286.057 490.189 285.636 489.452C285.32 488.82 284.794 488.504 284.267 488.504C284.267 488.715 284.267 488.926 284.267 489.136C284.267 491.452 283.636 492.82 280.688 492.926C274.793 493.031 268.899 493.662 263.004 494.084C262.898 494.084 262.793 493.873 262.688 493.662C262.477 493.873 262.372 493.978 262.162 494.189C260.898 496.505 260.583 499.242 259.319 501.557C259.741 502.084 260.056 502.715 259.635 503.452C257.846 507.136 255.635 507.242 253.53 503.978C251.635 500.926 250.267 499.873 248.267 503.768C247.951 504.4 247.109 505.242 246.898 505.242C242.898 503.452 237.214 505.347 234.793 502.821C232.161 499.978 230.687 500.505 228.056 501.242C226.582 501.663 225.108 501.663 222.582 502.084C226.477 497.136 234.056 499.136 235.53 492.926C235.845 493.241 236.056 493.557 236.161 493.978C236.266 493.768 236.372 493.557 236.477 493.347C236.898 492.61 237.214 491.978 237.424 491.136C237.108 491.136 236.898 491.136 236.582 491.031C236.161 485.031 236.266 479.031 238.582 472.504C242.372 477.452 238.582 482.083 239.951 486.61C242.793 485.557 245.53 484.82 248.056 487.241C249.214 488.294 250.267 486.82 251.214 486.189C253.109 485.136 254.898 484.294 257.109 485.557C261.32 488.189 260.898 485.347 260.477 482.61C258.583 471.03 256.583 459.557 254.688 447.977C254.161 444.714 253.319 441.451 254.688 438.188C255.004 438.398 255.319 438.503 255.635 438.503C255.53 437.977 255.214 437.661 254.688 437.556C253.214 435.451 251.425 434.924 248.898 435.661C243.845 437.135 238.898 439.03 234.477 441.977C218.687 452.188 206.371 465.767 197.845 482.399C186.265 504.926 189.95 526.611 207.108 542.295C212.055 546.821 217.634 550.506 223.74 553.243C227.845 555.137 229.635 557.769 228.898 562.19C228.687 563.559 228.582 564.927 228.371 566.401C227.845 569.769 229.108 571.243 232.687 570.927C240.056 570.401 247.319 569.98 254.688 569.664C263.214 569.243 263.214 569.348 262.793 561.032C262.688 558.927 262.583 556.822 262.793 554.716C263.109 551.137 261.635 551.137 258.898 552.19C255.319 553.558 251.635 554.611 247.846 555.559C244.161 556.506 240.477 556.611 236.056 555.769C238.056 553.558 240.056 553.558 241.74 553.243C254.898 550.295 267.951 546.927 279.846 540.4C281.636 539.348 283.32 539.348 285.32 539.874C291.11 541.453 296.794 543.032 302.689 544.085C306.373 544.716 307.32 546.4 306.689 549.769C305.847 553.98 305.847 558.085 305.847 562.295C305.847 564.506 306.268 565.98 309.005 565.98C321.321 565.874 333.532 565.874 345.848 565.874C348.795 565.874 349.953 564.717 349.953 561.769C349.953 557.348 350.163 553.032 350.269 548.611C350.269 545.242 351.637 543.558 355.111 542.4C365.848 538.821 374.164 532.084 378.901 521.558C385.217 507.979 382.69 495.136 376.269 482.925ZM291.846 531.032C290.794 531.874 289.952 533.137 287.636 532.926C293.741 524.61 313.952 503.557 327.637 495.452C323.11 493.452 318.163 494.715 312.478 493.136C318.373 490.189 323.426 491.031 328.268 491.241C329.637 491.241 331.005 491.768 332.479 491.873C335.111 491.978 338.058 492.926 340.269 491.873C343.426 490.505 340.269 487.241 341.005 484.82C341.321 483.662 341.005 482.294 342.69 481.452C344.584 485.241 344.9 489.347 344.9 493.452C344.9 495.557 343.216 496.294 341.637 495.873C331.531 493.768 325.531 500.821 318.689 505.979C309.005 513.452 301.636 523.558 291.846 531.032ZM345.111 546.716C334.689 549.453 324.373 549.453 313.215 546.716C315.005 544.295 316.689 544.716 318.163 544.716C327.005 544.927 335.847 545.032 344.69 543.979C345.532 543.874 346.584 543.558 346.9 544.611C347.321 546.085 346.163 546.506 345.111 546.716Z" fill="#FF2E63"/>
<path d="M236.898 490.821C237.74 490.189 238.477 489.557 239.424 488.926C241.108 487.768 243.424 486.61 244.582 488.189C246.161 490.294 242.898 490.61 241.951 491.663C240.477 493.242 239.635 495.031 238.898 497.031C238.477 498.294 238.582 500.294 236.793 499.979C235.108 499.558 235.845 497.663 235.74 496.294C235.635 495.136 235.845 493.873 235.95 492.61C236.161 491.978 236.582 491.452 236.898 490.821Z" fill="#252A34"/>
<path d="M258.793 502.4C254.898 500.715 256.793 497.979 257.635 495.452C258.583 492.505 260.162 489.768 263.32 489.452C266.267 489.241 265.214 490.926 264.056 492.294C263.635 492.821 263.53 493.452 263.214 493.978C263.109 494.189 263.004 494.505 263.004 494.821C260.898 497.031 261.425 500.61 258.793 502.4Z" fill="#252A34"/>
<path d="M258.793 502.4C260.477 500.084 259.53 496.294 263.004 494.926C262.477 497.978 261.53 500.821 259.951 503.452C259.53 503.136 259.214 502.715 258.793 502.4Z" fill="#FF2E63"/>
<path d="M307.426 374.186C306.057 371.976 303.847 370.713 301.952 369.028C297.005 367.87 292.478 368.607 288.478 372.081C287.32 372.502 286.478 373.871 285.004 373.134C280.267 369.028 275.109 368.292 269.53 371.028C266.478 373.66 268.583 378.608 265.004 381.029C263.846 385.976 266.372 388.713 270.478 390.713C276.162 393.239 281.215 391.976 285.846 388.397C286.794 387.766 287.741 387.766 288.689 388.292C294.057 391.029 299.636 392.082 305.426 389.345C306.584 388.292 306.057 386.397 307.531 385.555C311.005 381.239 311.005 378.608 307.426 374.186ZM276.688 388.713C272.372 388.608 268.372 384.292 268.478 380.081C268.583 375.66 271.951 371.765 275.636 371.871C279.846 371.976 284.162 376.502 284.057 380.923C284.162 385.134 280.583 388.818 276.688 388.713ZM298.162 387.66C293.741 387.66 289.846 383.66 289.846 379.239C289.846 374.818 293.215 370.818 296.794 370.818C301.215 370.818 305.215 375.029 305.32 379.765C305.32 384.292 302.268 387.66 298.162 387.66Z" fill="#FF2E63"/>
<path d="M314.584 329.238C313.32 328.186 312.478 327.238 312.163 325.554C309.531 311.343 299.531 304.501 284.899 306.501C277.846 307.449 271.004 310.185 263.741 309.975C262.477 309.975 260.793 309.027 259.951 310.712C259.109 312.607 260.793 313.554 261.846 314.501C262.583 315.238 263.425 315.764 264.372 316.501C261.635 318.501 258.688 319.344 255.74 320.291C254.161 320.817 251.846 320.712 251.74 322.923C251.635 325.028 254.056 325.133 255.425 326.186C256.372 326.923 259.319 326.08 257.425 328.817C252.267 336.291 251.53 345.028 250.477 353.765C250.161 356.923 249.109 359.976 246.266 361.871C245.214 362.502 243.951 362.818 244.161 364.502C244.372 366.081 245.74 366.397 246.898 366.397C249.109 366.502 250.267 367.134 249.214 369.45C247.845 372.292 248.688 373.555 251.74 372.818C253.214 372.502 253.53 373.239 253.846 374.292C254.793 378.397 258.477 381.45 257.425 386.398C256.793 389.029 259.109 392.187 262.056 392.713C266.688 393.556 266.898 396.714 267.32 400.082C267.951 405.661 269.425 411.345 274.372 414.082C279.109 416.819 280.162 420.188 279.846 424.925C279.741 425.767 280.057 426.609 280.162 427.556C280.688 428.398 280.583 430.188 281.951 429.767V429.662C283.53 425.451 282.688 421.03 283.004 416.819C283.004 416.293 283.004 415.661 282.794 415.24C282.583 415.03 282.478 414.819 282.267 414.503C282.057 414.398 281.951 414.188 281.636 414.188C270.793 410.293 270.477 401.24 270.372 391.977C269.109 390.503 267.109 390.819 265.53 390.292C263.319 389.555 261.004 388.924 260.898 386.082C260.688 383.134 262.372 381.555 265.109 380.924C265.214 381.345 265.319 381.766 265.425 382.082C265.53 381.976 265.635 381.871 265.846 381.766C269.32 379.239 268.267 374.713 270.477 371.555C270.583 371.345 270.793 371.029 270.899 370.818C270.477 370.818 270.056 370.818 269.635 370.924C274.162 360.713 282.372 353.976 291.32 347.344C293.741 355.449 298.689 361.765 302.057 368.923C301.741 369.029 301.531 369.134 301.215 369.239C302.794 371.555 304.899 373.239 307.215 374.818C307.426 374.924 307.741 375.029 307.952 375.029C307.847 374.713 307.741 374.397 307.531 374.081C308.373 374.187 309.215 374.292 310.057 374.503C313.005 375.134 316.899 375.134 316.794 379.45C316.584 383.871 313.11 385.24 309.215 385.661C308.689 385.661 308.162 385.555 307.636 385.555C307.741 385.345 307.847 385.029 307.952 384.819C307.636 384.924 307.215 385.134 306.899 385.345C305.636 386.398 305.005 387.871 304.583 389.345C304.899 389.345 305.215 389.345 305.531 389.345C305.636 395.029 304.478 400.398 302.057 405.556C300.689 408.398 298.794 410.924 296.057 412.609C294.267 413.661 291.11 413.767 291.741 416.924C292.583 421.24 290.688 426.188 294.794 429.767C294.899 426.504 295.004 423.24 295.11 420.082C295.11 418.714 295.004 417.135 296.478 416.398C306.057 411.556 307.847 402.398 309.32 393.134C309.741 390.503 310.373 389.45 313.11 388.608C319.847 386.608 321.952 380.924 318.584 374.713C317.426 372.608 317.531 371.029 319.952 370.397C321.426 370.081 321.742 369.029 322.268 367.976C327.847 356.397 324.268 337.87 314.584 329.238Z" fill="#252A34"/>
<path d="M453.85 481.768C454.376 485.452 452.587 486.61 449.218 485.873C446.692 485.347 444.376 485.978 442.271 487.347C440.376 488.505 438.271 489.452 435.955 489.978C429.428 491.347 424.06 489.663 419.323 484.82C414.902 480.294 415.217 475.452 417.428 470.294C418.586 467.557 417.744 465.03 417.428 461.136C419.218 464.294 419.744 466.82 421.744 468.504C423.744 470.083 424.902 472.188 425.955 474.399C427.533 477.768 430.06 479.662 433.849 478.925C436.165 478.399 437.323 479.873 438.797 481.136C444.06 485.557 450.692 484.189 454.06 477.978C455.639 474.61 455.955 471.346 453.745 467.978C457.113 467.03 460.166 465.978 460.06 461.978C459.955 458.293 456.903 456.399 454.166 456.504C447.534 456.714 444.797 453.241 443.113 447.662C442.271 444.82 440.165 443.135 437.218 443.556C434.376 443.977 432.586 445.767 432.376 448.82C432.27 449.662 432.06 450.504 431.955 451.346C425.954 448.925 423.323 456.293 417.954 456.293C414.165 456.293 411.533 459.241 412.375 463.03C413.112 466.294 412.481 469.031 411.428 471.978C409.323 477.873 411.007 482.926 414.796 487.557C421.428 495.663 433.323 497.768 443.429 492.61C444.902 491.873 446.06 490.084 448.166 490.926C451.955 492.61 455.008 491.347 457.324 488.189C459.955 484.505 458.376 481.241 456.06 478.189C454.06 478.61 453.639 480.083 453.85 481.768ZM448.481 477.978C446.376 479.031 444.165 479.241 442.165 477.662C440.481 476.294 440.376 474.294 440.797 472.399C441.113 471.136 441.534 469.346 443.323 469.767C445.218 470.294 444.586 471.662 443.955 473.031C443.639 473.767 443.007 474.61 444.481 475.873C445.218 475.241 445.955 474.504 446.797 473.978C448.271 473.136 449.113 474.399 449.85 475.241C451.113 476.82 449.429 477.452 448.481 477.978ZM451.323 472.294C449.429 470.399 447.955 469.557 447.323 467.452C450.271 467.557 451.85 468.504 451.323 472.294ZM437.113 447.767C439.323 446.609 440.165 448.714 440.797 450.293C443.113 455.767 446.902 458.925 453.008 459.557C454.481 459.767 456.797 460.293 456.481 462.609C456.271 464.188 454.481 464.294 452.797 464.083C446.271 461.872 439.007 460.399 436.271 452.399C435.744 450.504 435.218 448.714 437.113 447.767ZM436.586 465.241C437.955 461.557 439.744 461.978 442.586 464.715C439.955 466.925 437.849 469.031 437.007 472.294C436.692 473.452 437.639 475.768 434.692 475.031C433.007 474.61 431.112 474.504 430.481 472.61C429.744 470.504 430.902 469.452 432.797 468.715C434.27 467.978 435.955 466.925 436.586 465.241ZM423.744 460.715C423.849 459.03 424.165 456.714 426.376 457.136C428.691 457.557 427.533 459.451 426.797 460.82C426.481 461.451 426.27 462.083 426.797 462.715C427.428 463.451 428.06 463.03 428.481 462.504C429.639 461.451 430.586 460.188 432.27 461.978C432.797 462.609 433.849 463.136 433.113 464.083C431.955 465.452 430.376 465.978 428.902 466.083C425.112 465.873 423.428 464.188 423.744 460.715Z" fill="#252A34"/>
<path d="M137.212 520.505C134.264 522.927 131.948 524.506 131.527 528.19C128.79 523.032 130.79 520.4 137.212 520.505Z" fill="#252A34"/>
<path d="M118.474 538.085C116.685 535.032 118.159 533.558 120.159 532.295C121.106 531.769 122.79 531.663 122.685 532.611C122.58 535.242 119.948 536.085 118.474 538.085Z" fill="#252A34"/>
<path d="M124.053 537.348C125.211 537.769 126.264 538.611 126.159 540.295C126.054 541.348 125.211 541.769 124.369 541.558C122.896 541.243 121.843 540.401 122.053 538.611C122.159 537.558 122.79 537.032 124.053 537.348Z" fill="#252A34"/>
<path d="M136.685 530.716C135.212 530.19 134.37 529.347 134.475 527.663C134.58 526.505 135.422 526.295 136.37 526.505C137.843 526.821 138.896 527.768 138.58 529.453C138.58 530.4 137.738 530.716 136.685 530.716Z" fill="#252A34"/>
<path d="M301.847 429.24C299.426 428.714 296.794 427.345 294.583 429.872L294.689 429.766C292.373 430.819 291.32 433.135 289.741 434.924C288.794 436.082 287.531 437.346 286.373 435.872C284.899 433.872 280.794 433.661 281.846 429.766C281.215 429.03 280.688 428.398 280.057 427.661C280.057 429.451 279.32 429.661 277.53 429.766C269.425 430.398 261.951 432.924 255.109 437.451C255.214 437.661 255.214 437.872 255.214 438.082C255.214 439.135 255.846 439.661 256.898 439.661C258.477 439.767 259.951 439.135 261.53 438.714C267.741 437.03 267.951 437.135 267.951 443.767C267.951 446.083 267.951 448.293 267.741 450.609C267.53 452.714 267.425 455.03 269.53 456.293C271.636 457.556 273.53 456.083 275.32 455.03C277.846 453.662 280.057 451.451 282.899 450.504C283.846 451.556 283.846 452.609 283.636 453.662C282.057 463.557 283.004 473.557 282.794 483.557C282.794 485.557 282.373 487.873 284.583 489.241C285.952 489.662 283.846 493.662 287.32 491.978C289.741 488.715 289.741 484.82 289.846 480.925C289.952 471.873 289.846 462.714 289.952 453.662C289.952 452.398 289.32 450.82 290.899 449.872C293.32 451.03 295.11 453.03 297.005 454.714C298.899 456.399 300.689 458.82 303.741 457.767C306.584 456.82 306.478 453.977 306.899 451.662C307.426 449.135 307.742 446.504 308.163 443.872C309.215 437.767 309.215 437.767 315.215 438.819C316.058 439.03 316.9 438.925 317.742 438.398C318.058 437.661 318.373 437.03 318.689 436.293C313.426 432.924 307.847 430.609 301.847 429.24ZM281.109 444.925C278.583 446.714 275.951 448.398 272.267 450.925C272.267 445.662 272.267 441.556 272.267 437.451C272.267 436.188 271.425 434.503 273.425 433.977C275.215 433.556 277.004 432.924 278.583 434.924C280.478 437.346 282.688 439.661 284.899 442.082C283.636 443.135 282.373 444.083 281.109 444.925ZM304.794 437.872C303.847 442.398 302.689 446.925 301.531 451.767C300.057 450.504 298.689 449.451 297.426 448.293C289.741 441.767 289.846 441.872 296.373 433.872C299.005 430.609 301.426 433.03 303.847 433.556C306.373 434.082 305.11 436.293 304.794 437.872Z" fill="#252A34"/>
<path d="M315.531 259.974C315.531 259.974 315.637 259.974 315.531 259.974C315.637 254.395 315.637 248.815 315.637 243.236C315.531 234.394 310.584 230.184 301.847 231.131C296.794 231.657 291.847 232.394 286.794 233.026C280.583 233.763 277.425 236.394 276.899 242.5C275.846 254.71 276.267 266.921 278.162 278.921C279.004 283.974 281.636 288.29 287.215 289.237C293.004 290.29 298.899 291.132 304.899 289.974C312.479 288.501 315.215 285.869 315.531 278.185C315.847 271.763 315.531 265.974 315.531 259.974ZM311.531 279.869C311.005 283.448 309.426 285.343 305.742 286.079C299.426 287.237 293.215 286.922 287.11 285.448C283.952 284.711 282.688 282.185 282.057 279.448C280.583 273.342 280.373 267.026 280.057 260.816C279.741 254.605 279.846 250.079 279.741 242.5C279.636 236.394 282.478 235.763 287.11 239.131C290.583 241.552 300.794 240.71 303.952 237.657C307.636 234.184 310.268 234.815 311.531 239.763C312.794 244.394 311.952 249.131 312.163 253.868C312.268 255.763 312.163 257.658 312.163 261.132C312.479 266.29 312.584 273.132 311.531 279.869Z" fill="#252A34"/>
<path d="M176.792 452.504C174.897 451.241 172.581 450.293 170.37 450.715C167.002 451.451 165.844 449.451 164.475 447.136C159.423 439.135 153.212 432.083 143.528 429.977C138.054 428.819 133.317 427.556 130.58 422.188C130.054 421.135 128.791 419.451 127.317 420.714C126.054 421.767 127.527 423.135 127.948 424.398C129.106 427.346 132.791 428.819 132.475 432.293C131.633 444.82 137.738 454.083 146.265 462.083C148.265 463.978 148.896 465.767 148.37 468.504C147.528 473.136 148.791 477.452 151.317 481.452C151.949 482.505 152.58 483.663 154.054 483.557C155.633 483.452 155.633 481.873 155.949 480.82C157.107 477.241 157.738 473.347 161.844 471.873C163.423 471.031 165.107 470.294 166.581 469.136C167.212 468.399 167.844 467.768 167.318 466.715C169.212 463.557 171.634 461.031 175.634 460.504C177.949 460.188 181.318 460.925 181.844 458.083C182.16 455.136 178.897 453.873 176.792 452.504ZM153.002 476.715C151.738 473.768 151.002 471.031 151.738 467.978C156.896 470.189 155.633 473.241 153.002 476.715ZM166.476 463.031C164.054 465.031 161.739 467.241 159.317 469.452C153.949 464.294 148.159 459.452 143.317 453.662C139.212 448.714 136.896 443.03 136.054 436.609C135.633 433.03 136.896 432.293 140.054 432.819C146.37 433.872 151.423 437.135 155.738 441.556C160.581 446.399 164.054 452.294 167.423 458.188C168.686 460.399 168.265 461.662 166.476 463.031ZM168.791 453.978C171.528 453.662 173.844 454.609 175.739 456.609C172.581 458.083 169.318 459.662 168.791 453.978Z" fill="#252A34"/>
<path d="M139.843 347.028C135.738 338.502 131.633 330.081 126.264 322.291C120.79 314.396 114.895 313.343 107.106 319.028C101.632 323.028 96.3687 327.449 91.4212 332.186C84.8948 338.291 84.579 343.239 89.737 350.607C95.1055 358.186 100.685 365.555 105.948 373.134C107.632 375.555 109.843 376.503 113.632 376.397C114.369 376.187 116.159 375.976 117.738 375.239C126.79 371.239 133.633 364.502 139.212 356.502C141.317 353.555 141.422 350.292 139.843 347.028ZM136.054 355.028C130.685 362.081 124.79 368.397 116.895 372.503C111.632 375.239 109.843 374.397 106.685 369.45C102.053 362.292 97.2108 355.239 92.4739 348.081C89.0001 342.818 89.0001 339.239 93.5265 335.133C98.8951 330.186 104.685 325.554 110.58 321.238C115.316 317.765 119.001 318.501 122.369 323.028C128.264 330.817 132.369 339.765 136.685 348.502C137.001 349.239 137.001 350.186 137.106 350.607C137.001 352.397 137.001 353.871 136.054 355.028Z" fill="#252A34"/>
<path d="M139.949 252.079C139.212 248.605 137.422 249.131 135.633 251.026C125.633 260.816 115.632 270.605 105.632 280.395C103.527 282.395 103.632 283.763 106.264 285.132C109.843 286.921 113.317 288.921 116.79 290.921C126.685 296.816 137.422 301.448 146.791 308.29C147.001 308.08 147.317 307.764 147.317 307.553C146.475 288.816 143.633 270.395 139.949 252.079ZM109.843 282.711C118.685 273.658 127.527 264.605 136.791 255.131C140.265 270.921 142.159 286.606 144.686 303.238C132.264 295.974 120.79 289.132 109.843 282.711Z" fill="#252A34"/>
<path d="M478.377 555.137C469.008 543.137 459.113 531.663 448.481 520.716C445.744 517.979 444.271 518.084 443.323 521.874C439.323 538.19 436.797 554.716 434.586 571.348C434.376 575.454 434.797 576.085 437.744 575.138C451.639 570.822 464.692 564.506 477.745 558.19C479.324 557.453 479.64 556.716 478.377 555.137ZM473.429 557.559C463.218 561.664 452.902 565.664 442.797 569.98C438.902 571.559 438.165 570.19 438.692 566.611C440.692 552.611 443.007 538.611 446.481 523.663C456.376 534.295 465.85 543.769 474.376 554.19C476.061 555.98 475.324 556.822 473.429 557.559Z" fill="#FF2E63"/>
<path d="M418.06 473.136C421.533 472.715 422.902 474.399 424.375 475.767C427.744 479.031 431.112 482.294 434.481 485.662C435.007 486.189 435.744 486.925 435.218 487.873C434.797 488.504 433.955 488.715 433.323 488.294C427.428 484.294 422.165 479.873 418.06 473.136Z" fill="#252A34"/>
<path d="M471.429 345.66C471.219 343.554 470.376 341.975 467.955 341.765C463.955 341.765 459.429 339.66 456.692 344.607C449.744 357.449 445.113 371.029 445.85 385.871C445.85 386.924 445.744 388.082 447.008 388.503C448.271 388.924 448.902 388.082 449.534 387.239C457.113 377.029 466.376 367.871 471.113 355.66C472.482 352.186 473.113 349.028 471.429 345.66ZM453.955 374.923C451.85 376.081 449.955 374.187 449.639 371.239C449.323 368.923 450.587 367.66 452.06 366.081C454.166 375.029 457.008 365.344 459.85 366.818C460.376 371.134 456.797 373.344 453.955 374.923Z" fill="#252A34"/>
<path d="M469.219 351.239C467.534 355.239 466.061 359.976 463.429 363.87C462.587 365.028 457.955 364.186 455.323 363.449C453.534 362.923 452.797 360.923 453.955 358.712C455.745 355.133 457.324 351.554 459.008 347.87C460.06 345.554 461.534 343.975 464.271 344.817C466.903 345.659 469.113 347.344 469.219 351.239Z" fill="#FF2E63"/>
<path d="M159.107 529.663C155.738 529.137 152.37 528.611 149.001 529.663C142.264 529.874 138.37 532.927 137.843 538.927C137.528 543.032 135.212 541.453 133.106 540.822C131.106 540.19 130.37 537.243 127.948 537.348C126.475 539.874 130.264 541.453 128.791 543.348C125.738 547.348 126.369 552.295 124.369 556.506C126.896 562.506 128.054 562.717 134.791 558.19C135.001 558.19 135.212 558.296 135.528 558.296C137.212 558.296 138.685 557.559 140.054 556.611C145.633 553.348 149.949 548.401 155.107 544.506C155.212 543.98 155.212 543.558 154.791 543.137C155.633 540.611 158.686 540.716 160.16 538.611C162.896 534.821 162.686 531.979 159.107 529.663ZM156.265 537.032C151.317 536.927 151.107 544.085 145.844 543.558C145.001 543.453 144.896 544.822 144.791 545.769C144.58 548.085 143.212 549.243 140.896 548.927C139.738 548.822 138.685 549.032 138.37 550.19C137.633 552.506 136.896 553.559 133.949 552.927C131.527 552.506 131.843 556.822 128.475 557.138C128.054 553.559 129.106 550.295 129.738 546.927C130.054 545.032 131.106 544.295 133.527 544.822C138.896 546.085 140.896 544.295 141.001 538.822C141.001 534.927 143.212 533.137 146.791 532.821C149.423 532.611 152.054 532.716 154.686 532.716C155.949 532.716 157.844 531.769 158.265 533.663C158.581 535.032 157.423 537.032 156.265 537.032Z" fill="#252A34"/>
<path d="M470.903 286.606C459.324 286.816 447.85 287.343 436.271 288.501C433.007 288.817 433.218 290.396 434.165 292.817C437.113 300.501 439.955 308.185 442.587 315.975C443.85 319.659 445.218 320.08 447.85 317.133C455.745 308.396 463.64 299.764 471.535 291.132C472.271 290.395 472.798 289.448 473.219 288.922C473.429 286.816 472.166 286.606 470.903 286.606ZM445.639 316.186C443.008 307.975 440.481 300.185 437.955 292.185C445.323 290.922 452.482 290.817 459.534 290.817C461.745 290.922 464.482 288.711 466.061 292.08C459.534 299.869 452.797 307.764 445.639 316.186Z" fill="#FF2E63"/>
<path d="M466.166 292.08C464.271 289.974 461.745 291.448 459.639 290.816C461.639 289.343 463.955 289.869 466.061 289.974C468.376 290.079 467.324 291.237 466.166 292.08Z" fill="#FF2E63"/>
<path d="M242.056 254.5C235.424 254.921 228.161 262.711 228.266 269.448C228.266 275.869 233.108 280.29 239.951 280.185C247.53 280.079 253.109 274.711 253.109 267.342C253.214 261.658 246.793 254.184 242.056 254.5ZM239.951 276.5C234.582 276.5 231.529 273.974 231.529 269.342C231.529 264.184 237.74 257.237 242.267 257.342C245.53 257.447 249.425 263.132 249.319 267.763C249.425 273.237 245.951 276.395 239.951 276.5Z" fill="#FF2E63"/>
<path d="M410.27 518.4C403.954 518.19 397.007 525.348 396.901 532.19C396.796 538.19 401.428 542.611 407.638 542.716C414.27 542.716 419.533 537.453 419.639 530.716C419.849 524.716 415.007 518.505 410.27 518.4ZM407.638 539.137C403.217 539.137 400.586 536.295 400.796 531.769C401.007 526.716 405.849 520.821 409.744 521.137C413.007 521.347 415.849 525.663 415.849 530.295C415.744 535.453 412.375 539.137 407.638 539.137Z" fill="#252A34"/>
<path d="M93.8424 383.976C86.3685 383.976 81 388.713 81 395.555C81 402.398 85.3159 406.819 92.0529 406.713C99.3162 406.608 104.158 401.871 104.158 395.029C104.158 389.029 99.5267 383.976 93.8424 383.976ZM91.9476 403.45C87.737 403.555 84.4738 400.397 84.2632 395.976C84.0527 391.029 87.9475 386.608 92.6845 386.502C96.8951 386.397 100.895 390.608 100.895 395.134C101 399.661 97.0003 403.345 91.9476 403.45Z" fill="#FF2E63"/>
<path d="M479.219 325.975C476.692 323.133 473.64 321.659 469.955 323.028C465.429 324.607 463.218 328.396 462.06 332.712C461.639 334.291 463.113 334.923 464.797 334.712C467.85 334.291 471.008 334.712 472.903 337.133C477.008 342.502 478.166 338.607 479.745 335.344C480.482 333.87 480.903 332.396 480.798 330.817C481.008 328.923 480.482 327.344 479.219 325.975ZM476.271 335.344C474.587 334.081 473.219 332.923 471.745 332.186C470.271 331.449 468.587 331.028 467.008 330.396C468.692 326.922 471.429 325.343 474.692 326.817C478.377 328.607 477.64 331.87 476.271 335.344Z" fill="#252A34"/>
<path d="M205.845 409.556C202.16 409.451 199.108 412.608 198.897 416.609C198.687 420.398 200.055 423.135 204.266 423.451C208.476 423.767 212.266 420.714 212.055 416.714C211.74 413.03 210.055 410.082 205.845 409.556ZM204.581 419.872C202.687 419.767 201.95 418.082 202.371 416.398C202.792 414.609 202.792 411.977 205.318 412.082C207.318 412.187 208.161 414.398 208.371 416.293C208.266 418.819 206.687 419.977 204.581 419.872Z" fill="#252A34"/>
<path d="M247.214 501.979C244.582 496.189 247.214 489.241 251.951 487.978C252.793 487.768 253.74 487.557 254.372 488.294C254.583 488.61 254.477 489.557 254.267 489.768C250.161 492.399 249.635 497.347 247.214 501.979Z" fill="#252A34"/>
<path d="M294.689 489.557C293.004 489.136 291.531 488.505 291.425 486.294C291.32 483.978 292.794 482.61 294.899 482.61C296.899 482.61 298.057 484.084 298.057 485.978C297.952 488.084 296.689 489.136 294.689 489.557Z" fill="#252A34"/>
<path d="M295.741 472.925C293.847 472.61 292.583 471.662 292.478 469.557C292.373 467.452 293.741 466.399 295.741 466.294C297.847 466.188 299.005 467.452 299.005 469.452C299.005 471.557 297.952 472.715 295.741 472.925Z" fill="#252A34"/>
<path d="M295.004 391.661C296.268 397.556 294.373 400.292 290.373 401.24C286.794 402.082 283.425 401.135 282.478 395.24C287.952 399.24 291.846 397.871 295.004 391.661Z" fill="#252A34"/>
<path d="M285.846 388.292C286.373 387.345 285.846 385.345 287.425 385.345C289.109 385.345 288.162 387.24 288.688 388.187C288.267 388.818 288.583 389.871 287.425 389.871C286.267 389.976 286.162 389.029 285.846 388.292Z" fill="#252A34"/>
<path d="M288.478 372.081C288.268 373.449 287.741 374.713 286.689 375.66C286.162 374.818 285.531 373.976 285.004 373.134C285.531 371.555 285.11 369.239 287.32 369.028C288.794 369.028 288.057 371.028 288.478 372.081Z" fill="#252A34"/>
<path d="M153.423 446.293C152.686 449.241 151.528 451.451 148.159 451.136C145.001 450.925 143.528 448.609 143.528 445.872C143.528 443.136 145.528 441.557 148.37 441.557C151.633 441.451 152.896 443.557 153.423 446.293Z" fill="#252A34"/>
<path d="M115.316 323.133C118.58 323.133 120.895 324.291 122.264 327.238C123.632 330.08 123.632 332.817 121.527 335.028C116.474 340.396 110.79 344.923 104.053 348.186C101 349.66 98.0529 349.133 95.5265 346.396C93.3159 343.975 92.5791 341.344 94.5791 338.817C99.7371 332.396 105.632 326.712 113.422 323.554C114.158 323.238 114.895 323.238 115.316 323.133Z" fill="#252A34"/>
<path d="M127.212 346.923C129.106 346.923 133.738 353.028 133.106 354.818C133.001 355.239 132.58 355.87 132.159 355.976C128.896 356.923 128.054 354.081 126.685 352.291C125.527 350.818 124.475 349.028 126.37 347.239C126.475 347.028 126.896 347.028 127.212 346.923Z" fill="#252A34"/>
<path d="M116.264 365.765C117.527 365.976 118.474 366.713 118.58 368.081C118.685 369.449 117.738 370.397 116.474 370.502C114.895 370.713 113.843 369.555 113.843 368.081C113.948 366.713 115.001 365.976 116.264 365.765Z" fill="#252A34"/>
<path d="M114.895 350.818C113.632 350.502 112.79 349.66 112.895 348.397C113.001 347.133 113.948 346.291 115.422 346.397C116.79 346.502 117.738 347.344 117.527 348.712C117.211 349.976 116.369 350.818 114.895 350.818Z" fill="#252A34"/>
<path d="M124.159 359.344C125.106 359.554 126.054 360.291 125.948 361.66C125.843 363.028 124.79 363.765 123.527 363.765C122.264 363.66 121.211 362.818 121.317 361.449C121.527 360.186 122.369 359.239 124.159 359.344Z" fill="#252A34"/>
<path d="M111.737 359.239C113.316 359.239 114.053 360.186 114.053 361.449C114.159 362.818 113.106 363.66 111.843 363.66C110.58 363.66 109.527 362.923 109.527 361.449C109.632 360.186 110.58 359.449 111.737 359.239Z" fill="#252A34"/>
<path d="M109.632 354.923C109.527 356.292 109 357.239 107.422 357.134C106.053 357.028 105.211 356.186 105.211 354.818C105.211 353.66 106.053 353.028 107.211 352.818C108.685 352.713 109.527 353.344 109.632 354.923Z" fill="#252A34"/>
<path d="M122.79 340.396C124.159 340.712 125.106 341.239 125.211 342.712C125.317 344.186 124.369 344.923 123.106 345.028C121.632 345.133 120.896 344.186 120.896 342.923C120.685 341.554 121.527 340.712 122.79 340.396Z" fill="#252A34"/>
<path d="M121.948 355.87C121.738 357.344 121.001 358.186 119.632 358.291C118.053 358.291 117.527 357.239 117.527 355.975C117.527 354.923 118.053 354.081 119.422 354.081C120.79 353.975 121.527 354.818 121.948 355.87Z" fill="#252A34"/>
<path d="M297.952 383.45C296.057 383.134 295.636 381.976 295.636 380.397C295.636 379.029 295.636 377.345 297.426 377.134C299.531 376.924 299.952 378.608 299.952 380.292C299.847 381.871 299.426 383.029 297.952 383.45Z" fill="#252A34"/>
<path d="M276.478 377.134C278.794 377.239 279.109 378.713 279.215 380.081C279.32 381.66 279.215 383.45 277.109 383.555C275.425 383.66 274.794 382.081 274.688 380.713C274.478 379.134 275.215 377.871 276.478 377.134Z" fill="#252A34"/>
<path d="M149.738 445.977C149.738 446.819 149.317 447.556 148.264 447.556C147.317 447.556 147.107 446.819 147.107 446.083C147.107 445.346 146.896 444.188 148.054 444.083C149.212 444.083 149.528 444.925 149.738 445.977Z" fill="#FF2E63"/>
<path d="M100.685 345.66C99.0004 345.66 97.6319 345.133 96.7898 343.554C95.9477 341.975 96.2635 340.396 97.5267 339.344C102.579 335.133 107.316 330.396 113.211 327.238C115.211 326.186 117.211 326.185 118.79 328.186C120.159 329.765 120.159 331.554 118.79 332.922C113.843 337.765 108.474 342.186 102.264 345.449C101.843 345.66 101.211 345.66 100.685 345.66Z" fill="#FF2E63"/>
<path d="M154.791 543.032C154.791 543.453 154.686 543.979 154.686 544.401C152.791 552.085 147.633 556.296 138.896 557.138C138.791 557.032 138.685 557.032 138.685 556.927C137.527 557.874 135.843 557.243 134.685 558.19L134.791 558.085C134.791 559.348 135.001 560.19 136.58 560.717C144.159 563.138 157.212 554.19 157.844 546.19C157.844 543.979 157.107 542.927 154.791 543.032Z" fill="#252A34"/>
</svg>
