<svg width="171" height="168" viewBox="0 0 171 168" fill="none" xmlns="http://www.w3.org/2000/svg">
<path d="M8.89189 92.9147C8.33521 91.4881 7.75433 90.0732 7.22186 88.6465C4.66843 81.6547 3.54299 74.4507 4.02705 67.0344C4.14806 65.2187 4.46271 63.4148 4.69264 61.6108C5.1283 55.5033 8.2626 50.563 11.9899 45.9294C15.6809 41.331 20.0737 37.4402 25.0112 34.1034C25.6041 33.7025 26.2334 33.337 26.8506 32.9715C27.7582 32.3702 28.7142 31.8396 29.634 31.2737C35.2128 28.1374 41.1426 25.9444 47.4233 24.5413C53.5951 23.1618 59.8637 22.9142 66.1323 23.2679C73.0786 23.657 79.8555 22.9378 86.5719 21.3342C89.9724 20.5325 93.264 19.4124 96.4588 18.0093C97.0155 17.7617 97.5722 17.5377 98.1773 17.4434C100.464 17.5023 102.619 18.2215 104.785 18.7993C111.646 20.6268 118.254 23.0675 124.268 26.8404C128.964 29.7881 133.006 33.3724 135.837 38.124C137.931 41.6376 138.911 45.4931 139.383 49.4901C139.843 53.2985 139.928 57.1304 140.121 60.9623C140.339 65.2777 140.763 69.5812 142.288 73.7079C144.079 78.542 147.285 82.1853 151.763 84.8382C154.474 86.4535 157.33 87.833 160.041 89.4483C161.505 90.3208 162.993 91.1933 164.046 92.5846C164.954 96.7938 164.518 100.873 162.824 104.835C161.275 108.455 158.939 111.544 156.18 114.397C151.763 118.972 146.487 122.344 140.799 125.162C138.996 126.058 137.205 126.989 135.317 127.732C134.906 127.921 134.47 128.051 134.071 128.239C132.739 128.817 131.384 129.348 130.017 129.831C129.629 129.925 129.278 130.114 128.915 130.267C124.97 131.682 120.989 133.003 116.911 134.064C114.95 133.934 113.074 133.368 111.186 132.897C105.886 131.576 100.634 130.079 95.3213 128.782C90.4565 127.591 85.5553 126.506 80.5574 125.999C75.0512 125.433 69.5813 125.421 64.1477 126.789C58.5204 128.204 52.8448 129.513 47.1207 130.515C46.7093 130.586 46.2978 130.692 45.8743 130.68C44.2769 130.173 43.0304 129.1 41.6387 128.251C41.1547 127.921 40.6706 127.603 40.1623 127.296C37.3911 125.492 34.7166 123.582 32.139 121.519C31.5823 121.071 31.1104 120.623 30.2512 121.212C29.6945 121.589 28.8958 121.448 28.3754 120.858C27.8914 120.304 27.6856 119.679 28.206 119.031C28.4964 118.677 28.3633 118.429 28.085 118.17C27.5041 117.628 26.9716 117.038 26.3666 116.519C23.1596 113.796 20.4368 110.636 17.726 107.452C17.6292 107.335 17.5082 107.24 17.3872 107.158C17.2178 107.075 17.0241 107.04 16.8305 107.016C15.0153 106.887 14.5917 106.344 14.9548 104.576C15.0395 104.175 14.9669 103.845 14.749 103.526C14.1682 102.701 13.6962 101.781 12.8854 101.133C12.1351 100.543 12.1714 99.6 11.7479 98.8572C10.9128 97.3951 9.96892 95.9803 9.36385 94.4003C9.19442 93.8933 8.83138 93.4689 8.89189 92.9147Z" fill="#FF2E63"/>
<path d="M100.404 16.5474C108.222 12.0787 116.112 7.7516 124.547 4.45024C129.206 2.6227 133.95 1.11352 138.935 0.335345C143.57 -0.383879 148 -0.0537548 152.126 2.38689C156.023 4.68605 159.024 7.82235 161.154 11.7014C165.644 19.8841 165.813 28.279 162.207 36.8035C160.658 40.4586 158.673 43.9015 156.785 47.3915C155.248 50.2212 153.796 53.0863 152.647 56.1047C150.166 62.6249 150.674 68.8739 154.183 74.9224C155.866 77.8111 157.765 80.5583 159.544 83.3881C160.863 85.4868 162.122 87.6091 162.933 89.9672C162.558 90.0733 162.255 89.9082 161.965 89.7196C158.927 87.6916 155.611 86.147 152.441 84.3195C146.426 80.8649 143.062 75.7006 141.852 69.1215C141.186 65.49 141.005 61.8113 140.835 58.1209C140.593 52.6618 140.412 47.1792 138.464 41.9324C136.721 37.228 133.829 33.3135 129.98 30.0476C122.865 23.999 114.381 20.6033 105.426 18.1509C104.095 17.7854 102.752 17.4906 101.421 17.1723C101.033 17.0661 100.586 17.0072 100.404 16.5474Z" fill="#FF2E63"/>
<path d="M113.776 134.571C111.429 135.373 109.008 135.891 106.612 136.516C104.773 137 102.909 137.436 101.058 137.884C100.646 137.99 100.332 138.143 100.09 138.544C99.6176 139.322 98.9641 139.487 98.1412 139.004C97.645 138.721 97.2336 138.721 96.7374 138.863C95.9387 139.075 95.0916 139.11 94.3413 139.405C94.2203 139.7 94.4139 139.888 94.4381 140.101C94.5349 140.855 94.0267 141.515 93.2643 141.622C92.5503 141.728 91.8121 141.303 91.7637 140.584C91.7153 139.865 91.4369 139.829 90.844 139.935C86.5358 140.655 82.2034 141.008 77.8348 140.914C76.6125 140.891 75.4024 140.784 74.0591 140.702C74.41 141.551 74.8094 142.388 73.7323 142.918C73.1877 143.19 72.6069 143.036 72.2196 142.518C71.7719 141.928 71.8445 141.409 72.5464 140.56C71.2757 140.325 70.0534 140.101 68.8191 139.877C68.5892 139.829 68.3592 139.806 68.1414 139.747C67.1007 139.44 66.072 139.275 65.0797 139.888C64.5835 140.03 64.1237 139.9 63.8454 139.535C63.2887 138.768 62.4537 138.532 61.6187 138.261C60.6384 137.943 59.6824 137.577 58.7143 137.212C58.1697 137 57.6373 136.823 57.0443 136.917C56.3787 137.011 55.8583 136.74 55.4106 136.292C53.9584 134.818 51.889 134.406 50.1706 133.392C49.7712 133.156 49.3598 133.51 48.9604 133.592C48.3069 133.722 47.7261 133.604 47.3146 133.062C46.8789 132.496 46.7821 131.918 47.3267 131.34C48.912 130.739 50.5941 130.597 52.2278 130.232C56.2214 129.336 60.2391 128.534 64.1963 127.496C69.5815 126.093 75.0272 126.093 80.4971 126.695C88.4479 127.567 96.1202 129.666 103.805 131.706C106.649 132.46 109.492 133.215 112.348 133.934C112.881 134.052 113.462 134.052 113.776 134.571Z" fill="#FF2E63"/>
<path d="M113.776 134.571C107.713 133.156 101.747 131.399 95.7085 129.902C90.8195 128.687 85.8942 127.626 80.872 127.025C75.0149 126.329 69.2182 126.447 63.47 127.956C58.2663 129.324 53.0021 130.456 47.7016 131.411C47.5927 131.435 47.4959 131.494 47.387 131.541C46.6004 132.083 45.6443 132.083 44.7609 132.225C41.675 132.696 38.565 133.097 35.4185 132.991C27.25 132.743 20.1584 129.961 14.2529 124.419C13.43 123.641 12.6192 122.851 11.8205 122.049C11.2638 121.483 10.7313 120.894 10.4651 120.139C9.94472 119.455 9.43644 118.76 8.90397 118.088C5.57604 113.867 4.06336 109.115 4.47481 103.809C4.59583 102.17 4.94676 100.579 5.50344 99.0224C5.63655 98.6333 5.74547 98.2442 5.86649 97.8551C5.86649 97.0652 6.16902 96.4285 6.81041 95.9333C7.5002 94.9193 8.20209 93.9053 8.89188 92.8795C9.21862 93.3276 9.43645 93.811 9.59377 94.3415C9.60587 94.7306 9.42435 95.0608 9.21863 95.3791C4.378 102.784 5.33402 111.603 11.167 118.147C12.837 120.422 14.8459 122.391 16.9878 124.242C17.5808 124.702 18.1375 125.197 18.7789 125.61C23.1838 128.711 28.0971 130.456 33.5186 130.892C34.1963 131.046 34.8982 131.034 35.5879 131.034C38.2382 131.093 40.8521 130.786 43.454 130.397C44.1317 130.291 44.8093 130.173 45.4991 130.385C49.0207 129.89 52.4817 129.1 55.9428 128.322C59.4886 127.532 62.998 126.624 66.5437 125.893C70.4647 125.08 74.4461 125.115 78.4275 125.421C87.3585 126.129 95.9385 128.487 104.543 130.774C108.415 131.8 112.276 132.873 116.209 133.663C116.511 133.722 116.814 133.746 117.116 133.793C119.089 133.639 121.001 134.276 122.961 134.217C123.942 134.453 124.922 134.441 125.89 134.229C131.626 133.946 137.048 132.39 142.288 130.232C148.532 127.673 154.365 124.431 159.581 120.175C163.744 116.779 166.781 112.652 167.967 107.417C169.105 102.43 168.185 97.8669 164.688 93.9289C164.324 93.528 164.252 92.9738 163.828 92.6437C162.086 90.8751 159.92 89.6725 157.753 88.4698C155.527 87.2318 153.252 86.0881 151.085 84.744C145.507 81.3012 142.239 76.3374 140.908 70.0884C140.097 66.28 139.916 62.4127 139.734 58.5454C139.553 54.7135 139.383 50.8933 138.73 47.0968C137.519 40.1168 133.913 34.5634 128.359 30.1066C124.583 27.0764 120.372 24.7419 115.894 22.8436C110.158 20.4147 104.204 18.6815 98.0563 17.5496C97.4875 17.6793 96.9187 17.6086 96.3499 17.5025C90.4202 16.5121 84.4662 15.9697 78.4517 15.7221C71.4933 15.4391 64.6196 15.9933 57.7943 17.1252C52.7238 17.9741 47.8226 19.4479 43.1393 21.5584C38.3471 23.6571 34.2084 26.6401 30.7231 30.4721C30.3722 30.8612 29.9365 31.1677 29.5613 31.545C28.6295 32.111 27.6856 32.6769 26.7538 33.2311C26.4997 32.8891 26.7054 32.5826 26.8869 32.3114C29.4887 28.3734 32.9014 25.2371 36.9554 22.7611C37.2217 22.596 37.5121 22.5252 37.7783 22.4073C40.0897 21.1693 42.4011 19.9549 44.8578 18.9881C49.42 17.2077 54.1396 16.0051 58.9803 15.2033C66.5316 13.9535 74.1435 13.8238 81.7554 14.1775C87.8667 14.4605 93.9417 15.2151 99.932 16.5121C100.077 16.5474 100.235 16.5356 100.392 16.5356C101.868 16.9129 103.345 17.2784 104.821 17.6675C111.489 19.4125 117.915 21.7706 123.833 25.296C127.282 27.3476 130.428 29.7529 133.139 32.6887C137.096 36.9687 139.383 41.9915 140.254 47.6627C140.872 51.6479 140.993 55.6567 141.186 59.6773C141.38 63.7333 141.634 67.7774 142.784 71.7155C144.284 76.8915 147.37 80.9003 152.066 83.73C152.392 83.9305 152.707 84.1309 153.034 84.3196C156.337 86.1943 159.75 87.8685 162.921 89.9672C164.312 91.1345 165.704 92.3018 166.781 93.7638C169.443 97.3717 170.508 101.38 169.964 105.79C169.201 111.945 166.079 116.838 161.372 120.858C156.858 124.714 151.799 127.768 146.39 130.291C145.87 130.527 145.361 130.786 144.853 131.046C144.417 131.777 143.716 131.918 142.929 131.871C141.598 132.331 140.254 132.767 138.984 133.368C138.512 133.84 137.967 134.099 137.277 133.875C135.353 134.3 133.465 134.866 131.529 135.231C127.802 135.939 124.063 136.127 120.287 135.75C120.214 135.738 120.142 135.774 120.069 135.785C119.137 136.057 118.266 135.939 117.467 135.396C116.281 134.972 115.023 134.83 113.776 134.571Z" fill="#252A34"/>
<path d="M10.4652 120.163C11.6391 121.389 12.7766 122.639 13.9989 123.818C18.537 128.18 23.8737 131.069 30.1666 132.177C33.9907 132.849 37.8511 132.885 41.7115 132.354C43.5993 132.095 45.4872 131.823 47.3871 131.552C47.1209 132.177 47.2056 132.743 47.7744 133.144C48.3431 133.545 48.9482 133.51 49.4444 133.038C49.7469 132.755 49.9648 132.837 50.2431 132.991C51.7437 133.804 53.2806 134.559 54.8538 135.255C55.1321 135.384 55.35 135.538 55.4952 135.844C55.834 136.551 56.4391 136.787 57.2015 136.563C57.5646 136.457 57.855 136.551 58.1938 136.669C59.8033 137.247 61.4249 137.813 63.0465 138.379C63.3491 138.485 63.7121 138.509 63.821 138.933C63.9905 139.558 64.5471 139.747 65.128 139.865C64.0994 140.207 62.9981 140.266 61.9453 140.525C61.3765 140.666 60.7231 140.631 60.3358 141.197C60.1543 141.103 60.0817 140.938 60.009 140.773C59.8396 140.407 59.5855 140.171 59.1498 140.171C58.6537 140.183 58.4358 140.513 58.3027 140.926C58.2422 141.103 58.1938 141.28 58.0365 141.397C56.6206 141.633 55.2047 141.834 53.8615 142.317C53.45 142.6 53.0385 142.895 52.4819 142.73C52.2519 142.447 51.9252 142.506 51.6348 142.565C49.6501 143.036 47.617 143.284 45.5961 143.567C44.5916 143.708 43.563 143.791 42.5465 143.897C39.9688 144.168 37.3791 144.062 34.8015 144.086C34.5353 144.086 34.2569 144.074 34.0996 144.345C33.8817 144.404 33.7486 144.298 33.6639 144.109C33.4461 143.814 33.1194 143.897 32.8289 143.873C30.3602 143.649 27.9399 143.19 25.6164 142.294C25.6043 142.258 25.5801 142.235 25.568 142.199C25.4712 141.952 25.7495 141.527 25.338 141.456C24.9508 141.397 25.1444 141.94 24.8782 142.093C22.7846 141.433 20.8363 140.454 18.9726 139.334C18.5975 139.11 18.2828 138.745 17.7867 138.721C17.5204 138.308 17.0606 138.202 16.6491 138.025C16.637 137.507 16.1893 137.271 15.8625 136.976C14.1683 135.443 12.6919 133.757 11.6754 131.717C10.5741 129.513 10.0538 127.178 9.98115 124.726C9.95695 123.959 10.2353 123.157 9.75122 122.438C10.2716 121.931 10.4289 121.353 10.1627 120.67C10.3442 120.575 10.4168 120.387 10.4652 120.163Z" fill="#08D9D6"/>
<path d="M37.8026 22.4192C35.7332 23.8576 33.6518 25.2961 31.8123 27.0175C30.0697 28.6328 28.5328 30.4132 27.2016 32.3586C27.008 32.6298 26.7902 32.901 26.7902 33.2547C23.3654 35.5067 20.1101 37.9474 17.1573 40.7771C13.2485 44.5265 9.81168 48.6414 7.36716 53.4637C6.1449 55.8808 5.38249 58.4394 4.91053 61.0922C4.87422 61.2809 4.85003 61.4577 4.71692 61.5992C4.77742 60.9154 4.42647 60.3848 3.99081 59.9014C1.94565 57.5904 0.541863 54.9611 0.166714 51.9428C-0.123724 49.6554 -0.0753183 47.3444 0.638674 45.0924C1.66731 41.8147 3.31312 38.9024 5.64872 36.3085C8.67412 32.9246 12.4256 30.6136 16.5765 28.7861C19.4687 27.5127 22.3973 26.3454 25.4227 25.4258C29.4767 24.1878 33.5912 23.1148 37.8026 22.4192Z" fill="#08D9D6"/>
<path d="M112.929 140.1C112.191 140.124 111.538 139.476 111.501 138.674C111.465 137.943 112.046 137.306 112.796 137.259C113.522 137.212 114.297 137.966 114.321 138.768C114.345 139.44 113.68 140.077 112.929 140.1Z" fill="#FF2E63"/>
<path d="M108.355 141.115C108.331 141.893 107.859 142.376 107.096 142.388C106.322 142.4 105.584 141.716 105.608 141.02C105.632 140.407 106.394 139.747 107.096 139.735C107.834 139.712 108.379 140.313 108.355 141.115Z" fill="#FF2E63"/>
<path d="M132.776 138.497C132.001 138.486 131.287 137.778 131.348 137.071C131.396 136.446 132.171 135.809 132.873 135.833C133.55 135.844 134.095 136.434 134.095 137.165C134.107 137.967 133.562 138.521 132.776 138.497Z" fill="#FF2E63"/>
<path d="M137.302 133.863C137.858 133.663 138.403 133.427 139.008 133.356C139.226 133.557 139.48 133.734 139.661 133.97C140 134.418 139.976 135.101 139.661 135.538C139.359 135.95 138.778 136.163 138.246 136.021C137.653 135.868 137.193 135.337 137.181 134.736C137.181 134.441 137.253 134.146 137.302 133.863Z" fill="#FF2E63"/>
<path d="M117.491 135.385C118.375 135.42 119.234 135.585 120.093 135.774C120.105 135.88 120.13 135.998 120.13 136.104C120.166 136.74 120.009 137.306 119.367 137.566C118.762 137.813 118.169 137.707 117.685 137.271C117.153 136.788 117.032 136.21 117.383 135.573C117.419 135.514 117.455 135.455 117.491 135.385Z" fill="#FF2E63"/>
<path d="M102.667 143.485C102.655 144.216 102.074 144.758 101.348 144.723C100.622 144.687 100.029 144.086 100.053 143.426C100.077 142.754 100.706 142.188 101.408 142.176C102.147 142.176 102.679 142.73 102.667 143.485Z" fill="#FF2E63"/>
<path d="M128.177 139.511C128.165 140.325 127.742 140.761 126.943 140.773C126.096 140.784 125.479 140.195 125.515 139.405C125.551 138.78 126.205 138.238 126.931 138.226C127.681 138.238 128.177 138.756 128.177 139.511Z" fill="#FF2E63"/>
<path d="M88.5568 142.706C88.581 143.461 88.0606 144.027 87.3345 144.039C86.6205 144.05 86.0154 143.484 85.9912 142.801C85.967 142.093 86.5237 141.504 87.2377 141.468C87.9517 141.421 88.5326 141.963 88.5568 142.706Z" fill="#FF2E63"/>
<path d="M142.953 131.847C143.595 131.576 144.236 131.293 144.877 131.022C145.482 131.27 145.7 131.765 145.712 132.343C145.724 132.932 145.192 133.474 144.599 133.569C144.03 133.663 143.365 133.333 143.086 132.802C142.917 132.508 142.929 132.189 142.953 131.847Z" fill="#FF2E63"/>
<path d="M119.997 141.975C119.973 141.209 120.457 140.702 121.231 140.702C121.933 140.702 122.478 141.174 122.526 141.846C122.574 142.541 122.018 143.154 121.316 143.201C120.602 143.237 120.021 142.694 119.997 141.975Z" fill="#FF2E63"/>
<path d="M116.656 144.381C116.669 145.006 116.088 145.595 115.446 145.595C114.793 145.595 114.2 144.97 114.188 144.275C114.176 143.579 114.684 143.072 115.374 143.084C116.063 143.095 116.644 143.685 116.656 144.381Z" fill="#FF2E63"/>
<path d="M95.624 147.08C94.91 147.092 94.3291 146.515 94.3291 145.807C94.3412 145.17 94.8374 144.663 95.4667 144.64C96.1443 144.616 96.7857 145.206 96.822 145.878C96.8583 146.562 96.338 147.08 95.624 147.08Z" fill="#FF2E63"/>
<path d="M110.812 146.727C110.812 147.352 110.279 147.871 109.65 147.894C108.948 147.918 108.294 147.281 108.331 146.621C108.367 146.078 108.984 145.512 109.577 145.489C110.182 145.465 110.812 146.102 110.812 146.727Z" fill="#FF2E63"/>
<path d="M6.81055 95.9567C6.53221 96.6169 6.27808 97.2772 5.86663 97.8785C5.83032 97.8785 5.79402 97.8785 5.75772 97.8667C4.8138 97.6899 4.45075 97.4187 4.37814 96.8056C4.30553 96.2396 4.51125 95.7916 5.03162 95.5086C5.6367 95.1667 6.07235 95.2728 6.81055 95.9567Z" fill="#FF2E63"/>
<path d="M81.5378 146.184C80.8722 146.184 80.3034 145.618 80.3276 144.982C80.3519 144.321 80.9085 143.85 81.6225 143.885C82.2881 143.909 82.7722 144.38 82.7722 145.005C82.7722 145.642 82.2034 146.196 81.5378 146.184Z" fill="#FF2E63"/>
<path d="M67.6211 145.3C66.9192 145.3 66.2899 144.758 66.3142 144.168C66.3384 143.614 67.0765 142.989 67.6695 143.025C68.1778 143.048 68.7102 143.614 68.7465 144.168C68.7707 144.805 68.2988 145.288 67.6211 145.3Z" fill="#FF2E63"/>
<path d="M141.138 141.492C140.448 141.492 139.831 140.938 139.831 140.336C139.843 139.747 140.521 139.169 141.162 139.204C141.767 139.228 142.178 139.676 142.191 140.325C142.215 141.067 141.828 141.492 141.138 141.492Z" fill="#FF2E63"/>
<path d="M136.346 142.789C136.309 143.473 135.813 143.921 135.184 143.862C134.53 143.803 133.938 143.19 133.986 142.612C134.022 142.011 134.7 141.492 135.353 141.551C135.971 141.598 136.394 142.117 136.346 142.789Z" fill="#FF2E63"/>
<path d="M58.0246 141.421C58.0367 141.162 57.9882 140.89 58.0488 140.655C58.1819 140.136 58.5449 139.829 59.1137 139.829C59.7188 139.817 60.1302 140.1 60.2754 140.678C60.3238 140.855 60.2996 141.044 60.3117 141.232C59.6098 142.329 59.0653 142.376 58.0246 141.421Z" fill="#FF2E63"/>
<path d="M90.8439 148.271C90.8681 148.802 90.3477 149.309 89.7426 149.344C89.186 149.38 88.6172 148.837 88.5567 148.201C88.4962 147.647 89.1013 147.045 89.7063 147.057C90.2267 147.057 90.8197 147.706 90.8439 148.271Z" fill="#FF2E63"/>
<path d="M128.31 145.147C128.334 144.475 128.806 144.062 129.496 144.098C130.174 144.133 130.622 144.64 130.561 145.277C130.513 145.855 130.004 146.303 129.411 146.291C128.77 146.291 128.286 145.784 128.31 145.147Z" fill="#FF2E63"/>
<path d="M103.72 150.288C103.175 150.252 102.558 149.474 102.619 148.908C102.679 148.425 103.381 147.894 103.865 147.953C104.349 148.012 104.93 148.755 104.906 149.286C104.882 149.769 104.228 150.323 103.72 150.288Z" fill="#FF2E63"/>
<path d="M75.6928 146.35C76.31 146.362 76.8424 146.904 76.8303 147.517C76.8303 148.06 76.2737 148.578 75.717 148.566C75.1482 148.555 74.64 147.942 74.6642 147.317C74.7005 146.704 75.0877 146.338 75.6928 146.35Z" fill="#FF2E63"/>
<path d="M123.603 146.515C124.22 146.538 124.74 147.092 124.728 147.694C124.716 148.224 124.123 148.743 123.567 148.72C122.998 148.684 122.489 148.059 122.538 147.446C122.574 146.857 122.998 146.491 123.603 146.515Z" fill="#FF2E63"/>
<path d="M116.826 149.792C116.826 149.156 117.165 148.802 117.782 148.802C118.46 148.802 118.932 149.25 118.932 149.899C118.932 150.523 118.581 150.877 117.963 150.889C117.262 150.901 116.814 150.476 116.826 149.792Z" fill="#FF2E63"/>
<path d="M97.8991 150.335C98.5526 150.311 99.0972 150.806 99.1093 151.408C99.1214 151.962 98.71 152.41 98.1533 152.445C97.4877 152.481 96.9794 152.033 96.9673 151.372C96.9552 150.759 97.3183 150.347 97.8991 150.335Z" fill="#FF2E63"/>
<path d="M52.4697 142.754C52.8933 142.494 53.3047 142.223 53.8493 142.341C53.9945 142.518 54.176 142.671 54.2607 142.86C54.4422 143.284 54.4786 143.732 54.1276 144.109C53.8009 144.463 53.3652 144.463 52.9659 144.298C52.4818 144.098 52.1793 143.72 52.2761 143.154C52.3003 143.013 52.4092 142.883 52.4697 142.754Z" fill="#FF2E63"/>
<path d="M112.203 151.302C112.699 151.325 113.147 151.856 113.135 152.398C113.111 152.964 112.663 153.365 112.082 153.33C111.489 153.294 111.065 152.87 111.065 152.327C111.065 151.809 111.658 151.266 112.203 151.302Z" fill="#FF2E63"/>
<path d="M84.9624 150.771C84.9382 151.349 84.5268 151.75 83.958 151.738C83.4013 151.726 82.8447 151.207 82.8205 150.7C82.8084 150.193 83.4982 149.628 84.079 149.663C84.5752 149.698 84.9745 150.205 84.9624 150.771Z" fill="#FF2E63"/>
<path d="M70.888 149.816C70.9001 150.347 70.4161 150.818 69.8715 150.806C69.3632 150.795 68.8429 150.288 68.8308 149.804C68.8187 149.344 69.3632 148.837 69.8836 148.814C70.3919 148.79 70.8759 149.274 70.888 149.816Z" fill="#FF2E63"/>
<path d="M62.6836 146.621C62.6594 147.222 62.2721 147.564 61.6549 147.529C61.0741 147.493 60.6505 147.069 60.6626 146.538C60.6747 145.984 61.2072 145.512 61.8002 145.548C62.3205 145.56 62.7078 146.043 62.6836 146.621Z" fill="#FF2E63"/>
<path d="M93.1914 153.919C93.2035 154.391 92.7436 154.839 92.2595 154.839C91.7755 154.839 91.2793 154.308 91.2793 153.801C91.2793 153.341 91.7634 152.858 92.2111 152.87C92.6831 152.882 93.1793 153.412 93.1914 153.919Z" fill="#FF2E63"/>
<path d="M107.229 154.827C107.229 155.334 106.794 155.758 106.273 155.723C105.765 155.699 105.281 155.157 105.317 154.65C105.342 154.226 105.777 153.836 106.249 153.813C106.794 153.789 107.229 154.237 107.229 154.827Z" fill="#FF2E63"/>
<path d="M79.2021 153.165C79.19 153.624 78.8027 153.99 78.3066 154.002C77.8104 154.014 77.278 153.507 77.2659 153.011C77.2538 152.54 77.7257 152.115 78.2461 152.115C78.7664 152.115 79.2142 152.622 79.2021 153.165Z" fill="#FF2E63"/>
<path d="M10.1263 120.693C10.9613 121.613 10.8645 122.038 9.71482 122.462C9.13395 122.309 8.7225 121.967 8.86772 121.366C9.02504 120.788 9.52121 120.576 10.1263 120.693Z" fill="#FF2E63"/>
<path d="M55.9552 149.91C55.4711 149.946 54.9992 149.498 54.9871 149.014C54.9871 148.602 55.3985 148.189 55.8584 148.142C56.3424 148.095 56.8023 148.531 56.8023 149.038C56.8144 149.486 56.4271 149.875 55.9552 149.91Z" fill="#FF2E63"/>
<path d="M101.384 157.209C101.36 157.633 100.912 158.01 100.44 158.01C99.9201 158.01 99.5087 157.574 99.545 157.067C99.5813 156.619 100.126 156.183 100.586 156.23C100.961 156.277 101.396 156.82 101.384 157.209Z" fill="#FF2E63"/>
<path d="M48.6093 145.784C48.6093 146.314 48.21 146.668 47.6533 146.632C47.1934 146.609 46.7941 146.208 46.8062 145.76C46.8062 145.312 47.3387 144.84 47.7985 144.876C48.2342 144.899 48.6093 145.312 48.6093 145.784Z" fill="#FF2E63"/>
<path d="M87.383 156.407C87.3587 156.832 86.9231 157.256 86.4996 157.256C86.0155 157.256 85.5677 156.808 85.5798 156.325C85.5919 155.865 86.1002 155.44 86.5843 155.476C86.9957 155.511 87.3951 155.971 87.383 156.407Z" fill="#FF2E63"/>
<path d="M64.063 153.117C63.5789 153.105 63.1917 152.716 63.1917 152.257C63.1917 151.785 63.6878 151.349 64.184 151.372C64.6317 151.408 64.9948 151.832 64.9706 152.316C64.9585 152.799 64.5591 153.141 64.063 153.117Z" fill="#FF2E63"/>
<path d="M115.313 158.14C115.301 158.517 114.842 158.895 114.442 158.871C114.043 158.847 113.607 158.329 113.631 157.916C113.656 157.539 114.115 157.161 114.515 157.185C114.902 157.197 115.326 157.704 115.313 158.14Z" fill="#FF2E63"/>
<path d="M94.6557 158.742C95.055 158.754 95.4423 159.213 95.4423 159.673C95.4423 160.051 94.9945 160.44 94.6073 160.416C94.22 160.392 93.7965 159.885 93.8086 159.473C93.8328 159.084 94.2321 158.73 94.6557 158.742Z" fill="#FF2E63"/>
<path d="M73.1877 155.452C73.1877 155.876 72.8367 156.218 72.389 156.207C71.9896 156.207 71.5298 155.735 71.5298 155.334C71.5298 154.957 71.9412 154.579 72.3527 154.568C72.7883 154.568 73.1877 154.992 73.1877 155.452Z" fill="#FF2E63"/>
<path d="M80.6784 157.975C81.1019 157.999 81.4407 158.4 81.3923 158.812C81.3318 159.26 80.993 159.437 80.5936 159.484C80.2064 159.532 79.807 159.084 79.8191 158.683C79.8433 158.246 80.2185 157.94 80.6784 157.975Z" fill="#FF2E63"/>
<path d="M109.504 160.262C109.516 160.734 109.166 161.123 108.742 161.088C108.318 161.052 108.04 160.816 107.992 160.392C107.931 159.944 108.355 159.543 108.839 159.567C109.311 159.59 109.468 159.909 109.504 160.262Z" fill="#FF2E63"/>
<path d="M41.7962 148.837C41.3847 148.814 41.0096 148.401 41.0459 148.024C41.0822 147.682 41.5784 147.281 41.9414 147.34C42.365 147.411 42.5828 147.694 42.5949 148.106C42.5949 148.554 42.256 148.861 41.7962 148.837Z" fill="#FF2E63"/>
<path d="M50.8603 151.632C50.8119 151.974 50.5578 152.21 50.11 152.21C49.7107 152.21 49.2992 151.797 49.3113 151.431C49.3234 151.101 49.8075 150.689 50.1826 150.7C50.5699 150.712 50.9087 151.125 50.8603 151.632Z" fill="#FF2E63"/>
<path d="M67.3789 158.011C67.2579 158.4 67.0159 158.659 66.5681 158.635C66.1809 158.624 65.7936 158.152 65.842 157.798C65.8904 157.456 66.435 157.079 66.7738 157.185C67.1974 157.291 67.3668 157.61 67.3789 158.011Z" fill="#FF2E63"/>
<path d="M33.6396 144.133C33.7848 144.216 33.93 144.286 34.0752 144.369C34.0873 144.404 34.0994 144.44 34.1236 144.475C34.4262 144.947 34.3293 145.336 33.8332 145.595C33.4701 145.784 33.1676 145.619 32.9377 145.324C32.5988 144.888 32.7925 144.569 33.1797 144.298C33.2765 144.251 33.3612 144.204 33.458 144.157C33.5185 144.168 33.5791 144.168 33.6396 144.133Z" fill="#FF2E63"/>
<path d="M59.1619 154.744C59.1135 155.134 58.8593 155.346 58.4237 155.358C57.9638 155.358 57.6613 155.004 57.7218 154.568C57.7944 154.131 58.0848 153.943 58.5084 153.966C58.9198 153.978 59.1982 154.296 59.1619 154.744Z" fill="#FF2E63"/>
<path d="M75.4505 161.194C75.4263 161.548 75.1963 161.76 74.797 161.783C74.446 161.795 74.0709 161.382 74.1072 161.029C74.1314 160.687 74.3734 160.498 74.7002 160.451C75.0511 160.404 75.4384 160.781 75.4505 161.194Z" fill="#FF2E63"/>
<path d="M103.659 162.915C103.551 163.246 103.272 163.411 102.897 163.411C102.546 163.411 102.256 162.998 102.304 162.597C102.353 162.196 102.631 162.019 103.018 162.055C103.333 162.078 103.696 162.585 103.659 162.915Z" fill="#FF2E63"/>
<path d="M24.854 142.117C24.8177 142.046 24.7935 141.987 24.7572 141.916C24.5878 141.574 24.5999 141.268 24.9509 141.056C25.2413 140.891 25.5438 140.926 25.7617 141.197C25.9916 141.468 26.1247 141.763 25.8222 142.081C25.7496 142.164 25.677 142.247 25.5922 142.329C25.3139 142.353 25.0719 142.27 24.854 142.117Z" fill="#FF2E63"/>
<path d="M89.5608 161.949C89.4882 162.314 89.2462 162.526 88.8469 162.491C88.4354 162.456 88.266 162.149 88.2539 161.784C88.2417 161.383 88.4838 161.159 88.8832 161.147C89.222 161.135 89.5729 161.56 89.5608 161.949Z" fill="#FF2E63"/>
<path d="M44.2406 154.426C43.8413 154.367 43.5872 154.131 43.5872 153.777C43.5872 153.377 43.9502 153.247 44.3011 153.235C44.6642 153.235 44.8578 153.483 44.8578 153.801C44.8699 154.19 44.6279 154.402 44.2406 154.426Z" fill="#FF2E63"/>
<path d="M83.7281 164.307C83.7281 164.66 83.5465 164.884 83.2077 164.92C82.8083 164.955 82.5784 164.731 82.5058 164.366C82.4453 164.059 82.893 163.646 83.2319 163.682C83.5949 163.741 83.6796 164.024 83.7281 164.307Z" fill="#FF2E63"/>
<path d="M16.6127 138.049C17.5324 137.684 17.6534 137.754 17.7502 138.745C17.4477 138.981 17.133 139.157 16.77 138.886C16.4795 138.65 16.3706 138.379 16.6127 138.049Z" fill="#FF2E63"/>
<path d="M53.1586 156.949C53.1707 157.302 53.0015 157.526 52.6508 157.562C52.2396 157.609 51.9857 157.385 51.9494 157.02C51.9131 156.619 52.2275 156.419 52.5903 156.395C52.9531 156.36 53.0982 156.631 53.1586 156.949Z" fill="#FF2E63"/>
<path d="M36.6159 150.641C36.5917 150.971 36.3619 151.1 36.0112 151.077C35.6606 151.053 35.455 150.865 35.4671 150.523C35.4792 150.158 35.7694 150.016 36.0717 150.028C36.4224 150.04 36.6159 150.252 36.6159 150.641Z" fill="#FF2E63"/>
<path d="M69.2058 164.011C68.8068 164.011 68.6495 163.74 68.5891 163.457C68.5286 163.151 68.7826 162.974 69.0607 162.951C69.4356 162.915 69.5928 163.233 69.6532 163.504C69.7258 163.811 69.4839 163.964 69.2058 164.011Z" fill="#FF2E63"/>
<path d="M27.9152 146.821C28.2417 146.868 28.3868 147.069 28.3627 147.351C28.3385 147.693 28.0966 147.882 27.758 147.823C27.4678 147.776 27.3348 147.54 27.3711 147.245C27.4195 146.939 27.6371 146.821 27.9152 146.821Z" fill="#FF2E63"/>
<path d="M61.2908 160.239C61.2787 160.557 61.1215 160.733 60.8071 160.745C60.4565 160.757 60.2267 160.592 60.2146 160.239C60.2025 159.932 60.4081 159.767 60.6983 159.744C61.0732 159.708 61.2667 159.897 61.2908 160.239Z" fill="#FF2E63"/>
<path d="M46.8301 159.92C46.4915 159.837 46.2617 159.72 46.2859 159.402C46.3101 159.142 46.5278 159.013 46.7576 159.001C47.084 158.977 47.2171 159.201 47.205 159.496C47.2171 159.767 46.9994 159.849 46.8301 159.92Z" fill="#FF2E63"/>
<path d="M77.7855 166.818C77.7855 167.089 77.6162 167.218 77.3622 167.218C77.0599 167.218 76.8544 167.065 76.8665 166.759C76.8786 166.512 77.0841 166.358 77.3139 166.335C77.6283 166.311 77.7613 166.523 77.7855 166.818Z" fill="#FF2E63"/>
<path d="M20.0488 144.109C19.9642 144.451 19.7828 144.616 19.4684 144.569C19.2145 144.533 19.0693 144.357 19.1056 144.097C19.154 143.803 19.3595 143.65 19.6619 143.685C19.9158 143.72 19.9884 143.956 20.0488 144.109Z" fill="#FF2E63"/>
<path d="M30.1785 152.622C30.505 152.587 30.6259 152.705 30.6501 152.917C30.6864 153.164 30.5775 153.388 30.3357 153.412C30.0696 153.447 29.7915 153.306 29.8036 152.987C29.8157 152.74 30.0575 152.669 30.1785 152.622Z" fill="#FF2E63"/>
<path d="M54.9623 163.115C54.7326 163.08 54.5512 162.962 54.527 162.714C54.5028 162.443 54.7205 162.326 54.9381 162.279C55.2404 162.196 55.3251 162.432 55.3493 162.656C55.3614 162.891 55.2647 163.08 54.9623 163.115Z" fill="#FF2E63"/>
<path d="M62.8289 165.815C62.9256 165.556 63.1433 165.391 63.4214 165.438C63.627 165.474 63.7116 165.674 63.6995 165.874C63.6753 166.122 63.5302 166.287 63.2521 166.251C62.9982 166.24 62.8409 166.086 62.8289 165.815Z" fill="#FF2E63"/>
<path d="M38.9639 156.171C38.9397 156.418 38.855 156.642 38.5648 156.607C38.323 156.571 38.1295 156.406 38.1779 156.147C38.2262 155.912 38.4076 155.77 38.6736 155.782C38.9155 155.794 38.9397 155.982 38.9639 156.171Z" fill="#FF2E63"/>
<path d="M33.4459 144.157C33.3975 144.275 33.2887 144.31 33.1677 144.298C33.2161 144.169 33.3128 144.122 33.4459 144.157Z" fill="#08D9D6"/>
<path d="M45.4871 130.397C42.6312 130.928 39.7631 131.317 36.8466 131.352C36.4231 131.352 36.0116 131.317 35.588 131.293C35.5033 131.305 35.4307 131.293 35.3823 131.234C34.4384 130.197 34.4384 130.197 33.3372 131.14C31.1105 131.105 28.9564 130.609 26.8507 129.961C23.8132 129.029 20.9935 127.662 18.4885 125.716C18.4401 125.575 18.4522 125.433 18.5006 125.292C18.6096 124.938 18.7064 124.573 18.3675 124.29C18.0045 123.983 17.6777 124.219 17.351 124.396C17.2179 124.466 17.0726 124.502 16.9274 124.466C14.6644 122.745 12.7403 120.717 11.0703 118.453C10.8282 116.944 11.7237 115.812 12.3651 114.586C13.8173 113.902 13.8173 113.902 13.5511 112.369C14.7128 110.424 15.9835 108.549 17.6051 106.922C19.9286 109.681 22.3247 112.393 24.9508 114.904C26.2577 116.154 27.6131 117.345 29.0048 118.618C28.6296 119.007 28.0851 119.279 28.1577 119.868C28.194 120.245 28.3513 120.587 28.6538 120.847C29.3194 121.389 30.1786 121.177 31.0015 120.245C33.9785 122.698 37.1371 124.938 40.3198 127.119C40.4287 127.461 40.1261 127.567 39.9446 127.756C39.7147 127.945 39.4485 128.11 39.3517 128.405C39.1822 128.947 39.4 129.36 39.8962 129.584C40.4045 129.808 40.7675 129.584 41.0216 129.147C41.1911 128.853 41.1427 128.499 41.2879 128.192C41.3726 128.051 41.4815 127.933 41.6751 128.015C42.9458 128.805 44.2165 129.595 45.4871 130.397Z" fill="#08D9D6"/>
<path d="M42.7641 21.4875C44.1921 21.3225 45.6322 21.1692 47.0602 20.9805C48.1493 20.839 49.2506 20.7329 50.3397 20.5797C51.5862 20.4146 52.8568 20.4971 54.0791 20.2024C54.188 20.1788 54.309 20.167 54.4179 20.167C56.4026 20.2495 58.3751 19.884 60.3598 19.9076C62.647 19.9312 64.9342 19.6718 67.2214 19.6954C70.6946 19.7425 74.1556 19.9312 77.6166 20.108C80.521 20.2613 83.3528 20.8155 86.1967 21.3107C86.3782 21.346 86.5476 21.4522 86.717 21.5347C84.9139 22.1832 83.026 22.4661 81.1503 22.7845C77.302 23.433 73.4053 23.7395 69.4965 23.716C66.9672 23.7042 64.4501 23.4683 61.933 23.4448C50.5454 23.3151 39.8961 25.9562 29.9728 31.3798C29.8396 31.4506 29.6944 31.4977 29.5613 31.5567C31.0135 29.5169 32.8408 27.8308 34.7892 26.2863C37.2579 24.3644 39.8476 22.6784 42.7641 21.4875Z" fill="#08D9D6"/>
<path d="M41.675 128.003C41.5782 128.098 41.4935 128.192 41.3967 128.275C40.7916 128.18 40.2833 127.897 39.8235 127.52C39.9808 127.379 40.1502 127.237 40.3075 127.107C40.8279 127.32 41.2878 127.614 41.675 128.003Z" fill="#FF2E63"/>
<path d="M129.944 129.595C130.162 129.902 130.646 129.63 130.84 129.984C130.368 130.42 129.823 130.409 129.254 130.243C129.157 130.161 129.048 130.067 128.952 129.984C129.218 129.736 129.569 129.63 129.944 129.595Z" fill="#08D9D6"/>
<path d="M134.567 128.274C134.47 128.05 134.24 128.05 134.047 128.003C134.397 127.767 134.748 127.508 135.22 127.579L135.208 127.555C135.316 128.062 135.002 128.227 134.567 128.274Z" fill="#08D9D6"/>
<path d="M123.155 134.547C122.986 133.533 123.191 133.015 123.893 132.649C124.789 132.177 125.829 132.625 126.023 133.604C126.084 133.887 126.023 134.194 126.023 134.488C125.067 134.736 124.111 134.736 123.155 134.547Z" fill="#FF2E63"/>
<path d="M16.9153 124.454C17.0242 124.348 17.121 124.242 17.2299 124.148C17.6293 123.806 18.0407 123.605 18.5369 124.006C19.0089 124.395 19.0694 124.879 18.7063 125.468C18.6458 125.563 18.5611 125.633 18.4764 125.716C17.8834 125.374 17.3267 124.997 16.9153 124.454Z" fill="#FF2E63"/>
<path d="M33.3372 131.128C33.6276 130.326 33.918 130.031 34.4384 130.079C35.1645 130.149 35.467 130.633 35.5759 131.281C34.8256 131.352 34.0633 131.434 33.3372 131.128Z" fill="#FF2E63"/>
<path d="M43.7808 134.453C43.7929 135.125 43.3452 135.62 42.7159 135.62C42.123 135.62 41.4937 135.09 41.4574 134.559C41.409 133.958 42.0019 133.356 42.6554 133.333C43.2726 133.297 43.7687 133.793 43.7808 134.453Z" fill="#FF2E63"/>
<path d="M52.0948 137.601C52.119 138.308 51.6955 138.792 51.042 138.792C50.3522 138.792 49.7229 138.249 49.7229 137.648C49.7229 137.094 50.3038 136.54 50.921 136.504C51.5987 136.469 52.0706 136.917 52.0948 137.601Z" fill="#FF2E63"/>
<path d="M45.1361 139.158C45.717 139.134 46.1889 139.523 46.2253 140.042C46.2737 140.608 45.7654 141.138 45.1966 141.138C44.6278 141.127 44.168 140.702 44.168 140.171C44.168 139.606 44.5673 139.193 45.1361 139.158Z" fill="#FF2E63"/>
<path d="M36.8587 137.907C36.302 137.896 35.8421 137.424 35.8542 136.893C35.8663 136.422 36.4593 135.903 36.9434 135.927C37.4395 135.95 37.8994 136.516 37.8631 137.035C37.8147 137.565 37.4032 137.919 36.8587 137.907Z" fill="#FF2E63"/>
<path d="M29.6703 133.71C29.6824 134.123 29.1863 134.618 28.7143 134.642C28.2181 134.677 27.6978 134.158 27.6978 133.651C27.7099 133.238 28.2423 132.767 28.7022 132.767C29.1499 132.779 29.6582 133.274 29.6703 133.71Z" fill="#FF2E63"/>
<path d="M39.4485 143.461C38.9644 143.485 38.4804 143.037 38.4683 142.577C38.4683 142.176 38.8918 141.751 39.3396 141.692C39.7994 141.634 40.2714 142.082 40.2835 142.589C40.2956 143.037 39.9083 143.437 39.4485 143.461Z" fill="#FF2E63"/>
<path d="M20.4973 131.34C20.0738 131.352 19.626 130.94 19.5897 130.515C19.5534 130.055 20.0012 129.595 20.4973 129.584C20.9814 129.56 21.4292 130.02 21.4049 130.515C21.3928 130.904 20.9209 131.329 20.4973 131.34Z" fill="#FF2E63"/>
<path d="M31.9939 139.263C31.9939 139.7 31.534 140.1 31.0863 140.065C30.6506 140.03 30.2149 139.593 30.2028 139.193C30.1907 138.78 30.7353 138.308 31.2073 138.32C31.5945 138.332 31.9939 138.803 31.9939 139.263Z" fill="#FF2E63"/>
<path d="M12.9096 127.131C12.9459 127.509 12.5586 127.909 12.1472 127.945C11.7357 127.968 11.3 127.556 11.2637 127.108C11.2274 126.707 11.5905 126.329 12.014 126.294C12.4013 126.271 12.8732 126.707 12.9096 127.131Z" fill="#FF2E63"/>
<path d="M22.7363 135.184C23.1598 135.173 23.5955 135.597 23.5834 136.057C23.5713 136.493 23.3171 136.729 22.8815 136.776C22.4458 136.811 21.9739 136.411 21.9618 135.986C21.9376 135.597 22.3248 135.196 22.7363 135.184Z" fill="#FF2E63"/>
<path d="M15.3422 132.802C15.3422 133.156 14.967 133.533 14.604 133.486C14.2288 133.451 13.9747 133.239 13.9142 132.849C13.8657 132.496 14.2167 132.118 14.5918 132.107C14.9791 132.083 15.3422 132.425 15.3422 132.802Z" fill="#FF2E63"/>
<path d="M141.84 125.15C142.675 125.162 143.474 126.011 143.437 126.86C143.401 127.638 142.663 128.275 141.828 128.251C141.017 128.228 140.279 127.438 140.291 126.624C140.315 125.822 141.029 125.139 141.84 125.15Z" fill="#FF2E63"/>
<path d="M149.222 124.325C149.222 125.127 148.532 125.775 147.673 125.787C146.838 125.799 146.136 125.068 146.124 124.172C146.112 123.335 146.777 122.686 147.649 122.71C148.472 122.733 149.21 123.5 149.222 124.325Z" fill="#FF2E63"/>
<path d="M134.567 128.275C134.785 128.039 135.148 127.921 135.196 127.544C135.499 127.532 135.813 127.497 136.116 127.532C136.987 127.626 137.616 128.404 137.544 129.265C137.483 129.973 136.842 130.562 136.092 130.621C135.329 130.68 134.555 129.996 134.494 129.171C134.458 128.876 134.531 128.569 134.567 128.275Z" fill="#FF2E63"/>
<path d="M129.255 130.256C129.751 129.973 130.283 129.926 130.84 129.996C131.046 130.15 131.3 130.267 131.469 130.456C131.99 131.034 132.026 131.836 131.602 132.378C131.203 132.897 130.356 133.121 129.763 132.873C129.121 132.602 128.674 131.706 128.831 131.022C128.891 130.727 129.073 130.48 129.255 130.256Z" fill="#FF2E63"/>
<path d="M18.9241 112.393C18.198 112.393 17.5808 111.827 17.5808 111.155C17.5808 110.436 18.1496 109.881 18.8757 109.881C19.626 109.881 20.2069 110.412 20.219 111.119C20.2311 111.839 19.6744 112.393 18.9241 112.393Z" fill="#FF2E63"/>
<path d="M39.8237 127.532C40.5135 127.449 40.9855 127.815 41.3969 128.287C41.4816 128.687 41.5664 129.077 41.3001 129.454C40.9008 130.02 40.1626 130.173 39.6059 129.819C38.9524 129.395 38.7588 128.57 39.1945 127.992C39.3518 127.768 39.5696 127.626 39.8237 127.532Z" fill="#FF2E63"/>
<path d="M21.2115 115.47C21.9376 115.47 22.4217 116.001 22.4096 116.779C22.3975 117.475 21.8771 117.958 21.1752 117.923C20.5459 117.899 19.9166 117.227 19.9045 116.579C19.9045 115.942 20.4612 115.47 21.2115 115.47Z" fill="#FF2E63"/>
<path d="M33.1679 125.634C33.1679 126.271 32.5628 126.848 31.9215 126.813C31.2922 126.778 30.7113 126.188 30.6871 125.563C30.6629 124.868 31.1712 124.349 31.861 124.361C32.5992 124.384 33.1679 124.927 33.1679 125.634Z" fill="#FF2E63"/>
<path d="M24.8904 122.427C24.854 123.016 24.37 123.5 23.8012 123.5C23.1598 123.5 22.5426 122.91 22.5669 122.309C22.579 121.731 23.2687 121.13 23.8617 121.177C24.4305 121.212 24.9267 121.814 24.8904 122.427Z" fill="#FF2E63"/>
<path d="M12.5345 114.515C12.4619 114.433 12.365 114.362 12.3045 114.267C12.0141 113.843 11.6148 113.419 11.9778 112.864C12.3651 112.275 12.9217 112.169 13.5752 112.405C13.6115 112.464 13.6478 112.534 13.6962 112.581C14.0714 112.994 14.3376 113.466 14.0109 113.973C13.6962 114.491 13.1517 114.668 12.5345 114.515Z" fill="#FF2E63"/>
<path d="M15.5356 120.186C14.9305 120.21 14.3981 119.785 14.3497 119.208C14.3013 118.63 14.6764 118.147 15.221 118.099C15.8987 118.04 16.4432 118.489 16.4674 119.125C16.4916 119.727 16.1044 120.163 15.5356 120.186Z" fill="#FF2E63"/>
<path d="M26.1367 127.084C26.7297 127.072 27.1654 127.449 27.2017 128.003C27.238 128.617 26.8144 129.088 26.1973 129.112C25.5922 129.124 25.1202 128.676 25.1323 128.062C25.1444 127.485 25.5438 127.084 26.1367 127.084Z" fill="#FF2E63"/>
<path d="M6.90742 102.076C6.91953 101.428 7.5246 100.885 8.19019 100.932C8.80737 100.968 9.48506 101.71 9.46086 102.312C9.43665 102.913 8.78316 103.467 8.12968 103.444C7.43989 103.42 6.89532 102.807 6.90742 102.076Z" fill="#FF2E63"/>
<path d="M11.6875 107.889C11.6633 108.561 11.1913 109.009 10.5257 109.009C9.79962 109.009 9.21873 108.408 9.27924 107.712C9.32764 107.17 9.93274 106.627 10.5257 106.615C11.155 106.604 11.7117 107.217 11.6875 107.889Z" fill="#FF2E63"/>
<path d="M75.2293 57H67.5382C66.6887 57 66 57.6887 66 58.5382V95.4555C66 96.305 66.6887 96.9937 67.5382 96.9937H75.2293C76.0789 96.9937 76.7675 96.305 76.7675 95.4555V58.5382C76.7675 57.6887 76.0789 57 75.2293 57Z" stroke="white" stroke-width="3.42857" stroke-linecap="round" stroke-linejoin="round"/>
<path d="M85.9969 63.1528H78.3058C77.4563 63.1528 76.7676 63.8415 76.7676 64.6911V95.4555C76.7676 96.305 77.4563 96.9937 78.3058 96.9937H85.9969C86.8464 96.9937 87.5351 96.305 87.5351 95.4555V64.6911C87.5351 63.8415 86.8464 63.1528 85.9969 63.1528Z" stroke="white" stroke-width="3.42857" stroke-linecap="round" stroke-linejoin="round"/>
<path d="M96.2923 62.3106L90.3235 63.8043C89.4994 64.0105 88.9985 64.8458 89.2047 65.6699L96.6734 95.514C96.8796 96.3381 97.7149 96.839 98.539 96.6328L104.508 95.139C105.332 94.9328 105.833 94.0975 105.627 93.2734L98.1579 63.4293C97.9517 62.6052 97.1164 62.1043 96.2923 62.3106Z" stroke="white" stroke-width="3.42857" stroke-linecap="round" stroke-linejoin="round"/>
<path d="M66 86.2261H76.7675" stroke="white" stroke-width="3.42857" stroke-linecap="round" stroke-linejoin="round"/>
<path d="M76.7676 83.1497H87.5351" stroke="white" stroke-width="3.42857" stroke-linecap="round" stroke-linejoin="round"/>
<path d="M95.2261 89.3024L104.086 87.0874" stroke="white" stroke-width="3.42857" stroke-linecap="round" stroke-linejoin="round"/>
</svg>
