<svg width="30" height="30" viewBox="0 0 30 30" fill="none" xmlns="http://www.w3.org/2000/svg">
<g clip-path="url(#clip0_73_132)">
<path d="M30 15.0919C30 6.75562 23.2837 -0.00187683 15 -0.00187683C6.71247 -1.83098e-06 -0.00378418 6.75562 -0.00378418 15.0937C-0.00378418 22.6256 5.48247 28.8694 12.6525 30.0019V19.455H8.84622V15.0937H12.6562V11.7656C12.6562 7.98375 14.8968 5.895 18.3225 5.895C19.965 5.895 21.6806 6.18937 21.6806 6.18937V9.90187H19.7887C17.9268 9.90187 17.3456 11.0662 17.3456 12.2606V15.0919H21.5043L20.8406 19.4531H17.3437V30C24.5137 28.8675 30 22.6237 30 15.0919Z" fill="black"/>
</g>
<defs>
<clipPath id="clip0_73_132">
<rect width="30" height="30" fill="white"/>
</clipPath>
</defs>
</svg>
