<svg width="30" height="30" viewBox="0 0 30 30" fill="none" xmlns="http://www.w3.org/2000/svg">
<g clip-path="url(#clip0_73_136)">
<path d="M15.0956 3.74812H15.2625C16.8038 3.75375 24.6131 3.81 26.7188 4.37625C27.3553 4.54906 27.9353 4.88592 28.4009 5.35314C28.8665 5.82036 29.2013 6.40159 29.3719 7.03875C29.5613 7.75125 29.6944 8.69437 29.7844 9.6675L29.8031 9.8625L29.8444 10.35L29.8594 10.545C29.9813 12.2587 29.9963 13.8637 29.9981 14.2144V14.355C29.9963 14.7187 29.9794 16.4325 29.8444 18.2175L29.8294 18.4144L29.8125 18.6094C29.7188 19.6819 29.58 20.7469 29.3719 21.5306C29.2018 22.168 28.8672 22.7495 28.4015 23.2168C27.9359 23.6841 27.3556 24.0208 26.7188 24.1931C24.5438 24.7781 16.2769 24.8194 15.1312 24.8212H14.865C14.2856 24.8212 11.8894 24.81 9.37687 24.7237L9.05812 24.7125L8.895 24.705L8.57438 24.6919L8.25375 24.6787C6.1725 24.5869 4.19063 24.4387 3.2775 24.1912C2.64092 24.0191 2.06075 23.6827 1.59511 23.2158C1.12947 22.7488 0.794713 22.1677 0.624375 21.5306C0.41625 20.7487 0.2775 19.6819 0.18375 18.6094L0.16875 18.4125L0.15375 18.2175C0.0612142 16.947 0.00993725 15.6738 0 14.4L0 14.1694C0.00375 13.7662 0.01875 12.3731 0.12 10.8356L0.133125 10.6425L0.13875 10.545L0.15375 10.35L0.195 9.8625L0.21375 9.6675C0.30375 8.69437 0.436875 7.74937 0.62625 7.03875C0.796301 6.40134 1.13093 5.81983 1.59659 5.35253C2.06225 4.88522 2.64257 4.54855 3.27937 4.37625C4.1925 4.1325 6.17437 3.9825 8.25562 3.88875L8.57438 3.87562L8.89687 3.86437L9.05812 3.85875L9.37875 3.84562C11.1632 3.7882 12.9484 3.75632 14.7337 3.75H15.0956V3.74812ZM12 9.76687V18.8006L19.7944 14.2856L12 9.76687Z" fill="black"/>
</g>
<defs>
<clipPath id="clip0_73_136">
<rect width="30" height="30" fill="white"/>
</clipPath>
</defs>
</svg>
