<svg width="40" height="49" viewBox="0 0 40 49" fill="none" xmlns="http://www.w3.org/2000/svg">
<path d="M17.9446 47.6463C2.80938 27.6408 0 25.5876 0 18.2353C0 8.16419 8.95427 0 20 0C31.0457 0 40 8.16419 40 18.2353C40 25.5876 37.1906 27.6408 22.0554 47.6463C21.0622 48.9545 18.9377 48.9544 17.9446 47.6463ZM20 25.8333C24.6024 25.8333 28.3333 22.4316 28.3333 18.2353C28.3333 14.039 24.6024 10.6373 20 10.6373C15.3976 10.6373 11.6667 14.039 11.6667 18.2353C11.6667 22.4316 15.3976 25.8333 20 25.8333Z" fill="#252A34"/>
</svg>
