<svg width="40" height="34" viewBox="0 0 40 34" fill="none" xmlns="http://www.w3.org/2000/svg">
<path d="M39.2422 10.9021C39.5469 10.6356 40 10.8849 40 11.3062V28.8889C40 31.1673 38.3203 33.0159 36.25 33.0159H3.75C1.67969 33.0159 0 31.1673 0 28.8889V11.3148C0 10.8849 0.445312 10.6442 0.757812 10.9107C2.50781 12.4067 4.82812 14.3069 12.7969 20.6779C14.4453 22.002 17.2266 24.7877 20 24.7705C22.7891 24.7963 25.625 21.9504 27.2109 20.6779C35.1797 14.3069 37.4922 12.3981 39.2422 10.9021ZM20 22.0106C21.8125 22.045 24.4219 19.5 25.7344 18.4511C36.1016 10.1713 36.8906 9.44907 39.2812 7.38558C39.7344 6.99868 40 6.39683 40 5.76058V4.12698C40 1.84855 38.3203 0 36.25 0H3.75C1.67969 0 0 1.84855 0 4.12698V5.76058C0 6.39683 0.265625 6.99008 0.71875 7.38558C3.10937 9.44048 3.89844 10.1713 14.2656 18.4511C15.5781 19.5 18.1875 22.045 20 22.0106Z" fill="#252A34"/>
</svg>
