<svg width="41" height="44" viewBox="0 0 41 44" fill="none" xmlns="http://www.w3.org/2000/svg">
<path d="M39.0601 31.0393L30.2834 26.9856C29.9084 26.8135 29.4928 26.7794 29.0989 26.8885C28.7051 26.9976 28.3544 27.2441 28.0997 27.5908L24.2585 32.8056C18.1566 29.7021 13.2276 24.3692 10.3168 17.7217L15.0236 13.4433C15.3371 13.1601 15.5578 12.7725 15.6522 12.3392C15.7467 11.9059 15.7098 11.4505 15.547 11.042L11.7346 1.47507C11.556 1.03467 11.243 0.676197 10.8493 0.461449C10.4557 0.246701 10.0063 0.189143 9.57842 0.298698L1.46683 2.40686C1.05436 2.51412 0.687412 2.77151 0.425866 3.13702C0.164321 3.50253 0.0236265 3.95457 0.0267466 4.41936C0.1697 26.3852 16.5275 44.0491 36.5352 43.9189C36.9594 43.9164 37.3701 43.7564 37.7002 43.4649C38.0304 43.1735 38.2605 42.7678 38.353 42.3141L40.17 33.3957C40.2637 32.9231 40.2041 32.4292 40.0016 31.9991C39.799 31.569 39.4661 31.2296 39.0601 31.0393V31.0393Z" fill="#252A34"/>
</svg>
