<svg width="164" height="161" viewBox="0 0 164 161" fill="none" xmlns="http://www.w3.org/2000/svg">
<path d="M162.078 84.7102C161.255 81.7988 159.957 79.0962 158.323 76.556C158.01 75.4773 157.245 74.7118 156.503 73.923C155.657 73.0067 154.811 72.0904 153.953 71.1857C152.145 69.7358 150.557 67.8915 147.972 67.8219C147.833 67.8219 147.706 67.7175 147.566 67.6595C145.7 66.8824 143.788 66.2676 141.852 65.6993C137.633 64.4698 133.333 63.5187 129.311 61.6744C124.872 59.6446 121.626 56.5592 120.861 51.502C120.421 48.579 121 45.7488 121.812 42.9419C122.704 39.8449 123.921 36.8407 124.651 33.6974C124.767 33.2102 124.988 32.7115 124.709 32.2011C123.284 31.076 121.615 30.3917 119.98 29.6841C110.372 25.6012 100.322 22.9102 90.25 20.3352C84.4198 18.8506 78.5085 17.7602 72.5045 17.3427C70.5804 17.2035 68.6564 16.8439 66.7091 17.1339C66.2223 17.3195 66.0021 17.7602 65.7471 18.1546C64.6807 19.8133 63.568 21.4488 62.6639 23.2002C59.9865 28.3502 56.231 32.4795 51.247 35.472C48.2102 37.4091 44.9764 38.975 41.7194 40.4829C40.201 41.1904 38.5435 41.6196 37.1642 42.6403C36.9208 43.0811 36.9903 43.5682 36.9903 44.0438C36.9556 46.4912 37.1874 48.9386 36.9903 51.386C36.7122 54.9469 35.9124 58.3223 33.9304 61.3612C32.0295 64.2726 29.4795 66.5112 26.6861 68.4947C23.1509 71.0001 19.326 73.0531 15.6749 75.3613C11.2588 78.1567 7.29476 81.4277 4.64047 86.0325C4.29274 86.6357 3.86388 87.204 3.87547 87.9463C4.32751 92.5744 5.74159 96.8892 8.26838 100.798C11.6877 106.087 16.1733 110.077 22.3512 111.864C23.4059 112.165 24.4955 112.328 24.9591 113.546C25.0518 113.801 25.3532 113.975 25.6198 114.102C26.408 114.334 27.3004 114.369 27.7641 113.708C28.6102 112.502 29.8388 112.652 30.9979 112.502C31.5774 112.432 32.1686 112.525 32.7481 112.397C33.3277 112.27 33.6754 112.455 34.0231 112.954C34.9735 114.311 36.9672 114.311 37.8017 112.861C38.3233 111.956 38.926 111.736 39.8417 111.806C40.3517 111.852 40.8733 111.84 41.3832 111.806C42.1598 111.748 42.6698 112.038 43.1219 112.687C43.968 113.905 45.3589 114.207 46.5759 113.372C47.3989 112.803 48.0943 112.85 48.8941 113.314C47.6886 114.473 47.4568 115.645 48.1523 116.932C48.6854 117.93 49.5432 118.336 50.6211 118.092C51.2818 117.942 51.8613 117.628 52.325 117.141C52.8929 116.561 52.6959 115.784 52.7422 114.995C57.4017 117.57 61.2499 121.004 64.9705 124.576C66.2107 125.33 67.7523 125.655 68.5289 127.024C68.4014 127 68.2275 126.989 68.0652 127.116C67.9493 127.511 68.2043 127.754 68.4477 127.952C70.6848 129.877 72.6784 132.058 74.9386 133.96C75.5413 134.459 76.0745 135.085 76.8742 135.305L76.8858 135.317C76.9786 135.363 77.0481 135.445 77.1408 135.503C77.1988 135.537 77.2683 135.572 77.3263 135.619C80.3631 138.008 83.5389 140.165 87.1205 141.65C87.445 141.789 87.6537 142.01 87.8043 142.311C88.1984 143.042 88.8823 143.239 89.5893 142.996C90.1341 142.822 90.5861 142.926 91.0729 143.065C94.075 143.924 97.1233 144.515 100.253 144.562C101.134 144.573 102.003 144.562 102.884 144.562C102.919 145.014 102.803 145.385 103 145.733C103.22 146.116 103.591 146.232 104.136 146.058C104.53 145.93 104.483 145.698 104.414 145.373C104.252 144.62 104.275 144.585 105.04 144.573C106.222 144.562 107.37 144.388 108.54 144.248C108.505 143.912 108.227 143.854 107.984 143.819C106.141 143.576 104.321 143.193 102.455 143.17C102.409 143.17 102.397 143.181 102.397 143.204C102.409 143.158 102.467 143.1 102.664 143.1C103.429 143.239 104.437 143.251 105.446 143.146C106.651 143.019 107.868 143.019 109.073 143.158C111.16 143.402 113.246 143.332 115.332 143.239C131.606 138.716 145.005 129.854 155.425 116.55C155.576 116.318 155.761 116.109 155.923 115.889C156.584 114.566 157.013 113.163 157.291 111.724C157.685 109.648 158.972 107.955 159.493 106.041C159.192 107.41 158.473 108.778 158.937 110.333C159.03 110.217 159.134 110.112 159.204 109.985C161.626 105.391 163.075 100.508 163.341 95.3002C163.527 91.7392 163.052 88.1899 162.078 84.7102Z" fill="#FF2E63"/>
<path d="M83.9098 18.1663C91.4091 19.6045 98.7345 21.704 106.025 23.9078C112.238 25.7869 118.404 27.7819 124.176 30.8093C124.431 30.9485 124.709 31.076 125.011 30.8905C125.196 28.3271 125.312 25.7637 124.709 23.2467C122.496 14.0022 116.793 7.66908 108.32 3.6558C106.06 2.58868 103.637 1.96233 101.226 1.37078C96.4279 0.187669 91.5945 -0.461887 86.6569 0.384847C81.4294 1.27798 77.1177 3.80659 73.5709 7.68069C71.2411 10.2325 69.3286 13.1091 67.4509 15.9856C67.7407 16.3568 68.1696 16.3104 68.5637 16.3104C73.7331 16.4728 78.8331 17.2035 83.9098 18.1663Z" fill="#FF2E63"/>
<path d="M4.8724 84.0491C5.6374 83.0631 6.35603 82.054 7.20215 81.1377C10.0535 78.0755 13.4264 75.7093 16.9964 73.5751C20.8909 71.2437 24.8549 69.0167 28.4133 66.1517C32.3773 62.9619 35.0432 58.9718 35.8662 53.8566C36.3762 50.6553 36.2023 47.4307 36.2023 44.2062C36.2023 43.835 36.1212 43.4754 35.7618 43.2551C35.4257 43.1507 35.1012 43.2667 34.7998 43.3827C30.1635 45.3081 25.4461 47.048 20.9256 49.2518C16.6139 51.3512 13.3453 54.4714 10.8532 58.4731C10.2389 59.4474 9.47395 60.3869 9.33486 61.6048C9.31168 61.7092 9.30009 61.8252 9.25372 61.918C7.20216 66.0705 5.84603 70.4549 5.0115 75.0018C4.43196 78.2031 3.99151 81.4161 4.07264 84.687C4.52468 84.7102 4.66377 84.3158 4.8724 84.0491Z" fill="#FF2E63"/>
<path d="M36.3185 33.8716C35.878 36.5278 35.681 39.2072 35.7737 41.9097C35.7969 42.3853 35.7505 42.8493 35.7389 43.3248C30.5578 45.4127 25.2956 47.3381 20.3 49.8899C16.0809 52.0474 13.021 55.3299 10.6449 59.3432C10.1928 60.0971 9.76396 60.8511 9.32351 61.6166C8.80193 60.4335 8.62807 59.1692 8.40784 57.9165C8.17603 56.6058 8.17602 55.2951 8.2108 53.9844C8.28034 51.2934 8.87147 48.73 9.92623 46.2362C10.9114 43.8816 12.2908 41.7822 13.983 39.9147C15.5941 38.14 17.5762 36.8062 19.8132 35.9014C21.6445 35.1591 23.5802 34.8111 25.5274 34.4979C28.6569 33.9992 31.798 34.1036 34.9276 34.0804C35.4028 34.0688 35.8896 34.1616 36.3185 33.8716Z" fill="#08D9D6"/>
<path d="M4.06109 84.6989C5.5563 82.4719 7.28332 80.4305 9.30012 78.6674C11.5951 76.6608 14.1335 74.9905 16.7298 73.4014C19.5811 71.6732 22.4788 70.0377 25.2374 68.147C27.7526 66.4188 30.1403 64.5513 32.0181 62.1039C34.2203 59.2389 35.4142 56.0144 35.7619 52.4071C36.0285 49.6581 35.8662 46.9207 35.9126 44.1717C35.9126 43.8701 35.8778 43.5917 35.7387 43.325C35.4142 43.0234 35.4026 42.6174 35.3794 42.2115C35.2867 39.996 35.4605 37.7922 35.7039 35.5884C35.7735 34.9736 35.9242 34.3705 36.3182 33.8717C37.1528 29.9628 38.9957 26.6107 41.9166 23.8733C44.2232 21.7159 46.889 20.1384 49.7983 18.9437C53.5885 17.401 57.5526 16.5659 61.6209 16.1947C63.5566 16.0207 65.5038 16.0787 67.4395 15.9975C70.117 15.9859 72.7828 16.2063 75.4371 16.5195C79.0998 16.937 82.7393 17.575 86.3557 18.3521C93.1594 19.8136 99.8357 21.7391 106.5 23.7341C110.951 25.068 115.367 26.5295 119.656 28.3505C121.476 29.1277 123.272 29.9628 125.011 30.9023C125.985 31.4475 126.97 31.9927 127.943 32.5378C130.598 33.6397 132.707 35.5304 134.817 37.3862C140.809 42.6754 145.225 49.1593 148.992 56.142C151.855 61.4544 154.243 66.9523 156.167 72.6707C156.318 73.1346 156.665 73.5986 156.352 74.1322C155.553 73.2506 154.753 72.3691 153.953 71.4992C152.864 69.7825 152.377 67.8107 151.565 65.9664C148.32 58.6822 144.704 51.6299 139.696 45.3664C135.918 40.6224 131.502 36.6207 126.263 33.5353C125.706 33.2106 125.057 32.9786 124.686 32.3754C121.881 30.7747 118.937 29.4756 115.912 28.3505C108.61 25.6247 101.111 23.5253 93.5883 21.5187C89.9836 20.5559 86.3556 19.7208 82.693 19.0365C79.5982 18.4681 76.5035 18.0042 73.3624 17.7374C71.4267 17.575 69.5027 17.4938 67.567 17.3778C67.2077 17.3546 66.8368 17.4126 66.4775 17.4358C65.1909 17.7722 63.8695 17.7606 62.5598 17.8418C56.7296 18.2245 51.2008 19.5816 46.2052 22.7018C42.0209 25.3116 39.1696 28.9421 38.0916 33.8369C37.6048 36.1915 37.5469 38.5809 37.5816 40.9819C37.5932 41.5503 37.6744 42.1535 37.2571 42.6522C37.2803 44.4849 37.2455 46.3059 37.3846 48.1386C37.4889 49.5189 37.3498 50.9224 37.1991 52.3027C37.0021 54.1585 36.6312 55.9796 36.0169 57.7542C35.1823 60.1553 33.8494 62.2315 32.1687 64.1105C29.6072 66.9871 26.4429 69.1214 23.1975 71.128C20.207 72.9723 17.1239 74.6889 14.2146 76.6608C10.8533 78.9342 7.8165 81.5556 5.57948 85.0121C4.98835 85.9284 4.37404 86.8448 4.01472 87.9003C3.74814 89.5358 2.90201 90.9857 2.5311 92.5979C0.943168 99.4182 1.60384 105.832 5.85766 111.62C6.90083 113.036 8.23377 114.103 9.75216 114.949C15.1303 117.919 20.9952 119.264 27.0224 120.065C29.526 120.447 32.0181 120.865 34.5448 120.981C35.8314 121.259 37.1528 121.097 38.4509 121.271C40.3402 121.352 42.2179 121.433 44.1072 121.584C45.2547 121.549 46.4022 121.549 47.5381 121.584C49.8679 121.491 52.186 121.688 54.4926 122.025C54.7476 122.013 55.0026 122.06 55.246 122.106C56.3007 122.361 57.4019 122.361 58.445 122.651C59.6621 122.872 60.8791 123.173 62.0845 123.428C63.1277 123.799 64.2868 123.857 65.2025 124.588C65.2604 124.623 65.3184 124.693 65.3879 124.704C67.1265 124.983 68.1929 126.224 69.3636 127.488C68.8304 127.604 68.5058 127.175 68.1002 127.186C67.6713 127.384 67.3236 127.128 66.9527 127.001C65.2604 126.409 63.5566 125.864 61.818 125.435C60.5082 125.075 59.1753 124.774 57.8307 124.553C55.9414 124.171 54.0174 124.008 52.1165 123.753C51.1313 123.753 50.146 123.834 49.1724 123.567C47.2252 123.544 45.2895 123.625 43.3538 123.544C38.4278 123.336 33.4901 123.127 28.5988 122.373C27.6251 122.118 26.5356 122.315 25.6431 121.677C23.5336 121.224 21.4009 120.9 19.303 120.355C16.4285 119.612 13.6235 118.684 10.8996 117.478C6.36765 115.46 3.26132 112.096 1.59225 107.468C-1.16636 99.8241 -0.250684 92.4935 3.64382 85.4529C3.80609 85.2093 3.93359 84.9541 4.06109 84.6989Z" fill="#252A34"/>
<path d="M156.352 74.1433C155.518 71.2203 154.393 68.4017 153.211 65.6064C150.835 60.004 148.088 54.5872 144.738 49.4952C142.524 46.1199 140.056 42.9417 137.239 40.0536C134.62 37.3742 131.733 35.008 128.569 33.0013C128.361 32.8621 128.163 32.6997 127.955 32.5605C130.864 33.1405 133.669 34.0684 136.428 35.1587C140.392 36.7246 144.078 38.8009 147.508 41.3527C150.464 43.5565 152.759 46.3055 154.486 49.5416C156.028 52.4298 157.233 55.4456 157.94 58.6469C158.334 60.4216 158.589 62.2194 158.798 64.0405C159.03 65.9775 158.96 67.9146 158.96 69.8516C158.96 71.7075 158.694 73.5517 158.392 75.3844C158.323 75.7788 158.346 76.1847 158.323 76.5907C157.639 75.7672 157.117 74.8508 156.352 74.1433Z" fill="#08D9D6"/>
<path d="M52.1859 123.509C54.11 123.683 56.0457 123.834 57.9234 124.345C58.3522 124.774 58.387 125.446 58.9781 125.794C59.9286 126.351 60.5777 126.34 61.389 125.586C61.5513 125.435 61.702 125.284 61.9106 125.226C64.0433 125.678 66.0949 126.374 68.1117 127.21C69.2824 128.358 70.4414 129.529 71.6469 130.643C73.3623 132.232 75.1125 133.786 76.8511 135.341C76.2832 135.515 75.7152 135.55 75.1241 135.55C72.6669 135.538 70.2212 135.503 67.764 135.561C65.7819 135.608 63.8347 135.248 61.8642 135.294C61.7599 134.9 62.0033 134.598 62.1192 134.262C62.3511 133.589 62.1192 133.032 61.6208 132.615C61.1456 132.209 60.5893 132.093 60.0097 132.418C59.407 132.754 59.1404 133.264 59.1752 133.949C59.1868 134.343 59.465 134.703 59.2795 135.109C58.1436 135.132 57.0309 134.9 55.9182 134.761C55.1995 134.668 54.4577 134.738 53.7507 134.482C53.1943 134.285 53.148 134.865 52.893 135.132C52.5916 134.912 52.6264 134.552 52.5221 134.25C52.1512 133.044 51.618 132.812 50.4937 133.346C50.1691 133.496 49.9141 133.798 49.5316 133.821C47.086 133.241 44.6172 132.708 42.241 131.849C41.0008 131.409 39.7838 130.91 38.6363 130.341C38.1959 130.504 38.4856 131.014 38.1495 131.165C38.0568 131.107 37.9525 131.014 37.9525 130.921C37.9756 129.692 37.257 129.239 36.1559 129.193C35.2982 128.613 34.4405 128.033 33.5711 127.465C33.3509 127.326 33.1423 127.198 33.0611 126.931C32.9684 126.769 32.9916 126.583 32.9684 126.409C32.7714 124.971 32.5627 124.82 31.1834 125.098C30.998 125.133 30.8241 125.156 30.685 125.006C29.7114 124.368 29.0739 123.451 28.4364 122.512C28.3321 122.384 28.3205 122.257 28.4596 122.141C30.3141 122.315 32.1571 122.489 34.0116 122.651C35.4604 122.779 36.9209 122.906 38.3697 122.999C41.8354 123.208 45.301 123.277 48.7667 123.277C48.9521 123.277 49.126 123.312 49.3114 123.335C49.4157 123.741 49.068 124.008 48.9869 124.345C48.7898 125.156 48.9521 125.887 49.6244 126.409C50.2503 126.896 50.9573 126.746 51.5716 126.363C52.2323 125.957 52.4757 125.354 52.2671 124.576C52.1743 124.217 51.9657 123.869 52.1859 123.509Z" fill="#08D9D6"/>
<path d="M155.68 115.9C156.317 114.415 156.793 112.872 157.117 111.307C157.523 109.3 158.763 107.664 159.505 105.809C159.598 107.374 158.983 108.836 158.937 110.379C158.357 112.234 157.824 114.09 157.198 115.923C154.927 122.569 151.403 128.462 146.523 133.53C143.44 136.72 139.719 138.936 135.64 140.583C131.444 142.276 127.097 143.378 122.623 144.016C122.449 144.144 122.264 144.236 122.044 144.132C120.595 144.236 119.146 144.318 117.697 144.434C115.587 144.596 113.49 144.596 111.38 144.434C110.441 144.364 109.491 144.329 108.54 144.283C106.86 144.016 105.167 143.749 103.487 143.471C102.988 143.39 102.501 143.274 102.015 143.111C104.657 143.1 107.254 142.566 109.92 142.96C111.751 143.227 113.64 143.134 115.495 143.042C119.482 142.624 123.504 142.381 127.41 141.406C132.777 140.061 137.969 138.309 142.409 134.876C146.373 131.802 149.34 127.882 151.878 123.578C153.223 121.293 154.162 118.834 155.344 116.48C155.448 116.283 155.576 116.097 155.68 115.9Z" fill="#252A34"/>
<path d="M59.2912 135.097C59.1521 134.76 58.9782 134.424 58.8971 134.076C58.6885 133.241 59.2217 132.394 60.1373 132.034C60.8328 131.756 61.7832 132.15 62.2121 132.788C62.8496 133.751 62.3975 134.517 61.8759 135.294C60.9719 135.642 60.1026 135.665 59.2912 135.097Z" fill="#FF2E63"/>
<path d="M76.8395 137.776C76.8511 138.785 76.0513 139.539 74.9966 139.528C74.023 139.516 73.3159 138.785 73.3043 137.765C73.2927 136.755 74.0809 135.978 75.1009 135.99C76.0282 136.013 76.8395 136.848 76.8395 137.776Z" fill="#FF2E63"/>
<path d="M67.5323 138.182C67.5439 139.076 66.6978 139.922 65.7705 139.946C64.8317 139.969 63.916 139.076 63.9276 138.136C63.9392 137.173 64.681 136.477 65.6894 136.396C66.5471 136.327 67.4396 137.069 67.5323 138.182Z" fill="#FF2E63"/>
<path d="M49.5435 133.798C49.926 133.067 50.6562 132.916 51.3516 132.742C51.9543 132.592 52.3021 132.974 52.5571 133.438C52.8468 133.96 52.9048 134.529 52.9048 135.12C52.2557 135.839 51.398 136.303 50.5055 135.944C49.6594 135.607 49.6014 134.633 49.5435 133.798Z" fill="#FF2E63"/>
<path d="M79.5983 140.432C80.3401 140.397 81.3601 141.163 81.4181 141.778C81.4876 142.555 80.6994 143.622 80.0272 143.657C79.2158 143.703 78.2422 142.915 78.219 142.207C78.219 141.418 78.9492 140.467 79.5983 140.432Z" fill="#FF2E63"/>
<path d="M54.6896 138.844C54.8171 137.858 55.501 137.197 56.3123 137.278C57.2512 137.371 57.9698 138.066 57.8655 138.774C57.7032 139.818 57.0309 140.479 56.2544 140.363C55.3271 140.236 54.6085 139.54 54.6896 138.844Z" fill="#FF2E63"/>
<path d="M70.3141 144.156C69.4563 144.133 68.9232 143.541 68.9348 142.66C68.9463 141.743 69.5375 141.21 70.4995 141.256C71.3456 141.303 71.8672 141.894 71.8325 142.799C71.7977 143.646 71.2065 144.179 70.3141 144.156Z" fill="#FF2E63"/>
<path d="M59.6274 142.972C59.6042 142.207 60.1606 141.719 61.0878 141.696C61.9456 141.661 62.5599 142.323 62.5367 143.239C62.5251 143.888 61.8065 144.48 60.9951 144.526C60.2765 144.573 59.639 143.854 59.6274 142.972Z" fill="#FF2E63"/>
<path d="M30.6852 124.993C31.0561 124.854 31.427 124.692 31.7979 124.587C32.2615 124.46 32.6672 124.587 32.8759 125.075C33.1309 125.666 33.4902 126.258 33.0729 126.919C32.8759 127 32.6672 127.07 32.4702 127.162C31.1836 127.766 30.7316 127.186 30.4534 125.921C30.3722 125.573 30.4997 125.272 30.6852 124.993Z" fill="#FF2E63"/>
<path d="M40.5374 134.575C40.5489 133.925 41.2444 133.38 42.0905 133.368C42.7164 133.357 43.3887 134.25 43.3423 135.039C43.3075 135.607 42.4614 136.199 41.6848 136.199C41.0821 136.187 40.5374 135.421 40.5374 134.575Z" fill="#FF2E63"/>
<path d="M36.1677 129.182C36.3068 129.147 36.4459 129.112 36.5965 129.089C37.5586 128.868 38.0454 129.193 38.1497 130.179C38.1845 130.504 38.1613 130.829 38.1613 131.165C37.9411 131.293 37.744 131.455 37.5122 131.548C36.5502 131.942 36.1677 131.861 35.8084 131.246C35.31 130.365 35.4027 129.82 36.1677 129.182Z" fill="#FF2E63"/>
<path d="M48.2103 139.168C48.2335 139.678 47.5148 140.769 47.1092 140.804C46.576 140.85 45.5212 140.142 45.4864 139.713C45.4401 139.122 46.1008 138.124 46.5644 138.101C47.1207 138.066 48.1987 138.762 48.2103 139.168Z" fill="#FF2E63"/>
<path d="M95.3617 146.07C95.3501 146.743 94.8749 147.23 94.1911 147.242C93.5536 147.253 92.9856 146.731 92.974 146.105C92.9624 145.444 93.5768 144.817 94.2143 144.84C94.8402 144.875 95.3733 145.432 95.3617 146.07Z" fill="#FF2E63"/>
<path d="M84.8489 145.246C85.4632 145.223 86.0312 145.768 86.0775 146.395C86.1123 147.009 85.5907 147.601 84.9532 147.647C84.3041 147.694 83.6898 147.114 83.6782 146.441C83.6782 145.838 84.223 145.27 84.8489 145.246Z" fill="#FF2E63"/>
<path d="M75.3678 148.284C74.7535 148.273 74.2203 147.705 74.2319 147.067C74.2435 146.44 74.7882 145.907 75.4257 145.895C76.0632 145.895 76.6312 146.44 76.6196 147.055C76.6196 147.728 76.0516 148.296 75.3678 148.284Z" fill="#FF2E63"/>
<path d="M50.4473 143.714C50.4473 142.995 50.8645 142.578 51.5948 142.566C52.2786 142.554 52.8697 143.134 52.8466 143.796C52.8234 144.387 52.2207 144.932 51.5948 144.921C50.9457 144.909 50.4473 144.376 50.4473 143.714Z" fill="#FF2E63"/>
<path d="M66.1413 146.313C66.7903 146.324 67.3351 146.869 67.3119 147.484C67.2887 148.122 66.7556 148.598 66.0717 148.598C65.3299 148.598 64.9474 148.203 64.959 147.438C64.9822 146.707 65.411 146.301 66.1413 146.313Z" fill="#FF2E63"/>
<path d="M71.9948 152.054C71.9716 152.565 71.4848 153.11 71.0675 153.098C70.4995 153.075 70.0359 152.634 70.0707 152.159C70.117 151.602 70.5575 151.15 71.0443 151.184C71.5427 151.231 72.0063 151.66 71.9948 152.054Z" fill="#FF2E63"/>
<path d="M80.4329 150.535C80.9661 150.546 81.4645 151.022 81.4297 151.474C81.3833 151.996 80.8849 152.495 80.4445 152.449C79.9345 152.402 79.5172 151.996 79.5288 151.556C79.5288 151.01 79.9692 150.523 80.4329 150.535Z" fill="#FF2E63"/>
<path d="M33.4553 135.352C33.4437 135.851 32.9453 136.407 32.5164 136.384C31.9833 136.373 31.508 135.897 31.5428 135.421C31.5776 134.911 31.9717 134.459 32.4005 134.459C32.9105 134.447 33.4553 134.911 33.4553 135.352Z" fill="#FF2E63"/>
<path d="M38.4857 139.725C38.5205 140.212 38.0221 140.803 37.57 140.792C37.0948 140.792 36.608 140.363 36.5848 139.933C36.5616 139.423 36.9209 138.924 37.3498 138.878C37.8366 138.808 38.4509 139.284 38.4857 139.725Z" fill="#FF2E63"/>
<path d="M57.6107 148.018C57.6339 148.552 57.1819 149.085 56.7298 149.074C56.2662 149.062 55.7678 148.633 55.7446 148.238C55.7214 147.693 56.1271 147.206 56.6255 147.206C57.1239 147.206 57.5875 147.577 57.6107 148.018Z" fill="#FF2E63"/>
<path d="M28.4596 122.129C28.448 122.256 28.448 122.384 28.4365 122.5C28.1119 122.651 27.7874 122.836 27.4512 122.952C26.5935 123.254 26.2574 123.103 25.8865 122.303C25.7938 122.106 25.7474 121.897 25.6663 121.688C26.6051 121.769 27.5556 121.85 28.4596 122.129Z" fill="#FF2E63"/>
<path d="M22.5599 125.62C23.0119 125.608 23.3712 125.979 23.3481 126.443C23.3249 126.989 22.8612 127.035 22.4903 127.128C22.0847 127.221 21.6674 126.71 21.6558 126.177C21.6442 125.84 21.9919 125.631 22.5599 125.62Z" fill="#FF2E63"/>
<path d="M42.1021 144.886C41.8007 144.863 41.453 144.364 41.4762 143.982C41.4994 143.657 42.0789 143.263 42.473 143.309C42.786 143.344 43.2032 143.947 43.18 144.318C43.1569 144.562 42.5078 144.91 42.1021 144.886Z" fill="#FF2E63"/>
<path d="M61.8761 151.683C62.1774 151.706 62.5368 152.298 62.4904 152.704C62.4672 153.005 61.8761 153.4 61.4936 153.365C61.2038 153.342 60.8909 152.785 60.8909 152.333C60.9025 152.008 61.4472 151.648 61.8761 151.683Z" fill="#FF2E63"/>
<path d="M27.0457 131.907C26.5473 130.828 26.5589 130.55 27.0805 130.318C27.6021 130.086 27.9962 130.271 28.17 130.84C28.3555 131.443 28.1469 131.64 27.0457 131.907Z" fill="#FF2E63"/>
<path d="M89.8909 151.857C89.3461 151.892 89.068 151.637 88.9984 151.08C88.952 150.663 89.3114 150.326 89.8329 150.315C90.2038 150.303 90.5863 150.779 90.5979 151.335C90.6327 151.881 90.1343 151.741 89.8909 151.857Z" fill="#FF2E63"/>
<path d="M47.3759 149.166C46.9702 149.132 46.6572 148.807 46.7152 148.459C46.7847 148.111 46.947 147.821 47.3527 147.867C47.6888 147.902 48.0018 148.018 48.0134 148.436C48.0365 148.807 47.6656 149.19 47.3759 149.166Z" fill="#FF2E63"/>
<path d="M17.831 122.767C17.4485 122.756 17.0081 122.373 17.0776 122.094C17.1588 121.781 17.2515 121.445 17.6919 121.445C18.086 121.456 18.4569 121.781 18.3874 122.106C18.3178 122.419 18.2135 122.744 17.831 122.767Z" fill="#FF2E63"/>
<path d="M52.8244 153.203C52.7316 153.586 52.4532 153.772 52.1284 153.783C51.734 153.795 51.7572 153.389 51.7108 153.134C51.6528 152.774 51.9312 152.588 52.2212 152.577C52.6272 152.554 52.7432 152.89 52.8244 153.203Z" fill="#FF2E63"/>
<path d="M99.7325 150.547C99.7441 150.964 99.4193 151.057 99.141 151.092C98.735 151.15 98.7002 150.79 98.677 150.5C98.6422 150.118 98.9554 149.978 99.2338 149.955C99.6281 149.92 99.6281 150.315 99.7325 150.547Z" fill="#FF2E63"/>
<path d="M85.5794 155.372C85.9389 155.407 86.1013 155.639 86.1129 155.952C86.1245 156.335 85.8229 156.439 85.5214 156.428C85.1502 156.416 85.0574 156.114 85.0574 155.813C85.0574 155.5 85.301 155.418 85.5794 155.372Z" fill="#FF2E63"/>
<path d="M76.0867 156.021C76.4579 156.056 76.6202 156.288 76.6434 156.59C76.6666 156.961 76.3535 157.054 76.0635 157.089C75.7039 157.123 75.5531 156.868 75.5415 156.555C75.5415 156.195 75.8083 156.079 76.0867 156.021Z" fill="#FF2E63"/>
<path d="M67.2895 157.008C67.2431 157.205 67.1503 157.344 66.9299 157.332C66.6167 157.309 66.3499 157.17 66.3267 156.834C66.3035 156.567 66.5471 156.497 66.7675 156.474C67.1619 156.428 67.2199 156.729 67.2895 157.008Z" fill="#FF2E63"/>
<path d="M122.032 144.133C122.218 144.04 122.392 143.924 122.612 144.017C122.624 144.051 122.635 144.086 122.635 144.121C122.647 144.411 122.728 144.771 122.287 144.747C121.928 144.724 122.044 144.376 122.032 144.133Z" fill="#FF2E63"/>
<path d="M33.0732 144.7C33.0384 144.909 32.9108 144.99 32.7716 144.944C32.5861 144.897 32.4585 144.758 32.5281 144.549C32.5513 144.48 32.6904 144.398 32.7716 144.398C32.9688 144.41 33.0848 144.526 33.0732 144.7Z" fill="#FF2E63"/>
<path d="M108.889 150.164C108.865 150.327 108.761 150.431 108.61 150.431C108.436 150.431 108.367 150.304 108.355 150.153C108.343 149.99 108.436 149.874 108.599 149.886C108.749 149.898 108.842 150.014 108.889 150.164Z" fill="#FF2E63"/>
<path d="M28.3904 140.514C28.402 140.676 28.3208 140.757 28.2048 140.757C27.9844 140.769 27.88 140.63 27.8569 140.432C27.8337 140.305 27.9264 140.224 28.0424 140.212C28.2628 140.2 28.3324 140.363 28.3904 140.514Z" fill="#FF2E63"/>
<path d="M95.0608 155.511C95.084 155.685 95.0028 155.789 94.8288 155.801C94.678 155.812 94.5388 155.777 94.5388 155.58C94.5388 155.43 94.6084 155.29 94.7708 155.267C94.9332 155.244 95.026 155.36 95.0608 155.511Z" fill="#FF2E63"/>
<path d="M90.4707 160.441C90.4707 160.603 90.4011 160.719 90.2387 160.731C90.0879 160.743 89.9719 160.65 89.9371 160.487C89.9023 160.325 89.9835 160.209 90.1575 160.209C90.3083 160.209 90.4243 160.279 90.4707 160.441Z" fill="#FF2E63"/>
<path d="M23.3718 135.781C23.3834 135.966 23.3254 136.071 23.1746 136.117C23.0354 136.164 23.0006 136.048 22.9658 135.955C22.9078 135.804 22.9542 135.653 23.0934 135.607C23.221 135.56 23.3486 135.653 23.3718 135.781Z" fill="#FF2E63"/>
<path d="M18.3064 131.385C18.2716 131.559 18.144 131.605 18.0048 131.582C17.8424 131.559 17.7612 131.431 17.796 131.292C17.8076 131.234 17.9584 131.165 18.0512 131.165C18.1788 131.165 18.3064 131.211 18.3064 131.385Z" fill="#FF2E63"/>
<path d="M104.565 154.978C104.53 155.094 104.437 155.14 104.333 155.128C104.182 155.105 104.066 155.001 104.066 154.85C104.066 154.676 104.194 154.595 104.356 154.653C104.495 154.688 104.577 154.804 104.565 154.978Z" fill="#FF2E63"/>
<path d="M38.1152 149.225C38.0688 149.364 37.976 149.48 37.8252 149.468C37.7672 149.457 37.686 149.317 37.686 149.236C37.686 149.085 37.7904 148.981 37.9528 149.004C38.0572 149.016 38.1152 149.109 38.1152 149.225Z" fill="#FF2E63"/>
<path d="M113.27 145.095C113.258 145.211 113.177 145.246 113.061 145.258C112.91 145.258 112.782 145.211 112.782 145.026C112.782 144.91 112.84 144.817 112.968 144.829C113.13 144.852 113.235 144.921 113.27 145.095Z" fill="#FF2E63"/>
<path d="M13.2528 126.978C13.2296 127.094 13.1716 127.163 13.0556 127.163C12.8932 127.163 12.7889 127.082 12.7773 126.92C12.7657 126.792 12.87 126.757 12.9744 126.757C13.1136 126.769 13.2412 126.792 13.2528 126.978Z" fill="#FF2E63"/>
<path d="M76.863 135.352C76.9906 135.364 77.0602 135.433 77.1182 135.538C77.037 135.48 76.9442 135.422 76.863 135.352Z" fill="#08D9D6"/>
<path d="M124.675 32.3755C127.99 34.069 130.992 36.2148 133.762 38.6854C138.908 43.267 142.896 48.765 146.28 54.7269C149.201 59.8653 151.681 65.2125 153.733 70.7569C153.826 71.0005 153.872 71.2441 153.93 71.4992C152.782 70.5945 151.693 69.6202 150.441 68.843C149.862 68.4835 149.328 67.9963 148.529 68.2747C148.332 68.3443 148.03 68.1819 147.798 68.0775C144.599 66.6856 141.226 65.8389 137.888 64.8994C134.967 64.0758 132.035 63.2639 129.276 61.988C126.043 60.5033 123.272 58.4735 121.661 55.1793C120.386 52.5927 120.178 49.8437 120.583 47.0367C121.07 43.615 122.299 40.3905 123.354 37.1195C123.864 35.5653 124.304 33.9762 124.675 32.3755Z" fill="#08D9D6"/>
<path d="M26.9065 120.343C26.7442 119.345 26.211 118.464 25.9676 117.478C25.6663 116.306 25.5504 115.146 25.6199 113.952C25.9444 113.963 26.2806 113.998 26.6051 113.986C27.1499 113.975 27.7062 113.754 27.8685 113.256C28.1467 112.42 28.7262 112.49 29.3985 112.386C30.6387 112.2 31.8905 112.351 33.1075 112.049C33.606 111.922 33.9769 112.072 34.1159 112.606C34.3362 113.441 35.0432 113.72 35.7155 113.696C36.5384 113.662 37.512 113.453 37.7323 112.478C37.9409 111.597 38.4277 111.516 39.1463 111.539C40.0968 111.562 41.0472 111.562 42.0093 111.55C42.4845 111.539 42.7859 111.678 43.0524 112.142C44.0608 113.905 45.3126 114.102 46.9238 112.792C47.2135 112.56 47.4453 112.467 47.8047 112.606C48.4074 112.85 49.0333 113.024 49.8099 113.29C49.0796 113.778 48.2335 113.952 48.0597 114.775C47.9206 115.459 47.9901 116.155 48.3262 116.805C48.8942 117.884 49.6708 118.22 50.8994 117.733C52.638 117.049 52.6148 116.619 52.3251 114.555C53.0785 114.81 53.716 115.239 54.3419 115.622C57.2164 117.397 59.8475 119.508 62.3395 121.77C63.0697 122.431 63.8115 123.092 64.5302 123.765C64.7968 124.008 65.1097 124.229 65.2256 124.6C64.1708 124.356 63.1277 124.078 62.1193 123.695C61.0761 122.489 59.8823 122.036 58.4102 122.906C57.3671 122.686 56.3007 122.674 55.2807 122.338C55.5125 122.025 55.895 121.955 56.1964 121.77C57.3091 121.062 57.5525 119.856 56.7759 118.777C56.1152 117.872 54.9794 117.791 54.0057 118.603C53.1596 119.299 53.1596 120.61 53.9594 121.514C54.1912 121.77 54.6432 121.839 54.6316 122.303C52.2903 122.083 49.9605 121.862 47.6076 121.862C47.3063 121.491 47.5497 121.085 47.5265 120.702C47.4801 119.728 46.7731 118.939 45.9269 118.928C44.9301 118.916 44.1652 119.705 44.142 120.749C44.142 121.097 44.339 121.468 44.0608 121.804C42.1368 121.746 40.2011 121.77 38.277 121.514C38.2539 121.491 38.2191 121.468 38.2075 121.433C37.9293 120.598 37.628 119.705 36.5848 119.612C35.5532 119.519 35.2055 120.378 34.7998 121.108C34.765 121.166 34.7071 121.213 34.6375 121.259C32.3194 121.213 30.0244 120.9 27.741 120.494C27.4744 120.436 27.1847 120.389 26.9065 120.343Z" fill="#08D9D6"/>
<path d="M37.8831 33.6167C38.057 34.2779 38.6597 34.2895 39.1233 34.2663C40.491 34.1967 41.824 34.4519 43.1685 34.5447C44.513 34.6375 45.8344 34.9158 47.1673 35.0666C48.5814 35.229 49.9607 35.6002 51.3864 35.6582C50.5402 36.3774 49.5434 36.8529 48.593 37.3749C44.9419 39.3932 41.1517 41.1447 37.2688 42.6643C37.1297 39.7992 37.1645 36.9573 37.6976 34.1271C37.7324 33.9415 37.7556 33.7559 37.8831 33.6167Z" fill="#08D9D6"/>
<path d="M155.495 116.399C155.414 116.399 155.333 116.399 155.251 116.399C155.309 116.167 155.483 116.016 155.681 115.9C155.692 116.098 155.681 116.283 155.495 116.399Z" fill="#FF2E63"/>
<path d="M54.6315 122.315C53.3333 121.666 52.7654 120.483 53.1247 119.16C53.287 118.557 54.6083 117.71 55.3269 117.757C56.9149 117.861 58.0276 119.543 57.3785 120.993C56.996 121.84 56.2194 122.28 55.2806 122.362C55.0604 122.338 54.8401 122.327 54.6315 122.315Z" fill="#FF2E63"/>
<path d="M52.1859 123.509C52.3018 123.846 52.4525 124.182 52.5452 124.53C52.8466 125.609 52.3134 126.49 51.1659 126.85C50.0648 127.186 49.1607 126.78 48.7666 125.771C48.3957 124.832 48.5348 123.996 49.2998 123.312C50.2734 123.382 51.2239 123.44 52.1859 123.509Z" fill="#FF2E63"/>
<path d="M44.0609 121.804C44.0029 121.63 43.945 121.456 43.8986 121.282C43.7131 120.401 43.7827 119.612 44.6172 119.055C45.359 118.556 46.2515 118.475 46.889 118.928C47.6772 119.496 47.9438 120.296 47.7815 121.247C47.7467 121.456 47.654 121.665 47.5961 121.874C46.4254 121.874 45.2431 121.955 44.0609 121.804Z" fill="#FF2E63"/>
<path d="M34.6606 121.248C34.6722 121.143 34.6722 121.027 34.6954 120.923C35.02 119.774 35.7734 119.16 36.6774 119.276C37.6974 119.415 38.3233 120.285 38.277 121.503C37.0715 121.433 35.8545 121.595 34.6606 121.248Z" fill="#FF2E63"/>
<path d="M61.9109 125.226C61.2734 126.305 60.7171 126.641 59.8594 126.467C58.6307 126.212 58.0164 125.539 57.9121 124.345C59.2914 124.461 60.6128 124.786 61.9109 125.226Z" fill="#FF2E63"/>
<path d="M58.4102 122.918C59.7083 121.654 61.4469 122.025 62.1192 123.695C60.8558 123.545 59.6504 123.173 58.4102 122.918Z" fill="#FF2E63"/>
<path d="M65.0288 130.724C63.8697 130.747 63.012 129.842 63.012 128.613C63.012 127.511 63.9856 126.629 65.2026 126.618C66.2458 126.606 67.1615 127.615 67.2078 128.833C67.2426 129.796 66.1878 130.701 65.0288 130.724Z" fill="#FF2E63"/>
<path d="M57.541 129.413C57.5526 130.492 56.7876 131.315 55.7445 131.35C54.6317 131.385 53.7393 130.457 53.7277 129.239C53.7161 128.184 54.539 127.441 55.7329 127.418C56.834 127.395 57.5294 128.172 57.541 129.413Z" fill="#FF2E63"/>
<path d="M69.9201 131.571C71.0096 131.571 71.8326 132.29 71.821 133.253C71.8094 134.355 71.0096 135.259 70.036 135.248C69.1087 135.236 68.054 134.285 68.0887 133.496C68.1467 132.336 68.8653 131.571 69.9201 131.571Z" fill="#FF2E63"/>
<path d="M48.0134 129.982C48.0366 130.828 47.1557 131.733 46.2632 131.78C45.3011 131.826 44.4434 131.002 44.4202 130.005C44.397 128.996 45.1041 128.277 46.1241 128.253C47.202 128.253 47.9902 128.961 48.0134 129.982Z" fill="#FF2E63"/>
<path d="M42.9944 125.331C42.9944 126.34 42.2873 127.105 41.3253 127.128C40.3517 127.152 39.4592 126.235 39.4824 125.214C39.5056 124.333 40.3865 123.544 41.3253 123.556C42.3221 123.579 42.9944 124.287 42.9944 125.331Z" fill="#FF2E63"/>
<path d="M22.0846 118.185C21.366 118.173 20.9603 117.733 20.9719 117.002C20.9835 116.329 21.4819 115.854 22.1542 115.854C22.8033 115.854 23.3364 116.375 23.3596 117.013C23.3828 117.709 22.838 118.197 22.0846 118.185Z" fill="#FF2E63"/>
<path d="M17.1586 111.458C17.8077 111.481 18.3061 112.003 18.3061 112.664C18.2945 113.36 17.7613 113.824 16.9963 113.778C16.3356 113.743 15.8952 113.233 15.9184 112.537C15.9415 111.91 16.4863 111.435 17.1586 111.458Z" fill="#FF2E63"/>
<path d="M11.9543 107.328C12.4643 107.305 12.9511 107.653 13.009 108.082C13.067 108.581 12.6381 109.126 12.1629 109.161C11.6413 109.196 11.1661 108.848 11.1197 108.407C11.0502 107.897 11.4791 107.351 11.9543 107.328Z" fill="#FF2E63"/>
<path d="M7.10942 103.269C7.57305 103.292 8.0135 103.675 7.93237 103.942C7.82805 104.267 7.7585 104.731 7.27169 104.649C6.92397 104.591 6.56465 104.417 6.6342 103.93C6.69215 103.582 6.81965 103.304 7.10942 103.269Z" fill="#FF2E63"/>
<path d="M2.61271 99.3828C2.51991 99.4872 2.41552 99.5916 2.25313 99.5104C2.11393 99.4408 2.00954 99.3248 2.09073 99.174C2.16033 99.0348 2.31112 98.9884 2.45031 99.0464C2.58951 99.1044 2.69391 99.2088 2.61271 99.3828Z" fill="#FF2E63"/>
<path d="M7.75884 113.522C7.59645 113.534 7.48046 113.441 7.44566 113.291C7.41086 113.128 7.51525 113.001 7.67765 113.024C7.82844 113.035 7.92123 113.163 7.94443 113.314C7.96763 113.465 7.87484 113.499 7.75884 113.522Z" fill="#FF2E63"/>
<path d="M40.7809 117.976C39.5175 117.976 38.7525 117.13 38.7989 115.784C38.8336 114.81 39.8652 113.94 41.0359 113.975C42.2877 114.009 42.8788 114.856 42.96 116.295C43.0063 117.234 41.9747 117.988 40.7809 117.976Z" fill="#FF2E63"/>
<path d="M29.7463 116.642C29.7463 115.668 30.4997 114.879 31.4269 114.868C32.3426 114.856 33.3046 115.807 33.2699 116.689C33.2351 117.721 32.4585 118.429 31.4037 118.406C30.3606 118.371 29.7347 117.721 29.7463 116.642Z" fill="#FF2E63"/>
<path d="M82.4999 83.8075C89.8283 83.8075 95.7692 77.8667 95.7692 70.5383C95.7692 63.2099 89.8283 57.269 82.4999 57.269C75.1715 57.269 69.2307 63.2099 69.2307 70.5383C69.2307 77.8667 75.1715 83.8075 82.4999 83.8075Z" stroke="white" stroke-width="3" stroke-linecap="round" stroke-linejoin="round"/>
<path d="M59.8362 104.508C62.2047 100.62 65.5335 97.4067 69.5026 95.1771C73.4717 92.9475 77.9476 91.7764 82.5 91.7764C87.0525 91.7764 91.5284 92.9475 95.4975 95.1771C99.4666 97.4067 102.795 100.62 105.164 104.508" stroke="white" stroke-width="3" stroke-linecap="round" stroke-linejoin="round"/>
<path d="M82.5 113C101.554 113 117 97.5538 117 78.5C117 59.4462 101.554 44 82.5 44C63.4462 44 48 59.4462 48 78.5C48 97.5538 63.4462 113 82.5 113Z" stroke="white" stroke-width="3" stroke-linecap="round" stroke-linejoin="round"/>
</svg>
