<svg width="164" height="161" viewBox="0 0 164 161" fill="none" xmlns="http://www.w3.org/2000/svg">
<path d="M1.30302 84.7102C2.12596 81.7988 3.42413 79.0962 5.05843 76.556C5.37139 75.4773 6.13639 74.7118 6.8782 73.923C7.72432 73.0067 8.57044 72.0904 9.42815 71.1857C11.2363 69.7358 12.8243 67.8915 15.409 67.8219C15.5481 67.8219 15.6756 67.7175 15.8147 67.6595C17.6808 66.8824 19.5933 66.2676 21.5289 65.6993C25.748 64.4698 30.0481 63.5187 34.0702 61.6744C38.5094 59.6446 41.7549 56.5592 42.5198 51.502C42.9603 48.579 42.3807 45.7488 41.5694 42.9419C40.6769 39.8449 39.4599 36.8407 38.7297 33.6974C38.6137 33.2102 38.3935 32.7115 38.6717 32.2011C40.0974 31.076 41.7664 30.3917 43.4007 29.6841C53.0095 25.6012 63.0587 22.9102 73.1311 20.3352C78.9613 18.8506 84.8726 17.7602 90.8766 17.3427C92.8007 17.2035 94.7247 16.8439 96.672 17.1339C97.1588 17.3195 97.379 17.7602 97.634 18.1546C98.7004 19.8133 99.8131 21.4488 100.717 23.2002C103.395 28.3502 107.15 32.4795 112.134 35.472C115.171 37.4091 118.405 38.975 121.662 40.4829C123.18 41.1904 124.838 41.6196 126.217 42.6403C126.46 43.0811 126.391 43.5682 126.391 44.0438C126.426 46.4912 126.194 48.9386 126.391 51.386C126.669 54.9469 127.469 58.3223 129.451 61.3612C131.352 64.2726 133.902 66.5112 136.695 68.4947C140.23 71.0001 144.055 73.0531 147.706 75.3613C152.122 78.1567 156.086 81.4277 158.741 86.0325C159.088 86.6357 159.517 87.204 159.506 87.9463C159.054 92.5744 157.64 96.8892 155.113 100.798C151.693 106.087 147.208 110.077 141.03 111.864C139.975 112.165 138.886 112.328 138.422 113.546C138.329 113.801 138.028 113.975 137.761 114.102C136.973 114.334 136.081 114.369 135.617 113.708C134.771 112.502 133.542 112.652 132.383 112.502C131.804 112.432 131.213 112.525 130.633 112.397C130.053 112.27 129.706 112.455 129.358 112.954C128.408 114.311 126.414 114.311 125.579 112.861C125.058 111.956 124.455 111.736 123.539 111.806C123.029 111.852 122.508 111.84 121.998 111.806C121.221 111.748 120.711 112.038 120.259 112.687C119.413 113.905 118.022 114.207 116.805 113.372C115.982 112.803 115.287 112.85 114.487 113.314C115.692 114.473 115.924 115.645 115.229 116.932C114.696 117.93 113.838 118.336 112.76 118.092C112.099 117.942 111.52 117.628 111.056 117.141C110.488 116.561 110.685 115.784 110.639 114.995C105.979 117.57 102.131 121.004 98.4106 124.576C97.1704 125.33 95.6288 125.655 94.8522 127.024C94.9797 127 95.1536 126.989 95.3159 127.116C95.4318 127.511 95.1768 127.754 94.9334 127.952C92.6964 129.877 90.7027 132.058 88.4425 133.96C87.8398 134.459 87.3066 135.085 86.5069 135.305L86.4953 135.317C86.4026 135.363 86.333 135.445 86.2403 135.503C86.1823 135.537 86.1128 135.572 86.0548 135.619C83.018 138.008 79.8422 140.165 76.2606 141.65C75.9361 141.789 75.7274 142.01 75.5768 142.311C75.1827 143.042 74.4988 143.239 73.7918 142.996C73.247 142.822 72.795 142.926 72.3082 143.065C69.3061 143.924 66.2578 144.515 63.1283 144.562C62.2474 144.573 61.378 144.562 60.4971 144.562C60.4624 145.014 60.5783 145.385 60.3812 145.733C60.161 146.116 59.7901 146.232 59.2453 146.058C58.8512 145.93 58.8976 145.698 58.9672 145.373C59.1294 144.62 59.1062 144.585 58.3413 144.573C57.159 144.562 56.0115 144.388 54.8409 144.248C54.8756 143.912 55.1538 143.854 55.3972 143.819C57.2401 143.576 59.0599 143.193 60.926 143.17C60.9724 143.17 60.984 143.181 60.984 143.204C60.9724 143.158 60.9144 143.1 60.7174 143.1C59.9524 143.239 58.944 143.251 57.9356 143.146C56.7302 143.019 55.5131 143.019 54.3077 143.158C52.2213 143.402 50.135 143.332 48.0487 143.239C31.7752 138.716 18.3762 129.854 7.95612 116.55C7.80544 116.318 7.62 116.109 7.45773 115.889C6.79706 114.566 6.36819 113.163 6.09001 111.724C5.69592 109.648 4.40935 107.955 3.88776 106.041C4.18912 107.41 4.90774 108.778 4.44411 110.333C4.35139 110.217 4.24708 110.112 4.17754 109.985C1.75507 105.391 0.306212 100.508 0.0396238 95.3002C-0.145829 91.7392 0.329393 88.1899 1.30302 84.7102Z" fill="#FF2E63"/>
<path d="M79.4713 18.1663C71.972 19.6045 64.6466 21.704 57.356 23.9078C51.1434 25.7869 44.9771 27.7819 39.2049 30.8093C38.9499 30.9485 38.6717 31.076 38.3703 30.8905C38.1849 28.3271 38.069 25.7637 38.6717 23.2467C40.8855 14.0022 46.5882 7.66908 55.0611 3.6558C57.3213 2.58868 59.7437 1.96233 62.1546 1.37078C66.9532 0.187669 71.7866 -0.461887 76.7242 0.384847C81.9517 1.27798 86.2635 3.80659 89.8102 7.68069C92.14 10.2325 94.0525 13.1091 95.9302 15.9856C95.6404 16.3568 95.2115 16.3104 94.8175 16.3104C89.648 16.4728 84.548 17.2035 79.4713 18.1663Z" fill="#FF2E63"/>
<path d="M158.509 84.0491C157.744 83.0631 157.025 82.054 156.179 81.1377C153.328 78.0755 149.955 75.7093 146.385 73.5751C142.49 71.2437 138.526 69.0167 134.968 66.1517C131.004 62.9619 128.338 58.9718 127.515 53.8566C127.005 50.6553 127.179 47.4307 127.179 44.2062C127.179 43.835 127.26 43.4754 127.619 43.2551C127.955 43.1507 128.28 43.2667 128.581 43.3827C133.218 45.3081 137.935 47.048 142.455 49.2518C146.767 51.3512 150.036 54.4714 152.528 58.4731C153.142 59.4474 153.907 60.3869 154.046 61.6048C154.069 61.7092 154.081 61.8252 154.127 61.918C156.179 66.0705 157.535 70.4549 158.37 75.0018C158.949 78.2031 159.39 81.4161 159.308 84.687C158.856 84.7102 158.717 84.3158 158.509 84.0491Z" fill="#FF2E63"/>
<path d="M127.063 33.8716C127.503 36.5278 127.7 39.2072 127.607 41.9097C127.584 42.3853 127.631 42.8493 127.642 43.3248C132.823 45.4127 138.085 47.3381 143.081 49.8899C147.3 52.0474 150.36 55.3299 152.736 59.3432C153.188 60.0971 153.617 60.8511 154.058 61.6166C154.579 60.4335 154.753 59.1692 154.973 57.9165C155.205 56.6058 155.205 55.2951 155.17 53.9844C155.101 51.2934 154.51 48.73 153.455 46.2362C152.47 43.8816 151.09 41.7822 149.398 39.9147C147.787 38.14 145.805 36.8062 143.568 35.9014C141.737 35.1591 139.801 34.8111 137.854 34.4979C134.724 33.9992 131.583 34.1036 128.454 34.0804C127.978 34.0688 127.492 34.1616 127.063 33.8716Z" fill="#08D9D6"/>
<path d="M159.32 84.6989C157.825 82.4719 156.098 80.4305 154.081 78.6674C151.786 76.6608 149.248 74.9905 146.651 73.4014C143.8 71.6732 140.902 70.0377 138.144 68.147C135.628 66.4188 133.241 64.5513 131.363 62.1039C129.161 59.2389 127.967 56.0144 127.619 52.4071C127.353 49.6581 127.515 46.9207 127.469 44.1717C127.469 43.8701 127.503 43.5917 127.642 43.325C127.967 43.0234 127.979 42.6174 128.002 42.2115C128.094 39.996 127.921 37.7922 127.677 35.5884C127.608 34.9736 127.457 34.3705 127.063 33.8717C126.228 29.9628 124.385 26.6107 121.465 23.8733C119.158 21.7159 116.492 20.1384 113.583 18.9437C109.793 17.401 105.829 16.5659 101.76 16.1947C99.8245 16.0207 97.8773 16.0787 95.9416 15.9975C93.2641 15.9859 90.5983 16.2063 87.944 16.5195C84.2813 16.937 80.6418 17.575 77.0255 18.3521C70.2217 19.8136 63.5454 21.7391 56.8807 23.7341C52.4298 25.068 48.0137 26.5295 43.7251 28.3505C41.9054 29.1277 40.1088 29.9628 38.3702 30.9023C37.3966 31.4475 36.4113 31.9927 35.4377 32.5378C32.7834 33.6397 30.6739 35.5304 28.5644 37.3862C22.5719 42.6754 18.1559 49.1593 14.3889 56.142C11.5259 61.4544 9.13824 66.9523 7.21417 72.6707C7.06349 73.1346 6.71578 73.5986 7.02873 74.1322C7.82849 73.2506 8.62825 72.3691 9.42801 71.4992C10.5175 69.7825 11.0044 67.8107 11.8157 65.9664C15.0611 58.6822 18.6774 51.6299 23.6847 45.3664C27.4633 40.6224 31.8793 36.6207 37.1184 33.5353C37.6747 33.2106 38.3238 32.9786 38.6947 32.3754C41.4997 30.7747 44.4438 29.4756 47.469 28.3505C54.7712 25.6247 62.2704 23.5253 69.7928 21.5187C73.3975 20.5559 77.0255 19.7208 80.6881 19.0365C83.7829 18.4681 86.8776 18.0042 90.0187 17.7374C91.9544 17.575 93.8784 17.4938 95.8141 17.3778C96.1734 17.3546 96.5443 17.4126 96.9036 17.4358C98.1902 17.7722 99.5116 17.7606 100.821 17.8418C106.651 18.2245 112.18 19.5816 117.176 22.7018C121.36 25.3116 124.212 28.9421 125.289 33.8369C125.776 36.1915 125.834 38.5809 125.799 40.9819C125.788 41.5503 125.707 42.1535 126.124 42.6522C126.101 44.4849 126.136 46.3059 125.997 48.1386C125.892 49.5189 126.031 50.9224 126.182 52.3027C126.379 54.1585 126.75 55.9796 127.364 57.7542C128.199 60.1553 129.532 62.2315 131.212 64.1105C133.774 66.9871 136.938 69.1214 140.184 71.128C143.174 72.9723 146.257 74.6889 149.166 76.6608C152.528 78.9342 155.565 81.5556 157.802 85.0121C158.393 85.9284 159.007 86.8448 159.366 87.9003C159.633 89.5358 160.479 90.9857 160.85 92.5979C162.438 99.4182 161.777 105.832 157.523 111.62C156.48 113.036 155.147 114.103 153.629 114.949C148.251 117.919 142.386 119.264 136.359 120.065C133.855 120.447 131.363 120.865 128.836 120.981C127.55 121.259 126.228 121.097 124.93 121.271C123.041 121.352 121.163 121.433 119.274 121.584C118.126 121.549 116.979 121.549 115.843 121.584C113.513 121.491 111.195 121.688 108.889 122.025C108.634 122.013 108.379 122.06 108.135 122.106C107.08 122.361 105.979 122.361 104.936 122.651C103.719 122.872 102.502 123.173 101.297 123.428C100.253 123.799 99.0943 123.857 98.1786 124.588C98.1207 124.623 98.0627 124.693 97.9932 124.704C96.2546 124.983 95.1882 126.224 94.0175 127.488C94.5507 127.604 94.8753 127.175 95.2809 127.186C95.7098 127.384 96.0575 127.128 96.4284 127.001C98.1207 126.409 99.8245 125.864 101.563 125.435C102.873 125.075 104.206 124.774 105.55 124.553C107.44 124.171 109.364 124.008 111.265 123.753C112.25 123.753 113.235 123.834 114.209 123.567C116.156 123.544 118.092 123.625 120.027 123.544C124.953 123.336 129.891 123.127 134.782 122.373C135.756 122.118 136.845 122.315 137.738 121.677C139.848 121.224 141.98 120.9 144.078 120.355C146.953 119.612 149.758 118.684 152.481 117.478C157.013 115.46 160.12 112.096 161.789 107.468C164.547 99.8241 163.632 92.4935 159.737 85.4529C159.575 85.2093 159.448 84.9541 159.32 84.6989Z" fill="#252A34"/>
<path d="M7.02885 74.1433C7.86339 71.2203 8.98768 68.4017 10.1699 65.6064C12.5461 60.004 15.2931 54.5872 18.6428 49.4952C20.8566 46.1199 23.3255 42.9417 26.142 40.0536C28.7616 37.3742 31.6477 35.008 34.8119 33.0013C35.0206 32.8621 35.2176 32.6997 35.4263 32.5605C32.517 33.1405 29.712 34.0684 26.9534 35.1587C22.9893 36.7246 19.3035 38.8009 15.8726 41.3527C12.917 43.5565 10.622 46.3055 8.89497 49.5416C7.35339 52.4298 6.14794 55.4456 5.4409 58.6469C5.04681 60.4216 4.79183 62.2194 4.58319 64.0405C4.35138 65.9775 4.42092 67.9146 4.42092 69.8516C4.42092 71.7075 4.6875 73.5517 4.98886 75.3844C5.05841 75.7788 5.03522 76.1847 5.0584 76.5907C5.74226 75.7672 6.26386 74.8508 7.02885 74.1433Z" fill="#08D9D6"/>
<path d="M111.195 123.509C109.271 123.683 107.335 123.834 105.458 124.345C105.029 124.774 104.994 125.446 104.403 125.794C103.453 126.351 102.803 126.34 101.992 125.586C101.83 125.435 101.679 125.284 101.47 125.226C99.3378 125.678 97.2862 126.374 95.2694 127.21C94.0988 128.358 92.9397 129.529 91.7342 130.643C90.0188 132.232 88.2686 133.786 86.53 135.341C87.0979 135.515 87.6659 135.55 88.257 135.55C90.7142 135.538 93.1599 135.503 95.6171 135.561C97.5992 135.608 99.5464 135.248 101.517 135.294C101.621 134.9 101.378 134.598 101.262 134.262C101.03 133.589 101.262 133.032 101.76 132.615C102.235 132.209 102.792 132.093 103.371 132.418C103.974 132.754 104.241 133.264 104.206 133.949C104.194 134.343 103.916 134.703 104.102 135.109C105.237 135.132 106.35 134.9 107.463 134.761C108.182 134.668 108.923 134.738 109.63 134.482C110.187 134.285 110.233 134.865 110.488 135.132C110.789 134.912 110.755 134.552 110.859 134.25C111.23 133.044 111.763 132.812 112.887 133.346C113.212 133.496 113.467 133.798 113.849 133.821C116.295 133.241 118.764 132.708 121.14 131.849C122.38 131.409 123.597 130.91 124.745 130.341C125.185 130.504 124.895 131.014 125.232 131.165C125.324 131.107 125.429 131.014 125.429 130.921C125.405 129.692 126.124 129.239 127.225 129.193C128.083 128.613 128.941 128.033 129.81 127.465C130.03 127.326 130.239 127.198 130.32 126.931C130.413 126.769 130.39 126.583 130.413 126.409C130.61 124.971 130.818 124.82 132.198 125.098C132.383 125.133 132.557 125.156 132.696 125.006C133.67 124.368 134.307 123.451 134.945 122.512C135.049 122.384 135.061 122.257 134.921 122.141C133.067 122.315 131.224 122.489 129.37 122.651C127.921 122.779 126.46 122.906 125.011 122.999C121.546 123.208 118.08 123.277 114.614 123.277C114.429 123.277 114.255 123.312 114.07 123.335C113.965 123.741 114.313 124.008 114.394 124.345C114.591 125.156 114.429 125.887 113.757 126.409C113.131 126.896 112.424 126.746 111.809 126.363C111.149 125.957 110.905 125.354 111.114 124.576C111.207 124.217 111.415 123.869 111.195 123.509Z" fill="#08D9D6"/>
<path d="M7.70112 115.9C7.06363 114.415 6.58842 112.872 6.26388 111.307C5.8582 109.3 4.61799 107.664 3.87618 105.809C3.78345 107.374 4.39775 108.836 4.44412 110.379C5.02366 112.234 5.55683 114.09 6.18273 115.923C8.45453 122.569 11.9781 128.462 16.8579 133.53C19.941 136.72 23.6616 138.936 27.7416 140.583C31.9375 142.276 36.284 143.378 40.758 144.016C40.9319 144.144 41.1174 144.236 41.3376 144.132C42.7864 144.236 44.2353 144.318 45.6841 144.434C47.7936 144.596 49.8916 144.596 52.0011 144.434C52.94 144.364 53.8904 144.329 54.8409 144.283C56.5215 144.016 58.2138 143.749 59.8944 143.471C60.3928 143.39 60.8796 143.274 61.3665 143.111C58.7238 143.1 56.1274 142.566 53.4615 142.96C51.6302 143.227 49.7409 143.134 47.8864 143.042C43.8992 142.624 39.8771 142.381 35.971 141.406C30.6045 140.061 25.4119 138.309 20.9726 134.876C17.0085 131.802 14.0413 127.882 11.5029 123.578C10.1584 121.293 9.21953 118.834 8.03727 116.48C7.93295 116.283 7.80544 116.097 7.70112 115.9Z" fill="#252A34"/>
<path d="M104.09 135.097C104.229 134.76 104.403 134.424 104.484 134.076C104.693 133.241 104.159 132.394 103.244 132.034C102.548 131.756 101.598 132.15 101.169 132.788C100.532 133.751 100.984 134.517 101.505 135.294C102.409 135.642 103.279 135.665 104.09 135.097Z" fill="#FF2E63"/>
<path d="M86.5413 137.776C86.5298 138.785 87.3295 139.539 88.3843 139.528C89.3579 139.516 90.0649 138.785 90.0765 137.765C90.0881 136.755 89.2999 135.978 88.28 135.99C87.3527 136.013 86.5413 136.848 86.5413 137.776Z" fill="#FF2E63"/>
<path d="M95.8488 138.182C95.8372 139.076 96.6833 139.922 97.6106 139.946C98.5494 139.969 99.4651 139.076 99.4535 138.136C99.4419 137.173 98.7001 136.477 97.6917 136.396C96.834 136.327 95.9415 137.069 95.8488 138.182Z" fill="#FF2E63"/>
<path d="M113.838 133.798C113.455 133.067 112.725 132.916 112.03 132.742C111.427 132.592 111.079 132.974 110.824 133.438C110.535 133.96 110.477 134.529 110.477 135.12C111.126 135.839 111.983 136.303 112.876 135.944C113.722 135.607 113.78 134.633 113.838 133.798Z" fill="#FF2E63"/>
<path d="M83.7828 140.432C83.041 140.397 82.021 141.163 81.9631 141.778C81.8935 142.555 82.6817 143.622 83.3539 143.657C84.1653 143.703 85.1389 142.915 85.1621 142.207C85.1621 141.418 84.4319 140.467 83.7828 140.432Z" fill="#FF2E63"/>
<path d="M108.692 138.844C108.564 137.858 107.88 137.197 107.069 137.278C106.13 137.371 105.411 138.066 105.516 138.774C105.678 139.818 106.35 140.479 107.127 140.363C108.054 140.236 108.773 139.54 108.692 138.844Z" fill="#FF2E63"/>
<path d="M93.0673 144.156C93.925 144.133 94.4582 143.541 94.4466 142.66C94.435 141.743 93.8439 141.21 92.8818 141.256C92.0357 141.303 91.5141 141.894 91.5489 142.799C91.5837 143.646 92.1748 144.179 93.0673 144.156Z" fill="#FF2E63"/>
<path d="M103.754 142.972C103.777 142.207 103.221 141.719 102.293 141.696C101.436 141.661 100.821 142.323 100.844 143.239C100.856 143.888 101.575 144.48 102.386 144.526C103.105 144.573 103.742 143.854 103.754 142.972Z" fill="#FF2E63"/>
<path d="M132.696 124.993C132.325 124.854 131.954 124.692 131.583 124.587C131.12 124.46 130.714 124.587 130.505 125.075C130.25 125.666 129.891 126.258 130.308 126.919C130.505 127 130.714 127.07 130.911 127.162C132.198 127.766 132.65 127.186 132.928 125.921C133.009 125.573 132.881 125.272 132.696 124.993Z" fill="#FF2E63"/>
<path d="M122.844 134.575C122.832 133.925 122.137 133.38 121.291 133.368C120.665 133.357 119.992 134.25 120.039 135.039C120.074 135.607 120.92 136.199 121.696 136.199C122.299 136.187 122.844 135.421 122.844 134.575Z" fill="#FF2E63"/>
<path d="M127.214 129.182C127.075 129.147 126.935 129.112 126.785 129.089C125.823 128.868 125.336 129.193 125.232 130.179C125.197 130.504 125.22 130.829 125.22 131.165C125.44 131.293 125.637 131.455 125.869 131.548C126.831 131.942 127.214 131.861 127.573 131.246C128.071 130.365 127.979 129.82 127.214 129.182Z" fill="#FF2E63"/>
<path d="M115.171 139.168C115.148 139.678 115.866 140.769 116.272 140.804C116.805 140.85 117.86 140.142 117.895 139.713C117.941 139.122 117.28 138.124 116.817 138.101C116.26 138.066 115.182 138.762 115.171 139.168Z" fill="#FF2E63"/>
<path d="M68.0194 146.07C68.031 146.743 68.5062 147.23 69.19 147.242C69.8275 147.253 70.3955 146.731 70.4071 146.105C70.4187 145.444 69.8043 144.817 69.1669 144.84C68.5409 144.875 68.0078 145.432 68.0194 146.07Z" fill="#FF2E63"/>
<path d="M78.5325 145.246C77.9181 145.223 77.3502 145.768 77.3038 146.395C77.2691 147.009 77.7906 147.601 78.4281 147.647C79.0772 147.694 79.6915 147.114 79.7031 146.441C79.7031 145.838 79.1584 145.27 78.5325 145.246Z" fill="#FF2E63"/>
<path d="M88.0133 148.284C88.6276 148.273 89.1608 147.705 89.1492 147.067C89.1376 146.44 88.5929 145.907 87.9554 145.895C87.3179 145.895 86.7499 146.44 86.7615 147.055C86.7615 147.728 87.3295 148.296 88.0133 148.284Z" fill="#FF2E63"/>
<path d="M112.934 143.714C112.934 142.995 112.517 142.578 111.786 142.566C111.102 142.554 110.511 143.134 110.535 143.796C110.558 144.387 111.16 144.932 111.786 144.921C112.435 144.909 112.934 144.376 112.934 143.714Z" fill="#FF2E63"/>
<path d="M97.2399 146.313C96.5908 146.324 96.046 146.869 96.0692 147.484C96.0924 148.122 96.6255 148.598 97.3094 148.598C98.0512 148.598 98.4337 148.203 98.4221 147.438C98.3989 146.707 97.9701 146.301 97.2399 146.313Z" fill="#FF2E63"/>
<path d="M91.3863 152.054C91.4095 152.565 91.8963 153.11 92.3136 153.098C92.8816 153.075 93.3452 152.634 93.3104 152.159C93.2641 151.602 92.8236 151.15 92.3368 151.184C91.8384 151.231 91.3748 151.66 91.3863 152.054Z" fill="#FF2E63"/>
<path d="M82.9482 150.535C82.415 150.546 81.9166 151.022 81.9514 151.474C81.9978 151.996 82.4962 152.495 82.9366 152.449C83.4466 152.402 83.8639 151.996 83.8523 151.556C83.8523 151.01 83.4119 150.523 82.9482 150.535Z" fill="#FF2E63"/>
<path d="M129.926 135.352C129.937 135.851 130.436 136.407 130.865 136.384C131.398 136.373 131.873 135.897 131.838 135.421C131.804 134.911 131.409 134.459 130.981 134.459C130.471 134.447 129.926 134.911 129.926 135.352Z" fill="#FF2E63"/>
<path d="M124.895 139.725C124.861 140.212 125.359 140.803 125.811 140.792C126.286 140.792 126.773 140.363 126.796 139.933C126.819 139.423 126.46 138.924 126.031 138.878C125.544 138.808 124.93 139.284 124.895 139.725Z" fill="#FF2E63"/>
<path d="M105.771 148.018C105.747 148.552 106.199 149.085 106.652 149.074C107.115 149.062 107.614 148.633 107.637 148.238C107.66 147.693 107.254 147.206 106.756 147.206C106.257 147.206 105.794 147.577 105.771 148.018Z" fill="#FF2E63"/>
<path d="M134.921 122.129C134.933 122.256 134.933 122.384 134.945 122.5C135.269 122.651 135.594 122.836 135.93 122.952C136.788 123.254 137.124 123.103 137.495 122.303C137.587 122.106 137.634 121.897 137.715 121.688C136.776 121.769 135.826 121.85 134.921 122.129Z" fill="#FF2E63"/>
<path d="M140.821 125.62C140.369 125.608 140.01 125.979 140.033 126.443C140.056 126.989 140.52 127.035 140.891 127.128C141.296 127.221 141.714 126.71 141.725 126.177C141.737 125.84 141.389 125.631 140.821 125.62Z" fill="#FF2E63"/>
<path d="M121.279 144.886C121.581 144.863 121.928 144.364 121.905 143.982C121.882 143.657 121.302 143.263 120.908 143.309C120.595 143.344 120.178 143.947 120.201 144.318C120.224 144.562 120.874 144.91 121.279 144.886Z" fill="#FF2E63"/>
<path d="M101.505 151.683C101.204 151.706 100.844 152.298 100.891 152.704C100.914 153.005 101.505 153.4 101.888 153.365C102.177 153.342 102.49 152.785 102.49 152.333C102.479 152.008 101.934 151.648 101.505 151.683Z" fill="#FF2E63"/>
<path d="M136.335 131.907C136.834 130.828 136.822 130.55 136.301 130.318C135.779 130.086 135.385 130.271 135.211 130.84C135.026 131.443 135.234 131.64 136.335 131.907Z" fill="#FF2E63"/>
<path d="M73.4902 151.857C74.035 151.892 74.3132 151.637 74.3827 151.08C74.4291 150.663 74.0697 150.326 73.5482 150.315C73.1773 150.303 72.7948 150.779 72.7832 151.335C72.7484 151.881 73.2468 151.741 73.4902 151.857Z" fill="#FF2E63"/>
<path d="M116.005 149.166C116.411 149.132 116.724 148.807 116.666 148.459C116.596 148.111 116.434 147.821 116.028 147.867C115.692 147.902 115.379 148.018 115.368 148.436C115.345 148.807 115.715 149.19 116.005 149.166Z" fill="#FF2E63"/>
<path d="M145.55 122.767C145.933 122.756 146.373 122.373 146.303 122.094C146.222 121.781 146.13 121.445 145.689 121.445C145.295 121.456 144.924 121.781 144.994 122.106C145.063 122.419 145.168 122.744 145.55 122.767Z" fill="#FF2E63"/>
<path d="M110.557 153.203C110.65 153.586 110.928 153.772 111.253 153.783C111.647 153.795 111.624 153.389 111.67 153.134C111.728 152.774 111.45 152.588 111.16 152.577C110.754 152.554 110.638 152.89 110.557 153.203Z" fill="#FF2E63"/>
<path d="M63.6488 150.547C63.6372 150.964 63.962 151.057 64.2404 151.092C64.6464 151.15 64.6812 150.79 64.7044 150.5C64.7392 150.118 64.426 149.978 64.1476 149.955C63.7532 149.92 63.7532 150.315 63.6488 150.547Z" fill="#FF2E63"/>
<path d="M77.8018 155.372C77.4422 155.407 77.2798 155.639 77.2682 155.952C77.2566 156.335 77.5582 156.439 77.8598 156.428C78.2309 156.416 78.3237 156.114 78.3237 155.813C78.3237 155.5 78.0801 155.418 77.8018 155.372Z" fill="#FF2E63"/>
<path d="M87.2944 156.021C86.9232 156.056 86.7609 156.288 86.7377 156.59C86.7145 156.961 87.0276 157.054 87.3176 157.089C87.6772 157.123 87.828 156.868 87.8396 156.555C87.8396 156.195 87.5728 156.079 87.2944 156.021Z" fill="#FF2E63"/>
<path d="M96.0916 157.008C96.138 157.205 96.2308 157.344 96.4512 157.332C96.7644 157.309 97.0312 157.17 97.0544 156.834C97.0776 156.567 96.834 156.497 96.6136 156.474C96.2192 156.428 96.1612 156.729 96.0916 157.008Z" fill="#FF2E63"/>
<path d="M41.3489 144.133C41.1633 144.04 40.9894 143.924 40.769 144.017C40.7574 144.051 40.7458 144.086 40.7458 144.121C40.7342 144.411 40.653 144.771 41.0937 144.747C41.4533 144.724 41.3373 144.376 41.3489 144.133Z" fill="#FF2E63"/>
<path d="M130.308 144.7C130.343 144.909 130.47 144.99 130.609 144.944C130.795 144.897 130.923 144.758 130.853 144.549C130.83 144.48 130.691 144.398 130.609 144.398C130.412 144.41 130.296 144.526 130.308 144.7Z" fill="#FF2E63"/>
<path d="M54.4923 150.164C54.5155 150.327 54.6199 150.431 54.7707 150.431C54.9447 150.431 55.0143 150.304 55.0259 150.153C55.0375 149.99 54.9447 149.874 54.7823 149.886C54.6315 149.898 54.5387 150.014 54.4923 150.164Z" fill="#FF2E63"/>
<path d="M134.991 140.514C134.979 140.676 135.06 140.757 135.176 140.757C135.397 140.769 135.501 140.63 135.524 140.432C135.547 140.305 135.455 140.224 135.339 140.212C135.118 140.2 135.049 140.363 134.991 140.514Z" fill="#FF2E63"/>
<path d="M68.3203 155.511C68.2971 155.685 68.3783 155.789 68.5523 155.801C68.7031 155.812 68.8423 155.777 68.8423 155.58C68.8423 155.43 68.7727 155.29 68.6103 155.267C68.4479 155.244 68.3551 155.36 68.3203 155.511Z" fill="#FF2E63"/>
<path d="M72.9104 160.441C72.9104 160.603 72.98 160.719 73.1424 160.731C73.2932 160.743 73.4092 160.65 73.444 160.487C73.4788 160.325 73.3976 160.209 73.2236 160.209C73.0728 160.209 72.9568 160.279 72.9104 160.441Z" fill="#FF2E63"/>
<path d="M140.01 135.781C139.998 135.966 140.056 136.071 140.207 136.117C140.346 136.164 140.381 136.048 140.416 135.955C140.474 135.804 140.427 135.653 140.288 135.607C140.16 135.56 140.033 135.653 140.01 135.781Z" fill="#FF2E63"/>
<path d="M145.074 131.385C145.109 131.559 145.237 131.605 145.376 131.582C145.538 131.559 145.62 131.431 145.585 131.292C145.573 131.234 145.422 131.165 145.33 131.165C145.202 131.165 145.074 131.211 145.074 131.385Z" fill="#FF2E63"/>
<path d="M58.8162 154.978C58.851 155.094 58.9437 155.14 59.0481 155.128C59.1989 155.105 59.3149 155.001 59.3149 154.85C59.3149 154.676 59.1873 154.595 59.025 154.653C58.8858 154.688 58.8046 154.804 58.8162 154.978Z" fill="#FF2E63"/>
<path d="M125.266 149.225C125.312 149.364 125.405 149.48 125.556 149.468C125.614 149.457 125.695 149.317 125.695 149.236C125.695 149.085 125.591 148.981 125.428 149.004C125.324 149.016 125.266 149.109 125.266 149.225Z" fill="#FF2E63"/>
<path d="M50.1115 145.095C50.1231 145.211 50.2042 145.246 50.3202 145.258C50.471 145.258 50.5986 145.211 50.5986 145.026C50.5986 144.91 50.5406 144.817 50.413 144.829C50.2506 144.852 50.1463 144.921 50.1115 145.095Z" fill="#FF2E63"/>
<path d="M150.128 126.978C150.151 127.094 150.209 127.163 150.325 127.163C150.488 127.163 150.592 127.082 150.604 126.92C150.615 126.792 150.511 126.757 150.407 126.757C150.267 126.769 150.14 126.792 150.128 126.978Z" fill="#FF2E63"/>
<path d="M86.5181 135.352C86.3905 135.364 86.3209 135.433 86.2629 135.538C86.3441 135.48 86.4369 135.422 86.5181 135.352Z" fill="#08D9D6"/>
<path d="M38.7062 32.3755C35.3913 34.069 32.3893 36.2148 29.6191 38.6854C24.4728 43.267 20.4855 48.765 17.101 54.7269C14.1801 59.8653 11.6997 65.2125 9.64816 70.7569C9.55543 71.0005 9.50907 71.2441 9.45112 71.4992C10.5986 70.5945 11.6881 69.6202 12.9399 68.843C13.5195 68.4835 14.0527 67.9963 14.8524 68.2747C15.0495 68.3443 15.3508 68.1819 15.5826 68.0775C18.7817 66.6856 22.1546 65.8389 25.4928 64.8994C28.4136 64.0758 31.3461 63.2639 34.1047 61.988C37.3386 60.5033 40.1087 58.4735 41.7199 55.1793C42.9948 52.5927 43.2035 49.8437 42.7978 47.0367C42.311 43.615 41.0824 40.3905 40.0276 37.1195C39.5176 35.5653 39.0772 33.9762 38.7062 32.3755Z" fill="#08D9D6"/>
<path d="M136.475 120.343C136.637 119.345 137.17 118.464 137.413 117.478C137.715 116.306 137.831 115.146 137.761 113.952C137.437 113.963 137.101 113.998 136.776 113.986C136.231 113.975 135.675 113.754 135.513 113.256C135.234 112.42 134.655 112.49 133.983 112.386C132.742 112.2 131.491 112.351 130.274 112.049C129.775 111.922 129.404 112.072 129.265 112.606C129.045 113.441 128.338 113.72 127.666 113.696C126.843 113.662 125.869 113.453 125.649 112.478C125.44 111.597 124.953 111.516 124.235 111.539C123.284 111.562 122.334 111.562 121.372 111.55C120.897 111.539 120.595 111.678 120.329 112.142C119.32 113.905 118.068 114.102 116.457 112.792C116.168 112.56 115.936 112.467 115.576 112.606C114.974 112.85 114.348 113.024 113.571 113.29C114.301 113.778 115.148 113.952 115.321 114.775C115.461 115.459 115.391 116.155 115.055 116.805C114.487 117.884 113.71 118.22 112.482 117.733C110.743 117.049 110.766 116.619 111.056 114.555C110.303 114.81 109.665 115.239 109.039 115.622C106.165 117.397 103.534 119.508 101.042 121.77C100.311 122.431 99.5696 123.092 98.8509 123.765C98.5844 124.008 98.2714 124.229 98.1555 124.6C99.2103 124.356 100.253 124.078 101.262 123.695C102.305 122.489 103.499 122.036 104.971 122.906C106.014 122.686 107.08 122.674 108.1 122.338C107.869 122.025 107.486 121.955 107.185 121.77C106.072 121.062 105.829 119.856 106.605 118.777C107.266 117.872 108.402 117.791 109.375 118.603C110.222 119.299 110.222 120.61 109.422 121.514C109.19 121.77 108.738 121.839 108.749 122.303C111.091 122.083 113.421 121.862 115.773 121.862C116.075 121.491 115.831 121.085 115.855 120.702C115.901 119.728 116.608 118.939 117.454 118.928C118.451 118.916 119.216 119.705 119.239 120.749C119.239 121.097 119.042 121.468 119.32 121.804C121.244 121.746 123.18 121.77 125.104 121.514C125.127 121.491 125.162 121.468 125.174 121.433C125.452 120.598 125.753 119.705 126.796 119.612C127.828 119.519 128.176 120.378 128.581 121.108C128.616 121.166 128.674 121.213 128.744 121.259C131.062 121.213 133.357 120.9 135.64 120.494C135.907 120.436 136.196 120.389 136.475 120.343Z" fill="#08D9D6"/>
<path d="M125.498 33.6167C125.324 34.2779 124.721 34.2895 124.258 34.2663C122.89 34.1967 121.557 34.4519 120.213 34.5447C118.868 34.6375 117.547 34.9158 116.214 35.0666C114.8 35.229 113.42 35.6002 111.995 35.6582C112.841 36.3774 113.838 36.8529 114.788 37.3749C118.439 39.3932 122.229 41.1447 126.112 42.6643C126.251 39.7992 126.217 36.9573 125.683 34.1271C125.649 33.9415 125.626 33.7559 125.498 33.6167Z" fill="#08D9D6"/>
<path d="M7.88629 116.399C7.96748 116.399 8.04869 116.399 8.12988 116.399C8.07189 116.167 7.89788 116.016 7.70069 115.9C7.68909 116.098 7.7007 116.283 7.88629 116.399Z" fill="#FF2E63"/>
<path d="M108.75 122.315C110.048 121.666 110.616 120.483 110.256 119.16C110.094 118.557 108.773 117.71 108.054 117.757C106.466 117.861 105.353 119.543 106.003 120.993C106.385 121.84 107.162 122.28 108.101 122.362C108.321 122.338 108.541 122.327 108.75 122.315Z" fill="#FF2E63"/>
<path d="M111.195 123.509C111.079 123.846 110.929 124.182 110.836 124.53C110.535 125.609 111.068 126.49 112.215 126.85C113.316 127.186 114.22 126.78 114.614 125.771C114.985 124.832 114.846 123.996 114.081 123.312C113.108 123.382 112.157 123.44 111.195 123.509Z" fill="#FF2E63"/>
<path d="M119.32 121.804C119.378 121.63 119.436 121.456 119.483 121.282C119.668 120.401 119.599 119.612 118.764 119.055C118.022 118.556 117.13 118.475 116.492 118.928C115.704 119.496 115.438 120.296 115.6 121.247C115.635 121.456 115.727 121.665 115.785 121.874C116.956 121.874 118.138 121.955 119.32 121.804Z" fill="#FF2E63"/>
<path d="M128.72 121.248C128.709 121.143 128.709 121.027 128.685 120.923C128.361 119.774 127.608 119.16 126.703 119.276C125.683 119.415 125.058 120.285 125.104 121.503C126.309 121.433 127.526 121.595 128.72 121.248Z" fill="#FF2E63"/>
<path d="M101.47 125.226C102.108 126.305 102.664 126.641 103.522 126.467C104.751 126.212 105.365 125.539 105.469 124.345C104.09 124.461 102.769 124.786 101.47 125.226Z" fill="#FF2E63"/>
<path d="M104.971 122.918C103.673 121.654 101.934 122.025 101.262 123.695C102.525 123.545 103.731 123.173 104.971 122.918Z" fill="#FF2E63"/>
<path d="M98.3523 130.724C99.5114 130.747 100.369 129.842 100.369 128.613C100.369 127.511 99.3955 126.629 98.1785 126.618C97.1353 126.606 96.2196 127.615 96.1733 128.833C96.1385 129.796 97.1933 130.701 98.3523 130.724Z" fill="#FF2E63"/>
<path d="M105.84 129.413C105.828 130.492 106.593 131.315 107.637 131.35C108.749 131.385 109.642 130.457 109.653 129.239C109.665 128.184 108.842 127.441 107.648 127.418C106.547 127.395 105.852 128.172 105.84 129.413Z" fill="#FF2E63"/>
<path d="M93.461 131.571C92.3715 131.571 91.5486 132.29 91.5601 133.253C91.5717 134.355 92.3715 135.259 93.3451 135.248C94.2724 135.236 95.3271 134.285 95.2924 133.496C95.2344 132.336 94.5158 131.571 93.461 131.571Z" fill="#FF2E63"/>
<path d="M115.368 129.982C115.345 130.828 116.225 131.733 117.118 131.78C118.08 131.826 118.938 131.002 118.961 130.005C118.984 128.996 118.277 128.277 117.257 128.253C116.179 128.253 115.391 128.961 115.368 129.982Z" fill="#FF2E63"/>
<path d="M120.387 125.331C120.387 126.34 121.094 127.105 122.056 127.128C123.029 127.152 123.922 126.235 123.899 125.214C123.876 124.333 122.995 123.544 122.056 123.556C121.059 123.579 120.387 124.287 120.387 125.331Z" fill="#FF2E63"/>
<path d="M141.296 118.185C142.015 118.173 142.421 117.733 142.409 117.002C142.398 116.329 141.899 115.854 141.227 115.854C140.578 115.854 140.045 116.375 140.021 117.013C139.998 117.709 140.543 118.197 141.296 118.185Z" fill="#FF2E63"/>
<path d="M146.222 111.458C145.573 111.481 145.075 112.003 145.075 112.664C145.086 113.36 145.62 113.824 146.385 113.778C147.045 113.743 147.486 113.233 147.463 112.537C147.439 111.91 146.895 111.435 146.222 111.458Z" fill="#FF2E63"/>
<path d="M151.427 107.328C150.917 107.305 150.43 107.653 150.372 108.082C150.314 108.581 150.743 109.126 151.218 109.161C151.74 109.196 152.215 108.848 152.261 108.407C152.331 107.897 151.902 107.351 151.427 107.328Z" fill="#FF2E63"/>
<path d="M156.272 103.269C155.808 103.292 155.368 103.675 155.449 103.942C155.553 104.267 155.623 104.731 156.109 104.649C156.457 104.591 156.816 104.417 156.747 103.93C156.689 103.582 156.561 103.304 156.272 103.269Z" fill="#FF2E63"/>
<path d="M160.768 99.3828C160.861 99.4872 160.966 99.5916 161.128 99.5104C161.267 99.4408 161.372 99.3248 161.29 99.174C161.221 99.0348 161.07 98.9884 160.931 99.0464C160.792 99.1044 160.687 99.2088 160.768 99.3828Z" fill="#FF2E63"/>
<path d="M155.622 113.522C155.785 113.534 155.901 113.441 155.935 113.291C155.97 113.128 155.866 113.001 155.703 113.024C155.553 113.035 155.46 113.163 155.437 113.314C155.413 113.465 155.506 113.499 155.622 113.522Z" fill="#FF2E63"/>
<path d="M122.6 117.976C123.864 117.976 124.629 117.13 124.582 115.784C124.548 114.81 123.516 113.94 122.345 113.975C121.094 114.009 120.503 114.856 120.421 116.295C120.375 117.234 121.407 117.988 122.6 117.976Z" fill="#FF2E63"/>
<path d="M133.635 116.642C133.635 115.668 132.881 114.879 131.954 114.868C131.039 114.856 130.076 115.807 130.111 116.689C130.146 117.721 130.923 118.429 131.977 118.406C133.021 118.371 133.646 117.721 133.635 116.642Z" fill="#FF2E63"/>
<path d="M76.4999 86.8075C83.8283 86.8075 89.7692 80.8667 89.7692 73.5383C89.7692 66.2099 83.8283 60.269 76.4999 60.269C69.1715 60.269 63.2307 66.2099 63.2307 73.5383C63.2307 80.8667 69.1715 86.8075 76.4999 86.8075Z" stroke="white" stroke-width="3" stroke-linecap="round" stroke-linejoin="round"/>
<path d="M53.8362 107.508C56.2047 103.62 59.5335 100.407 63.5026 98.1771C67.4717 95.9475 71.9476 94.7764 76.5 94.7764C81.0525 94.7764 85.5284 95.9475 89.4975 98.1771C93.4666 100.407 96.7954 103.62 99.1639 107.508" stroke="white" stroke-width="3" stroke-linecap="round" stroke-linejoin="round"/>
<path d="M76.5 116C95.5538 116 111 100.554 111 81.5C111 62.4462 95.5538 47 76.5 47C57.4462 47 42 62.4462 42 81.5C42 100.554 57.4462 116 76.5 116Z" stroke="white" stroke-width="3" stroke-linecap="round" stroke-linejoin="round"/>
</svg>
