<svg width="1198" height="1040" viewBox="0 0 1198 1040" fill="none" xmlns="http://www.w3.org/2000/svg">
<path fill-rule="evenodd" clip-rule="evenodd" d="M1111.07 627.477C1131.44 625.281 1150.66 635.788 1166.01 649.387C1182.52 664.007 1197.85 682.378 1198 704.458C1198.14 726.633 1183.94 746.311 1166.74 760.261C1151.23 772.839 1130.61 778.983 1111.07 774.962C1094.17 771.486 1087.58 752.36 1074.35 741.255C1058.46 727.909 1029.03 725.152 1027.1 704.458C1025.18 683.896 1051.59 674.021 1066.79 660.082C1080.84 647.203 1092.14 629.517 1111.07 627.477Z" fill="#FF2E63"/>
<path d="M546.816 45.6906C550.072 33.7441 553.722 28.6375 563.658 22.694C566.365 21.4735 567.706 21.6704 570.085 22.0847C572.828 22.9781 573.954 23.9089 575.439 26.1165C577.092 28.9098 577.788 30.6953 578.394 34.4828C578.76 40.7859 580.4 42.1198 584 43.4623C588.48 44.4411 591.501 44.0397 596.807 43.3346L596.956 43.3148C600.125 43.1793 601.979 43.5004 605.32 44.8995C609.695 48.052 608.79 52.1744 607.206 59.3895L607.15 59.6411C601.515 71.0932 597.429 75.8606 589.237 82.7393C580.953 88.9752 576.275 91.6575 567.81 93.8495C559.806 95.2978 555.987 94.2282 550.47 88.7924C544.752 82.4737 543.771 77.045 544.359 65.378C543.958 61.3275 544.817 56.1586 546.816 45.6906Z" fill="#FF2E63"/>
<path fill-rule="evenodd" clip-rule="evenodd" d="M174.006 718.016C224.525 699.931 290.781 725.677 319.516 770.974C346.762 813.924 307.404 866.12 299.86 916.413C294.254 953.786 309.075 997.995 281.574 1023.93C254.315 1049.63 211.481 1035.08 174.006 1035.09C136.516 1035.1 97.2752 1045.22 66.3894 1023.98C30.5039 999.299 -7.94074 958.931 1.42839 916.413C10.7094 874.295 76.9265 880.226 105.238 847.679C138.62 809.302 126.106 735.162 174.006 718.016Z" fill="#FF2E63"/>
<path fill-rule="evenodd" clip-rule="evenodd" d="M604.991 504.876C599.82 526.131 577.109 545.766 586.851 565.34C596.708 585.145 624.341 587.254 646.427 588.134C665.491 588.893 681.733 579.168 698.355 569.782C717.999 558.688 744.963 551.855 749.743 529.788C754.563 507.531 733.207 489.681 719.666 471.391C706.621 453.773 695.57 431.724 674.061 427.567C652.327 423.368 629.409 434.574 614.647 451.097C602.037 465.211 609.467 486.479 604.991 504.876Z" fill="#08D9D6"/>
<path fill-rule="evenodd" clip-rule="evenodd" d="M874.588 211.265C863.322 192.515 865.666 162.585 844.976 155.515C824.042 148.361 802.909 166.29 786.586 181.193C772.495 194.057 767.782 212.392 762.562 230.754C756.393 252.453 742.023 276.271 754.139 295.323C766.36 314.54 794.097 312.217 816.586 315.702C838.249 319.06 861.609 326.969 879.827 314.801C898.235 302.507 906.653 278.426 905.533 256.296C904.577 237.394 884.34 227.494 874.588 211.265Z" fill="#08D9D6"/>
</svg>
