<svg width="447" height="407" viewBox="0 0 447 407" fill="none" xmlns="http://www.w3.org/2000/svg">
<g clip-path="url(#clip0_73_91)">
<ellipse cx="190.5" cy="203" rx="180.5" ry="167" fill="white"/>
<path d="M304.354 404.902C297.687 405.139 297.726 405.097 290.408 405.638C285.929 406.012 286.261 405.869 279.206 406.13C270.45 406.502 270.561 406.318 262.14 406.48C251.975 406.349 252.034 406.085 240.143 406.415C227.716 406.669 227.825 406.31 217.228 406.208C205.424 406.327 205.313 406.281 195.481 406.02C187.137 406.075 187.312 406.09 179.297 405.894C169.317 406.179 169.413 406.165 159.665 405.8C152.447 405.678 152.425 405.681 144.308 405.632C136.643 405.63 135.981 405.714 128.318 405.61C116.14 405.938 115.94 405.649 103.881 405.651C96.4653 405.412 96.8743 405.361 88.3566 404.729L74.0704 403.68C65.5774 403.296 65.5679 403.116 56.5528 402.533C51.7003 402.318 51.6592 402.3 45.948 401.465C41.7062 400.465 41.5941 400.585 36.7931 399.139C30.3582 397.472 30.3051 397.334 23.5994 393.677C18.8686 390.846 18.8729 391.033 13.6723 386.555C6.21335 380.076 6.20625 379.919 1.43309 372.786C-0.27751 369.57 -0.0847628 366.209 0.156167 362.836C0.2164 361.932 1.03556 360.908 1.66198 360.089C3.28826 357.921 5.30002 356.174 7.7575 354.909C12.5055 352.607 12.714 352.859 18.5217 350.038C26.2145 346.788 26.2037 346.772 31.4149 344.87C36.76 342.795 36.9554 342.761 40.9632 341.002C45.0208 339.669 44.8792 339.531 48.4326 337.89C53.1274 336.09 53.1329 336.114 57.2237 334.243C61.6544 332.439 61.6447 332.399 64.7459 331.147C69.0511 329.225 69.135 329.158 73.2188 327.551C76.3236 326.072 76.3854 326.145 79.5417 324.81C82.4701 323.307 82.4235 323.375 87.0783 321.488C92.9718 319.784 92.9407 319.793 100.176 319.387C105.853 319.235 105.938 319.09 111.09 319.08C125.667 318.494 125.633 318.431 137.491 318.294C149.504 318.296 149.47 318.362 159.873 318.25C167.564 318.241 167.563 318.224 175.09 318.239C183.735 318.233 183.777 318.211 191.783 318.301C201.663 318.33 201.621 318.238 209.513 318.372C218.834 318.476 218.902 318.468 227.18 318.447C240.629 318.484 240.498 318.405 251.273 318.107C262.004 318.216 261.863 318.116 278.696 318.154C292.639 317.854 292.671 317.925 310.699 317.89C330.214 317.628 330.108 317.837 346.3 317.83C375.634 317.426 375.833 317.502 394.611 317.218C405.144 317.131 405.101 317.089 410.834 317.1C414.362 317.017 417.534 321.08 417.148 323.321C417.446 327.311 417.387 327.141 416.507 332.948C415.066 338.396 415.183 338.454 412.399 343.778C405.422 354.256 405.366 354.33 397.293 362.932C390.749 368.594 390.604 368.711 383.825 374.46C374.02 382.55 373.918 382.757 365.643 388.889C359.383 393.257 359.413 393.201 353.285 396.111C347.779 398.103 347.499 398.165 340.681 400.323C335.406 401.506 335.324 401.496 328.881 402.493C325.159 403.119 325.021 403.286 319.629 403.721C313 404.369 312.969 404.464 304.354 404.902V404.902ZM277.695 366.064C277.756 366.389 277.96 366.558 278.274 366.558H282.936C283.261 366.558 283.454 366.377 283.514 366.064H284.044C284.104 366.498 284.441 366.486 284.779 366.594C286.068 367.016 287.333 366.582 288.622 366.582C294.259 366.582 299.897 366.438 305.523 366.654C307.884 366.751 310.305 366.57 312.642 367.377C313.787 367.775 314.883 367.245 315.618 366.353C316.871 364.811 318.328 363.558 319.882 362.33C325.11 358.21 330.604 354.463 336.025 350.608C339.024 348.476 342.096 346.44 345.096 344.308C348.456 341.923 351.842 339.586 355.275 337.333C355.684 337.068 356.118 336.743 355.901 336.177C355.721 335.707 355.311 335.43 354.769 335.418C354.383 335.418 353.998 335.406 353.612 335.406H186.624H99.5157C98.7447 335.406 97.9978 335.358 97.263 335.755C95.1307 336.924 92.9744 338.044 90.8181 339.176C88.2401 340.538 85.614 341.79 83.0963 343.26C80.5424 344.754 77.8561 345.983 75.3022 347.488C72.0617 349.404 68.7007 351.102 65.3398 352.813C62.3763 354.319 59.5333 356.09 56.4254 357.282C55.546 357.619 55.3653 358.246 55.293 358.921C55.2207 359.692 55.811 359.884 56.5217 360.005C57.2325 360.125 57.9312 360.209 58.6539 360.234C62.304 360.318 65.9662 360.258 69.6042 360.571C75.6636 361.101 81.735 361.535 87.8185 361.643C94.6127 361.764 101.431 361.474 108.213 362.113C112.417 362.498 116.61 362.149 120.826 362.474C127.343 362.968 133.896 362.547 140.438 362.775C155.725 363.293 171.024 362.233 186.311 363.39C190.804 363.727 195.333 363.33 199.851 363.655C204.392 363.98 208.97 363.848 213.536 363.944C217.957 364.04 222.366 364.076 226.751 364.643C228.558 364.884 230.377 364.884 232.184 365.064C234.039 365.257 236.159 365.245 238.014 364.534C243.929 364.775 238.364 364.414 243.929 364.775L246.844 364.872C255.421 364.968 246.844 364.871 255.458 364.811C260.228 364.655 260.842 365.679 265.565 365.667C266.022 365.667 268.817 365.462 269.986 365.835C272.118 365.847 275.587 366.052 277.695 366.064Z" fill="#191819"/>
<path d="M263.926 76.5507C264.83 75.4183 264.673 74.5991 263.601 73.9366C260.866 72.2501 257.843 71.2864 254.747 70.5756C249.109 69.2626 243.339 69.4794 237.641 69.7685C233.979 69.9492 230.232 70.1419 226.642 71.1659C223.245 72.1296 220.426 70.6599 217.74 68.9855C214.945 67.2387 212.632 64.9499 210.897 62.0949C209.404 59.6374 208.56 56.951 208.163 54.1321C207.573 50.0604 208.452 46.1694 210.187 42.5073C212.042 38.5681 214.921 35.4842 218.547 33.0026C223.98 29.2923 230.027 28.6779 236.231 29.6175C239.665 30.1476 242.821 31.7377 245.724 33.8458C250.868 37.5682 254.217 42.6518 257.325 48.0125C259.601 51.9397 262.854 54.8188 266.793 57.0715C270.383 59.1314 273.756 61.4926 275.961 65.1908C277.78 68.2386 278.382 71.5273 278.237 74.9967C278.105 78.1408 277.406 81.1765 276.503 84.1761C276.153 85.3446 276.515 86.1517 277.454 86.7781C281.261 89.332 282.393 95.6203 280.538 99.3668C279.237 101.981 277.671 104.209 275.202 105.788C273.997 106.558 273.166 107.51 273.13 109.148C273.045 113.377 271.793 117.412 270.311 121.315C268.853 125.134 267.275 129.025 264.047 131.772C261.842 133.651 261.011 135.94 260.963 138.711C260.927 140.927 260.806 143.12 260.204 145.288C259.891 146.396 260.746 147.167 261.517 147.83C262.24 148.456 262.818 147.902 263.372 147.444C264.914 146.155 266.456 144.866 267.986 143.577C269.443 142.349 270.672 142.349 272.058 143.638C274.226 145.661 276.033 147.998 277.792 150.384C278.213 150.962 278.575 151.6 279.322 151.829C279.984 151.624 279.936 151.01 280.141 150.552C281.237 148.01 283.116 147.372 285.465 148.769C289.91 151.408 294.307 154.154 298.801 156.72C304.511 159.961 310.076 163.454 315.582 167.02C323.364 172.067 331.037 177.296 338.374 182.993C345.565 188.571 352.48 194.462 358.828 200.979C364.972 207.279 370.658 213.977 375.585 221.313C379.211 226.71 382.403 232.312 385.15 238.203C387.186 242.551 389.162 246.924 390.523 251.538C392.824 259.296 393.884 267.223 393.33 275.342C392.956 280.775 391.679 285.991 389.535 290.942C387.812 294.905 385.463 298.495 382.452 301.7C378.741 305.651 374.441 308.711 369.694 311.204C368.249 311.963 366.851 312.794 365.382 313.505C364.502 313.939 363.611 314.216 362.948 313.228C362.25 312.18 362.78 311.349 363.695 310.807C365.466 309.759 367.285 308.783 369.092 307.807C373.369 305.506 377.211 302.579 380.283 298.869C382.62 296.05 384.487 292.833 385.873 289.364C388.463 282.871 389.511 276.113 389.113 269.21C388.909 265.837 388.451 262.44 387.656 259.091C386.837 255.622 385.897 252.201 384.644 248.888C383.801 246.647 382.825 244.455 381.825 242.274C379.5 237.203 376.778 232.348 373.754 227.674C371.477 224.168 368.984 220.82 366.394 217.531C361.9 211.797 356.841 206.581 351.601 201.557C346.324 196.498 340.723 191.812 334.868 187.427C330.905 184.463 326.845 181.632 322.87 178.693C318.184 175.223 312.979 172.561 308.293 169.14C304.872 166.634 301.029 164.9 297.512 162.575C293.633 160.021 289.489 157.889 285.477 155.54C284.538 154.997 284.176 155.287 283.779 156.214C279.635 165.683 283.779 156.214 279.635 165.683C275.298 175.681 279.635 165.683 275.298 175.681C272.214 182.596 275.298 175.681 272.214 182.596C269.431 189.053 272.214 182.596 269.431 189.053C266.372 196.196 269.431 189.053 266.372 196.196C262.083 206.111 266.372 196.196 262.083 206.111C257.819 215.868 262.083 206.111 257.819 215.868C254.458 223.434 254.458 223.434 254.458 223.434C250.567 232.613 254.458 223.434 250.567 232.613C247.808 239.106 250.567 232.613 247.808 239.106C244.724 246.382 247.808 239.106 244.724 246.382C241.688 253.369 244.724 246.382 241.688 253.369C240.845 255.285 241.616 257.067 242.146 258.85C242.893 261.344 243.471 263.862 243.953 266.403C244.977 271.836 245.242 277.366 245.736 282.859C246.338 289.497 246.507 296.122 246.29 302.748C246.146 307.096 245.603 311.469 244.242 315.674C244.037 316.288 243.845 316.938 243.025 316.866C242.303 316.806 241.712 316.433 241.532 315.698C241.194 314.3 240.725 312.891 240.664 311.469C240.496 307.723 240.279 303.988 240.315 300.23C240.363 294.062 240.423 287.894 240.122 281.739C239.821 275.607 239.544 269.427 237.677 263.512C236.822 260.778 235.834 258.067 234.689 255.417C233.641 252.996 232.774 250.502 231.87 248.02C230.859 245.226 229.871 242.431 228.919 239.612C227.859 236.528 226.847 233.42 225.823 230.324C225.1 228.144 224.233 225.999 223.691 223.783C222.932 220.651 221.908 217.603 221.017 214.519C219.968 210.857 218.896 207.195 217.86 203.533C217.222 201.292 216.62 199.039 215.981 196.799C215.343 194.558 214.716 192.33 214.054 190.101C213.572 188.499 213.343 186.836 212.873 185.222C211.403 180.199 210.187 175.103 208.801 170.056C207.874 166.671 206.814 163.334 205.826 159.973C205.428 158.635 205.067 157.286 204.694 155.949C204.356 154.732 203.621 154.407 202.525 155.022C197.984 157.539 193.418 160.045 189.021 162.828C185.491 165.056 181.926 167.225 178.432 169.489C175.216 171.585 172.06 173.778 168.879 175.934C164.386 178.982 159.856 181.982 155.399 185.09C153.183 186.632 151.123 188.402 148.942 190.005C144.304 193.414 139.811 196.992 135.378 200.654C132.523 203.003 129.897 205.629 127.222 208.195C124.295 211.014 121.091 213.531 118.127 216.314C116.489 217.856 114.827 219.374 113.104 220.819C110.924 222.651 109.105 222.386 107.683 219.892C98.5639 203.689 107.683 219.892 98.5639 203.689C90.83 188.402 98.5639 203.689 90.83 188.402C86.674 180.163 90.83 188.402 86.674 180.163C84.7466 175.826 86.674 180.163 84.7466 175.826C84.0238 174.2 83.4576 174.115 81.9518 175.031C72.7603 180.391 81.9518 175.031 72.7603 180.391C61.8823 186.848 72.7603 180.391 61.8823 186.848C50.4381 193.51 61.8823 186.848 50.4381 193.51C46.2219 195.98 50.4381 193.51 46.2219 195.98C45.5954 196.341 45.6195 196.895 45.752 197.497C46.9085 202.798 47.8602 208.159 49.2576 213.387C50.4743 217.916 51.8235 222.434 53.3775 226.879C54.9676 231.408 56.7625 235.854 58.7623 240.214C60.6415 244.322 62.8942 248.225 65.2794 252.068C68.7127 257.561 72.7964 262.536 77.4102 267.018C80.5303 270.053 83.9635 272.764 87.6136 275.197C90.7819 277.306 94.2633 278.811 97.4676 280.811C98.4555 281.425 99.636 281.775 100.744 282.172C105.9 284.003 111.08 285.654 116.537 286.485C119.645 286.955 122.765 286.979 125.837 287.4C139.775 287.063 125.837 287.4 139.775 287.063C143.473 286.834 147.184 286.111 150.822 285.196C157.519 283.509 150.822 285.196 157.519 283.509C161.712 282.052 160.338 282.558 161.712 282.052C163.362 281.45 165.097 281.004 166.651 280.1C167.361 279.679 167.675 279.245 167.663 278.402C167.626 265.187 167.663 278.402 167.626 264.524C168.422 249.117 167.626 264.524 168.422 249.117C168.458 248.406 168.723 247.707 168.903 247.009C169.084 246.358 169.433 245.961 170.204 245.9C171.036 245.84 171.421 246.286 171.734 246.924C171.987 247.43 171.879 247.96 171.879 248.478C171.867 267.56 171.879 248.478 171.867 267.56C171.301 293.689 171.867 267.56 171.301 293.689C170.987 312.734 171.301 293.689 170.987 312.734C170.987 312.975 170.975 313.216 170.987 313.457C170.999 314.698 170.433 315.493 169.193 315.686C168.313 315.818 167.361 314.77 167.205 313.577C167.181 313.385 167.181 313.192 167.181 312.999C166.928 298.134 167.181 312.999 166.928 298.134C167.205 286.75 166.928 298.134 167.205 286.75C167.253 285.088 166.675 284.871 165.085 285.413C155.17 288.75 165.085 285.413 155.17 288.75C150.328 290.063 155.17 288.75 150.328 290.063C140.534 291.749 150.328 290.063 140.534 291.749C128.728 292.327 140.534 291.749 128.728 292.327C117.055 291.773 128.728 292.327 117.055 291.773C111.61 290.858 106.213 289.81 101.009 287.858C97.9134 286.702 94.8656 285.461 91.9022 284.003C88.1437 282.148 84.6743 279.871 81.2651 277.462C77.7475 274.981 74.5793 272.089 71.5918 269.054C67.9296 265.319 64.6169 261.248 61.7016 256.875C58.6538 252.309 55.9434 247.587 53.5582 242.648C51.6307 238.672 50.2333 234.492 48.595 230.396C46.8724 226.108 45.5834 221.687 44.3185 217.278C43.0416 212.809 41.9453 208.267 41.0178 203.689C40.4877 201.051 39.8131 198.847 39.4638 195.763C38.994 194.498 39.789 192.944 41.066 192.197C54.281 184.608 41.066 192.197 54.281 184.608C67.4719 176.705 54.281 184.608 67.4719 176.705C78.2655 170.393 67.4719 176.705 78.2655 170.393C83.5299 167.429 78.2655 170.393 83.5299 167.429C85.2525 166.478 86.4813 166.827 87.5173 168.55C91.1071 175.91 87.5172 168.55 91.1071 175.91C96.7208 187.415 91.1071 175.91 96.7208 187.415C102.142 198.052 96.7208 187.415 102.142 198.052C109.333 212.17 102.142 198.052 109.333 212.17C109.948 213.736 110.791 213.893 111.49 214.049C112.55 214.122 113.02 213.122 113.682 212.544C116.923 209.676 120.103 206.737 123.283 203.822C128.499 199.051 133.824 194.389 139.462 190.125C141.859 188.318 144.256 186.463 146.69 184.692C149.231 182.837 151.833 181.042 154.315 179.066C158.977 175.344 164.037 172.14 169.084 168.935C172.867 166.538 176.493 163.9 180.227 161.418C183.022 159.563 185.889 157.828 188.708 156.021C192.743 153.431 196.984 151.227 201.26 149.083C202.332 148.553 203.429 148.059 204.549 147.649C206.308 146.999 207.621 147.348 208.597 148.818C209.295 149.89 209.789 149.842 210.717 149.022C219.619 142.939 210.717 149.022 219.619 142.939C221.402 141.891 223.39 142.83 224.655 145.095C231.521 155.925 224.655 145.095 231.521 155.925C239.881 167.755 231.521 155.925 239.881 167.755C240.953 169.26 241.17 168.983 242.279 167.562C245.483 163.912 242.279 167.562 245.76 164.165C258.939 151.287 245.76 164.165 258.939 151.287C259.192 151.082 259.517 150.878 259.433 150.48C259.336 149.986 258.915 149.998 258.529 149.938C256.614 149.637 256 148.878 255.927 146.987C255.771 142.662 255.686 138.349 255.747 134.012C255.771 132.41 256.265 131.194 257.481 130.266C260.975 127.592 262.866 123.893 264.492 119.918C266.022 116.184 266.492 112.22 267.492 108.378C267.733 107.426 267.6 106.366 267.624 105.366C267.649 103.402 268.938 102.463 270.528 101.824C274.166 100.379 277.25 95.8492 275.129 91.4883C274.467 90.1271 273.431 89.1513 271.985 88.6935C271.022 88.3803 270.082 88.031 269.13 87.6937C265.974 86.5493 264.649 84.14 264.275 81.0079C264.203 80.4417 264.251 79.8514 264.227 79.2732C264.191 77.7915 264.095 77.7312 262.734 78.3938C262.191 78.6588 261.686 78.5504 261.204 78.3576C258.831 77.4301 256.903 78.2131 255.132 79.8153C254.747 80.1646 254.265 80.4056 253.807 80.6826C253.036 81.1524 252.458 80.791 251.88 80.249C251.277 79.6828 251.085 79.0804 251.47 78.3095C253.229 74.828 256.65 73.1776 260.481 74.0089C261.951 74.2859 262.746 75.5508 263.926 76.5507ZM252.482 214.278C256.313 204.087 252.482 214.278 256.313 204.087C259.975 195.811 256.313 204.087 259.975 195.811C260.192 195.317 259.999 195.173 259.614 194.775C254.927 189.812 259.613 194.775 254.927 189.812C249.097 183.054 254.927 189.812 249.097 183.054C242.785 175.742 249.097 183.054 242.604 175.898C241.893 175.103 241.17 175.031 240.508 175.766C233.051 183.993 240.508 175.766 233.051 183.993C225.799 192.884 233.051 183.993 225.799 192.884C223.631 195.353 225.799 192.884 223.631 195.353C222.763 196.124 222.161 196.799 222.426 197.75C222.149 196.702 222.281 197.317 225.245 207.882C229.256 221.506 225.245 207.882 229.256 221.506C229.654 223.361 228.859 222.518 229.015 223.036C229.582 224.951 230.184 226.867 230.786 228.77C231.413 230.77 232.051 232.77 232.714 234.757C233.328 236.564 234.087 238.335 234.605 240.166C235.147 242.13 235.822 244.069 236.46 245.973C236.737 246.719 236.749 247.189 237.472 247.346C238.315 247.527 239.038 247.057 239.183 246.358C239.424 245.19 240.098 244.262 240.472 243.19C241.977 238.901 244.266 234.962 245.796 230.686C246.206 229.541 246.639 228.361 247.206 227.264C248.507 224.771 249.507 222.157 250.506 219.531M262.36 190.101C263.914 187.607 262.36 190.101 265.516 182.439C268.058 176.657 265.516 182.439 268.058 176.657C272.431 166.96 268.058 176.657 272.431 166.96C277.262 156.503 272.431 166.96 277.262 156.503C277.575 155.817 277.599 155.238 276.96 154.696C271.046 149.625 276.96 154.696 271.046 149.625C270.383 149.059 269.853 149.071 269.178 149.697C260.047 158.081 269.178 149.697 260.047 158.081C247.772 170.887 260.047 158.081 247.772 170.887C247.097 171.61 247.025 172.284 247.712 173.031C250.844 176.621 247.712 173.031 250.844 176.621C250.844 176.621 250.651 176.392 259.614 187.162C262.36 190.101 260.77 188.426 262.36 190.101ZM220.547 189.173C221.27 191.498 221.812 190.715 223.823 188.354C227.823 182.09 223.823 188.354 227.823 182.09C229.919 178.91 232.352 176.007 234.834 173.139C235.436 172.453 235.508 171.826 234.966 171.08C232.437 167.574 234.966 171.08 232.437 167.574C221.51 150.853 232.437 167.574 221.51 150.853C221.173 150.227 220.8 148.661 219.33 149.384C211.693 153.19 219.33 149.384 211.693 153.19C210.319 153.877 210.404 154.6 210.801 155.829C213.837 166.177 210.801 155.829 213.837 166.177C215.776 173.404 213.837 166.177 215.776 173.404C218.8 184.596 215.776 173.404 218.8 184.596C220.547 189.173 218.812 184.584 220.547 189.173ZM215.21 49.9641C215.427 53.8551 216.74 56.951 219.655 59.2399C220.258 59.7097 220.968 60.2759 221.739 59.7699C222.607 59.1917 222.33 58.228 221.932 57.5413C220.932 55.8427 220.884 53.9635 220.643 52.1083C220.234 49.0003 221.089 46.1935 222.944 43.6999C225.919 39.7005 230.015 37.9657 234.918 37.9296C235.593 37.9296 236.328 38.0139 236.581 37.1466C236.822 36.3033 236.376 35.7974 235.713 35.3517C233.533 33.894 231.111 33.7736 228.654 34.1229C224.438 34.7373 221.486 37.3393 218.908 40.5076C216.608 43.3505 215.62 46.6754 215.21 49.9641Z" fill="#191819"/>
<path d="M423.819 104.234C416.977 103.993 423.819 104.234 416.977 103.993C410.845 103.848 416.977 103.993 410.845 103.848C397.883 103.547 410.845 103.848 397.883 103.511C385.8 102.92 397.883 103.511 385.8 102.92C377.476 102.68 385.8 102.92 377.476 102.68C361.418 101.945 377.476 102.68 361.418 101.945C347.601 101.318 361.418 101.945 347.601 101.318C333.242 100.716 347.601 101.318 333.242 100.716C319.882 100.222 333.242 100.716 319.882 100.222C312.437 99.8968 319.882 100.222 312.437 99.8968C296.042 99.186 312.437 99.8968 296.042 99.186C286.236 98.921 296.042 99.186 286.236 98.921C285.188 98.8969 284.646 98.8367 283.116 98.5235C282.285 98.3548 281.719 97.9091 281.598 97.0418C281.466 96.1624 281.442 95.2709 282.297 94.7047C283.08 94.1867 284.008 93.8254 284.959 93.717C288.754 93.2833 291.729 93.2833 295.464 93.3676C307.727 93.4278 295.464 93.6206 307.727 93.4278C323.255 93.8615 307.727 93.4278 323.255 93.8615C335.88 94.0663 323.255 93.8615 335.88 94.0663C353.865 94.5602 335.88 94.0663 353.865 94.5602C372.875 95.0902 353.865 94.5602 372.875 95.1625C384.764 95.8251 372.875 95.1625 384.764 95.8251C402.557 96.3913 384.764 95.8251 402.557 96.3913C408.339 96.6563 402.557 96.3913 408.339 96.6563C419.073 97.102 408.339 96.6563 419.073 97.102C424.397 97.3309 419.073 97.102 424.421 97.3791C428.626 97.5718 432.734 98.2705 436.637 99.7763C439.733 100.969 442.226 103.173 443.624 106.378C445.515 110.702 445.9 115.497 445.997 119.966C446.117 125.737 446.394 129.447 445.527 137.241C445.009 143.132 445.527 137.241 445.009 143.132C443.72 158.756 445.009 143.132 443.72 158.756C442.515 170.297 443.72 158.756 442.515 170.297C440.708 187.366 442.515 170.345 440.696 187.415C439.769 195.16 440.696 187.415 439.769 195.16C438.215 208.339 439.769 195.16 438.215 208.339C437.371 213.724 438.215 208.339 437.371 213.724C436.781 217.495 437.371 213.724 436.781 217.495C436.191 222.217 436.781 217.495 436.191 222.217C435.48 227.264 436.191 222.217 435.48 227.264C434.709 233.697 435.48 227.264 434.709 233.697C433.023 246.997 434.709 233.697 433.023 246.997C431.216 260.657 433.023 246.997 431.216 260.657C429.228 276.125 431.216 260.657 429.228 276.125C425.578 299.664 429.228 276.125 425.578 299.664C425.373 301.013 425.12 301.459 424.65 302.808C424.168 303.627 423.518 304.314 422.482 304.001C421.506 303.699 421.554 302.772 421.578 301.941C422.566 293.484 421.578 301.941 422.566 293.484C425.072 271.885 422.566 293.484 425.072 271.885C426.879 255.417 425.072 271.885 426.879 255.417C428.879 237.781 426.879 255.417 428.879 237.781C431.023 219.747 428.879 237.781 431.023 219.747C432.734 204.99 431.023 219.747 432.734 204.99C434.396 190.246 432.734 204.99 434.396 190.245C435.733 178.368 434.396 190.246 435.733 178.368C437.359 164.333 435.733 178.368 437.359 164.334C438.841 147.83 437.359 164.333 438.841 147.83C439.648 135.904 438.841 147.83 439.648 135.904C440.491 125.279 439.648 135.904 440.492 125.279C440.588 121.243 441.046 117.171 439.877 113.22C438.986 110.209 437.251 107.92 434.275 106.51C431.023 104.98 427.59 104.414 423.819 104.234Z" fill="#191819"/>
<path d="M48.8119 0.0313529C51.944 -0.149345 54.0522 0.465022 56.5458 1.51307C61.0873 3.41641 64.7976 6.51236 67.0262 11.2225C68.8934 15.1617 69.5922 19.2094 69.2067 23.4738C68.8453 27.3287 67.2551 30.7258 64.9783 33.8097C62.9425 36.5684 60.3163 38.6644 57.3168 40.1823C55.57 41.0737 53.6426 41.7363 51.6067 41.9893C48.6553 42.3507 45.7401 42.3386 42.8248 41.7724C38.0183 40.8328 34.2357 38.2067 31.0313 34.6168C28.61 31.8943 27.1162 28.6177 26.538 25.1362C25.9597 21.6307 25.8031 18.0529 27.056 14.4871C28.1402 11.3671 29.6821 8.62049 31.9589 6.31961C33.7297 4.52468 35.8379 3.17547 38.2472 2.19971C42.596 0.452965 43.9452 0.0313529 48.8119 0.0313529Z" fill="#E83666"/>
<path d="M197.972 96.9334C188.359 97.2345 197.972 96.9334 188.359 97.2345C175.288 97.9694 188.359 97.2345 175.288 97.9694C162.182 98.4512 175.288 97.9694 162.182 98.4512C141.956 99.9089 162.182 98.4512 141.956 99.9088C138.354 100.282 134.752 101.15 131.644 103.198C129.09 104.884 127.331 107.281 126.175 110.112C124.03 115.401 123.079 120.99 122.163 126.592C119.657 146.336 122.163 126.592 119.657 146.336C117.549 162.623 119.657 146.336 117.549 162.623C114.357 178.753 117.549 162.623 114.357 178.753C112.827 187.125 114.357 178.753 112.827 187.125C110.189 201.292 112.827 187.125 110.189 201.292C109.972 202.714 108.888 203.448 107.743 203.147C106.418 202.798 106.382 201.75 106.43 200.618C108.093 185.728 106.43 200.618 108.093 185.728C109.803 174.031 108.093 185.728 109.803 174.031C113.176 151.781 109.803 174.031 113.176 151.781C115.345 131.856 113.176 151.781 115.345 131.856C116.562 122.46 116.971 119.99 118.911 113.027C120.525 107.631 122.561 102.378 127.452 98.8969C130.728 96.572 134.426 95.3191 138.293 94.5C144.437 93.199 150.725 93.4278 156.941 92.8737C187.937 92.2593 156.941 92.8737 187.937 92.2593C197.912 92.8134 187.937 92.2593 197.912 92.8135C206.187 93.2231 197.912 92.8135 206.187 93.223C207.693 93.2592 208.681 94.0181 208.645 95.0902C208.609 95.9937 207.513 96.7045 206.115 96.7406C198.357 96.9213 206.091 96.7286 197.972 96.9334Z" fill="#191819"/>
<path d="M289.959 200.822C292.32 200.822 294.681 200.81 297.042 200.822C298.162 200.834 298.512 200.485 298.319 199.244C297.789 191.92 298.319 199.244 297.789 191.92C296.548 172.369 297.789 191.92 296.548 172.369C296.488 171.453 296.512 170.525 296.97 169.682C297.656 168.393 298.765 168.261 299.74 169.321C300.331 169.947 300.608 170.67 300.62 171.537C302.692 187.246 300.668 171.911 302.692 187.246C304.39 203.581 302.728 187.619 304.39 203.581C304.378 205.545 303.089 206.737 301.065 206.725C288.935 206.689 301.065 206.725 288.935 206.689C288.465 206.689 287.923 206.544 287.682 207.123C287.501 207.556 287.682 207.954 287.935 208.339C294.765 219.94 287.935 208.339 294.584 219.639C298.536 226.662 294.584 219.639 298.536 226.662C299.68 228.818 299.584 229.336 297.789 231.059C291.127 237.456 297.789 231.059 291.127 237.456C277.707 249.707 291.127 237.456 277.707 249.707C266.082 259.585 277.707 249.707 266.082 259.585C255.662 267.957 266.082 259.585 255.662 267.957C254.638 268.777 253.554 268.403 253.313 267.102C253.132 266.163 253.554 265.428 254.205 264.789C275.527 243.852 254.205 264.789 275.527 243.852C291.139 229.324 275.527 243.852 291.139 229.324C292.512 228.023 292.428 227.77 291.452 226.132C284.983 214.881 291.452 226.132 284.983 214.881C279.731 205.761 284.983 214.881 279.731 205.761C278.322 203.593 280.273 200.834 282.454 200.859C283.706 200.871 284.959 200.834 286.212 200.834C287.453 200.822 288.706 200.822 289.959 200.822Z" fill="#191819"/>
<path d="M199.658 214.965C195.803 215.856 199.658 214.965 195.803 215.856C190.431 217.459 195.803 215.856 190.431 217.459C187.624 218.037 188.599 218.049 187.624 218.037C185.576 218.025 184.371 216.579 184.624 214.531C185.841 206.123 184.624 214.531 185.841 206.123C187.515 192.245 185.841 206.123 187.515 192.245C189.383 179.705 187.515 192.245 189.383 179.705C190.599 173.188 189.383 179.705 190.599 173.188C190.949 172.103 191.406 171.272 192.683 171.501C193.828 171.706 194.177 172.561 194.117 173.633C193.539 184.126 194.117 173.633 193.539 184.126C193.117 191.029 193.539 184.126 193.117 191.029C192.153 200.931 193.117 191.029 192.153 200.931C191.19 209.315 192.153 200.931 191.189 209.315C191.117 210.399 191.286 210.953 192.731 210.616C204.139 208.363 192.731 210.616 204.139 208.363C206.585 207.882 206.151 208.147 207.151 208.255C209.042 208.46 209.946 211.062 208.717 212.905C206.452 216.302 208.717 212.905 206.452 216.302C201.598 224.18 206.392 216.266 201.598 224.18C198.707 228.951 201.598 224.18 198.707 228.951C196.526 232.577 198.707 228.951 196.526 232.577C196.068 233.336 196.345 233.926 196.936 234.504C201.248 238.841 196.936 234.504 201.248 238.841C213.162 249.827 201.248 238.841 213.162 249.827C221.571 258.26 213.162 249.827 221.571 258.26C226.654 263.404 221.571 258.26 226.654 263.404C228.257 265.367 230.015 267.632 230.015 267.632C230.509 268.415 230.967 269.102 230.064 269.909C229.22 270.656 227.522 270.005 226.811 269.403C218.511 262.332 226.811 269.403 218.511 262.332C206.031 250.888 218.511 262.332 205.657 250.538C195.876 241.564 205.657 250.538 195.912 241.527C190.587 236.444 195.912 241.527 190.587 236.444C189.178 235.058 189.045 233.42 190.093 231.734C195.093 223.662 190.093 231.734 195.093 223.662C199.345 216.7 195.093 223.662 199.345 216.7C199.477 216.338 199.983 215.567 199.658 214.965Z" fill="#191819"/>
<path d="M226.136 79.5744C226.365 88.561 226.341 85.5253 226.365 88.5611C226.377 91.0426 225.92 91.922 223.534 92.0786C218.896 92.3798 216.824 96.9093 217.62 101.089C218.077 103.487 220.764 105.378 223.318 105.643C225.775 105.896 226.654 107.028 227.148 109.329C227.943 113.088 227.955 116.955 228.979 120.653C229.196 121.436 229.365 122.243 229.521 123.05C230.437 127.809 234.087 131.242 238.255 132.458C241.857 133.507 245.194 132.446 248.651 132.254C249.085 132.23 249.519 132.169 249.952 132.193C251.928 132.326 252.566 133.579 251.482 135.217C250.217 137.108 248.374 138.048 246.194 138.542C243.327 139.192 240.508 139.048 237.653 138.494C235.954 138.169 235.87 138.518 235.822 140.253C235.545 149.324 235.822 140.253 235.545 149.324C235.424 150.781 234.015 151.371 232.762 151.649C231.714 151.877 230.533 151.962 229.919 150.625C229.714 150.191 229.485 149.577 229.847 149.432C231.365 148.842 231.184 147.493 230.883 144.71C230.606 136.783 230.883 144.71 230.606 136.783C230.569 135.747 230.413 135 229.57 134.29C227.112 132.206 225.558 129.531 224.354 126.52C222.679 122.291 222.197 117.894 221.86 113.449C221.751 112.004 221.113 111.172 219.691 110.799C216.343 109.919 214.186 107.582 212.705 104.607C211.777 102.74 211.379 100.74 211.488 98.5958C211.717 94.1024 214.56 88.7658 219.342 87.3925C220.571 87.0432 221.077 86.212 221.053 84.8989C222.029 75.7315 221.053 84.8989 222.029 75.7315C222.269 74.5751 222.655 73.4668 224.076 73.5752C225.426 73.6836 225.823 74.8039 225.907 75.9725C226.136 79.5744 225.883 76.0206 226.136 79.5744Z" fill="#191819"/>
<path d="M322.34 261.067C322.412 270.174 322.34 261.067 322.412 270.174C322.412 271.343 322.786 271.523 323.918 271.077C334.302 267.524 323.918 271.077 334.302 267.524C338.253 266.066 338.253 266.066 339.506 266.15C340.446 266.211 341.277 266.524 341.578 267.379C341.891 268.235 341.795 269.102 341.036 269.897C339.313 271.668 338.699 272.186 334.965 273.547C330.134 275.306 334.965 273.547 330.134 275.306C325.58 276.932 330.134 275.306 325.58 276.932C322.256 278.089 322.87 277.474 322.906 280.534C323.448 288.268 322.906 280.534 323.448 288.268C323.641 307.759 323.448 288.268 323.641 307.759C323.316 311.012 323.316 311.012 322.557 312.421C321.81 313.312 321.28 313.276 320.629 312.457C319.485 311.024 318.979 309.181 318.834 307.542C317.557 295.676 318.834 307.542 317.557 295.676C316.702 280.149 317.557 295.676 316.702 280.148C316.16 251.755 316.702 280.149 316.16 251.755C316.172 250.213 316.268 248.611 317.1 247.153C317.618 246.25 318.136 245.394 319.256 245.623C320.304 245.84 320.906 246.804 321.027 247.78C321.942 254.706 321.027 247.78 321.942 254.706C322.34 261.067 321.966 254.417 322.34 261.067Z" fill="#191819"/>
<path d="M66.8937 138.229C66.5805 133.928 68.1948 130.603 70.0499 127.291C72.5676 122.785 74.2782 117.942 73.7 112.702C73.3747 109.727 72.4351 106.812 71.0739 104.065C70.0258 101.969 69.05 99.8245 68.1225 97.6682C67.7008 96.6925 67.3274 95.548 68.5561 94.8493C69.7126 94.1868 70.6763 94.7168 71.4473 95.6685C73.6277 98.3428 75.8202 101.029 77.326 104.161C79.41 108.486 79.8558 113.064 79.4462 117.786C79.0366 122.629 77.1694 126.953 74.6758 131.037C72.652 134.338 72.5074 137.976 72.8688 141.638C73.1097 144.059 72.9652 146.565 74.0253 148.866C74.1216 149.071 74.0855 149.336 74.0975 149.577C74.1216 150.492 73.9771 151.359 72.9411 151.661C71.9292 151.95 71.2546 151.384 70.8209 150.564C69.9776 148.95 68.9296 147.384 68.4357 145.661C67.7249 143.132 66.2071 140.698 66.8937 138.229Z" fill="#191819"/>
<path d="M11.4679 113.449C11.5161 112.1 11.4679 110.967 12.7448 110.666C14.0579 110.353 14.7445 111.353 15.1903 112.281C16.9852 116.039 18.5994 119.882 20.4425 123.616C21.7556 126.291 23.4783 128.724 25.2973 131.085C28.598 135.386 32.7782 138.65 37.3076 141.517C38.7653 142.433 40.3072 143.3 41.9214 143.83C43.873 144.457 44.6439 145.951 45.1258 147.601C46.5714 152.528 47.8724 157.491 49.2096 162.442C49.3059 162.804 49.3059 163.213 49.2698 163.587C49.2216 164.213 48.9325 164.707 48.3181 164.9C47.6435 165.104 47.0653 164.864 46.6798 164.285C45.2342 162.129 43.9573 159.876 42.837 157.527C41.813 155.371 40.8252 153.203 40.1386 150.878C39.8253 149.793 39.1146 148.733 37.8859 148.227C31.9831 145.782 27.1404 141.891 22.8277 137.265C18.5994 132.736 15.5878 127.507 13.6604 121.617C12.7689 118.822 11.8775 116.039 11.4679 113.449Z" fill="#191819"/>
<path d="M85.349 162.237C86.2043 164.671 84.6141 165.201 83.289 165.659C82.5783 165.9 82 165.586 81.5182 165.008C79.8317 162.984 79.7353 163.045 77.4224 164.334C69.556 168.333 77.4224 164.334 69.556 168.333C61.5451 172.585 69.556 168.333 61.5451 172.585C53.5462 176.838 61.5451 172.585 53.498 176.729C52.5223 177.223 52.185 177.789 52.5343 178.91C53.1005 180.753 53.5101 180.753 51.4019 181.777C50.0889 182.114 49.4745 181.415 48.836 180.283C47.3543 177.657 48.836 180.283 47.3543 177.657C46.1738 175.814 46.5833 174.115 48.5228 173.007C60.497 166.285 48.5349 173.26 60.497 166.285C73.5675 159.684 60.5814 166.502 73.5675 159.684C75.784 158.527 78.1331 157.744 80.434 156.804C81.735 156.274 82.3374 157.455 83.6263 159.274C85.349 162.237 83.5902 159.298 85.349 162.237Z" fill="#191819"/>
<path d="M40.2588 92.8737C40.2588 92.4882 40.2107 92.1028 40.2709 91.7173C40.3793 90.9222 40.6805 90.2114 41.5358 89.9584C42.379 89.7055 43.0416 90.0066 43.5837 90.6451C44.704 91.9823 45.5834 93.4881 46.3664 95.018C49.1973 100.644 52.8956 105.631 57.0878 110.305C58.3286 111.69 59.6778 113.04 60.2801 114.883C60.7138 116.196 60.3163 116.81 58.943 116.858C57.0396 116.919 55.4615 115.907 54.1364 114.822C49.1853 110.739 45.234 105.848 42.6079 99.9209C41.5719 97.6441 40.3191 95.4637 40.2588 92.8737Z" fill="#191819"/>
<path d="M85.3609 308.205C86.4451 300.326 85.3609 308.205 86.4451 300.326C87.9389 291.002 86.4451 300.326 87.4932 293.617C87.7702 291.822 88.6858 290.171 89.9627 288.81C90.806 287.918 92.372 288.388 92.7816 289.557C93.4321 291.051 93.3839 291.822 93.3839 293.761C92.3479 301.17 93.3839 293.761 92.3479 301.17C91.2758 307.253 92.3479 301.17 91.2758 307.253C90.2518 313.06 90.0711 313.662 88.9508 314.963C88.1075 315.89 86.6499 315.806 85.4934 314.963C84.9754 314.397 84.6502 313.806 85.0598 311.313" fill="#191819"/>
<path d="M20.0812 107.064C20.1053 106.041 19.9487 105.209 20.3823 104.45C20.7437 103.812 21.1654 103.198 21.9966 103.149C22.8519 103.101 23.3939 103.559 23.8638 104.27C25.1889 106.281 26.1165 108.498 27.2006 110.642C29.0919 114.401 31.5735 117.75 34.0431 121.123C35.2236 122.725 36.0066 124.532 36.8017 126.327C37.3197 127.507 36.2476 128.495 34.9465 128.17C33.3203 127.748 31.959 126.869 30.7664 125.712C25.9358 121.05 22.6953 115.377 20.3582 109.136C20.2739 108.908 20.2016 108.679 20.1775 108.438C20.1053 107.92 20.0932 107.39 20.0812 107.064Z" fill="#191819"/>
<path d="M45.5234 115.943C45.4873 116.497 45.68 117.316 44.909 117.75C44.114 118.195 43.4273 117.75 42.7768 117.304C39.717 115.22 37.7173 112.208 35.7657 109.173C33.9829 106.39 32.3566 103.511 31.2242 100.379C30.7183 98.9692 30.7062 97.5236 30.9953 96.1142C31.2724 94.7529 32.6939 94.4397 33.8142 95.3914C35.7296 97.0177 36.8981 99.1981 38.0425 101.342C39.7411 104.535 41.8372 107.462 43.6562 110.558C44.6079 112.172 45.6077 113.798 45.5234 115.943Z" fill="#191819"/>
<path d="M246.218 123.905C242.05 123.918 239.351 119.81 239.219 116.316C239.183 115.377 239.677 114.618 240.652 114.389C241.652 114.148 242.267 114.75 242.772 115.533C244.242 117.822 245.23 118.388 246.989 117.714C248.181 117.256 249.013 116.256 249.747 115.244C250.302 114.473 250.82 113.666 251.205 112.762C251.603 111.847 252.181 110.739 253.337 110.992C254.542 111.269 254.951 112.401 254.855 113.63C254.482 117.918 253.132 121.605 248.76 123.412C247.772 123.821 247.507 123.918 246.218 123.905Z" fill="#191819"/>
<path d="M246.844 87.2239C245.772 98.7644 246.844 87.2239 245.808 98.403C245.146 106.004 245.808 98.403 245.146 106.004C245.122 106.245 245.134 106.486 245.098 106.727C244.917 107.775 244.519 108.847 243.363 108.92C242.146 108.992 241.749 107.932 241.556 106.872C241.821 95.7046 241.556 106.872 241.821 95.7046C242.749 86.5493 241.821 95.7046 242.749 86.5493C243.23 85.6337 244.122 84.3327 245.483 84.6821C246.724 84.9953 246.893 86.0915 246.844 87.2239Z" fill="#191819"/>
<path d="M232.244 72.5392C236.268 72.9608 238.568 74.8642 240.339 78.5143C240.616 79.0925 240.628 79.7551 240.147 80.2731C239.713 80.7549 239.098 80.7429 238.532 80.6345C237.701 80.4658 237.123 79.8273 236.46 79.3816C234.617 78.1408 232.798 76.9121 230.413 76.9482C228.943 76.9603 227.389 75.9363 227.269 75.081C227.124 74.0932 228.088 73.2741 229.967 72.744C230.582 72.5754 231.184 72.4669 232.244 72.5392Z" fill="#191819"/>
<path d="M260.999 89.2597C261.035 90.2716 261.047 91.2595 260.36 92.1268C258.553 94.4036 256.746 94.3795 255.289 91.8497C254.325 90.1873 254.337 88.3563 255.313 86.6336C255.963 85.4772 256.855 84.6339 258.325 84.8748C259.541 85.0796 260.83 86.5734 260.999 87.9587C261.035 88.3924 260.999 88.8381 260.999 89.2597Z" fill="#191819"/>
<path d="M238.195 89.3923C238.171 90.2717 238.099 91.127 237.569 91.8739C236.774 92.9942 235.954 94.0784 234.304 93.6688C233.244 93.4038 231.907 91.6932 231.822 90.4042C231.762 89.5489 231.75 88.6695 231.871 87.8142C232.087 86.2722 233.629 84.8508 234.955 84.8267C236.316 84.8146 237.665 86.0916 238.038 87.8022C238.171 88.3322 238.159 88.8623 238.195 89.3923Z" fill="#191819"/>
<path d="M287.092 366.088L284.092 366.112L279.575 366.124L274.479 366.088L268.444 365.896L258.602 365.378L255.373 365.329L245.495 364.956C239.749 364.908 245.495 364.956 239.809 364.655C237.123 364.558 239.749 364.92 237.123 364.558L228.509 364.064L210.934 363.185L199.489 362.631L183.769 362.366L163.001 362.089L137.51 361.764L120.163 361.474C101.202 361.161 120.091 361.679 100.973 361.149L85.1441 360.595L70.9163 360.386L59.6898 359.366C59.1598 359.33 58.6418 359.186 58.437 358.607C58.5454 358.089 58.943 357.945 59.3405 357.74L71.6159 351.392L84.4815 344.405L97.1785 337.646C99.0458 336.671 100.925 336.008 103.166 336.02L355.214 336.056C355.708 336.056 356.287 335.864 356.696 336.406C356.696 336.996 356.226 337.165 355.829 337.442L343.614 345.838C337.53 350.127 331.459 354.415 325.472 358.824L317.22 365.727C316.642 366.486 316.003 367.811 315.064 367.57C312.377 366.871 313.51 366.654 306.595 366.426L292.284 366.028C287.092 366.088 292.272 366.004 287.092 366.088ZM148.521 339.935C148.424 339.526 148.183 339.405 147.798 339.586H147.304C146.497 339.273 145.81 339.694 145.1 339.971C142.558 340.983 140.474 342.694 138.546 344.549C137.739 345.332 136.932 345.597 135.86 345.609C129.415 345.645 122.97 345.465 116.537 345.694C115.429 345.73 115.043 345.115 115.513 344.128C115.682 343.79 115.935 343.477 116.079 343.128C116.658 341.73 116.067 340.767 114.574 340.887C112.514 341.044 110.707 341.863 109.394 343.537C109.105 343.814 108.815 344.103 108.526 344.38C107.105 345.224 105.768 346.175 104.033 346.356C103.25 346.44 102.877 347.175 102.985 348.006C103.13 349.151 102.901 350.066 102.106 351.042C100.961 352.44 100.925 354.632 101.72 355.319C102.636 356.114 103.876 355.813 105.744 354.451C107.201 353.391 108.297 351.982 109.623 350.801C110.285 350.199 110.948 349.404 111.984 349.681C114.152 350.259 116.369 349.946 118.561 350.187C122.609 350.621 126.705 350.609 130.776 350.777C131.884 350.825 132.21 351.319 131.764 352.355C131.632 352.656 131.403 352.921 131.258 353.223C130.8 354.138 130.897 355.018 131.607 355.752C132.318 356.487 133.101 356.307 133.981 355.909C135.655 355.15 136.884 353.885 138.149 352.644C138.763 352.042 139.377 351.355 140.341 351.428C143.907 351.669 147.437 351.114 150.99 351.127C153.4 351.139 155.797 351.127 158.206 351.127C160.929 351.127 160.929 351.127 160.796 353.789C160.76 354.536 160.868 355.331 161.471 355.752C162.085 356.186 162.784 355.969 163.482 355.584C164.964 354.752 166.301 353.801 167.349 352.428C168 351.572 168.915 351.102 170.096 351.102C176.637 351.139 183.178 351.114 189.72 351.127C191.358 351.127 191.515 351.331 191.213 352.994C191.069 353.765 191.201 354.451 191.792 354.969C192.43 355.524 193.177 355.608 193.948 355.234C194.647 354.897 195.345 354.572 195.647 353.777C195.803 353.656 195.948 353.536 196.104 353.403C196.321 353.307 196.634 353.271 196.719 353.114C197.61 351.488 199.08 351.392 200.694 351.416C206.235 351.464 211.765 351.44 217.306 351.428C219.86 351.428 219.86 351.416 219.45 353.897C219.39 354.222 219.39 354.572 219.426 354.909C219.583 356.62 220.474 357.198 222.065 356.584C223.799 355.909 224.932 354.536 225.932 353.054C226.582 352.078 227.425 351.669 228.594 351.681C234.087 351.717 239.568 351.693 245.061 351.705C246.868 351.705 246.892 351.825 246.471 353.536C246.242 354.487 245.917 355.644 246.904 356.343C247.88 357.029 248.964 356.668 249.856 356.005C250.904 355.234 251.856 354.355 252.59 353.259C253.132 352.464 253.843 351.958 254.867 351.97C260.842 351.982 266.805 351.97 272.78 351.958C273.852 351.958 274.13 352.5 273.901 353.451C273.744 354.102 273.539 354.753 273.467 355.415C273.359 356.439 273.334 357.499 274.431 358.077C275.563 358.668 276.358 357.836 277.117 357.234C278.37 356.234 279.201 354.849 280.105 353.548C280.659 352.741 281.381 352.331 282.261 352.331C288.14 352.295 294.006 352.319 299.885 352.307C300.716 352.307 301.078 352.656 300.74 353.476C300.415 354.283 300.066 355.066 299.716 355.861C299.234 356.957 299.584 357.86 300.439 358.559C301.27 359.246 301.957 358.812 302.764 358.294C304.619 357.102 306.077 355.499 307.547 353.921C308.354 353.054 309.185 352.741 310.329 352.777C312.642 352.849 314.955 352.837 317.256 352.789C318.352 352.765 319.593 352.536 319.677 351.247C319.774 349.97 318.521 349.801 317.533 349.56C316.449 349.295 315.341 349.32 314.232 349.283C313.63 349.259 312.871 349.32 312.594 348.633C312.341 347.97 313.016 347.633 313.389 347.223C314.774 345.706 315.762 343.947 316.051 341.911C316.244 340.502 315.473 339.935 314.124 340.345C313.16 340.634 312.221 340.995 311.389 341.61C309.534 343.007 307.944 344.682 306.474 346.452C305.571 347.549 304.691 348.308 303.113 348.163C299.957 347.862 296.777 347.934 293.645 347.513C291.729 347.26 289.802 347.488 287.911 347.115C285.477 346.633 285.477 346.633 286.092 344.284C286.284 343.561 286.405 342.826 285.815 342.248C285.212 341.658 284.465 341.827 283.779 342.08C282.128 342.694 280.526 343.537 279.562 344.983C278.418 346.681 276.924 346.778 275.178 346.693C270.335 346.452 265.492 346.26 260.649 346.103C258.662 346.043 258.577 345.91 259.276 344.019C259.626 343.092 260.216 342.08 259.216 341.152L259.18 341.116C258.939 340.405 258.312 340.598 257.855 340.658C256.614 340.827 255.578 341.441 254.747 342.393C254.554 342.574 254.361 342.766 254.168 342.947C253.145 343.092 252.711 343.983 252.109 344.621C251.47 345.308 250.771 345.609 249.832 345.609C244.158 345.573 238.472 345.573 232.798 345.597C231.714 345.597 231.124 345.38 231.075 344.103C231.015 342.694 229.943 342.164 228.63 342.67C227.004 343.308 225.594 344.26 224.414 345.549C220.294 345.573 216.162 345.609 212.042 345.633C209.741 345.621 207.44 345.585 205.151 345.609C204.585 345.621 203.995 345.898 203.585 345.296C203.14 344.658 203.525 344.115 203.814 343.561C204.236 342.766 204.549 341.947 203.814 341.176C203.067 340.381 202.152 340.477 201.284 340.887C199.61 341.706 197.911 342.561 196.815 344.164C196.128 345.164 195.237 345.645 194.044 345.633C187.997 345.513 181.962 345.513 175.914 345.633C173.806 345.248 173.746 345.115 174.878 343.212C175.023 342.971 175.18 342.718 175.264 342.441C175.782 340.875 175.035 339.887 173.385 339.971C172.228 340.032 171.349 340.718 170.421 341.297C168.542 342.465 167.325 344.393 165.47 345.585C160.953 345.597 156.447 345.609 151.93 345.621C150.593 345.453 149.268 345.525 147.942 345.706C147.509 345.766 147.051 345.814 146.81 345.344C146.581 344.898 146.774 344.501 147.123 344.2C147.834 343.585 148.171 342.718 148.641 341.959C149.015 341.357 149.448 340.586 148.569 339.971L148.521 339.935Z" fill="#E83666"/>
<path d="M284.634 366.052C292.272 366.004 284.634 366.052 292.272 366.004C305.39 366.1 292.272 366.004 305.39 366.1C313.269 366.63 305.39 366.1 313.269 366.63C315.57 366.63 315.341 366.594 318.822 363.92C325.4 358.728 318.822 363.92 325.4 358.728C343.734 345.946 325.4 358.728 343.602 345.826C355.817 337.43 343.602 345.826 355.817 337.43C356.202 337.165 356.684 336.984 356.684 336.394C356.347 336.104 355.697 336.044 355.203 336.044C103.154 336.008 355.203 336.044 103.154 336.008C100.913 336.008 99.0339 336.659 97.1667 337.634C84.4697 344.392 97.1667 337.634 84.4697 344.392C71.604 351.379 84.4697 344.392 71.604 351.379C59.3286 357.728 71.604 351.379 59.3287 357.728C58.9311 357.933 58.5336 358.077 58.4252 358.595C58.63 359.173 59.148 359.33 59.678 359.354C69.4357 359.92 59.678 359.354 69.4357 359.92C85.1322 360.583 69.4357 359.92 85.1323 360.583C100.961 361.137 85.1323 360.583 100.961 361.137C120.151 361.462 100.961 361.137 120.151 361.462C139.04 361.739 120.151 361.462 139.04 361.739C162.989 362.077 139.04 361.739 162.989 362.077C183.757 362.354 162.989 362.077 183.757 362.354C199.478 362.619 183.757 362.354 199.478 362.619C210.922 363.173 199.478 362.619 210.922 363.173C228.498 364.052 210.922 363.173 228.498 364.052C238.966 364.606 228.498 364.052 238.966 364.606C244.266 364.932 238.966 364.606 244.266 364.932C242.411 365.642 236.075 366.811 234.232 366.618C232.425 366.438 230.244 365.98 228.437 365.739C224.064 365.161 219.728 365.679 215.319 365.582C210.753 365.486 205.971 365.751 201.429 365.426C196.9 365.1 192.442 365.618 187.949 365.269C172.662 364.101 157.351 365.377 142.064 364.859C135.523 364.643 128.692 365.197 122.175 364.703C117.959 364.39 113.61 364.534 109.406 364.137C102.624 363.51 96.1186 363.848 89.3124 363.727C83.2289 363.619 76.9768 363.583 70.9053 363.065C67.2793 362.751 63.1233 361.619 59.4732 361.523C58.7504 361.511 57.7987 360.776 57.076 360.655C56.3652 360.535 54.1728 359.643 54.245 358.872C54.3053 358.198 56.5941 356.27 57.4735 355.933C60.5815 354.74 63.1233 352.789 66.0867 351.283C69.4477 349.585 73.0014 348.103 76.2419 346.187C78.7837 344.682 81.5906 343.79 84.1324 342.296C86.6381 340.827 88.9871 339.502 91.5651 338.14C93.7214 337.008 96.456 335.972 98.5882 334.803C99.311 334.406 101.202 334.49 101.961 334.49C130.993 334.49 159.471 335.418 188.515 335.418C244.182 335.418 299.801 335.297 355.468 335.297C355.853 335.297 356.275 335.418 356.66 335.43C357.202 335.442 357.612 335.707 357.793 336.189C358.009 336.755 357.576 337.08 357.166 337.345C353.721 339.61 350.336 341.935 346.987 344.32C343.987 346.452 340.915 348.488 337.916 350.62C332.495 354.475 327.002 358.222 321.774 362.342C320.208 363.57 318.762 364.823 317.509 366.365C316.786 367.257 315.847 369.184 314.714 368.787C312.389 367.992 309.92 368.305 307.559 368.208C301.933 367.992 296.464 367.534 290.838 367.534C289.561 367.534 287.778 367.546 286.489 367.136C286.14 367.064 284.694 366.486 284.634 366.052Z" fill="#191819"/>
<path d="M276.9 366.1C278.84 365.883 287.224 365.811 289.164 366.004C289.103 366.329 285.417 367.546 285.092 367.546C283.538 367.546 280.912 367.931 279.358 367.931C279.045 367.943 276.961 366.425 276.9 366.1Z" fill="#191819"/>
<path d="M229.341 221.964C230.521 219.253 229.341 221.964 230.521 219.253C232.726 213.555 230.521 219.253 232.726 213.555C233.135 212.327 232.726 213.555 233.135 212.327C233.69 210.688 234.424 210.014 236.111 210.038C245.375 210.074 236.111 210.038 245.375 210.074C248.278 210.074 248.639 210.941 249.157 213.302C250.266 217.928 249.157 213.302 250.266 217.928C250.518 218.76 250.266 217.928 250.518 218.76C250.362 218.856 250.109 218.916 250.073 219.049C249.121 222.012 247.615 224.747 246.495 227.626C244.182 233.613 241.339 239.359 238.954 245.31C238.761 245.792 238.532 246.201 237.954 246.165C237.412 246.129 237.279 245.683 237.147 245.274C236.822 244.322 236.496 243.371 236.207 242.407C235.316 239.431 234.123 236.564 233.172 233.601C232.557 231.697 231.979 229.77 231.377 227.855C230.75 225.939 229.16 224.12 229.341 221.964Z" fill="#E83666"/>
<path d="M229.714 221.988C229.533 224.144 230.75 225.939 231.352 227.867C231.955 229.77 232.533 231.71 233.147 233.613C234.099 236.576 235.292 239.443 236.183 242.419C236.472 243.383 236.797 244.334 237.123 245.286C237.267 245.695 237.4 246.153 237.93 246.177C238.508 246.214 238.737 245.816 238.93 245.322C241.315 239.371 244.158 233.613 246.471 227.638C247.591 224.747 249.097 222.024 250.049 219.061C250.097 218.928 250.338 218.868 250.494 218.772C250.675 219.229 250.723 219.591 250.567 220.012C249.579 222.639 248.567 225.253 247.266 227.746C246.7 228.842 246.266 230.023 245.856 231.167C244.339 235.444 242.17 239.395 240.664 243.684C239.448 246.924 240.664 243.684 239.448 246.924C239.159 247.611 238.894 248.261 238.086 248.249C237.352 248.237 237.026 248.069 236.448 246.551C234.593 240.732 236.448 246.551 234.593 240.732C232.786 235.239 234.593 240.732 232.786 235.239C230.859 229.252 232.786 235.239 230.859 229.252C229.088 223.518 230.883 229.312 229.088 223.518C228.931 223 229.04 222.47 229.329 221.988C229.461 221.976 229.594 221.976 229.714 221.988Z" fill="#E83666"/>
<path d="M175.902 345.645C181.95 345.525 187.985 345.525 194.032 345.645C195.117 346.501 196.044 346.404 196.96 345.055C198.14 343.296 199.947 342.417 201.658 341.381C202.128 341.104 202.67 341.14 203.152 341.489C203.73 341.911 203.477 342.417 203.308 342.911C203.152 343.356 202.899 343.79 202.79 344.248C202.465 345.754 203.007 346.416 204.549 346.428C206.272 346.44 208.006 346.452 209.729 346.416C210.56 346.392 211.44 346.416 212.03 345.645C216.15 345.621 220.282 345.585 224.402 345.561C225.004 346.103 225.341 345.489 225.727 345.224C226.666 344.573 227.485 343.718 228.606 343.356C229.871 342.947 230.497 343.344 230.473 344.633C230.449 346.043 231.087 346.464 232.412 346.452C237.99 346.416 243.58 346.344 249.157 346.476C251.843 346.537 253.048 344.91 254.18 342.959C254.373 342.778 254.566 342.586 254.759 342.405C256.361 342.393 257.541 340.947 259.192 341.128L259.228 341.164C259.107 342.224 258.782 343.212 258.397 344.2C257.65 346.127 258.397 347.211 260.384 346.97C261.794 346.802 263.143 346.97 264.516 347.031C268.118 347.175 271.72 346.838 275.322 347.272C276.611 347.428 278.141 347.693 279.105 346.452C280.285 344.923 281.634 343.73 283.441 343.019C284.092 342.766 284.646 342.055 285.357 342.802C286.019 343.501 285.513 344.2 285.164 344.766C284.767 345.404 284.815 346.043 284.839 346.717C284.851 347.211 285.116 347.573 285.622 347.585C287.344 347.645 288.971 348.271 290.742 348.223C293.765 348.151 296.801 348.259 299.813 348.524C301.09 348.633 302.403 348.609 303.655 348.946C304.523 349.175 305.125 348.934 305.703 348.308C307.294 346.573 308.884 344.826 310.546 343.176C311.534 342.2 312.69 341.381 314.064 341.031C314.847 340.827 315.69 341.044 315.401 342.08C314.907 343.814 314.377 345.573 312.943 346.862C312.329 347.416 311.305 347.97 311.618 348.91C311.919 349.813 313.112 349.597 313.895 349.898C314.064 349.958 314.293 349.886 314.461 349.946C315.654 350.355 316.955 350.018 318.147 350.5C318.533 350.657 318.906 350.789 318.858 351.259C318.81 351.717 318.388 351.849 318.015 351.922C317.641 351.994 317.244 351.97 316.858 351.97C314.69 351.97 312.522 352.006 310.365 351.946C309.161 351.909 308.281 352.379 307.438 353.186C305.812 354.74 304.475 356.608 302.427 357.716C301.945 357.981 301.608 358.607 300.945 358.113C300.343 357.668 300.319 357.017 300.475 356.415C300.752 355.391 301.102 354.403 301.571 353.439C302.294 351.97 301.909 351.416 300.27 351.416C294.488 351.416 288.718 351.416 282.935 351.416C281.586 351.416 280.574 351.897 279.779 353.042C278.804 354.463 277.852 355.933 276.454 356.993C275.961 357.379 275.37 357.704 274.732 357.294C274.105 356.897 274.093 356.282 274.214 355.62C274.358 354.873 274.443 354.102 274.587 353.355C274.913 351.705 274.66 351.379 272.973 351.379C266.902 351.379 260.842 351.404 254.771 351.355C253.675 351.343 252.904 351.741 252.337 352.584C251.554 353.777 250.506 354.656 249.398 355.523C248.699 356.066 247.965 356.294 247.302 355.813C246.639 355.331 246.916 354.487 247.085 353.789C247.169 353.476 247.422 353.21 247.579 352.921C248.001 352.187 247.904 351.62 247.013 351.379C246.555 351.259 246.073 351.139 245.603 351.139C239.869 351.126 234.147 351.126 228.413 351.126C227.184 351.126 226.245 351.536 225.498 352.632C224.703 353.813 223.811 354.981 222.534 355.728C221.968 356.066 221.354 356.499 220.667 356.126C219.956 355.74 220.029 354.993 220.089 354.319C220.137 353.753 220.282 353.186 220.354 352.62C220.559 351.247 219.98 350.777 218.583 350.789C212.283 350.849 205.97 350.813 199.67 350.813C197.682 350.813 196.839 351.44 196.104 353.451C195.948 353.572 195.803 353.692 195.647 353.825C195.213 353.632 194.924 353.909 194.623 354.15C194.02 354.644 193.382 355.198 192.575 354.644C191.768 354.09 192.069 353.331 192.249 352.56C192.635 350.873 192.105 350.259 190.346 350.259C183.793 350.259 177.252 350.307 170.698 350.223C168.843 350.199 167.59 351.018 166.578 352.379C165.844 353.367 164.832 354.03 163.868 354.716C163.29 355.126 162.386 355.523 161.724 354.909C161.097 354.331 161.314 353.5 161.639 352.765C162.41 351.03 161.904 350.259 160.001 350.259C156.146 350.247 152.291 350.247 148.448 350.259C147.967 350.259 147.449 350.235 147.027 350.404C145.196 351.114 143.268 350.994 141.461 350.729C139.859 350.488 138.896 351.102 137.884 352.006C137.209 352.62 136.522 353.247 135.944 353.945C135.282 354.728 134.366 355.017 133.487 355.379C132.92 355.608 132.342 355.523 131.921 354.993C131.535 354.499 131.619 354.042 131.945 353.536C132.149 353.223 132.27 352.837 132.39 352.488C133.065 350.548 132.631 349.97 130.559 350.006C130.415 350.006 130.27 350.054 130.126 350.054C127.728 350.006 125.307 350.175 122.946 349.862C120.26 349.5 117.561 349.404 114.887 349.127C113.983 349.03 113.044 349.163 112.152 348.994C111.189 348.814 110.466 349.091 109.815 349.729C108.623 350.922 107.454 352.138 106.225 353.295C105.43 354.054 104.599 354.789 103.479 355.078C102.611 355.307 101.913 354.945 101.937 354.09C101.973 353.162 101.973 352.09 102.684 351.367C103.503 350.512 103.72 349.56 103.599 348.464C103.491 347.513 103.864 347.127 104.876 347.019C106.515 346.85 107.84 346.067 108.514 344.453C108.803 344.176 109.092 343.887 109.382 343.609C110.791 343.682 111.526 342.224 112.875 342.08C113.634 341.995 114.417 341.152 115.152 341.827C115.983 342.585 115.08 343.32 114.803 344.031C114.128 345.814 114.538 346.501 116.381 346.501C122.838 346.501 129.282 346.489 135.739 346.513C136.956 346.513 137.92 346.139 138.823 345.26C140.715 343.441 142.63 341.646 145.232 340.791C145.919 340.562 146.774 340.345 147.28 339.67C147.449 339.67 147.605 339.67 147.774 339.67C147.882 340.068 148.111 340.2 148.497 340.02L148.533 340.068C148.424 340.923 148.183 341.67 147.641 342.405C147.159 343.043 146.702 343.706 146.208 344.344C145.822 344.85 145.617 345.465 145.931 346.091C146.22 346.681 146.834 346.513 147.34 346.525C148.147 346.537 148.966 346.585 149.774 346.513C150.532 346.44 151.388 346.525 151.918 345.742C156.435 345.73 160.941 345.718 165.458 345.706C166.048 346.236 166.506 345.874 166.94 345.465C167.699 344.73 168.397 343.935 169.192 343.236C170.301 342.26 171.469 341.333 172.939 340.911C173.505 340.742 174.119 340.562 174.529 341.104C174.915 341.61 174.758 342.176 174.397 342.706C174.095 343.14 173.879 343.621 173.638 344.091C173.361 344.645 172.915 345.392 173.638 345.73C174.288 345.922 175.155 346.669 175.902 345.645Z" fill="#191819"/>
<path d="M195.791 353.042C196.526 351.03 197.635 350.319 199.622 350.319C205.922 350.319 212.343 350.199 218.644 350.139C220.053 350.127 221.149 351.283 220.957 352.668C220.872 353.235 220.667 353.753 220.619 354.331C220.559 355.005 220.246 355.355 220.957 355.752C221.643 356.126 221.872 355.825 222.45 355.487C223.727 354.74 224.426 353.56 225.221 352.379C225.956 351.283 227.136 350.56 228.365 350.56C234.099 350.56 239.821 350.729 245.543 350.753C246.013 350.753 246.664 351.018 247.134 351.139C248.025 351.379 248.145 352.247 247.724 352.982C247.555 353.271 247.531 353.584 247.459 353.897C247.29 354.584 247.061 355.114 247.724 355.596C248.386 356.09 248.374 355.74 249.073 355.198C250.181 354.331 251.35 353.488 252.133 352.307C252.687 351.464 253.615 350.934 254.711 350.946C260.77 350.994 266.89 351.271 272.949 351.283C274.636 351.283 275.093 351.741 274.768 353.391C274.624 354.138 274.804 354.873 274.672 355.632C274.551 356.282 274.491 356.306 275.118 356.704C275.768 357.114 275.684 356.981 276.19 356.608C277.587 355.548 278.515 354.054 279.503 352.632C280.298 351.476 281.599 350.958 282.936 350.958C288.718 350.97 294.476 351.078 300.247 351.09C301.885 351.09 302.752 352.235 302.029 353.704C301.56 354.668 301.307 355.439 301.03 356.463C300.873 357.065 300.668 357.077 301.27 357.523C301.945 358.017 301.825 357.451 302.307 357.186C304.354 356.078 305.595 354.487 307.209 352.933C308.053 352.126 309.137 351.512 310.354 351.548C312.522 351.62 314.353 351.62 316.521 351.62C316.907 351.62 317.618 351.62 317.991 351.548C318.364 351.476 318.461 351.669 318.509 351.211C318.557 350.741 318.377 350.91 317.991 350.753C316.582 351.488 315.654 350.801 314.413 350.307C314.245 350.235 313.088 350.259 312.919 350.187C312.136 349.886 311.197 349.946 310.896 349.042C310.582 348.103 312.052 347.26 312.667 346.705C314.1 345.416 314.136 344.043 314.63 342.308C314.931 341.26 314.69 341.646 313.895 341.851C312.522 342.2 311.956 342.838 310.968 343.814C309.293 345.465 307.679 347.296 306.089 349.03C305.511 349.657 303.824 350.139 302.957 349.91C301.704 349.572 300.62 349.536 299.343 349.428C296.331 349.163 293.741 348.886 290.718 348.958C288.947 349.006 286.489 348.693 284.767 348.645C284.261 348.633 283.972 347.26 283.96 346.766C283.936 346.103 283.875 345.621 284.273 344.983C284.622 344.417 285.466 344.188 284.803 343.501C284.092 342.754 284.405 343.356 283.767 343.621C281.972 344.344 280.779 345.537 279.599 347.067C278.647 348.308 275.985 348.332 274.708 348.187C271.106 347.753 267.938 348.163 264.336 348.018C262.963 347.958 261.613 347.922 260.204 348.091C258.216 348.332 256.217 345.874 256.963 343.947C257.349 342.947 258.867 341.875 258.987 340.827C260.505 342.188 259.614 343.128 259.276 344.055C258.578 345.946 258.674 346.067 260.65 346.139C265.492 346.296 270.335 346.489 275.178 346.73C276.925 346.814 278.43 346.717 279.563 345.019C280.538 343.573 282.141 342.73 283.779 342.116C284.466 341.863 285.225 341.694 285.815 342.284C286.393 342.863 286.285 343.597 286.092 344.32C285.466 346.669 285.478 346.669 287.911 347.151C289.802 347.525 291.73 347.296 293.645 347.549C296.777 347.958 299.969 347.898 303.114 348.199C304.704 348.344 305.571 347.597 306.475 346.489C307.932 344.706 309.534 343.031 311.39 341.646C312.221 341.019 313.16 340.67 314.124 340.381C315.461 339.971 316.244 340.538 316.052 341.947C315.774 343.983 314.787 345.742 313.389 347.26C313.016 347.669 312.341 348.006 312.594 348.669C312.859 349.356 313.618 349.295 314.233 349.32C315.341 349.356 316.437 349.332 317.533 349.597C318.521 349.838 319.774 350.006 319.678 351.283C319.581 352.572 318.34 352.801 317.256 352.825C314.943 352.861 312.63 352.873 310.329 352.813C309.185 352.777 308.354 353.102 307.547 353.957C306.077 355.535 304.619 357.138 302.764 358.33C301.957 358.848 301.27 359.282 300.439 358.595C299.584 357.897 299.235 356.993 299.717 355.897C300.066 355.102 300.415 354.319 300.74 353.512C301.078 352.68 300.716 352.343 299.885 352.343C294.006 352.343 288.14 352.331 282.261 352.367C281.382 352.367 280.659 352.777 280.105 353.584C279.213 354.885 278.382 356.27 277.117 357.27C276.358 357.885 275.563 358.704 274.431 358.113C273.335 357.547 273.359 356.475 273.467 355.451C273.539 354.789 273.744 354.138 273.901 353.488C274.13 352.536 273.853 351.994 272.781 351.994C266.805 352.006 260.842 352.006 254.867 352.006C253.843 352.006 253.121 352.5 252.591 353.295C251.856 354.391 250.904 355.27 249.856 356.041C248.953 356.692 247.88 357.065 246.905 356.379C245.917 355.68 246.23 354.524 246.471 353.572C246.893 351.849 246.869 351.741 245.062 351.741C239.568 351.729 234.087 351.753 228.594 351.717C227.413 351.705 226.582 352.114 225.932 353.09C224.932 354.572 223.799 355.957 222.065 356.62C220.475 357.234 219.583 356.656 219.427 354.945C219.39 354.608 219.403 354.271 219.451 353.933C219.86 351.452 219.86 351.464 217.306 351.464C211.765 351.464 206.236 351.488 200.694 351.452C199.08 351.44 197.61 351.536 196.719 353.15C196.635 353.283 196.008 352.945 195.791 353.042Z" fill="#191819"/>
<path d="M108.538 344.38C107.864 345.995 106.768 347.199 105.141 347.368C104.129 347.476 104.154 347.753 104.262 348.717C104.382 349.825 103.696 350.657 102.877 351.512C102.178 352.235 102.359 353.09 102.322 354.018C102.286 354.873 102.792 354.777 103.672 354.56C104.78 354.271 105.165 353.572 105.961 352.813C107.177 351.657 108.478 350.38 109.683 349.187C110.333 348.536 111.213 348.332 112.177 348.512C113.068 348.681 114.176 348.368 115.08 348.464C117.766 348.741 120.356 348.826 123.042 349.187C125.404 349.5 126.03 349.476 128.427 349.512C128.572 349.512 130.535 349.356 130.68 349.356C132.752 349.32 133.547 350.572 132.872 352.512C132.752 352.873 132.656 353.247 132.451 353.56C132.126 354.066 131.969 354.331 132.366 354.813C132.788 355.343 132.86 354.969 133.427 354.74C134.306 354.391 134.993 354.307 135.655 353.524C136.245 352.825 136.932 352.114 137.619 351.512C138.631 350.608 139.895 349.633 141.486 349.874C143.293 350.151 143.883 350.5 145.714 349.789C146.148 349.621 148.256 349.368 148.738 349.368C152.592 349.356 156.52 349.825 160.375 349.825C162.278 349.825 162.904 351.054 162.133 352.789C161.808 353.524 161.567 353.933 162.194 354.524C162.856 355.138 163.205 354.632 163.784 354.21C164.747 353.524 165.326 352.801 166.06 351.813C167.072 350.452 168.831 349.464 170.686 349.488C177.24 349.572 183.817 349.283 190.37 349.283C192.129 349.283 193.587 350.356 193.201 352.042C193.021 352.813 192.454 353.427 193.261 353.981C194.081 354.536 194.105 354.186 194.707 353.692C195.008 353.439 196.333 352.861 196.767 353.054C196.369 353.801 194.683 354.993 193.948 355.246C193.177 355.62 192.43 355.523 191.792 354.981C191.189 354.463 191.069 353.777 191.214 353.006C191.527 351.343 191.37 351.139 189.72 351.139C183.179 351.126 176.637 351.151 170.096 351.114C168.916 351.114 168 351.584 167.349 352.44C166.301 353.825 164.964 354.765 163.483 355.596C162.796 355.981 162.085 356.198 161.471 355.764C160.868 355.331 160.76 354.536 160.796 353.801C160.917 351.126 160.929 351.126 158.206 351.139C155.797 351.139 153.4 351.151 150.99 351.139C147.437 351.126 143.907 351.681 140.341 351.44C139.377 351.367 138.763 352.054 138.149 352.656C136.872 353.897 135.643 355.162 133.981 355.921C133.101 356.319 132.318 356.499 131.607 355.764C130.897 355.042 130.788 354.162 131.258 353.235C131.403 352.933 131.632 352.668 131.764 352.367C132.21 351.331 131.885 350.837 130.776 350.789C126.705 350.621 122.609 350.633 118.561 350.199C116.369 349.958 114.14 350.271 111.984 349.693C110.948 349.416 110.297 350.211 109.623 350.813C108.298 352.006 107.201 353.415 105.744 354.463C103.876 355.813 102.636 356.114 101.72 355.331C100.925 354.644 100.973 352.452 102.106 351.054C102.889 350.09 103.13 349.175 102.985 348.018C102.877 347.187 103.262 346.452 104.033 346.368C105.78 346.175 107.117 345.224 108.538 344.38Z" fill="#191819"/>
<path d="M148.28 339.526C147.774 340.212 146.22 340.453 145.533 340.682C142.931 341.549 141.148 343.429 139.257 345.248C138.354 346.115 137.245 346.621 136.029 346.621C129.572 346.609 122.826 346.754 116.369 346.754C114.538 346.754 113.441 345.537 114.116 343.754C114.381 343.043 115.778 342.61 114.947 341.839C114.212 341.164 113.875 342.08 113.116 342.164C111.755 342.308 110.803 343.609 109.394 343.537C110.707 341.851 112.755 340.875 114.803 340.718C116.308 340.598 116.887 341.562 116.308 342.959C116.164 343.308 115.911 343.609 115.742 343.959C115.26 344.935 115.658 345.561 116.766 345.525C123.211 345.284 129.656 345.477 136.089 345.44C137.161 345.44 137.944 345.139 138.751 344.356C140.679 342.489 142.775 340.815 145.328 339.803C146.039 339.514 147.473 339.212 148.28 339.526Z" fill="#191819"/>
<path d="M256.626 341.044C255.506 342.995 251.952 346.766 249.266 346.705C243.688 346.573 238.014 346.826 232.425 346.874C231.099 346.886 230.039 346.187 230.064 344.778C230.088 343.489 229.931 343.489 228.666 343.899C227.546 344.26 227.076 345.091 226.124 345.742C225.751 346.007 224.98 346.115 224.378 345.573C225.558 344.284 226.968 343.32 228.594 342.694C229.907 342.188 230.979 342.718 231.039 344.127C231.087 345.404 231.678 345.621 232.762 345.621C238.436 345.597 244.122 345.597 249.796 345.633C250.747 345.633 251.434 345.332 252.072 344.645C252.904 343.513 255.12 341.477 256.626 341.044Z" fill="#191819"/>
<path d="M212.03 345.645C211.428 346.416 210.596 346.742 209.765 346.754C208.042 346.79 206.079 346.766 204.356 346.754C202.814 346.742 202.164 345.766 202.489 344.248C202.585 343.79 202.73 343.332 202.887 342.875C203.055 342.381 203.465 342.212 202.887 341.79C202.405 341.441 202.079 341.67 201.622 341.959C199.911 342.995 198.574 343.646 197.393 345.404C196.478 346.766 195.129 346.489 194.044 345.645C195.237 345.657 196.116 345.176 196.815 344.176C197.911 342.586 199.61 341.73 201.284 340.899C202.14 340.477 203.067 340.393 203.814 341.188C204.549 341.959 204.236 342.778 203.814 343.573C203.525 344.127 203.127 344.657 203.585 345.308C204.007 345.91 204.585 345.633 205.151 345.621C207.428 345.597 209.729 345.633 212.03 345.645Z" fill="#191819"/>
<path d="M175.902 345.645C175.156 346.657 173.939 346.465 173.3 346.163C172.578 345.826 173.084 344.344 173.361 343.79C173.602 343.32 173.758 342.875 174.047 342.441C174.421 341.911 174.481 341.983 174.096 341.477C173.686 340.935 173.529 341.188 172.963 341.345C171.493 341.778 170.723 342.899 169.602 343.887C168.807 344.585 168.012 345.224 167.253 345.959C166.819 346.38 166.036 346.127 165.434 345.585C167.289 344.393 168.506 342.465 170.385 341.297C171.313 340.718 172.192 340.032 173.349 339.971C174.999 339.887 175.746 340.875 175.228 342.441C175.144 342.706 174.987 342.959 174.842 343.212C173.746 345.127 173.806 345.26 175.902 345.645Z" fill="#191819"/>
<path d="M152.05 345.645C151.532 346.428 150.797 346.681 150.038 346.754C149.231 346.838 147.991 346.766 147.183 346.754C146.677 346.741 146.027 346.729 145.738 346.139C145.437 345.525 145.714 344.465 146.099 343.959C146.593 343.32 146.967 342.899 147.448 342.26C147.991 341.525 148.183 340.381 148.292 339.538C149.593 340.694 149.014 341.381 148.641 341.971C148.171 342.73 147.822 343.597 147.123 344.212C146.774 344.513 146.581 344.91 146.81 345.356C147.051 345.826 147.509 345.778 147.942 345.718C149.267 345.549 150.725 345.489 152.05 345.645Z" fill="#191819"/>
<path d="M259.24 341.044C257.698 341.718 256.349 342.381 254.747 342.393C255.578 341.441 256.59 340.778 257.831 340.61C258.288 340.538 258.806 340.357 259.24 341.044Z" fill="#191819"/>
<path d="M148.521 339.935C147.834 340.308 147.666 340.043 147.798 339.586C148.183 339.405 148.412 339.526 148.521 339.935Z" fill="#191819"/>
<path d="M240.725 207.099L236.774 207.038C233.943 207.026 233.244 206.123 232.292 203.449C230.425 198.208 232.292 203.448 230.425 198.208C229.1 194.125 230.425 198.208 229.1 194.124C228.883 193.655 228.895 193.028 229.208 192.583C239.58 180.018 229.208 192.583 239.58 180.018C240.472 179.211 241.508 179.331 242.484 180.018C253.615 190.896 242.484 180.018 253.615 190.896C254.41 191.703 253.771 192.655 253.084 194.317C248.447 205.352 253.084 194.317 250.892 199.762C250.169 201.654 249.362 203.533 248.459 205.34C248.025 206.195 247.314 206.93 246.17 206.978C243.941 207.074 246.17 206.978 243.941 207.074C240.725 207.099 243.929 207.099 240.725 207.099Z" fill="#E83666"/>
</g>
<defs>
<clipPath id="clip0_73_91">
<rect width="446.136" height="406.504" fill="white"/>
</clipPath>
</defs>
</svg>
