<svg width="1440" height="1024" viewBox="0 0 1440 1024" fill="none" xmlns="http://www.w3.org/2000/svg">
<path fill-rule="evenodd" clip-rule="evenodd" d="M1016.83 995.947C919.884 940.04 934.686 796.523 944.818 685.073C953.469 589.903 999.55 509.095 1067.22 441.62C1148.24 360.829 1237.34 265.417 1350.79 280.266C1471.28 296.038 1564.67 398.894 1608.04 512.408C1647.24 614.971 1624.23 734.141 1557.58 821.392C1503.16 892.625 1398.96 870.245 1313.66 897.781C1209.32 931.463 1111.81 1050.72 1016.83 995.947Z" fill="#FF2E63"/>
<path fill-rule="evenodd" clip-rule="evenodd" d="M40.2153 825.433C47.4994 810.006 36.3535 771.989 20.1002 764.307C3.84282 756.623 -15.2427 762.9 -22.529 778.325C-29.8159 793.751 -22.5444 812.484 -6.28895 820.167C9.96912 827.851 32.9267 840.857 40.2153 825.433Z" fill="#FF2E63"/>
<ellipse cx="100.5" cy="-128.5" rx="483.5" ry="351.5" fill="#252A34"/>
<path fill-rule="evenodd" clip-rule="evenodd" d="M1460.81 -11.9057C1503.05 36.5405 1596.86 79.5097 1537.14 141.068C1492.85 186.731 1391.15 172.542 1337.97 120.769C1284.79 69.0004 1262.52 -20.4944 1318.55 -71.7485C1353.93 -108.215 1421.18 -57.3768 1460.81 -11.9057Z" fill="#08D9D6"/>
<mask id="mask0_111_348" style="mask-type:alpha" maskUnits="userSpaceOnUse" x="993" y="804" width="151" height="162">
<path fill-rule="evenodd" clip-rule="evenodd" d="M1022.74 961.325C993.305 942.865 977.318 845.597 1017.83 812.871C1064.86 774.882 1134.72 884.88 1141.38 914.387C1148.03 943.893 1141.55 948.955 1103.82 941.994C1066.1 935.033 1052.18 979.784 1022.74 961.325Z" fill="white"/>
</mask>
<g mask="url(#mask0_111_348)">
<path fill-rule="evenodd" clip-rule="evenodd" d="M993.844 840.519C994.927 841.408 994.715 843.459 993.822 844.545C992.929 845.631 991.326 845.79 990.243 844.9C989.16 844.009 988.316 841.84 989.208 840.754C990.101 839.667 992.76 839.628 993.844 840.519Z" fill="white"/>
<path fill-rule="evenodd" clip-rule="evenodd" d="M1001.29 831.452C1002.38 832.342 1002.16 834.393 1001.27 835.479C1000.38 836.566 998.776 836.724 997.693 835.834C996.609 834.943 995.765 832.775 996.658 831.688C997.55 830.602 1000.21 830.562 1001.29 831.452Z" fill="white"/>
<path fill-rule="evenodd" clip-rule="evenodd" d="M1023.64 804.256C1024.72 805.146 1024.51 807.196 1023.62 808.283C1022.73 809.368 1021.12 809.527 1020.04 808.637C1018.96 807.747 1018.11 805.577 1019.01 804.491C1019.9 803.405 1022.56 803.365 1023.64 804.256Z" fill="white"/>
<path fill-rule="evenodd" clip-rule="evenodd" d="M1002.15 847.342C1003.23 848.232 1003.02 850.282 1002.13 851.369C1001.23 852.455 999.631 852.614 998.548 851.724C997.464 850.833 996.62 848.664 997.512 847.578C998.405 846.491 1001.06 846.452 1002.15 847.342Z" fill="white"/>
<path fill-rule="evenodd" clip-rule="evenodd" d="M1009.6 838.276C1010.68 839.166 1010.47 841.217 1009.58 842.303C1008.68 843.39 1007.08 843.548 1006 842.658C1004.91 841.767 1004.07 839.598 1004.96 838.512C1005.85 837.426 1008.51 837.385 1009.6 838.276Z" fill="white"/>
<path fill-rule="evenodd" clip-rule="evenodd" d="M1017.05 829.21C1018.13 830.1 1017.92 832.151 1017.03 833.237C1016.13 834.324 1014.53 834.482 1013.45 833.592C1012.36 832.701 1011.52 830.533 1012.41 829.446C1013.3 828.36 1015.96 828.32 1017.05 829.21Z" fill="white"/>
<path fill-rule="evenodd" clip-rule="evenodd" d="M1024.5 820.145C1025.58 821.035 1025.37 823.086 1024.47 824.172C1023.58 825.259 1021.98 825.417 1020.9 824.527C1019.81 823.636 1018.97 821.468 1019.86 820.381C1020.75 819.295 1023.41 819.255 1024.5 820.145Z" fill="white"/>
<path fill-rule="evenodd" clip-rule="evenodd" d="M1031.95 811.08C1033.03 811.97 1032.82 814.02 1031.92 815.106C1031.03 816.192 1029.43 816.351 1028.35 815.461C1027.26 814.571 1026.42 812.401 1027.31 811.315C1028.2 810.229 1030.86 810.189 1031.95 811.08Z" fill="white"/>
<path fill-rule="evenodd" clip-rule="evenodd" d="M1003 863.232C1004.09 864.122 1003.88 866.173 1002.98 867.259C1002.09 868.345 1000.49 868.504 999.404 867.614C998.32 866.723 997.476 864.554 998.368 863.468C999.261 862.381 1001.92 862.342 1003 863.232Z" fill="white"/>
<path fill-rule="evenodd" clip-rule="evenodd" d="M1010.45 854.167C1011.54 855.057 1011.32 857.107 1010.43 858.194C1009.54 859.279 1007.94 859.438 1006.85 858.549C1005.77 857.658 1004.93 855.488 1005.82 854.403C1006.71 853.316 1009.37 853.276 1010.45 854.167Z" fill="white"/>
<path fill-rule="evenodd" clip-rule="evenodd" d="M1017.9 845.101C1018.99 845.991 1018.77 848.042 1017.88 849.127C1016.99 850.214 1015.39 850.372 1014.3 849.482C1013.22 848.592 1012.37 846.423 1013.27 845.336C1014.16 844.251 1016.82 844.21 1017.9 845.101Z" fill="white"/>
<path fill-rule="evenodd" clip-rule="evenodd" d="M1025.35 836.035C1026.44 836.925 1026.22 838.976 1025.33 840.062C1024.44 841.149 1022.84 841.307 1021.75 840.417C1020.67 839.526 1019.82 837.357 1020.72 836.271C1021.61 835.185 1024.27 835.144 1025.35 836.035Z" fill="white"/>
<path fill-rule="evenodd" clip-rule="evenodd" d="M1032.8 826.97C1033.88 827.86 1033.67 829.911 1032.78 830.997C1031.89 832.083 1030.28 832.241 1029.2 831.351C1028.12 830.461 1027.27 828.292 1028.17 827.205C1029.06 826.12 1031.72 826.079 1032.8 826.97Z" fill="white"/>
<path fill-rule="evenodd" clip-rule="evenodd" d="M1040.25 817.904C1041.33 818.794 1041.12 820.844 1040.23 821.931C1039.34 823.017 1037.73 823.176 1036.65 822.286C1035.57 821.395 1034.72 819.226 1035.62 818.14C1036.51 817.053 1039.17 817.014 1040.25 817.904Z" fill="white"/>
<path fill-rule="evenodd" clip-rule="evenodd" d="M1047.7 808.839C1048.78 809.729 1048.57 811.78 1047.68 812.866C1046.78 813.952 1045.18 814.11 1044.1 813.221C1043.02 812.33 1042.17 810.161 1043.06 809.075C1043.96 807.989 1046.62 807.948 1047.7 808.839Z" fill="white"/>
<path fill-rule="evenodd" clip-rule="evenodd" d="M1055.15 799.773C1056.23 800.663 1056.02 802.713 1055.13 803.8C1054.23 804.887 1052.63 805.045 1051.55 804.155C1050.46 803.264 1049.62 801.096 1050.51 800.009C1051.41 798.922 1054.07 798.883 1055.15 799.773Z" fill="white"/>
<path fill-rule="evenodd" clip-rule="evenodd" d="M1003.86 879.121C1004.94 880.011 1004.73 882.062 1003.84 883.148C1002.94 884.234 1001.34 884.392 1000.26 883.503C999.176 882.612 998.331 880.443 999.224 879.357C1000.12 878.271 1002.78 878.23 1003.86 879.121Z" fill="white"/>
<path fill-rule="evenodd" clip-rule="evenodd" d="M1011.31 870.056C1012.39 870.946 1012.18 872.996 1011.29 874.083C1010.39 875.169 1008.79 875.328 1007.71 874.438C1006.62 873.547 1005.78 871.378 1006.67 870.292C1007.57 869.205 1010.22 869.166 1011.31 870.056Z" fill="white"/>
<path fill-rule="evenodd" clip-rule="evenodd" d="M1018.76 860.991C1019.84 861.881 1019.63 863.931 1018.74 865.017C1017.84 866.103 1016.24 866.262 1015.16 865.372C1014.07 864.482 1013.23 862.312 1014.12 861.226C1015.02 860.14 1017.67 860.1 1018.76 860.991Z" fill="white"/>
<path fill-rule="evenodd" clip-rule="evenodd" d="M1026.21 851.924C1027.29 852.814 1027.08 854.865 1026.19 855.951C1025.29 857.038 1023.69 857.196 1022.61 856.306C1021.52 855.415 1020.68 853.247 1021.57 852.16C1022.46 851.074 1025.12 851.034 1026.21 851.924Z" fill="white"/>
<path fill-rule="evenodd" clip-rule="evenodd" d="M1033.66 842.859C1034.74 843.749 1034.53 845.8 1033.63 846.886C1032.74 847.972 1031.14 848.13 1030.06 847.24C1028.97 846.35 1028.13 844.181 1029.02 843.095C1029.91 842.009 1032.57 841.968 1033.66 842.859Z" fill="white"/>
<path fill-rule="evenodd" clip-rule="evenodd" d="M1041.11 833.794C1042.19 834.683 1041.98 836.735 1041.08 837.82C1040.19 838.907 1038.59 839.065 1037.51 838.175C1036.42 837.285 1035.58 835.116 1036.47 834.029C1037.36 832.943 1040.02 832.903 1041.11 833.794Z" fill="white"/>
<path fill-rule="evenodd" clip-rule="evenodd" d="M1048.56 824.728C1049.64 825.618 1049.43 827.668 1048.53 828.755C1047.64 829.841 1046.04 829.999 1044.95 829.11C1043.87 828.219 1043.03 826.049 1043.92 824.964C1044.81 823.877 1047.47 823.837 1048.56 824.728Z" fill="white"/>
<path fill-rule="evenodd" clip-rule="evenodd" d="M1056 815.663C1057.09 816.553 1056.87 818.604 1055.98 819.689C1055.09 820.776 1053.49 820.934 1052.4 820.044C1051.32 819.154 1050.48 816.985 1051.37 815.898C1052.26 814.813 1054.92 814.772 1056 815.663Z" fill="white"/>
<path fill-rule="evenodd" clip-rule="evenodd" d="M1004.72 895.01C1005.8 895.901 1005.59 897.951 1004.69 899.037C1003.8 900.123 1002.2 900.282 1001.12 899.392C1000.03 898.501 999.187 896.332 1000.08 895.246C1000.97 894.16 1003.63 894.119 1004.72 895.01Z" fill="white"/>
<path fill-rule="evenodd" clip-rule="evenodd" d="M1012.16 885.945C1013.25 886.835 1013.03 888.886 1012.14 889.971C1011.25 891.058 1009.65 891.217 1008.56 890.326C1007.48 889.436 1006.64 887.267 1007.53 886.18C1008.42 885.095 1011.08 885.054 1012.16 885.945Z" fill="white"/>
<path fill-rule="evenodd" clip-rule="evenodd" d="M1019.61 876.88C1020.7 877.771 1020.48 879.82 1019.59 880.907C1018.7 881.993 1017.1 882.152 1016.01 881.262C1014.93 880.371 1014.08 878.202 1014.98 877.116C1015.87 876.029 1018.53 875.989 1019.61 876.88Z" fill="white"/>
<path fill-rule="evenodd" clip-rule="evenodd" d="M1027.06 867.814C1028.15 868.705 1027.93 870.755 1027.04 871.841C1026.15 872.927 1024.55 873.087 1023.46 872.196C1022.38 871.305 1021.53 869.136 1022.43 868.05C1023.32 866.963 1025.98 866.924 1027.06 867.814Z" fill="white"/>
<path fill-rule="evenodd" clip-rule="evenodd" d="M1034.51 858.748C1035.6 859.639 1035.38 861.689 1034.49 862.775C1033.6 863.862 1032 864.021 1030.91 863.13C1029.83 862.239 1028.98 860.071 1029.88 858.984C1030.77 857.898 1033.43 857.858 1034.51 858.748Z" fill="white"/>
<path fill-rule="evenodd" clip-rule="evenodd" d="M1041.96 849.683C1043.05 850.574 1042.83 852.624 1041.94 853.71C1041.05 854.797 1039.45 854.956 1038.36 854.065C1037.28 853.174 1036.43 851.006 1037.33 849.919C1038.22 848.833 1040.88 848.793 1041.96 849.683Z" fill="white"/>
<path fill-rule="evenodd" clip-rule="evenodd" d="M1049.41 840.617C1050.49 841.508 1050.28 843.557 1049.39 844.644C1048.5 845.731 1046.89 845.89 1045.81 844.999C1044.73 844.108 1043.88 841.94 1044.77 840.853C1045.67 839.766 1048.33 839.727 1049.41 840.617Z" fill="white"/>
<path fill-rule="evenodd" clip-rule="evenodd" d="M1056.86 831.552C1057.94 832.442 1057.73 834.492 1056.84 835.579C1055.95 836.664 1054.34 836.824 1053.26 835.933C1052.18 835.043 1051.33 832.873 1052.22 831.787C1053.12 830.701 1055.78 830.661 1056.86 831.552Z" fill="white"/>
<path fill-rule="evenodd" clip-rule="evenodd" d="M1064.31 822.486C1065.39 823.377 1065.18 825.427 1064.29 826.513C1063.39 827.6 1061.79 827.759 1060.71 826.868C1059.62 825.977 1058.78 823.809 1059.67 822.722C1060.57 821.636 1063.22 821.596 1064.31 822.486Z" fill="white"/>
<path fill-rule="evenodd" clip-rule="evenodd" d="M998.122 919.966C999.206 920.857 998.992 922.906 998.099 923.993C997.207 925.079 995.605 925.239 994.521 924.348C993.437 923.457 992.594 921.288 993.486 920.202C994.379 919.115 997.038 919.076 998.122 919.966Z" fill="white"/>
<path fill-rule="evenodd" clip-rule="evenodd" d="M1005.57 910.901C1006.65 911.792 1006.44 913.841 1005.55 914.928C1004.66 916.015 1003.05 916.173 1001.97 915.283C1000.89 914.392 1000.04 912.224 1000.93 911.137C1001.83 910.05 1004.49 910.01 1005.57 910.901Z" fill="white"/>
<path fill-rule="evenodd" clip-rule="evenodd" d="M1013.02 901.835C1014.1 902.725 1013.89 904.776 1013 905.861C1012.11 906.948 1010.5 907.107 1009.42 906.216C1008.34 905.326 1007.49 903.157 1008.38 902.07C1009.28 900.984 1011.94 900.944 1013.02 901.835Z" fill="white"/>
<path fill-rule="evenodd" clip-rule="evenodd" d="M1020.47 892.77C1021.55 893.661 1021.34 895.711 1020.45 896.797C1019.56 897.884 1017.95 898.042 1016.87 897.152C1015.79 896.261 1014.94 894.092 1015.83 893.006C1016.73 891.92 1019.39 891.879 1020.47 892.77Z" fill="white"/>
<path fill-rule="evenodd" clip-rule="evenodd" d="M1027.92 883.705C1029 884.595 1028.79 886.645 1027.9 887.731C1027 888.817 1025.4 888.977 1024.32 888.086C1023.23 887.196 1022.39 885.026 1023.28 883.94C1024.18 882.854 1026.83 882.814 1027.92 883.705Z" fill="white"/>
<path fill-rule="evenodd" clip-rule="evenodd" d="M1035.37 874.639C1036.45 875.53 1036.24 877.579 1035.35 878.666C1034.45 879.752 1032.85 879.911 1031.77 879.021C1030.68 878.13 1029.84 875.96 1030.73 874.875C1031.62 873.788 1034.28 873.748 1035.37 874.639Z" fill="white"/>
<path fill-rule="evenodd" clip-rule="evenodd" d="M1042.82 865.574C1043.9 866.464 1043.69 868.515 1042.8 869.6C1041.9 870.687 1040.3 870.846 1039.22 869.955C1038.13 869.065 1037.29 866.896 1038.18 865.809C1039.07 864.723 1041.73 864.683 1042.82 865.574Z" fill="white"/>
<path fill-rule="evenodd" clip-rule="evenodd" d="M1050.27 856.508C1051.35 857.399 1051.14 859.449 1050.25 860.535C1049.35 861.621 1047.75 861.78 1046.67 860.89C1045.58 859.999 1044.74 857.83 1045.63 856.744C1046.52 855.658 1049.18 855.617 1050.27 856.508Z" fill="white"/>
<path fill-rule="evenodd" clip-rule="evenodd" d="M1057.72 847.442C1058.8 848.333 1058.59 850.383 1057.69 851.469C1056.8 852.555 1055.2 852.714 1054.12 851.824C1053.03 850.933 1052.19 848.764 1053.08 847.678C1053.97 846.592 1056.63 846.551 1057.72 847.442Z" fill="white"/>
<path fill-rule="evenodd" clip-rule="evenodd" d="M1065.17 838.377C1066.25 839.268 1066.04 841.317 1065.14 842.404C1064.25 843.49 1062.65 843.649 1061.57 842.759C1060.48 841.868 1059.64 839.699 1060.53 838.613C1061.42 837.526 1064.08 837.486 1065.17 838.377Z" fill="white"/>
<path fill-rule="evenodd" clip-rule="evenodd" d="M1072.61 829.312C1073.7 830.202 1073.48 832.253 1072.59 833.339C1071.7 834.425 1070.1 834.584 1069.01 833.693C1067.93 832.803 1067.09 830.634 1067.98 829.547C1068.87 828.462 1071.53 828.421 1072.61 829.312Z" fill="white"/>
<path fill-rule="evenodd" clip-rule="evenodd" d="M998.977 935.856C1000.06 936.746 999.848 938.796 998.955 939.883C998.062 940.968 996.46 941.128 995.376 940.237C994.293 939.348 993.449 937.177 994.341 936.091C995.234 935.005 997.894 934.966 998.977 935.856Z" fill="white"/>
<path fill-rule="evenodd" clip-rule="evenodd" d="M1006.43 926.79C1007.51 927.681 1007.3 929.731 1006.4 930.817C1005.51 931.904 1003.91 932.062 1002.83 931.172C1001.74 930.282 1000.9 928.113 1001.79 927.026C1002.68 925.94 1005.34 925.9 1006.43 926.79Z" fill="white"/>
<path fill-rule="evenodd" clip-rule="evenodd" d="M1013.88 917.725C1014.96 918.616 1014.75 920.665 1013.85 921.752C1012.96 922.838 1011.36 922.997 1010.27 922.107C1009.19 921.217 1008.35 919.047 1009.24 917.961C1010.13 916.874 1012.79 916.835 1013.88 917.725Z" fill="white"/>
<path fill-rule="evenodd" clip-rule="evenodd" d="M1021.33 908.658C1022.41 909.549 1022.2 911.599 1021.3 912.685C1020.41 913.772 1018.81 913.931 1017.72 913.04C1016.64 912.15 1015.8 909.981 1016.69 908.894C1017.58 907.808 1020.24 907.768 1021.33 908.658Z" fill="white"/>
<path fill-rule="evenodd" clip-rule="evenodd" d="M1028.77 899.593C1029.86 900.484 1029.64 902.534 1028.75 903.62C1027.86 904.707 1026.26 904.865 1025.17 903.975C1024.09 903.085 1023.25 900.915 1024.14 899.829C1025.03 898.743 1027.69 898.703 1028.77 899.593Z" fill="white"/>
<path fill-rule="evenodd" clip-rule="evenodd" d="M1036.22 890.528C1037.31 891.419 1037.09 893.468 1036.2 894.555C1035.31 895.641 1033.71 895.801 1032.62 894.91C1031.54 894.02 1030.69 891.85 1031.59 890.764C1032.48 889.677 1035.14 889.639 1036.22 890.528Z" fill="white"/>
<path fill-rule="evenodd" clip-rule="evenodd" d="M1043.67 881.463C1044.76 882.354 1044.54 884.403 1043.65 885.49C1042.76 886.575 1041.16 886.735 1040.07 885.844C1038.99 884.955 1038.14 882.784 1039.04 881.699C1039.93 880.612 1042.59 880.573 1043.67 881.463Z" fill="white"/>
<path fill-rule="evenodd" clip-rule="evenodd" d="M1051.12 872.397C1052.21 873.287 1051.99 875.338 1051.1 876.423C1050.21 877.51 1048.61 877.669 1047.52 876.778C1046.44 875.888 1045.59 873.719 1046.49 872.632C1047.38 871.546 1050.04 871.507 1051.12 872.397Z" fill="white"/>
<path fill-rule="evenodd" clip-rule="evenodd" d="M1058.57 863.331C1059.66 864.222 1059.44 866.272 1058.55 867.358C1057.66 868.444 1056.05 868.603 1054.97 867.713C1053.89 866.823 1053.04 864.653 1053.94 863.567C1054.83 862.481 1057.49 862.441 1058.57 863.331Z" fill="white"/>
<path fill-rule="evenodd" clip-rule="evenodd" d="M1066.02 854.266C1067.1 855.156 1066.89 857.206 1066 858.292C1065.1 859.379 1063.5 859.538 1062.42 858.647C1061.34 857.757 1060.49 855.588 1061.38 854.501C1062.28 853.415 1064.94 853.376 1066.02 854.266Z" fill="white"/>
<path fill-rule="evenodd" clip-rule="evenodd" d="M1073.47 845.2C1074.55 846.091 1074.34 848.14 1073.45 849.227C1072.56 850.313 1070.95 850.472 1069.87 849.582C1068.79 848.692 1067.94 846.522 1068.83 845.436C1069.73 844.349 1072.39 844.31 1073.47 845.2Z" fill="white"/>
<path fill-rule="evenodd" clip-rule="evenodd" d="M1080.92 836.135C1082 837.026 1081.79 839.076 1080.9 840.162C1080 841.248 1078.4 841.407 1077.32 840.516C1076.24 839.627 1075.39 837.457 1076.28 836.371C1077.17 835.285 1079.84 835.245 1080.92 836.135Z" fill="white"/>
<path fill-rule="evenodd" clip-rule="evenodd" d="M1007.28 942.68C1008.37 943.571 1008.15 945.62 1007.26 946.707C1006.37 947.793 1004.77 947.953 1003.68 947.062C1002.6 946.172 1001.75 944.002 1002.65 942.916C1003.54 941.829 1006.2 941.79 1007.28 942.68Z" fill="white"/>
<path fill-rule="evenodd" clip-rule="evenodd" d="M1014.73 933.615C1015.82 934.505 1015.6 936.556 1014.71 937.642C1013.82 938.728 1012.21 938.887 1011.13 937.996C1010.05 937.107 1009.2 934.937 1010.1 933.85C1010.99 932.765 1013.65 932.725 1014.73 933.615Z" fill="white"/>
<path fill-rule="evenodd" clip-rule="evenodd" d="M1022.18 924.549C1023.26 925.44 1023.05 927.489 1022.16 928.576C1021.27 929.663 1019.66 929.822 1018.58 928.931C1017.5 928.041 1016.65 925.872 1017.54 924.785C1018.44 923.698 1021.1 923.66 1022.18 924.549Z" fill="white"/>
<path fill-rule="evenodd" clip-rule="evenodd" d="M1029.63 915.483C1030.71 916.374 1030.5 918.424 1029.61 919.51C1028.72 920.596 1027.11 920.755 1026.03 919.865C1024.95 918.975 1024.1 916.805 1024.99 915.719C1025.89 914.633 1028.55 914.593 1029.63 915.483Z" fill="white"/>
<path fill-rule="evenodd" clip-rule="evenodd" d="M1037.08 906.418C1038.16 907.308 1037.95 909.359 1037.06 910.444C1036.16 911.531 1034.56 911.69 1033.48 910.799C1032.4 909.909 1031.55 907.74 1032.44 906.653C1033.34 905.568 1036 905.528 1037.08 906.418Z" fill="white"/>
<path fill-rule="evenodd" clip-rule="evenodd" d="M1044.53 897.353C1045.61 898.244 1045.4 900.293 1044.51 901.38C1043.61 902.466 1042.01 902.625 1040.93 901.735C1039.84 900.845 1039 898.674 1039.89 897.589C1040.79 896.502 1043.45 896.463 1044.53 897.353Z" fill="white"/>
<path fill-rule="evenodd" clip-rule="evenodd" d="M1051.98 888.287C1053.06 889.177 1052.85 891.228 1051.96 892.314C1051.06 893.4 1049.46 893.559 1048.38 892.668C1047.29 891.779 1046.45 889.609 1047.34 888.522C1048.23 887.437 1050.89 887.397 1051.98 888.287Z" fill="white"/>
<path fill-rule="evenodd" clip-rule="evenodd" d="M1059.43 879.221C1060.51 880.112 1060.3 882.162 1059.4 883.248C1058.51 884.335 1056.91 884.493 1055.83 883.603C1054.74 882.713 1053.9 880.544 1054.79 879.457C1055.68 878.371 1058.34 878.331 1059.43 879.221Z" fill="white"/>
<path fill-rule="evenodd" clip-rule="evenodd" d="M1066.88 870.156C1067.96 871.046 1067.75 873.097 1066.85 874.182C1065.96 875.269 1064.36 875.428 1063.28 874.537C1062.19 873.647 1061.35 871.478 1062.24 870.391C1063.13 869.305 1065.79 869.266 1066.88 870.156Z" fill="white"/>
<path fill-rule="evenodd" clip-rule="evenodd" d="M1074.33 861.09C1075.41 861.981 1075.2 864.03 1074.3 865.117C1073.41 866.204 1071.81 866.363 1070.72 865.472C1069.64 864.582 1068.8 862.413 1069.69 861.326C1070.58 860.239 1073.24 860.2 1074.33 861.09Z" fill="white"/>
<path fill-rule="evenodd" clip-rule="evenodd" d="M1081.77 852.025C1082.86 852.915 1082.65 854.965 1081.75 856.051C1080.86 857.137 1079.26 857.297 1078.17 856.406C1077.09 855.516 1076.25 853.346 1077.14 852.26C1078.03 851.174 1080.69 851.135 1081.77 852.025Z" fill="white"/>
<path fill-rule="evenodd" clip-rule="evenodd" d="M1089.22 842.959C1090.31 843.85 1090.09 845.9 1089.2 846.986C1088.31 848.073 1086.71 848.232 1085.62 847.341C1084.54 846.451 1083.69 844.282 1084.59 843.195C1085.48 842.109 1088.14 842.07 1089.22 842.959Z" fill="white"/>
<path fill-rule="evenodd" clip-rule="evenodd" d="M1023.04 940.439C1024.12 941.329 1023.91 943.379 1023.01 944.465C1022.12 945.551 1020.52 945.711 1019.44 944.82C1018.35 943.93 1017.51 941.76 1018.4 940.674C1019.29 939.587 1021.95 939.549 1023.04 940.439Z" fill="white"/>
<path fill-rule="evenodd" clip-rule="evenodd" d="M1030.48 931.373C1031.57 932.264 1031.36 934.313 1030.46 935.4C1029.57 936.487 1027.97 936.646 1026.88 935.755C1025.8 934.865 1024.96 932.696 1025.85 931.609C1026.74 930.522 1029.4 930.483 1030.48 931.373Z" fill="white"/>
<path fill-rule="evenodd" clip-rule="evenodd" d="M1037.93 922.307C1039.02 923.197 1038.8 925.248 1037.91 926.333C1037.02 927.42 1035.42 927.579 1034.33 926.688C1033.25 925.798 1032.41 923.629 1033.3 922.542C1034.19 921.457 1036.85 921.417 1037.93 922.307Z" fill="white"/>
<path fill-rule="evenodd" clip-rule="evenodd" d="M1045.38 913.241C1046.47 914.132 1046.25 916.182 1045.36 917.268C1044.47 918.355 1042.87 918.514 1041.78 917.623C1040.7 916.733 1039.86 914.564 1040.75 913.477C1041.64 912.391 1044.3 912.352 1045.38 913.241Z" fill="white"/>
<path fill-rule="evenodd" clip-rule="evenodd" d="M1052.83 904.177C1053.92 905.067 1053.7 907.117 1052.81 908.204C1051.92 909.289 1050.32 909.449 1049.23 908.558C1048.15 907.669 1047.3 905.498 1048.2 904.412C1049.09 903.326 1051.75 903.287 1052.83 904.177Z" fill="white"/>
<path fill-rule="evenodd" clip-rule="evenodd" d="M1060.28 895.111C1061.37 896.001 1061.15 898.052 1060.26 899.137C1059.37 900.224 1057.77 900.383 1056.68 899.492C1055.6 898.602 1054.75 896.433 1055.65 895.346C1056.54 894.26 1059.2 894.221 1060.28 895.111Z" fill="white"/>
<path fill-rule="evenodd" clip-rule="evenodd" d="M1067.73 886.045C1068.82 886.936 1068.6 888.986 1067.71 890.072C1066.82 891.158 1065.22 891.317 1064.13 890.427C1063.05 889.537 1062.2 887.367 1063.1 886.281C1063.99 885.195 1066.65 885.155 1067.73 886.045Z" fill="white"/>
<path fill-rule="evenodd" clip-rule="evenodd" d="M1075.18 876.979C1076.26 877.87 1076.05 879.92 1075.16 881.006C1074.27 882.093 1072.66 882.252 1071.58 881.361C1070.5 880.471 1069.65 878.302 1070.54 877.215C1071.44 876.129 1074.1 876.089 1075.18 876.979Z" fill="white"/>
<path fill-rule="evenodd" clip-rule="evenodd" d="M1082.63 867.914C1083.71 868.805 1083.5 870.854 1082.61 871.941C1081.71 873.028 1080.11 873.186 1079.03 872.296C1077.95 871.406 1077.1 869.236 1077.99 868.15C1078.89 867.063 1081.55 867.024 1082.63 867.914Z" fill="white"/>
<path fill-rule="evenodd" clip-rule="evenodd" d="M1090.08 858.848C1091.16 859.739 1090.95 861.788 1090.06 862.875C1089.16 863.961 1087.56 864.121 1086.48 863.23C1085.4 862.34 1084.55 860.17 1085.44 859.084C1086.34 857.997 1089 857.959 1090.08 858.848Z" fill="white"/>
<path fill-rule="evenodd" clip-rule="evenodd" d="M1097.53 849.783C1098.61 850.674 1098.4 852.724 1097.51 853.81C1096.61 854.897 1095.01 855.056 1093.93 854.165C1092.84 853.275 1092 851.106 1092.89 850.019C1093.78 848.933 1096.45 848.893 1097.53 849.783Z" fill="white"/>
<path fill-rule="evenodd" clip-rule="evenodd" d="M1104.98 840.718C1106.06 841.608 1105.85 843.658 1104.96 844.744C1104.06 845.831 1102.46 845.99 1101.38 845.099C1100.29 844.209 1099.45 842.04 1100.34 840.953C1101.23 839.867 1103.89 839.828 1104.98 840.718Z" fill="white"/>
<path fill-rule="evenodd" clip-rule="evenodd" d="M1031.34 947.263C1032.42 948.154 1032.21 950.203 1031.32 951.29C1030.43 952.376 1028.82 952.535 1027.74 951.645C1026.66 950.755 1025.81 948.585 1026.71 947.499C1027.6 946.412 1030.26 946.373 1031.34 947.263Z" fill="white"/>
<path fill-rule="evenodd" clip-rule="evenodd" d="M1038.79 938.198C1039.87 939.089 1039.66 941.138 1038.77 942.225C1037.87 943.311 1036.27 943.47 1035.19 942.579C1034.11 941.69 1033.26 939.52 1034.15 938.434C1035.05 937.347 1037.71 937.308 1038.79 938.198Z" fill="white"/>
<path fill-rule="evenodd" clip-rule="evenodd" d="M1046.24 929.131C1047.32 930.022 1047.11 932.072 1046.22 933.158C1045.33 934.245 1043.72 934.404 1042.64 933.513C1041.56 932.623 1040.71 930.454 1041.6 929.367C1042.5 928.281 1045.16 928.241 1046.24 929.131Z" fill="white"/>
<path fill-rule="evenodd" clip-rule="evenodd" d="M1053.69 920.066C1054.77 920.957 1054.56 923.007 1053.67 924.093C1052.77 925.179 1051.17 925.338 1050.09 924.448C1049.01 923.558 1048.16 921.388 1049.05 920.302C1049.95 919.216 1052.61 919.176 1053.69 920.066Z" fill="white"/>
<path fill-rule="evenodd" clip-rule="evenodd" d="M1061.14 911.001C1062.22 911.892 1062.01 913.941 1061.12 915.028C1060.22 916.114 1058.62 916.274 1057.54 915.383C1056.45 914.493 1055.61 912.323 1056.5 911.237C1057.39 910.15 1060.05 910.111 1061.14 911.001Z" fill="white"/>
<path fill-rule="evenodd" clip-rule="evenodd" d="M1068.59 901.935C1069.67 902.826 1069.46 904.876 1068.57 905.962C1067.67 907.049 1066.07 907.207 1064.99 906.317C1063.9 905.427 1063.06 903.258 1063.95 902.171C1064.84 901.085 1067.5 901.045 1068.59 901.935Z" fill="white"/>
<path fill-rule="evenodd" clip-rule="evenodd" d="M1076.04 892.87C1077.12 893.76 1076.91 895.81 1076.01 896.896C1075.12 897.983 1073.52 898.142 1072.44 897.251C1071.35 896.361 1070.51 894.192 1071.4 893.105C1072.29 892.019 1074.95 891.98 1076.04 892.87Z" fill="white"/>
<path fill-rule="evenodd" clip-rule="evenodd" d="M1083.49 883.804C1084.57 884.695 1084.36 886.745 1083.46 887.831C1082.57 888.917 1080.97 889.076 1079.89 888.186C1078.8 887.296 1077.96 885.126 1078.85 884.04C1079.74 882.954 1082.4 882.914 1083.49 883.804Z" fill="white"/>
<path fill-rule="evenodd" clip-rule="evenodd" d="M1090.94 874.739C1092.02 875.629 1091.81 877.679 1090.91 878.765C1090.02 879.852 1088.42 880.011 1087.33 879.12C1086.25 878.23 1085.41 876.061 1086.3 874.974C1087.19 873.888 1089.85 873.849 1090.94 874.739Z" fill="white"/>
<path fill-rule="evenodd" clip-rule="evenodd" d="M1098.38 865.673C1099.47 866.564 1099.26 868.613 1098.36 869.7C1097.47 870.786 1095.87 870.945 1094.78 870.055C1093.7 869.165 1092.86 866.994 1093.75 865.909C1094.64 864.822 1097.3 864.783 1098.38 865.673Z" fill="white"/>
<path fill-rule="evenodd" clip-rule="evenodd" d="M1105.83 856.608C1106.92 857.498 1106.7 859.549 1105.81 860.635C1104.92 861.721 1103.32 861.88 1102.23 860.989C1101.15 860.1 1100.3 857.93 1101.2 856.843C1102.09 855.758 1104.75 855.718 1105.83 856.608Z" fill="white"/>
<path fill-rule="evenodd" clip-rule="evenodd" d="M1113.28 847.542C1114.37 848.433 1114.15 850.482 1113.26 851.569C1112.37 852.656 1110.77 852.814 1109.68 851.924C1108.6 851.034 1107.75 848.865 1108.65 847.778C1109.54 846.691 1112.2 846.652 1113.28 847.542Z" fill="white"/>
<path fill-rule="evenodd" clip-rule="evenodd" d="M1039.65 954.087C1040.73 954.978 1040.52 957.028 1039.62 958.114C1038.73 959.2 1037.13 959.359 1036.04 958.469C1034.96 957.579 1034.12 955.409 1035.01 954.323C1035.9 953.237 1038.56 953.197 1039.65 954.087Z" fill="white"/>
<path fill-rule="evenodd" clip-rule="evenodd" d="M1047.09 945.022C1048.18 945.912 1047.97 947.962 1047.07 949.048C1046.18 950.135 1044.58 950.294 1043.49 949.403C1042.41 948.513 1041.57 946.344 1042.46 945.257C1043.35 944.171 1046.01 944.132 1047.09 945.022Z" fill="white"/>
<path fill-rule="evenodd" clip-rule="evenodd" d="M1054.54 935.955C1055.63 936.846 1055.41 938.896 1054.52 939.982C1053.63 941.069 1052.03 941.227 1050.94 940.337C1049.86 939.447 1049.02 937.277 1049.91 936.191C1050.8 935.105 1053.46 935.065 1054.54 935.955Z" fill="white"/>
<path fill-rule="evenodd" clip-rule="evenodd" d="M1061.99 926.89C1063.08 927.78 1062.86 929.831 1061.97 930.917C1061.08 932.003 1059.48 932.162 1058.39 931.271C1057.31 930.382 1056.46 928.212 1057.36 927.125C1058.25 926.04 1060.91 926 1061.99 926.89Z" fill="white"/>
<path fill-rule="evenodd" clip-rule="evenodd" d="M1069.44 917.825C1070.53 918.716 1070.31 920.765 1069.42 921.852C1068.53 922.938 1066.93 923.097 1065.84 922.207C1064.76 921.317 1063.91 919.147 1064.81 918.061C1065.7 916.974 1068.36 916.935 1069.44 917.825Z" fill="white"/>
<path fill-rule="evenodd" clip-rule="evenodd" d="M1076.89 908.759C1077.98 909.65 1077.76 911.7 1076.87 912.786C1075.98 913.872 1074.38 914.031 1073.29 913.141C1072.21 912.251 1071.36 910.081 1072.26 908.995C1073.15 907.909 1075.81 907.869 1076.89 908.759Z" fill="white"/>
<path fill-rule="evenodd" clip-rule="evenodd" d="M1084.34 899.693C1085.43 900.584 1085.21 902.634 1084.32 903.72C1083.43 904.807 1081.82 904.966 1080.74 904.075C1079.66 903.185 1078.81 901.016 1079.71 899.929C1080.6 898.843 1083.26 898.803 1084.34 899.693Z" fill="white"/>
<path fill-rule="evenodd" clip-rule="evenodd" d="M1091.79 890.628C1092.87 891.518 1092.66 893.569 1091.77 894.654C1090.88 895.741 1089.27 895.9 1088.19 895.009C1087.11 894.119 1086.26 891.95 1087.15 890.863C1088.05 889.778 1090.71 889.738 1091.79 890.628Z" fill="white"/>
<path fill-rule="evenodd" clip-rule="evenodd" d="M1099.24 881.562C1100.32 882.453 1100.11 884.502 1099.22 885.589C1098.32 886.676 1096.72 886.835 1095.64 885.944C1094.56 885.054 1093.71 882.885 1094.6 881.798C1095.5 880.711 1098.16 880.673 1099.24 881.562Z" fill="white"/>
<path fill-rule="evenodd" clip-rule="evenodd" d="M1106.69 872.497C1107.77 873.387 1107.56 875.437 1106.67 876.524C1105.77 877.609 1104.17 877.769 1103.09 876.878C1102.01 875.989 1101.16 873.818 1102.05 872.732C1102.95 871.646 1105.61 871.607 1106.69 872.497Z" fill="white"/>
<path fill-rule="evenodd" clip-rule="evenodd" d="M1114.14 863.432C1115.22 864.322 1115.01 866.373 1114.12 867.458C1113.22 868.545 1111.62 868.704 1110.54 867.813C1109.45 866.923 1108.61 864.754 1109.5 863.667C1110.39 862.581 1113.05 862.542 1114.14 863.432Z" fill="white"/>
<path fill-rule="evenodd" clip-rule="evenodd" d="M1121.59 854.366C1122.67 855.257 1122.46 857.306 1121.56 858.393C1120.67 859.479 1119.07 859.638 1117.99 858.748C1116.9 857.858 1116.06 855.688 1116.95 854.602C1117.84 853.515 1120.5 853.476 1121.59 854.366Z" fill="white"/>
<path fill-rule="evenodd" clip-rule="evenodd" d="M1055.4 951.846C1056.48 952.737 1056.27 954.786 1055.38 955.873C1054.48 956.96 1052.88 957.118 1051.8 956.228C1050.72 955.338 1049.87 953.169 1050.76 952.082C1051.66 950.995 1054.32 950.956 1055.4 951.846Z" fill="white"/>
<path fill-rule="evenodd" clip-rule="evenodd" d="M1062.85 942.78C1063.93 943.67 1063.72 945.721 1062.83 946.806C1061.93 947.893 1060.33 948.052 1059.25 947.161C1058.17 946.271 1057.32 944.102 1058.21 943.015C1059.11 941.93 1061.77 941.89 1062.85 942.78Z" fill="white"/>
<path fill-rule="evenodd" clip-rule="evenodd" d="M1070.3 933.714C1071.38 934.605 1071.17 936.655 1070.28 937.741C1069.38 938.828 1067.78 938.987 1066.7 938.096C1065.62 937.206 1064.77 935.037 1065.66 933.95C1066.56 932.864 1069.22 932.824 1070.3 933.714Z" fill="white"/>
<path fill-rule="evenodd" clip-rule="evenodd" d="M1077.75 924.65C1078.83 925.54 1078.62 927.59 1077.73 928.676C1076.83 929.762 1075.23 929.922 1074.15 929.031C1073.06 928.141 1072.22 925.971 1073.11 924.885C1074 923.799 1076.66 923.76 1077.75 924.65Z" fill="white"/>
<path fill-rule="evenodd" clip-rule="evenodd" d="M1085.2 915.583C1086.28 916.474 1086.07 918.524 1085.18 919.61C1084.28 920.697 1082.68 920.856 1081.6 919.965C1080.51 919.075 1079.67 916.906 1080.56 915.819C1081.45 914.733 1084.11 914.694 1085.2 915.583Z" fill="white"/>
<path fill-rule="evenodd" clip-rule="evenodd" d="M1092.65 906.518C1093.73 907.409 1093.52 909.459 1092.62 910.545C1091.73 911.631 1090.13 911.79 1089.05 910.9C1087.96 910.01 1087.12 907.84 1088.01 906.754C1088.9 905.668 1091.56 905.628 1092.65 906.518Z" fill="white"/>
<path fill-rule="evenodd" clip-rule="evenodd" d="M1100.1 897.452C1101.18 898.343 1100.97 900.393 1100.07 901.479C1099.18 902.566 1097.58 902.725 1096.5 901.834C1095.41 900.944 1094.57 898.775 1095.46 897.688C1096.35 896.602 1099.01 896.562 1100.1 897.452Z" fill="white"/>
<path fill-rule="evenodd" clip-rule="evenodd" d="M1107.54 888.387C1108.63 889.278 1108.42 891.327 1107.52 892.414C1106.63 893.5 1105.03 893.659 1103.94 892.769C1102.86 891.879 1102.02 889.709 1102.91 888.623C1103.8 887.536 1106.46 887.497 1107.54 888.387Z" fill="white"/>
<path fill-rule="evenodd" clip-rule="evenodd" d="M1114.99 879.321C1116.08 880.212 1115.86 882.261 1114.97 883.348C1114.08 884.434 1112.48 884.594 1111.39 883.703C1110.31 882.813 1109.47 880.643 1110.36 879.557C1111.25 878.47 1113.91 878.432 1114.99 879.321Z" fill="white"/>
<path fill-rule="evenodd" clip-rule="evenodd" d="M1129.89 861.191C1130.98 862.081 1130.76 864.131 1129.87 865.217C1128.98 866.304 1127.38 866.463 1126.29 865.572C1125.21 864.682 1124.36 862.513 1125.26 861.426C1126.15 860.339 1128.81 860.301 1129.89 861.191Z" fill="white"/>
<path fill-rule="evenodd" clip-rule="evenodd" d="M1056.26 967.735C1057.34 968.626 1057.13 970.675 1056.23 971.762C1055.34 972.848 1053.74 973.008 1052.65 972.117C1051.57 971.227 1050.73 969.057 1051.62 967.971C1052.51 966.884 1055.17 966.845 1056.26 967.735Z" fill="white"/>
<path fill-rule="evenodd" clip-rule="evenodd" d="M1063.7 958.67C1064.79 959.561 1064.57 961.61 1063.68 962.697C1062.79 963.783 1061.19 963.942 1060.1 963.052C1059.02 962.162 1058.18 959.992 1059.07 958.906C1059.96 957.819 1062.62 957.78 1063.7 958.67Z" fill="white"/>
<path fill-rule="evenodd" clip-rule="evenodd" d="M1078.6 940.538C1079.69 941.429 1079.47 943.479 1078.58 944.565C1077.69 945.652 1076.09 945.81 1075 944.92C1073.92 944.03 1073.07 941.861 1073.97 940.774C1074.86 939.688 1077.52 939.648 1078.6 940.538Z" fill="white"/>
<path fill-rule="evenodd" clip-rule="evenodd" d="M1086.05 931.474C1087.14 932.364 1086.92 934.414 1086.03 935.5C1085.14 936.586 1083.54 936.746 1082.45 935.855C1081.37 934.965 1080.52 932.795 1081.42 931.709C1082.31 930.622 1084.97 930.584 1086.05 931.474Z" fill="white"/>
<path fill-rule="evenodd" clip-rule="evenodd" d="M1093.5 922.407C1094.59 923.298 1094.37 925.348 1093.48 926.434C1092.59 927.521 1090.99 927.68 1089.9 926.789C1088.82 925.899 1087.97 923.73 1088.87 922.643C1089.76 921.557 1092.42 921.517 1093.5 922.407Z" fill="white"/>
<path fill-rule="evenodd" clip-rule="evenodd" d="M1100.95 913.342C1102.03 914.232 1101.82 916.283 1100.93 917.368C1100.04 918.455 1098.43 918.614 1097.35 917.723C1096.27 916.833 1095.42 914.664 1096.32 913.577C1097.21 912.492 1099.87 912.452 1100.95 913.342Z" fill="white"/>
<path fill-rule="evenodd" clip-rule="evenodd" d="M1108.4 904.276C1109.48 905.167 1109.27 907.217 1108.38 908.303C1107.49 909.39 1105.88 909.548 1104.8 908.658C1103.72 907.768 1102.87 905.598 1103.76 904.512C1104.66 903.426 1107.32 903.386 1108.4 904.276Z" fill="white"/>
<path fill-rule="evenodd" clip-rule="evenodd" d="M1115.85 895.211C1116.93 896.101 1116.72 898.152 1115.83 899.238C1114.93 900.324 1113.33 900.483 1112.25 899.592C1111.17 898.703 1110.32 896.533 1111.21 895.446C1112.11 894.361 1114.77 894.321 1115.85 895.211Z" fill="white"/>
<path fill-rule="evenodd" clip-rule="evenodd" d="M1123.3 886.145C1124.38 887.036 1124.17 889.085 1123.28 890.172C1122.38 891.258 1120.78 891.418 1119.7 890.527C1118.62 889.637 1117.77 887.467 1118.66 886.381C1119.56 885.294 1122.22 885.255 1123.3 886.145Z" fill="white"/>
<path fill-rule="evenodd" clip-rule="evenodd" d="M1130.75 877.08C1131.83 877.971 1131.62 880.021 1130.73 881.107C1129.83 882.193 1128.23 882.352 1127.15 881.462C1126.06 880.572 1125.22 878.402 1126.11 877.316C1127 876.23 1129.66 876.19 1130.75 877.08Z" fill="white"/>
<path fill-rule="evenodd" clip-rule="evenodd" d="M1138.2 868.014C1139.28 868.905 1139.07 870.954 1138.17 872.041C1137.28 873.128 1135.68 873.287 1134.6 872.396C1133.51 871.506 1132.67 869.337 1133.56 868.25C1134.45 867.163 1137.11 867.124 1138.2 868.014Z" fill="white"/>
<path fill-rule="evenodd" clip-rule="evenodd" d="M1072.01 965.495C1073.09 966.385 1072.88 968.435 1071.99 969.521C1071.09 970.608 1069.49 970.767 1068.41 969.876C1067.33 968.986 1066.48 966.817 1067.37 965.73C1068.27 964.644 1070.93 964.605 1072.01 965.495Z" fill="white"/>
<path fill-rule="evenodd" clip-rule="evenodd" d="M1079.46 956.428C1080.54 957.319 1080.33 959.369 1079.44 960.455C1078.54 961.541 1076.94 961.7 1075.86 960.81C1074.78 959.92 1073.93 957.75 1074.82 956.664C1075.72 955.578 1078.38 955.538 1079.46 956.428Z" fill="white"/>
<path fill-rule="evenodd" clip-rule="evenodd" d="M1086.91 947.363C1087.99 948.253 1087.78 950.304 1086.89 951.389C1085.99 952.476 1084.39 952.635 1083.31 951.744C1082.23 950.854 1081.38 948.685 1082.27 947.598C1083.16 946.513 1085.83 946.473 1086.91 947.363Z" fill="white"/>
<path fill-rule="evenodd" clip-rule="evenodd" d="M1101.81 929.232C1102.89 930.122 1102.68 932.173 1101.78 933.259C1100.89 934.345 1099.29 934.504 1098.21 933.613C1097.12 932.724 1096.28 930.554 1097.17 929.468C1098.06 928.382 1100.72 928.342 1101.81 929.232Z" fill="white"/>
<path fill-rule="evenodd" clip-rule="evenodd" d="M1109.26 920.166C1110.34 921.057 1110.13 923.107 1109.23 924.193C1108.34 925.28 1106.74 925.439 1105.66 924.548C1104.57 923.658 1103.73 921.489 1104.62 920.402C1105.51 919.316 1108.17 919.276 1109.26 920.166Z" fill="white"/>
<path fill-rule="evenodd" clip-rule="evenodd" d="M1116.71 911.101C1117.79 911.991 1117.58 914.042 1116.68 915.127C1115.79 916.214 1114.19 916.373 1113.11 915.482C1112.02 914.592 1111.18 912.423 1112.07 911.336C1112.96 910.251 1115.62 910.211 1116.71 911.101Z" fill="white"/>
<path fill-rule="evenodd" clip-rule="evenodd" d="M1124.15 902.035C1125.24 902.926 1125.03 904.975 1124.13 906.062C1123.24 907.149 1121.64 907.308 1120.55 906.417C1119.47 905.527 1118.63 903.358 1119.52 902.271C1120.41 901.184 1123.07 901.145 1124.15 902.035Z" fill="white"/>
<path fill-rule="evenodd" clip-rule="evenodd" d="M1131.6 892.97C1132.69 893.86 1132.47 895.91 1131.58 896.997C1130.69 898.082 1129.09 898.242 1128 897.351C1126.92 896.461 1126.08 894.291 1126.97 893.205C1127.86 892.119 1130.52 892.08 1131.6 892.97Z" fill="white"/>
<path fill-rule="evenodd" clip-rule="evenodd" d="M1139.05 883.904C1140.14 884.795 1139.92 886.845 1139.03 887.931C1138.14 889.018 1136.54 889.177 1135.45 888.286C1134.37 887.396 1133.52 885.227 1134.42 884.14C1135.31 883.054 1137.97 883.015 1139.05 883.904Z" fill="white"/>
<path fill-rule="evenodd" clip-rule="evenodd" d="M1146.5 874.839C1147.59 875.73 1147.37 877.779 1146.48 878.866C1145.59 879.952 1143.99 880.111 1142.9 879.221C1141.82 878.331 1140.97 876.161 1141.87 875.075C1142.76 873.988 1145.42 873.949 1146.5 874.839Z" fill="white"/>
<path fill-rule="evenodd" clip-rule="evenodd" d="M1087.76 963.253C1088.85 964.142 1088.63 966.193 1087.74 967.279C1086.85 968.366 1085.25 968.524 1084.16 967.634C1083.08 966.744 1082.24 964.574 1083.13 963.487C1084.02 962.402 1086.68 962.362 1087.76 963.253Z" fill="white"/>
<path fill-rule="evenodd" clip-rule="evenodd" d="M1095.21 954.187C1096.3 955.077 1096.08 957.128 1095.19 958.214C1094.3 959.301 1092.7 959.459 1091.61 958.569C1090.53 957.678 1089.68 955.509 1090.58 954.422C1091.47 953.336 1094.13 953.297 1095.21 954.187Z" fill="white"/>
<path fill-rule="evenodd" clip-rule="evenodd" d="M1102.66 945.123C1103.75 946.013 1103.53 948.063 1102.64 949.149C1101.75 950.235 1100.14 950.394 1099.06 949.504C1097.98 948.614 1097.13 946.443 1098.03 945.358C1098.92 944.271 1101.58 944.232 1102.66 945.123Z" fill="white"/>
<path fill-rule="evenodd" clip-rule="evenodd" d="M1110.11 936.056C1111.2 936.946 1110.98 938.997 1110.09 940.083C1109.2 941.17 1107.59 941.328 1106.51 940.438C1105.43 939.547 1104.58 937.378 1105.48 936.291C1106.37 935.206 1109.03 935.166 1110.11 936.056Z" fill="white"/>
<path fill-rule="evenodd" clip-rule="evenodd" d="M1117.56 926.991C1118.64 927.881 1118.43 929.932 1117.54 931.018C1116.65 932.104 1115.04 932.262 1113.96 931.372C1112.88 930.482 1112.03 928.312 1112.92 927.226C1113.82 926.14 1116.48 926.1 1117.56 926.991Z" fill="white"/>
<path fill-rule="evenodd" clip-rule="evenodd" d="M1125.01 917.925C1126.09 918.815 1125.88 920.866 1124.99 921.952C1124.1 923.039 1122.49 923.197 1121.41 922.307C1120.33 921.416 1119.48 919.247 1120.37 918.16C1121.27 917.074 1123.93 917.035 1125.01 917.925Z" fill="white"/>
<path fill-rule="evenodd" clip-rule="evenodd" d="M1132.46 908.86C1133.54 909.75 1133.33 911.8 1132.44 912.887C1131.54 913.973 1129.94 914.131 1128.86 913.242C1127.78 912.351 1126.93 910.182 1127.82 909.095C1128.72 908.008 1131.38 907.969 1132.46 908.86Z" fill="white"/>
<path fill-rule="evenodd" clip-rule="evenodd" d="M1147.36 890.729C1148.44 891.619 1148.23 893.67 1147.34 894.756C1146.44 895.843 1144.84 896.001 1143.76 895.111C1142.67 894.22 1141.83 892.051 1142.72 890.964C1143.61 889.878 1146.27 889.838 1147.36 890.729Z" fill="white"/>
<path fill-rule="evenodd" clip-rule="evenodd" d="M1103.52 961.012C1104.6 961.902 1104.39 963.953 1103.5 965.039C1102.6 966.125 1101 966.283 1099.92 965.393C1098.83 964.503 1097.99 962.333 1098.88 961.247C1099.77 960.161 1102.44 960.121 1103.52 961.012Z" fill="white"/>
<path fill-rule="evenodd" clip-rule="evenodd" d="M1110.97 951.947C1112.05 952.837 1111.84 954.887 1110.95 955.974C1110.05 957.06 1108.45 957.219 1107.37 956.329C1106.28 955.438 1105.44 953.268 1106.33 952.182C1107.22 951.095 1109.88 951.057 1110.97 951.947Z" fill="white"/>
<path fill-rule="evenodd" clip-rule="evenodd" d="M1125.87 933.815C1126.95 934.705 1126.74 936.756 1125.84 937.842C1124.95 938.929 1123.35 939.087 1122.27 938.197C1121.18 937.306 1120.34 935.137 1121.23 934.05C1122.12 932.964 1124.78 932.925 1125.87 933.815Z" fill="white"/>
<path fill-rule="evenodd" clip-rule="evenodd" d="M1133.32 924.75C1134.4 925.64 1134.19 927.691 1133.29 928.777C1132.4 929.863 1130.8 930.021 1129.72 929.131C1128.63 928.241 1127.79 926.071 1128.68 924.985C1129.57 923.899 1132.23 923.859 1133.32 924.75Z" fill="white"/>
<path fill-rule="evenodd" clip-rule="evenodd" d="M1140.77 915.684C1141.85 916.574 1141.64 918.625 1140.74 919.711C1139.85 920.798 1138.25 920.956 1137.16 920.066C1136.08 919.175 1135.24 917.006 1136.13 915.919C1137.02 914.833 1139.68 914.794 1140.77 915.684Z" fill="white"/>
<path fill-rule="evenodd" clip-rule="evenodd" d="M1148.21 906.619C1149.3 907.509 1149.09 909.559 1148.19 910.646C1147.3 911.731 1145.7 911.89 1144.61 911.001C1143.53 910.11 1142.69 907.94 1143.58 906.854C1144.47 905.767 1147.13 905.728 1148.21 906.619Z" fill="white"/>
<path fill-rule="evenodd" clip-rule="evenodd" d="M1111.82 967.836C1112.91 968.725 1112.69 970.777 1111.8 971.862C1110.91 972.949 1109.31 973.107 1108.22 972.217C1107.14 971.327 1106.29 969.157 1107.19 968.071C1108.08 966.985 1110.74 966.945 1111.82 967.836Z" fill="white"/>
<path fill-rule="evenodd" clip-rule="evenodd" d="M1119.27 958.771C1120.36 959.661 1120.14 961.711 1119.25 962.798C1118.36 963.884 1116.75 964.043 1115.67 963.153C1114.59 962.262 1113.74 960.092 1114.64 959.006C1115.53 957.919 1118.19 957.88 1119.27 958.771Z" fill="white"/>
<path fill-rule="evenodd" clip-rule="evenodd" d="M1126.72 949.705C1127.8 950.595 1127.59 952.646 1126.7 953.731C1125.81 954.818 1124.2 954.976 1123.12 954.086C1122.04 953.196 1121.19 951.026 1122.09 949.94C1122.98 948.854 1125.64 948.814 1126.72 949.705Z" fill="white"/>
<path fill-rule="evenodd" clip-rule="evenodd" d="M1141.62 931.574C1142.7 932.463 1142.49 934.515 1141.6 935.6C1140.71 936.687 1139.1 936.845 1138.02 935.955C1136.94 935.065 1136.09 932.895 1136.98 931.808C1137.88 930.723 1140.54 930.683 1141.62 931.574Z" fill="white"/>
<path fill-rule="evenodd" clip-rule="evenodd" d="M1149.07 922.508C1150.15 923.398 1149.94 925.449 1149.05 926.535C1148.15 927.622 1146.55 927.78 1145.47 926.89C1144.39 925.999 1143.54 923.83 1144.43 922.743C1145.32 921.657 1147.99 921.618 1149.07 922.508Z" fill="white"/>
</g>
</svg>
