<svg width="713" height="730" viewBox="0 0 713 730" fill="none" xmlns="http://www.w3.org/2000/svg">
<path opacity="0.25" d="M865.297 83.6711C870.743 89.184 872.839 96.9353 875.185 104.222C894.065 162.949 940.591 210.186 993.575 243.927C1016.01 258.228 1043.33 277.403 1038.42 303.011C1035.78 316.772 1024.18 326.903 1015.57 338.111C997.491 361.58 991.628 393.481 1000.24 421.576C1010.04 453.542 1037.43 483.37 1028.95 515.693C1023.72 535.59 1005.98 549.749 988.915 561.919C962.297 580.892 934.83 598.666 906.516 615.241C887.536 626.35 867.344 637.16 845.224 638.569C825.747 639.813 806.668 633.637 788.175 627.543C772.017 622.213 755.452 616.667 742.405 605.989C733.889 599.017 727.102 590.022 717.642 584.319C695.422 570.922 666.883 579.411 641.404 585.148C581.284 598.611 461.723 690.628 404.515 668.203C316.761 633.799 305.092 464.618 219.256 425.854C182.349 409.182 142.203 398.836 108.029 377.365C88.7764 365.14 72.2309 350.203 59.1387 333.228C33.3022 299.977 19.3306 257.581 23.3651 216.081C27.3995 174.58 50.0066 134.589 85.5119 111.161C123.521 86.0835 171.528 81.3996 214.774 66.3448C259.431 50.7925 299.16 24.0652 343.39 7.37724C379.188 -6.08229 418.143 -12.6842 457.399 -11.944C496.654 -11.2037 535.212 -3.1402 570.244 11.6549C618.38 31.9243 667.171 79.3188 720.782 82.8835C758.97 85.3954 835.476 53.4785 865.297 83.6711Z" fill="#08D9D6"/>
<path opacity="0.5" d="M842.619 141.627C848.064 147.14 850.161 154.891 852.506 162.178C871.387 220.905 917.912 268.142 970.897 301.883C993.335 316.183 1020.65 335.358 1015.74 360.966C1013.1 374.728 1001.5 384.858 992.888 396.067C974.812 419.536 968.949 451.436 977.565 479.531C987.363 511.498 1014.75 541.326 1006.27 573.649C1001.05 593.545 983.299 607.705 966.237 619.875C939.618 638.848 912.152 656.622 883.838 673.197C864.858 684.305 844.666 695.116 822.546 696.525C803.069 697.768 783.99 691.592 765.497 685.499C749.339 680.169 732.774 674.622 719.727 663.945C711.211 656.973 704.423 647.978 694.963 642.274C672.744 628.878 644.205 637.367 618.726 643.103C558.606 656.567 439.045 748.583 381.837 726.159C294.082 691.755 282.414 522.574 196.577 483.809C159.671 467.138 119.525 456.792 85.3512 435.32C66.0982 423.095 49.5527 408.159 36.4605 391.184C10.624 357.932 -3.3476 315.536 0.68689 274.036C4.72131 232.536 27.3284 192.544 62.8337 169.117C100.843 144.039 148.849 139.355 192.096 124.3C236.753 108.748 276.482 82.0208 320.712 65.3328C356.509 51.8733 395.465 45.2714 434.72 46.0116C473.976 46.7518 512.534 54.8154 547.566 69.6105C595.701 89.8798 644.493 137.274 698.103 140.839C736.292 143.351 812.798 111.434 842.619 141.627Z" fill="#08D9D6"/>
</svg>
