<svg width="665" height="851" viewBox="0 0 665 851" fill="none" xmlns="http://www.w3.org/2000/svg">
<path fill-rule="evenodd" clip-rule="evenodd" d="M241.828 822.947C144.884 767.04 159.686 623.523 169.818 512.073C178.469 416.903 224.55 336.095 292.22 268.62C373.244 187.829 462.339 92.4167 575.791 107.266C696.283 123.038 789.666 225.894 833.044 339.408C872.237 441.971 849.227 561.141 782.576 648.392C728.161 719.625 623.962 697.245 538.659 724.781C434.317 758.463 336.809 877.721 241.828 822.947Z" fill="#FF2E63"/>
<mask id="mask0_132_27" style="mask-type:alpha" maskUnits="userSpaceOnUse" x="218" y="631" width="151" height="162">
<path fill-rule="evenodd" clip-rule="evenodd" d="M247.744 788.325C218.305 769.865 202.318 672.597 242.833 639.871C289.863 601.882 359.72 711.88 366.375 741.387C373.029 770.893 366.546 775.955 328.82 768.994C291.095 762.033 277.183 806.784 247.744 788.325Z" fill="white"/>
</mask>
<g mask="url(#mask0_132_27)">
<path fill-rule="evenodd" clip-rule="evenodd" d="M218.844 667.519C219.927 668.408 219.715 670.459 218.822 671.545C217.929 672.631 216.326 672.79 215.243 671.9C214.16 671.009 213.316 668.84 214.208 667.754C215.101 666.667 217.76 666.628 218.844 667.519Z" fill="white"/>
<path fill-rule="evenodd" clip-rule="evenodd" d="M226.294 658.452C227.377 659.342 227.164 661.393 226.271 662.479C225.378 663.566 223.776 663.724 222.693 662.834C221.609 661.943 220.765 659.775 221.658 658.688C222.55 657.602 225.21 657.562 226.294 658.452Z" fill="white"/>
<path fill-rule="evenodd" clip-rule="evenodd" d="M248.641 631.256C249.724 632.146 249.512 634.196 248.619 635.283C247.727 636.368 246.124 636.527 245.041 635.637C243.957 634.747 243.113 632.577 244.005 631.491C244.898 630.405 247.557 630.365 248.641 631.256Z" fill="white"/>
<path fill-rule="evenodd" clip-rule="evenodd" d="M227.148 674.342C228.231 675.232 228.019 677.282 227.126 678.369C226.234 679.455 224.631 679.614 223.548 678.724C222.464 677.833 221.62 675.664 222.512 674.578C223.405 673.491 226.064 673.452 227.148 674.342Z" fill="white"/>
<path fill-rule="evenodd" clip-rule="evenodd" d="M234.598 665.276C235.681 666.166 235.468 668.217 234.576 669.303C233.683 670.39 232.081 670.548 230.998 669.658C229.914 668.767 229.069 666.598 229.962 665.512C230.854 664.426 233.514 664.385 234.598 665.276Z" fill="white"/>
<path fill-rule="evenodd" clip-rule="evenodd" d="M242.047 656.21C243.13 657.1 242.917 659.151 242.025 660.237C241.132 661.324 239.53 661.482 238.447 660.592C237.363 659.701 236.518 657.533 237.411 656.446C238.304 655.36 240.963 655.32 242.047 656.21Z" fill="white"/>
<path fill-rule="evenodd" clip-rule="evenodd" d="M249.496 647.145C250.579 648.035 250.366 650.086 249.474 651.172C248.581 652.259 246.979 652.417 245.896 651.527C244.812 650.636 243.967 648.468 244.86 647.381C245.753 646.295 248.412 646.255 249.496 647.145Z" fill="white"/>
<path fill-rule="evenodd" clip-rule="evenodd" d="M256.946 638.08C258.029 638.97 257.816 641.02 256.923 642.106C256.031 643.192 254.428 643.351 253.345 642.461C252.261 641.571 251.418 639.401 252.31 638.315C253.203 637.229 255.862 637.189 256.946 638.08Z" fill="white"/>
<path fill-rule="evenodd" clip-rule="evenodd" d="M228.004 690.232C229.087 691.122 228.875 693.173 227.982 694.259C227.09 695.345 225.487 695.504 224.404 694.614C223.32 693.723 222.476 691.554 223.368 690.468C224.261 689.381 226.92 689.342 228.004 690.232Z" fill="white"/>
<path fill-rule="evenodd" clip-rule="evenodd" d="M235.453 681.167C236.536 682.057 236.324 684.107 235.431 685.194C234.539 686.279 232.936 686.438 231.853 685.549C230.769 684.658 229.925 682.488 230.818 681.403C231.711 680.316 234.37 680.276 235.453 681.167Z" fill="white"/>
<path fill-rule="evenodd" clip-rule="evenodd" d="M242.903 672.101C243.986 672.991 243.773 675.042 242.881 676.127C241.988 677.214 240.386 677.372 239.303 676.482C238.219 675.592 237.374 673.423 238.267 672.336C239.16 671.251 241.819 671.21 242.903 672.101Z" fill="white"/>
<path fill-rule="evenodd" clip-rule="evenodd" d="M250.353 663.035C251.436 663.925 251.223 665.976 250.33 667.062C249.437 668.149 247.835 668.307 246.752 667.417C245.668 666.526 244.824 664.357 245.717 663.271C246.609 662.185 249.269 662.144 250.353 663.035Z" fill="white"/>
<path fill-rule="evenodd" clip-rule="evenodd" d="M257.802 653.97C258.885 654.86 258.672 656.911 257.779 657.997C256.886 659.083 255.284 659.241 254.201 658.351C253.117 657.461 252.273 655.292 253.166 654.205C254.058 653.12 256.718 653.079 257.802 653.97Z" fill="white"/>
<path fill-rule="evenodd" clip-rule="evenodd" d="M265.251 644.904C266.334 645.794 266.122 647.844 265.229 648.931C264.337 650.017 262.734 650.176 261.651 649.286C260.567 648.395 259.723 646.226 260.615 645.14C261.508 644.053 264.167 644.014 265.251 644.904Z" fill="white"/>
<path fill-rule="evenodd" clip-rule="evenodd" d="M272.7 635.839C273.783 636.729 273.57 638.78 272.678 639.866C271.785 640.952 270.183 641.11 269.1 640.221C268.016 639.33 267.171 637.161 268.064 636.075C268.956 634.989 271.616 634.948 272.7 635.839Z" fill="white"/>
<path fill-rule="evenodd" clip-rule="evenodd" d="M280.149 626.773C281.232 627.663 281.02 629.713 280.127 630.8C279.234 631.887 277.632 632.045 276.549 631.155C275.465 630.264 274.62 628.096 275.513 627.009C276.406 625.922 279.065 625.883 280.149 626.773Z" fill="white"/>
<path fill-rule="evenodd" clip-rule="evenodd" d="M228.86 706.121C229.943 707.011 229.73 709.062 228.838 710.148C227.945 711.234 226.343 711.392 225.26 710.503C224.176 709.612 223.331 707.443 224.224 706.357C225.116 705.271 227.776 705.23 228.86 706.121Z" fill="white"/>
<path fill-rule="evenodd" clip-rule="evenodd" d="M236.309 697.056C237.392 697.946 237.179 699.996 236.286 701.083C235.394 702.169 233.791 702.328 232.708 701.438C231.624 700.547 230.78 698.378 231.673 697.292C232.566 696.205 235.225 696.166 236.309 697.056Z" fill="white"/>
<path fill-rule="evenodd" clip-rule="evenodd" d="M243.758 687.991C244.841 688.881 244.629 690.931 243.736 692.017C242.843 693.103 241.24 693.262 240.157 692.372C239.074 691.482 238.23 689.312 239.122 688.226C240.015 687.14 242.674 687.1 243.758 687.991Z" fill="white"/>
<path fill-rule="evenodd" clip-rule="evenodd" d="M251.208 678.924C252.291 679.814 252.078 681.865 251.186 682.951C250.293 684.038 248.69 684.196 247.607 683.306C246.523 682.415 245.679 680.247 246.572 679.16C247.464 678.074 250.124 678.034 251.208 678.924Z" fill="white"/>
<path fill-rule="evenodd" clip-rule="evenodd" d="M258.657 669.859C259.74 670.749 259.527 672.8 258.635 673.886C257.742 674.972 256.14 675.13 255.057 674.24C253.973 673.35 253.128 671.181 254.021 670.095C254.913 669.009 257.573 668.968 258.657 669.859Z" fill="white"/>
<path fill-rule="evenodd" clip-rule="evenodd" d="M266.106 660.794C267.189 661.683 266.976 663.735 266.084 664.82C265.191 665.907 263.589 666.065 262.506 665.175C261.422 664.285 260.577 662.116 261.47 661.029C262.362 659.943 265.022 659.903 266.106 660.794Z" fill="white"/>
<path fill-rule="evenodd" clip-rule="evenodd" d="M273.555 651.728C274.638 652.618 274.426 654.668 273.533 655.755C272.641 656.841 271.038 656.999 269.955 656.11C268.871 655.219 268.027 653.049 268.92 651.964C269.813 650.877 272.471 650.837 273.555 651.728Z" fill="white"/>
<path fill-rule="evenodd" clip-rule="evenodd" d="M281.004 642.663C282.087 643.553 281.874 645.604 280.982 646.689C280.089 647.776 278.487 647.934 277.404 647.044C276.32 646.154 275.476 643.985 276.369 642.898C277.261 641.813 279.92 641.772 281.004 642.663Z" fill="white"/>
<path fill-rule="evenodd" clip-rule="evenodd" d="M229.715 722.01C230.799 722.901 230.585 724.951 229.693 726.037C228.8 727.123 227.199 727.282 226.115 726.392C225.031 725.501 224.187 723.332 225.08 722.246C225.972 721.16 228.632 721.119 229.715 722.01Z" fill="white"/>
<path fill-rule="evenodd" clip-rule="evenodd" d="M237.165 712.945C238.248 713.835 238.035 715.886 237.142 716.971C236.249 718.058 234.648 718.217 233.564 717.326C232.48 716.436 231.636 714.267 232.529 713.18C233.421 712.095 236.081 712.054 237.165 712.945Z" fill="white"/>
<path fill-rule="evenodd" clip-rule="evenodd" d="M244.613 703.88C245.697 704.771 245.484 706.82 244.591 707.907C243.699 708.993 242.097 709.152 241.013 708.262C239.929 707.371 239.085 705.202 239.977 704.116C240.87 703.029 243.529 702.989 244.613 703.88Z" fill="white"/>
<path fill-rule="evenodd" clip-rule="evenodd" d="M252.062 694.814C253.146 695.705 252.933 697.755 252.04 698.841C251.148 699.927 249.546 700.087 248.462 699.196C247.378 698.305 246.534 696.136 247.426 695.05C248.319 693.963 250.978 693.924 252.062 694.814Z" fill="white"/>
<path fill-rule="evenodd" clip-rule="evenodd" d="M259.512 685.748C260.596 686.639 260.382 688.689 259.49 689.775C258.597 690.862 256.996 691.021 255.912 690.13C254.828 689.239 253.983 687.071 254.876 685.984C255.768 684.898 258.428 684.858 259.512 685.748Z" fill="white"/>
<path fill-rule="evenodd" clip-rule="evenodd" d="M266.962 676.683C268.046 677.574 267.832 679.624 266.94 680.71C266.047 681.797 264.446 681.956 263.362 681.065C262.278 680.174 261.434 678.006 262.327 676.919C263.219 675.833 265.878 675.793 266.962 676.683Z" fill="white"/>
<path fill-rule="evenodd" clip-rule="evenodd" d="M274.41 667.617C275.494 668.508 275.281 670.557 274.388 671.644C273.495 672.731 271.894 672.89 270.81 671.999C269.726 671.108 268.882 668.94 269.775 667.853C270.667 666.766 273.326 666.727 274.41 667.617Z" fill="white"/>
<path fill-rule="evenodd" clip-rule="evenodd" d="M281.86 658.552C282.944 659.442 282.73 661.492 281.837 662.579C280.945 663.664 279.343 663.824 278.259 662.933C277.175 662.043 276.332 659.873 277.224 658.787C278.117 657.701 280.776 657.661 281.86 658.552Z" fill="white"/>
<path fill-rule="evenodd" clip-rule="evenodd" d="M289.309 649.486C290.393 650.377 290.179 652.427 289.287 653.513C288.394 654.6 286.792 654.759 285.708 653.868C284.624 652.977 283.78 650.809 284.673 649.722C285.565 648.636 288.225 648.596 289.309 649.486Z" fill="white"/>
<path fill-rule="evenodd" clip-rule="evenodd" d="M223.122 746.966C224.206 747.857 223.992 749.906 223.099 750.993C222.207 752.079 220.605 752.239 219.521 751.348C218.437 750.457 217.594 748.288 218.486 747.202C219.379 746.115 222.038 746.076 223.122 746.966Z" fill="white"/>
<path fill-rule="evenodd" clip-rule="evenodd" d="M230.571 737.901C231.655 738.792 231.441 740.841 230.548 741.928C229.655 743.015 228.054 743.173 226.97 742.283C225.886 741.392 225.042 739.224 225.935 738.137C226.828 737.05 229.487 737.01 230.571 737.901Z" fill="white"/>
<path fill-rule="evenodd" clip-rule="evenodd" d="M238.021 728.835C239.105 729.725 238.891 731.776 237.999 732.861C237.106 733.948 235.504 734.107 234.42 733.216C233.336 732.326 232.492 730.157 233.385 729.07C234.277 727.984 236.937 727.944 238.021 728.835Z" fill="white"/>
<path fill-rule="evenodd" clip-rule="evenodd" d="M245.471 719.77C246.555 720.661 246.341 722.711 245.449 723.797C244.556 724.884 242.954 725.042 241.87 724.152C240.786 723.261 239.942 721.092 240.835 720.006C241.727 718.92 244.387 718.879 245.471 719.77Z" fill="white"/>
<path fill-rule="evenodd" clip-rule="evenodd" d="M252.918 710.705C254.002 711.595 253.789 713.645 252.896 714.731C252.004 715.817 250.402 715.977 249.318 715.086C248.234 714.196 247.39 712.026 248.282 710.94C249.175 709.854 251.834 709.814 252.918 710.705Z" fill="white"/>
<path fill-rule="evenodd" clip-rule="evenodd" d="M260.368 701.639C261.452 702.53 261.238 704.579 260.345 705.666C259.453 706.752 257.851 706.911 256.767 706.021C255.683 705.13 254.84 702.96 255.732 701.875C256.625 700.788 259.284 700.748 260.368 701.639Z" fill="white"/>
<path fill-rule="evenodd" clip-rule="evenodd" d="M267.818 692.574C268.902 693.464 268.688 695.515 267.796 696.6C266.903 697.687 265.302 697.846 264.218 696.955C263.134 696.065 262.289 693.896 263.182 692.809C264.075 691.723 266.734 691.683 267.818 692.574Z" fill="white"/>
<path fill-rule="evenodd" clip-rule="evenodd" d="M275.268 683.508C276.352 684.399 276.138 686.449 275.245 687.535C274.352 688.621 272.751 688.78 271.667 687.89C270.583 686.999 269.739 684.83 270.632 683.744C271.524 682.658 274.184 682.617 275.268 683.508Z" fill="white"/>
<path fill-rule="evenodd" clip-rule="evenodd" d="M282.716 674.442C283.8 675.333 283.586 677.383 282.694 678.469C281.801 679.555 280.199 679.714 279.115 678.824C278.031 677.933 277.187 675.764 278.08 674.678C278.972 673.592 281.632 673.551 282.716 674.442Z" fill="white"/>
<path fill-rule="evenodd" clip-rule="evenodd" d="M290.166 665.377C291.25 666.268 291.037 668.317 290.144 669.404C289.252 670.49 287.649 670.649 286.566 669.759C285.482 668.868 284.638 666.699 285.53 665.613C286.423 664.526 289.082 664.486 290.166 665.377Z" fill="white"/>
<path fill-rule="evenodd" clip-rule="evenodd" d="M297.615 656.312C298.699 657.202 298.485 659.253 297.593 660.339C296.7 661.425 295.098 661.584 294.015 660.693C292.931 659.803 292.086 657.634 292.979 656.547C293.871 655.462 296.531 655.421 297.615 656.312Z" fill="white"/>
<path fill-rule="evenodd" clip-rule="evenodd" d="M223.977 762.856C225.061 763.746 224.848 765.796 223.955 766.883C223.062 767.968 221.46 768.128 220.376 767.237C219.293 766.348 218.449 764.177 219.341 763.091C220.234 762.005 222.894 761.966 223.977 762.856Z" fill="white"/>
<path fill-rule="evenodd" clip-rule="evenodd" d="M231.426 753.79C232.51 754.681 232.296 756.731 231.404 757.817C230.511 758.904 228.909 759.062 227.826 758.172C226.743 757.282 225.897 755.113 226.79 754.026C227.682 752.94 230.343 752.9 231.426 753.79Z" fill="white"/>
<path fill-rule="evenodd" clip-rule="evenodd" d="M238.875 744.725C239.959 745.616 239.746 747.665 238.853 748.752C237.96 749.838 236.359 749.997 235.275 749.107C234.192 748.217 233.346 746.047 234.239 744.961C235.132 743.874 237.792 743.835 238.875 744.725Z" fill="white"/>
<path fill-rule="evenodd" clip-rule="evenodd" d="M246.325 735.658C247.409 736.549 247.195 738.599 246.303 739.685C245.41 740.772 243.809 740.931 242.725 740.04C241.642 739.15 240.796 736.981 241.689 735.894C242.582 734.808 245.242 734.768 246.325 735.658Z" fill="white"/>
<path fill-rule="evenodd" clip-rule="evenodd" d="M253.774 726.593C254.858 727.484 254.644 729.534 253.752 730.62C252.859 731.707 251.258 731.865 250.174 730.975C249.091 730.085 248.245 727.915 249.138 726.829C250.03 725.743 252.691 725.703 253.774 726.593Z" fill="white"/>
<path fill-rule="evenodd" clip-rule="evenodd" d="M261.223 717.528C262.307 718.419 262.093 720.468 261.2 721.555C260.308 722.641 258.706 722.801 257.622 721.91C256.539 721.02 255.695 718.85 256.587 717.764C257.48 716.677 260.14 716.639 261.223 717.528Z" fill="white"/>
<path fill-rule="evenodd" clip-rule="evenodd" d="M268.672 708.463C269.756 709.354 269.543 711.403 268.65 712.49C267.758 713.575 266.155 713.735 265.072 712.844C263.989 711.955 263.144 709.784 264.036 708.699C264.929 707.612 267.589 707.573 268.672 708.463Z" fill="white"/>
<path fill-rule="evenodd" clip-rule="evenodd" d="M276.122 699.397C277.206 700.287 276.992 702.338 276.1 703.423C275.207 704.51 273.605 704.669 272.521 703.778C271.438 702.888 270.593 700.719 271.486 699.632C272.378 698.546 275.039 698.507 276.122 699.397Z" fill="white"/>
<path fill-rule="evenodd" clip-rule="evenodd" d="M283.571 690.331C284.655 691.222 284.441 693.272 283.549 694.358C282.656 695.444 281.055 695.603 279.971 694.713C278.888 693.823 278.042 691.653 278.935 690.567C279.827 689.481 282.488 689.441 283.571 690.331Z" fill="white"/>
<path fill-rule="evenodd" clip-rule="evenodd" d="M291.02 681.266C292.104 682.156 291.891 684.206 290.998 685.292C290.105 686.379 288.504 686.538 287.42 685.647C286.337 684.757 285.491 682.588 286.384 681.501C287.277 680.415 289.937 680.376 291.02 681.266Z" fill="white"/>
<path fill-rule="evenodd" clip-rule="evenodd" d="M298.469 672.2C299.553 673.091 299.34 675.14 298.447 676.227C297.555 677.313 295.953 677.472 294.869 676.582C293.786 675.692 292.941 673.522 293.834 672.436C294.727 671.349 297.386 671.31 298.469 672.2Z" fill="white"/>
<path fill-rule="evenodd" clip-rule="evenodd" d="M305.918 663.135C307.002 664.026 306.788 666.076 305.896 667.162C305.003 668.248 303.402 668.407 302.318 667.516C301.235 666.627 300.39 664.457 301.283 663.371C302.175 662.285 304.835 662.245 305.918 663.135Z" fill="white"/>
<path fill-rule="evenodd" clip-rule="evenodd" d="M232.282 769.68C233.366 770.571 233.153 772.62 232.26 773.707C231.368 774.793 229.766 774.953 228.682 774.062C227.599 773.172 226.754 771.002 227.646 769.916C228.539 768.829 231.199 768.79 232.282 769.68Z" fill="white"/>
<path fill-rule="evenodd" clip-rule="evenodd" d="M239.731 760.615C240.815 761.505 240.601 763.556 239.709 764.642C238.816 765.728 237.215 765.887 236.131 764.996C235.048 764.107 234.202 761.937 235.095 760.85C235.988 759.765 238.648 759.725 239.731 760.615Z" fill="white"/>
<path fill-rule="evenodd" clip-rule="evenodd" d="M247.18 751.549C248.264 752.44 248.051 754.489 247.158 755.576C246.265 756.663 244.664 756.822 243.58 755.931C242.497 755.041 241.652 752.872 242.545 751.785C243.438 750.698 246.097 750.66 247.18 751.549Z" fill="white"/>
<path fill-rule="evenodd" clip-rule="evenodd" d="M254.63 742.483C255.714 743.374 255.5 745.424 254.608 746.51C253.715 747.596 252.114 747.755 251.03 746.865C249.947 745.975 249.102 743.805 249.995 742.719C250.887 741.633 253.548 741.593 254.63 742.483Z" fill="white"/>
<path fill-rule="evenodd" clip-rule="evenodd" d="M262.079 733.418C263.163 734.308 262.949 736.359 262.057 737.444C261.164 738.531 259.563 738.69 258.479 737.799C257.396 736.909 256.551 734.74 257.444 733.653C258.336 732.568 260.996 732.528 262.079 733.418Z" fill="white"/>
<path fill-rule="evenodd" clip-rule="evenodd" d="M269.528 724.353C270.612 725.244 270.399 727.293 269.506 728.38C268.614 729.466 267.012 729.625 265.928 728.735C264.845 727.845 264 725.674 264.892 724.589C265.785 723.502 268.445 723.463 269.528 724.353Z" fill="white"/>
<path fill-rule="evenodd" clip-rule="evenodd" d="M276.978 715.287C278.062 716.177 277.848 718.228 276.956 719.314C276.063 720.4 274.461 720.559 273.377 719.668C272.294 718.779 271.449 716.609 272.342 715.522C273.234 714.437 275.895 714.397 276.978 715.287Z" fill="white"/>
<path fill-rule="evenodd" clip-rule="evenodd" d="M284.427 706.221C285.511 707.112 285.297 709.162 284.405 710.248C283.512 711.335 281.911 711.493 280.827 710.603C279.744 709.713 278.898 707.544 279.791 706.457C280.683 705.371 283.344 705.331 284.427 706.221Z" fill="white"/>
<path fill-rule="evenodd" clip-rule="evenodd" d="M291.876 697.156C292.96 698.046 292.746 700.097 291.854 701.182C290.961 702.269 289.36 702.428 288.276 701.537C287.193 700.647 286.348 698.478 287.241 697.391C288.133 696.305 290.793 696.266 291.876 697.156Z" fill="white"/>
<path fill-rule="evenodd" clip-rule="evenodd" d="M299.325 688.09C300.409 688.981 300.196 691.03 299.303 692.117C298.41 693.204 296.809 693.363 295.725 692.472C294.642 691.582 293.797 689.413 294.69 688.326C295.583 687.239 298.242 687.2 299.325 688.09Z" fill="white"/>
<path fill-rule="evenodd" clip-rule="evenodd" d="M306.775 679.025C307.859 679.915 307.646 681.965 306.753 683.051C305.86 684.137 304.258 684.297 303.174 683.406C302.091 682.516 301.247 680.346 302.139 679.26C303.032 678.174 305.692 678.135 306.775 679.025Z" fill="white"/>
<path fill-rule="evenodd" clip-rule="evenodd" d="M314.224 669.959C315.308 670.85 315.094 672.9 314.202 673.986C313.309 675.073 311.707 675.232 310.623 674.341C309.54 673.451 308.695 671.282 309.588 670.195C310.48 669.109 313.141 669.07 314.224 669.959Z" fill="white"/>
<path fill-rule="evenodd" clip-rule="evenodd" d="M248.036 767.439C249.12 768.329 248.906 770.379 248.014 771.465C247.121 772.551 245.519 772.711 244.435 771.82C243.352 770.93 242.508 768.76 243.4 767.674C244.293 766.587 246.953 766.549 248.036 767.439Z" fill="white"/>
<path fill-rule="evenodd" clip-rule="evenodd" d="M255.485 758.373C256.569 759.264 256.355 761.313 255.462 762.4C254.57 763.487 252.968 763.646 251.884 762.755C250.801 761.865 249.956 759.696 250.849 758.609C251.742 757.522 254.402 757.483 255.485 758.373Z" fill="white"/>
<path fill-rule="evenodd" clip-rule="evenodd" d="M262.935 749.307C264.019 750.197 263.805 752.248 262.913 753.333C262.02 754.42 260.418 754.579 259.334 753.688C258.251 752.798 257.406 750.629 258.299 749.542C259.191 748.457 261.852 748.417 262.935 749.307Z" fill="white"/>
<path fill-rule="evenodd" clip-rule="evenodd" d="M270.384 740.241C271.468 741.132 271.254 743.182 270.362 744.268C269.469 745.355 267.867 745.514 266.783 744.623C265.7 743.733 264.855 741.564 265.748 740.477C266.64 739.391 269.301 739.352 270.384 740.241Z" fill="white"/>
<path fill-rule="evenodd" clip-rule="evenodd" d="M277.832 731.177C278.916 732.067 278.703 734.117 277.81 735.204C276.918 736.289 275.316 736.449 274.232 735.558C273.149 734.669 272.304 732.498 273.197 731.412C274.089 730.326 276.749 730.287 277.832 731.177Z" fill="white"/>
<path fill-rule="evenodd" clip-rule="evenodd" d="M285.282 722.111C286.366 723.001 286.152 725.052 285.26 726.137C284.367 727.224 282.766 727.383 281.682 726.492C280.599 725.602 279.753 723.433 280.646 722.346C281.539 721.26 284.199 721.221 285.282 722.111Z" fill="white"/>
<path fill-rule="evenodd" clip-rule="evenodd" d="M292.732 713.045C293.815 713.936 293.602 715.986 292.709 717.072C291.816 718.158 290.215 718.317 289.131 717.427C288.048 716.537 287.203 714.367 288.096 713.281C288.988 712.195 291.649 712.155 292.732 713.045Z" fill="white"/>
<path fill-rule="evenodd" clip-rule="evenodd" d="M300.181 703.979C301.265 704.87 301.051 706.92 300.159 708.006C299.266 709.093 297.664 709.252 296.58 708.361C295.497 707.471 294.652 705.302 295.545 704.215C296.437 703.129 299.098 703.089 300.181 703.979Z" fill="white"/>
<path fill-rule="evenodd" clip-rule="evenodd" d="M307.63 694.914C308.714 695.805 308.501 697.854 307.608 698.941C306.715 700.028 305.113 700.186 304.029 699.296C302.946 698.406 302.101 696.236 302.994 695.15C303.887 694.063 306.547 694.024 307.63 694.914Z" fill="white"/>
<path fill-rule="evenodd" clip-rule="evenodd" d="M315.079 685.848C316.163 686.739 315.95 688.788 315.057 689.875C314.165 690.961 312.563 691.121 311.479 690.23C310.396 689.34 309.551 687.17 310.443 686.084C311.336 684.997 313.996 684.959 315.079 685.848Z" fill="white"/>
<path fill-rule="evenodd" clip-rule="evenodd" d="M322.528 676.783C323.612 677.674 323.398 679.724 322.506 680.81C321.613 681.897 320.012 682.056 318.928 681.165C317.845 680.275 316.999 678.106 317.892 677.019C318.785 675.933 321.445 675.893 322.528 676.783Z" fill="white"/>
<path fill-rule="evenodd" clip-rule="evenodd" d="M329.977 667.718C331.061 668.608 330.848 670.658 329.955 671.744C329.062 672.831 327.461 672.99 326.377 672.099C325.294 671.209 324.449 669.04 325.342 667.953C326.235 666.867 328.894 666.828 329.977 667.718Z" fill="white"/>
<path fill-rule="evenodd" clip-rule="evenodd" d="M256.341 774.263C257.425 775.154 257.212 777.203 256.319 778.29C255.427 779.376 253.825 779.535 252.741 778.645C251.658 777.755 250.813 775.585 251.705 774.499C252.598 773.412 255.258 773.373 256.341 774.263Z" fill="white"/>
<path fill-rule="evenodd" clip-rule="evenodd" d="M263.79 765.198C264.874 766.089 264.661 768.138 263.768 769.225C262.875 770.311 261.274 770.47 260.19 769.579C259.107 768.69 258.261 766.52 259.154 765.434C260.047 764.347 262.707 764.308 263.79 765.198Z" fill="white"/>
<path fill-rule="evenodd" clip-rule="evenodd" d="M271.24 756.131C272.324 757.022 272.11 759.072 271.218 760.158C270.325 761.245 268.724 761.404 267.64 760.513C266.557 759.623 265.711 757.454 266.604 756.367C267.497 755.281 270.157 755.241 271.24 756.131Z" fill="white"/>
<path fill-rule="evenodd" clip-rule="evenodd" d="M278.689 747.066C279.773 747.957 279.559 750.007 278.667 751.093C277.774 752.179 276.173 752.338 275.089 751.448C274.006 750.558 273.16 748.388 274.053 747.302C274.946 746.216 277.606 746.176 278.689 747.066Z" fill="white"/>
<path fill-rule="evenodd" clip-rule="evenodd" d="M286.138 738.001C287.222 738.892 287.008 740.941 286.115 742.028C285.223 743.114 283.621 743.274 282.537 742.383C281.454 741.493 280.61 739.323 281.502 738.237C282.395 737.15 285.055 737.111 286.138 738.001Z" fill="white"/>
<path fill-rule="evenodd" clip-rule="evenodd" d="M293.588 728.935C294.671 729.826 294.457 731.876 293.565 732.962C292.672 734.049 291.071 734.207 289.987 733.317C288.904 732.427 288.059 730.258 288.952 729.171C289.844 728.085 292.505 728.045 293.588 728.935Z" fill="white"/>
<path fill-rule="evenodd" clip-rule="evenodd" d="M301.037 719.87C302.121 720.76 301.907 722.81 301.015 723.896C300.122 724.983 298.52 725.142 297.436 724.251C296.353 723.361 295.508 721.192 296.401 720.105C297.293 719.019 299.954 718.98 301.037 719.87Z" fill="white"/>
<path fill-rule="evenodd" clip-rule="evenodd" d="M308.486 710.804C309.57 711.695 309.356 713.745 308.464 714.831C307.571 715.917 305.97 716.076 304.886 715.186C303.803 714.296 302.957 712.126 303.85 711.04C304.742 709.954 307.403 709.914 308.486 710.804Z" fill="white"/>
<path fill-rule="evenodd" clip-rule="evenodd" d="M315.935 701.739C317.019 702.629 316.806 704.679 315.913 705.765C315.02 706.852 313.419 707.011 312.335 706.12C311.252 705.23 310.406 703.061 311.299 701.974C312.192 700.888 314.852 700.849 315.935 701.739Z" fill="white"/>
<path fill-rule="evenodd" clip-rule="evenodd" d="M323.385 692.673C324.468 693.564 324.255 695.613 323.362 696.7C322.47 697.786 320.868 697.945 319.784 697.055C318.701 696.165 317.856 693.994 318.749 692.909C319.642 691.822 322.302 691.783 323.385 692.673Z" fill="white"/>
<path fill-rule="evenodd" clip-rule="evenodd" d="M330.833 683.608C331.917 684.498 331.703 686.549 330.811 687.635C329.918 688.721 328.317 688.88 327.233 687.989C326.15 687.1 325.305 684.93 326.198 683.843C327.09 682.758 329.751 682.718 330.833 683.608Z" fill="white"/>
<path fill-rule="evenodd" clip-rule="evenodd" d="M338.283 674.542C339.367 675.433 339.154 677.482 338.261 678.569C337.368 679.656 335.766 679.814 334.682 678.924C333.599 678.034 332.754 675.865 333.647 674.778C334.54 673.691 337.2 673.652 338.283 674.542Z" fill="white"/>
<path fill-rule="evenodd" clip-rule="evenodd" d="M264.645 781.087C265.729 781.978 265.515 784.028 264.623 785.114C263.73 786.2 262.129 786.359 261.045 785.469C259.962 784.579 259.117 782.409 260.009 781.323C260.902 780.237 263.562 780.197 264.645 781.087Z" fill="white"/>
<path fill-rule="evenodd" clip-rule="evenodd" d="M272.094 772.022C273.178 772.912 272.965 774.962 272.072 776.048C271.179 777.135 269.578 777.294 268.494 776.403C267.411 775.513 266.566 773.344 267.459 772.257C268.352 771.171 271.011 771.132 272.094 772.022Z" fill="white"/>
<path fill-rule="evenodd" clip-rule="evenodd" d="M279.545 762.955C280.628 763.846 280.415 765.896 279.522 766.982C278.629 768.069 277.028 768.227 275.944 767.337C274.861 766.447 274.016 764.277 274.909 763.191C275.801 762.105 278.462 762.065 279.545 762.955Z" fill="white"/>
<path fill-rule="evenodd" clip-rule="evenodd" d="M286.994 753.89C288.078 754.78 287.864 756.831 286.971 757.917C286.078 759.003 284.477 759.162 283.393 758.271C282.31 757.382 281.465 755.212 282.358 754.125C283.25 753.04 285.911 753 286.994 753.89Z" fill="white"/>
<path fill-rule="evenodd" clip-rule="evenodd" d="M294.442 744.825C295.526 745.716 295.313 747.765 294.42 748.852C293.528 749.938 291.926 750.097 290.842 749.207C289.759 748.317 288.914 746.147 289.806 745.061C290.699 743.974 293.359 743.935 294.442 744.825Z" fill="white"/>
<path fill-rule="evenodd" clip-rule="evenodd" d="M301.892 735.759C302.976 736.65 302.762 738.7 301.87 739.786C300.977 740.872 299.375 741.031 298.292 740.141C297.209 739.251 296.363 737.081 297.256 735.995C298.148 734.909 300.809 734.869 301.892 735.759Z" fill="white"/>
<path fill-rule="evenodd" clip-rule="evenodd" d="M309.341 726.693C310.425 727.584 310.211 729.634 309.319 730.72C308.426 731.807 306.825 731.966 305.741 731.075C304.658 730.185 303.812 728.016 304.705 726.929C305.597 725.843 308.258 725.803 309.341 726.693Z" fill="white"/>
<path fill-rule="evenodd" clip-rule="evenodd" d="M316.791 717.628C317.874 718.518 317.66 720.569 316.768 721.654C315.875 722.741 314.274 722.9 313.19 722.009C312.107 721.119 311.262 718.95 312.155 717.863C313.047 716.778 315.708 716.738 316.791 717.628Z" fill="white"/>
<path fill-rule="evenodd" clip-rule="evenodd" d="M324.239 708.562C325.323 709.453 325.11 711.502 324.217 712.589C323.324 713.676 321.723 713.835 320.639 712.944C319.556 712.054 318.711 709.885 319.604 708.798C320.497 707.711 323.157 707.673 324.239 708.562Z" fill="white"/>
<path fill-rule="evenodd" clip-rule="evenodd" d="M331.689 699.497C332.773 700.387 332.56 702.437 331.667 703.524C330.774 704.609 329.172 704.769 328.088 703.878C327.005 702.989 326.161 700.818 327.053 699.732C327.946 698.646 330.606 698.607 331.689 699.497Z" fill="white"/>
<path fill-rule="evenodd" clip-rule="evenodd" d="M339.138 690.432C340.222 691.322 340.008 693.373 339.116 694.458C338.223 695.545 336.621 695.704 335.537 694.813C334.455 693.923 333.609 691.754 334.502 690.667C335.394 689.581 338.055 689.542 339.138 690.432Z" fill="white"/>
<path fill-rule="evenodd" clip-rule="evenodd" d="M346.587 681.366C347.671 682.257 347.458 684.306 346.565 685.393C345.672 686.479 344.071 686.638 342.987 685.748C341.904 684.858 341.058 682.688 341.951 681.602C342.844 680.515 345.504 680.476 346.587 681.366Z" fill="white"/>
<path fill-rule="evenodd" clip-rule="evenodd" d="M280.4 778.846C281.484 779.737 281.271 781.786 280.378 782.873C279.485 783.96 277.883 784.118 276.799 783.228C275.716 782.338 274.871 780.169 275.764 779.082C276.657 777.995 279.317 777.956 280.4 778.846Z" fill="white"/>
<path fill-rule="evenodd" clip-rule="evenodd" d="M287.85 769.78C288.934 770.67 288.72 772.721 287.828 773.806C286.935 774.893 285.333 775.052 284.249 774.161C283.166 773.271 282.321 771.102 283.214 770.015C284.106 768.93 286.767 768.89 287.85 769.78Z" fill="white"/>
<path fill-rule="evenodd" clip-rule="evenodd" d="M295.299 760.714C296.383 761.605 296.169 763.655 295.277 764.741C294.384 765.828 292.782 765.987 291.699 765.096C290.616 764.206 289.77 762.037 290.663 760.95C291.555 759.864 294.216 759.824 295.299 760.714Z" fill="white"/>
<path fill-rule="evenodd" clip-rule="evenodd" d="M302.747 751.65C303.831 752.54 303.618 754.59 302.725 755.676C301.833 756.762 300.231 756.922 299.147 756.031C298.064 755.141 297.219 752.971 298.112 751.885C299.005 750.799 301.664 750.76 302.747 751.65Z" fill="white"/>
<path fill-rule="evenodd" clip-rule="evenodd" d="M310.197 742.583C311.281 743.474 311.067 745.524 310.175 746.61C309.282 747.697 307.681 747.856 306.597 746.965C305.514 746.075 304.668 743.906 305.561 742.819C306.454 741.733 309.114 741.694 310.197 742.583Z" fill="white"/>
<path fill-rule="evenodd" clip-rule="evenodd" d="M317.647 733.518C318.731 734.409 318.517 736.459 317.624 737.545C316.731 738.631 315.13 738.79 314.046 737.9C312.963 737.01 312.118 734.84 313.011 733.754C313.903 732.668 316.564 732.628 317.647 733.518Z" fill="white"/>
<path fill-rule="evenodd" clip-rule="evenodd" d="M325.096 724.452C326.18 725.343 325.966 727.393 325.074 728.479C324.181 729.566 322.579 729.725 321.495 728.834C320.412 727.944 319.567 725.775 320.46 724.688C321.352 723.602 324.013 723.562 325.096 724.452Z" fill="white"/>
<path fill-rule="evenodd" clip-rule="evenodd" d="M332.545 715.387C333.629 716.278 333.416 718.327 332.523 719.414C331.63 720.5 330.028 720.659 328.944 719.769C327.861 718.879 327.016 716.709 327.909 715.623C328.802 714.536 331.462 714.497 332.545 715.387Z" fill="white"/>
<path fill-rule="evenodd" clip-rule="evenodd" d="M339.994 706.321C341.078 707.212 340.865 709.261 339.972 710.348C339.08 711.434 337.478 711.594 336.394 710.703C335.311 709.813 334.466 707.643 335.358 706.557C336.251 705.47 338.911 705.432 339.994 706.321Z" fill="white"/>
<path fill-rule="evenodd" clip-rule="evenodd" d="M354.892 688.191C355.976 689.081 355.763 691.131 354.87 692.217C353.977 693.304 352.376 693.463 351.292 692.572C350.209 691.682 349.364 689.513 350.257 688.426C351.15 687.339 353.809 687.301 354.892 688.191Z" fill="white"/>
<path fill-rule="evenodd" clip-rule="evenodd" d="M281.255 794.735C282.339 795.626 282.126 797.675 281.233 798.762C280.341 799.848 278.739 800.008 277.655 799.117C276.572 798.227 275.727 796.057 276.619 794.971C277.512 793.884 280.172 793.845 281.255 794.735Z" fill="white"/>
<path fill-rule="evenodd" clip-rule="evenodd" d="M288.704 785.67C289.788 786.561 289.575 788.61 288.682 789.697C287.789 790.783 286.188 790.942 285.104 790.052C284.021 789.162 283.175 786.992 284.068 785.906C284.961 784.819 287.621 784.78 288.704 785.67Z" fill="white"/>
<path fill-rule="evenodd" clip-rule="evenodd" d="M303.603 767.538C304.687 768.429 304.473 770.479 303.581 771.565C302.688 772.652 301.087 772.81 300.003 771.92C298.92 771.03 298.074 768.861 298.967 767.774C299.86 766.688 302.52 766.648 303.603 767.538Z" fill="white"/>
<path fill-rule="evenodd" clip-rule="evenodd" d="M311.052 758.474C312.136 759.364 311.922 761.414 311.03 762.5C310.137 763.586 308.535 763.746 307.451 762.855C306.368 761.965 305.524 759.795 306.416 758.709C307.309 757.622 309.969 757.584 311.052 758.474Z" fill="white"/>
<path fill-rule="evenodd" clip-rule="evenodd" d="M318.502 749.407C319.585 750.298 319.372 752.348 318.479 753.434C317.586 754.521 315.985 754.68 314.901 753.789C313.818 752.899 312.973 750.73 313.866 749.643C314.758 748.557 317.419 748.517 318.502 749.407Z" fill="white"/>
<path fill-rule="evenodd" clip-rule="evenodd" d="M325.951 740.342C327.035 741.232 326.821 743.283 325.929 744.368C325.036 745.455 323.434 745.614 322.35 744.723C321.268 743.833 320.422 741.664 321.315 740.577C322.207 739.492 324.868 739.452 325.951 740.342Z" fill="white"/>
<path fill-rule="evenodd" clip-rule="evenodd" d="M333.4 731.276C334.484 732.167 334.27 734.217 333.378 735.303C332.485 736.39 330.884 736.548 329.8 735.658C328.717 734.768 327.871 732.598 328.764 731.512C329.657 730.426 332.317 730.386 333.4 731.276Z" fill="white"/>
<path fill-rule="evenodd" clip-rule="evenodd" d="M340.849 722.211C341.933 723.101 341.719 725.152 340.827 726.238C339.934 727.324 338.333 727.483 337.249 726.592C336.166 725.703 335.32 723.533 336.213 722.446C337.106 721.361 339.766 721.321 340.849 722.211Z" fill="white"/>
<path fill-rule="evenodd" clip-rule="evenodd" d="M348.299 713.145C349.382 714.036 349.169 716.085 348.276 717.172C347.384 718.258 345.782 718.418 344.698 717.527C343.615 716.637 342.77 714.467 343.663 713.381C344.556 712.294 347.216 712.255 348.299 713.145Z" fill="white"/>
<path fill-rule="evenodd" clip-rule="evenodd" d="M355.748 704.08C356.831 704.971 356.618 707.021 355.725 708.107C354.832 709.193 353.231 709.352 352.147 708.462C351.064 707.572 350.219 705.402 351.112 704.316C352.004 703.23 354.665 703.19 355.748 704.08Z" fill="white"/>
<path fill-rule="evenodd" clip-rule="evenodd" d="M363.197 695.014C364.281 695.905 364.068 697.954 363.175 699.041C362.282 700.128 360.68 700.287 359.596 699.396C358.513 698.506 357.668 696.337 358.561 695.25C359.454 694.163 362.114 694.124 363.197 695.014Z" fill="white"/>
<path fill-rule="evenodd" clip-rule="evenodd" d="M297.01 792.495C298.093 793.385 297.88 795.435 296.987 796.521C296.094 797.608 294.493 797.767 293.409 796.876C292.326 795.986 291.481 793.817 292.374 792.73C293.267 791.644 295.927 791.605 297.01 792.495Z" fill="white"/>
<path fill-rule="evenodd" clip-rule="evenodd" d="M304.46 783.428C305.543 784.319 305.33 786.369 304.437 787.455C303.544 788.541 301.943 788.7 300.859 787.81C299.776 786.92 298.931 784.75 299.824 783.664C300.716 782.578 303.377 782.538 304.46 783.428Z" fill="white"/>
<path fill-rule="evenodd" clip-rule="evenodd" d="M311.909 774.363C312.992 775.253 312.779 777.304 311.886 778.389C310.993 779.476 309.392 779.635 308.308 778.744C307.225 777.854 306.38 775.685 307.273 774.598C308.165 773.513 310.826 773.473 311.909 774.363Z" fill="white"/>
<path fill-rule="evenodd" clip-rule="evenodd" d="M326.807 756.232C327.891 757.122 327.677 759.173 326.785 760.259C325.892 761.345 324.29 761.504 323.206 760.613C322.123 759.724 321.278 757.554 322.171 756.468C323.063 755.382 325.724 755.342 326.807 756.232Z" fill="white"/>
<path fill-rule="evenodd" clip-rule="evenodd" d="M334.256 747.166C335.34 748.057 335.126 750.107 334.234 751.193C333.341 752.28 331.74 752.439 330.656 751.548C329.573 750.658 328.727 748.489 329.62 747.402C330.513 746.316 333.173 746.276 334.256 747.166Z" fill="white"/>
<path fill-rule="evenodd" clip-rule="evenodd" d="M341.706 738.101C342.789 738.991 342.576 741.042 341.683 742.127C340.79 743.214 339.189 743.373 338.105 742.482C337.022 741.592 336.177 739.423 337.07 738.336C337.962 737.251 340.623 737.211 341.706 738.101Z" fill="white"/>
<path fill-rule="evenodd" clip-rule="evenodd" d="M349.155 729.035C350.238 729.926 350.025 731.975 349.132 733.062C348.239 734.149 346.638 734.308 345.554 733.417C344.471 732.527 343.626 730.358 344.519 729.271C345.412 728.184 348.072 728.145 349.155 729.035Z" fill="white"/>
<path fill-rule="evenodd" clip-rule="evenodd" d="M356.604 719.97C357.688 720.86 357.475 722.91 356.582 723.997C355.689 725.082 354.087 725.242 353.003 724.351C351.92 723.462 351.076 721.291 351.968 720.205C352.861 719.119 355.521 719.08 356.604 719.97Z" fill="white"/>
<path fill-rule="evenodd" clip-rule="evenodd" d="M364.053 710.904C365.137 711.795 364.923 713.845 364.031 714.931C363.138 716.018 361.536 716.177 360.452 715.286C359.369 714.396 358.524 712.227 359.417 711.14C360.309 710.054 362.97 710.015 364.053 710.904Z" fill="white"/>
<path fill-rule="evenodd" clip-rule="evenodd" d="M371.502 701.839C372.586 702.73 372.373 704.779 371.48 705.866C370.587 706.952 368.986 707.111 367.902 706.221C366.819 705.331 365.973 703.161 366.866 702.075C367.759 700.988 370.419 700.949 371.502 701.839Z" fill="white"/>
<path fill-rule="evenodd" clip-rule="evenodd" d="M312.765 790.253C313.848 791.142 313.635 793.193 312.743 794.279C311.85 795.366 310.247 795.524 309.164 794.634C308.08 793.744 307.235 791.574 308.128 790.487C309.02 789.402 311.681 789.362 312.765 790.253Z" fill="white"/>
<path fill-rule="evenodd" clip-rule="evenodd" d="M320.214 781.187C321.297 782.077 321.084 784.128 320.192 785.214C319.299 786.301 317.696 786.459 316.613 785.569C315.53 784.678 314.684 782.509 315.577 781.422C316.469 780.336 319.13 780.297 320.214 781.187Z" fill="white"/>
<path fill-rule="evenodd" clip-rule="evenodd" d="M327.662 772.123C328.745 773.013 328.533 775.063 327.64 776.149C326.748 777.235 325.145 777.394 324.062 776.504C322.978 775.614 322.133 773.443 323.026 772.358C323.919 771.271 326.579 771.232 327.662 772.123Z" fill="white"/>
<path fill-rule="evenodd" clip-rule="evenodd" d="M335.112 763.056C336.195 763.946 335.982 765.997 335.09 767.083C334.197 768.17 332.595 768.328 331.512 767.438C330.428 766.547 329.582 764.378 330.475 763.291C331.368 762.206 334.028 762.166 335.112 763.056Z" fill="white"/>
<path fill-rule="evenodd" clip-rule="evenodd" d="M342.562 753.991C343.645 754.881 343.432 756.932 342.539 758.018C341.646 759.104 340.044 759.262 338.961 758.372C337.877 757.482 337.032 755.312 337.925 754.226C338.817 753.14 341.478 753.1 342.562 753.991Z" fill="white"/>
<path fill-rule="evenodd" clip-rule="evenodd" d="M350.011 744.925C351.094 745.815 350.881 747.866 349.989 748.952C349.096 750.039 347.493 750.197 346.41 749.307C345.326 748.416 344.481 746.247 345.374 745.16C346.266 744.074 348.927 744.035 350.011 744.925Z" fill="white"/>
<path fill-rule="evenodd" clip-rule="evenodd" d="M357.46 735.86C358.543 736.75 358.331 738.8 357.438 739.887C356.545 740.973 354.942 741.131 353.859 740.242C352.776 739.351 351.93 737.182 352.823 736.095C353.716 735.008 356.376 734.969 357.46 735.86Z" fill="white"/>
<path fill-rule="evenodd" clip-rule="evenodd" d="M372.358 717.729C373.441 718.619 373.228 720.67 372.336 721.756C371.443 722.843 369.841 723.001 368.758 722.111C367.674 721.22 366.828 719.051 367.721 717.964C368.614 716.878 371.274 716.838 372.358 717.729Z" fill="white"/>
<path fill-rule="evenodd" clip-rule="evenodd" d="M328.519 788.012C329.602 788.902 329.389 790.953 328.497 792.039C327.604 793.125 326.002 793.283 324.919 792.393C323.835 791.503 322.989 789.333 323.882 788.247C324.775 787.161 327.435 787.121 328.519 788.012Z" fill="white"/>
<path fill-rule="evenodd" clip-rule="evenodd" d="M335.968 778.947C337.051 779.837 336.838 781.887 335.945 782.974C335.053 784.06 333.45 784.219 332.367 783.329C331.283 782.438 330.439 780.268 331.331 779.182C332.224 778.095 334.884 778.057 335.968 778.947Z" fill="white"/>
<path fill-rule="evenodd" clip-rule="evenodd" d="M350.867 760.815C351.95 761.705 351.737 763.756 350.845 764.842C349.952 765.929 348.349 766.087 347.266 765.197C346.183 764.306 345.337 762.137 346.23 761.05C347.122 759.964 349.783 759.925 350.867 760.815Z" fill="white"/>
<path fill-rule="evenodd" clip-rule="evenodd" d="M358.316 751.75C359.399 752.64 359.186 754.691 358.294 755.777C357.401 756.863 355.799 757.021 354.716 756.131C353.632 755.241 352.786 753.071 353.679 751.985C354.571 750.899 357.232 750.859 358.316 751.75Z" fill="white"/>
<path fill-rule="evenodd" clip-rule="evenodd" d="M365.765 742.684C366.848 743.574 366.636 745.625 365.743 746.711C364.85 747.798 363.248 747.956 362.165 747.066C361.081 746.175 360.235 744.006 361.128 742.919C362.021 741.833 364.681 741.794 365.765 742.684Z" fill="white"/>
<path fill-rule="evenodd" clip-rule="evenodd" d="M373.214 733.619C374.297 734.509 374.085 736.559 373.192 737.646C372.3 738.731 370.697 738.89 369.614 738.001C368.53 737.11 367.685 734.94 368.578 733.854C369.471 732.767 372.131 732.728 373.214 733.619Z" fill="white"/>
<path fill-rule="evenodd" clip-rule="evenodd" d="M336.824 794.836C337.907 795.725 337.694 797.777 336.801 798.862C335.908 799.949 334.306 800.107 333.223 799.217C332.139 798.327 331.294 796.157 332.187 795.071C333.079 793.985 335.74 793.945 336.824 794.836Z" fill="white"/>
<path fill-rule="evenodd" clip-rule="evenodd" d="M344.272 785.771C345.355 786.661 345.143 788.711 344.25 789.798C343.358 790.884 341.755 791.043 340.672 790.153C339.588 789.262 338.743 787.092 339.635 786.006C340.528 784.919 343.188 784.88 344.272 785.771Z" fill="white"/>
<path fill-rule="evenodd" clip-rule="evenodd" d="M351.722 776.705C352.805 777.595 352.592 779.646 351.7 780.731C350.807 781.818 349.204 781.976 348.121 781.086C347.038 780.196 346.192 778.026 347.085 776.94C347.977 775.854 350.638 775.814 351.722 776.705Z" fill="white"/>
<path fill-rule="evenodd" clip-rule="evenodd" d="M366.621 758.574C367.704 759.463 367.491 761.515 366.598 762.6C365.705 763.687 364.103 763.845 363.02 762.955C361.936 762.065 361.091 759.895 361.984 758.808C362.876 757.723 365.537 757.683 366.621 758.574Z" fill="white"/>
<path fill-rule="evenodd" clip-rule="evenodd" d="M374.07 749.508C375.153 750.398 374.94 752.449 374.047 753.535C373.154 754.622 371.552 754.78 370.469 753.89C369.385 752.999 368.54 750.83 369.433 749.743C370.325 748.657 372.986 748.618 374.07 749.508Z" fill="white"/>
</g>
</svg>
